<svg width="30" height="31" viewBox="0 0 30 31" fill="none" xmlns="http://www.w3.org/2000/svg">
<rect x="7.02023" width="4.77337" height="31" rx="2.38668" fill="black"/>
<rect width="4.04108" height="7.94872" transform="matrix(0.00646077 -0.999979 0.999953 -0.00974318 0.733948 17.9358)" fill="black"/>
<path d="M15.4255 4.35226C17.2817 4.3584 19.1185 4.66397 20.8308 5.2515C22.5432 5.83904 24.0976 6.69704 25.4053 7.77652C26.713 8.856 27.7484 10.1358 28.4524 11.5429C29.1564 12.95 29.5152 14.4568 29.5083 15.9773C29.5015 17.4977 29.129 19.0021 28.4123 20.4045C27.6956 21.8069 26.6486 23.0798 25.3312 24.1506C24.0137 25.2214 22.4516 26.0691 20.734 26.6453C19.0164 27.2215 17.1769 27.5149 15.3206 27.5087L15.3362 24.0721C16.6415 24.0765 17.935 23.8702 19.1428 23.465C20.3506 23.0598 21.449 22.4637 22.3755 21.7108C23.3019 20.9578 24.0381 20.0627 24.5421 19.0766C25.0461 18.0904 25.308 17.0326 25.3128 15.9634C25.3176 14.8942 25.0653 13.8346 24.5703 12.8452C24.0752 11.8558 23.3472 10.9558 22.4276 10.1967C21.508 9.43765 20.415 8.83431 19.2109 8.42116C18.0068 8.00802 16.7152 7.79315 15.4099 7.78883L15.4255 4.35226Z" fill="black"/>
<ellipse cx="18.0856" cy="15.5001" rx="4.99034" ry="4.19412" fill="black"/>
</svg>
