<svg width="37" height="39" viewBox="0 0 37 39" fill="none" xmlns="http://www.w3.org/2000/svg">
<rect x="8.64244" width="6.00521" height="39" rx="3.0026" fill="black"/>
<rect width="5.08394" height="10" transform="matrix(0.00646077 -0.999979 0.999953 -0.00974318 0.733948 22.5643)" fill="black"/>
<path d="M19.2169 5.47551C21.5522 5.48324 23.8629 5.86765 26.0172 6.60681C28.1714 7.34597 30.1269 8.42539 31.7721 9.78345C33.4173 11.1415 34.7199 12.7516 35.6056 14.5218C36.4913 16.292 36.9427 18.1877 36.9341 20.1005C36.9254 22.0134 36.4568 23.906 35.5552 25.6703C34.6535 27.4346 33.3363 29.036 31.6789 30.3831C30.0214 31.7302 28.0562 32.7967 25.8953 33.5216C23.7345 34.2464 21.4203 34.6156 19.085 34.6078L19.1046 30.2844C20.7467 30.2898 22.374 30.0303 23.8935 29.5206C25.413 29.0108 26.7949 28.2609 27.9604 27.3136C29.1259 26.3663 30.0521 25.2402 30.6862 23.9996C31.3202 22.759 31.6497 21.4281 31.6558 20.083C31.6619 18.738 31.3445 17.405 30.7217 16.1602C30.0989 14.9154 29.1829 13.7832 28.026 12.8282C26.8691 11.8733 25.494 11.1142 23.9792 10.5944C22.4644 10.0747 20.8395 9.80437 19.1973 9.79893L19.2169 5.47551Z" fill="black"/>
<ellipse cx="22.5636" cy="19.5" rx="6.27817" ry="5.27647" fill="black"/>
</svg>
