<svg width="362" height="362" viewBox="0 0 362 362" fill="none" xmlns="http://www.w3.org/2000/svg">
<rect width="362" height="362" fill="#EEEEEE"/>
<path fill-rule="evenodd" clip-rule="evenodd" d="M195.465 314.145C260.431 314.145 269.641 285.243 279.491 279.932C289.342 274.621 283.218 263.962 289.678 255.923C299.997 243.082 306.252 249.7 309.667 233.041C313.082 216.383 306.874 211.67 306.874 196.797C306.874 166.999 321.148 152.894 302.919 137.303C284.69 121.712 254.25 123.552 224.143 123.552C168.261 123.552 134.784 46.9472 60.2519 69.9294C34.5665 77.8496 37.4053 88.6429 43.0491 126.786C45.4999 143.35 26.9953 164.409 30.206 183.232C36.0698 217.61 51.5565 212.946 80.7763 236.157C85.6783 240.051 92.828 240.011 98.1721 244.005C107.131 250.7 107.708 261.111 124.457 268.134C151.466 279.457 149.175 314.145 195.465 314.145Z" fill="black"/>
<ellipse cx="71.269" cy="225.405" rx="16.425" ry="15.4453" fill="#EEEEEE"/>
<path fill-rule="evenodd" clip-rule="evenodd" d="M64.8277 170.336C62.0276 163.343 64.4735 159.153 66.0413 153.684C67.3509 149.115 77.5923 141.694 82.3057 149.432C83.6924 151.709 83.1361 153.861 86.1667 155.861C93.5031 160.705 89.5009 150.656 89.7737 148.116C89.9068 146.877 88.8599 144.02 89.2496 142.824C89.6586 141.569 91.8383 139.787 91.8383 137.186C91.8383 134.585 87.4045 133.583 86.1667 132.944C75.1678 127.265 68.1728 117.78 71.6587 112.966C76.5155 106.259 95.5499 116.812 101.269 117.78C101.343 117.792 102.365 112.46 103.199 111.239C104.868 108.796 106.713 106.425 108.914 104.448C109.899 103.562 111.236 103.015 112.549 102.838C116.48 102.308 120.501 101.873 124.438 102.353C125.829 102.523 134.114 92.9342 137.344 89.8412C162.129 66.111 211.814 95.0287 184.731 134.324C179.753 141.546 173.388 143.843 172.566 146.395C170.74 152.065 182.235 151.319 187.104 151.925C195.423 152.96 199.523 157.233 194.359 164.557C191.142 169.12 172.27 168.887 164.003 165.588C160.935 164.363 157.143 159.008 154.243 163.401C152.245 166.427 144.454 172.848 136.097 176.48C132.325 178.119 128.028 177.131 124.809 178.595C120.278 180.656 106.903 189.309 101.269 189.307C95.5957 189.305 88.2538 182.477 87.4045 182.029C86.1098 181.346 76.0947 179.39 71.1472 171.755C69.651 169.446 65.8526 172.896 64.8277 170.336Z" fill="#EEEEEE"/>
<ellipse cx="161.159" cy="129.797" rx="1.73993" ry="1.71506" fill="#FFB61D"/>
<circle cx="148.42" cy="126.217" r="1.68933" fill="#FFB61D"/>
<circle cx="271.5" cy="124.769" r="22.9267" fill="#EEEEEE"/>
<ellipse cx="199.812" cy="254.834" rx="66.62" ry="56.9406" fill="#EEEEEE"/>
<path fill-rule="evenodd" clip-rule="evenodd" d="M143.333 285.881L144.081 286.423C142.394 287.937 139.855 286.054 138.432 284.289C136.143 281.451 133.82 278.435 133.124 274.857C132.727 272.821 132.886 270.722 133.046 268.654L133.692 260.315C133.978 256.619 134.265 252.917 134.904 249.266C136.636 239.385 140.994 229.977 147.411 222.267L147.476 222.189C148.609 220.828 149.846 219.342 149.825 217.578C149.778 213.844 151.928 210.356 154.751 207.912C157.574 205.468 161.03 203.9 164.433 202.365C165.975 201.67 167.988 201.047 169.183 202.244C171.641 204.706 175.743 203.137 178.989 201.887C182.975 200.352 187.232 199.524 191.503 199.455C191.627 199.453 191.753 199.452 191.879 199.45L191.879 199.45C194.443 199.413 197.329 199.372 198.894 197.385C199.89 196.121 201.794 196.194 203.393 196.385L214.387 197.7C215.228 197.801 216.234 198.03 216.499 198.834C217.21 200.988 219.715 201.868 221.887 202.523C229.61 204.851 237.158 208.012 243.714 212.711C250.27 217.409 255.812 223.729 258.752 231.24C253.971 224.706 249.067 218.049 242.432 213.409C240.534 212.081 238.514 210.934 236.465 209.854C231.627 207.303 226.592 205.105 221.362 203.509C197.081 196.097 168.993 202.971 150.879 220.758C148.252 223.337 145.79 226.177 144.3 229.543L146.268 230.154C143.149 231.548 140.833 234.602 140.331 237.981C141.586 235.831 143.375 233.996 145.492 232.686C144.886 234.71 143.31 236.336 141.766 237.93C139.797 239.962 137.879 241.942 138.082 244.626C139.017 242.173 141.372 240.322 143.976 239.992C139.845 244.028 135.413 248.764 135.544 254.538C137.051 251.204 139.61 248.355 142.763 246.499L138.223 252.599C136.507 254.906 134.699 257.542 135.091 260.391C136.585 257.711 138.72 255.391 141.267 253.681C140.041 256.471 138.289 259.029 136.132 261.182C138.183 260.934 140.159 260.085 141.749 258.765C141.082 259.696 140.482 260.747 140.459 261.892C140.437 263.037 141.179 264.265 142.312 264.43C142.655 263.663 143.731 263.339 144.44 263.789C142.29 265.882 142.268 269.759 144.394 271.876C144.583 270.881 145.422 270.042 146.418 269.854C144.831 272.628 144.546 276.11 145.66 279.105C145.997 277.408 146.938 275.838 148.276 274.741C147.505 278.766 145.8 282.609 143.333 285.881ZM142.394 284.599C143.737 284.585 144.572 283.083 144.712 281.747C144.88 280.15 144.483 278.552 144.089 276.995L141.753 267.755C141.313 267.895 141.262 268.373 141.209 268.874C141.163 269.302 141.116 269.746 140.823 270.009C140.232 269.274 140.165 268.161 140.663 267.36C141.167 266.551 140.838 265.418 140.123 264.788C139.409 264.158 138.416 263.943 137.463 263.912C136.949 263.895 136.402 263.935 135.981 264.231C135.56 264.527 135.338 265.157 135.637 265.576C136.527 266.824 137.197 268.228 137.606 269.705C137.637 269.815 137.666 269.927 137.696 270.039C137.899 270.806 138.109 271.595 138.67 272.141C139.103 272.564 139.214 273.209 139.302 273.808L140.016 278.663C140.145 279.546 140.275 280.448 140.127 281.328C139.978 282.209 139.502 283.082 138.703 283.482L141.254 284.35C141.624 284.476 142.003 284.603 142.394 284.599ZM170.198 205.023C169.695 205.129 169.274 204.687 168.914 204.31L168.872 204.267C168.503 203.881 167.869 203.545 167.481 203.911C162.954 208.17 157.802 211.764 152.241 214.542C151.232 215.047 151.096 216.406 151.096 217.534C151.096 217.911 151.456 218.44 151.691 218.145C152.838 216.709 154.329 215.594 155.802 214.495C159.949 211.404 164.145 208.283 168.898 206.245C169.475 205.998 170.15 205.648 170.198 205.023ZM215.7 200.233C215.444 199.631 214.714 199.413 214.071 199.292C212.319 198.962 210.535 198.812 208.753 198.663C206.306 198.458 203.862 198.253 201.508 197.581C200.753 197.366 200.108 198.13 199.694 198.797C200.935 198.667 202.184 198.614 203.432 198.637C205.603 198.677 207.763 198.948 209.918 199.218C211.013 199.355 212.115 199.494 213.165 199.833C213.287 199.873 213.411 199.915 213.535 199.958L213.535 199.958C214.252 200.204 214.993 200.459 215.7 200.233ZM192.522 209.487C193.018 209.6 193.491 209.971 193.565 210.475C193.639 210.977 193.296 211.467 192.857 211.722C192.418 211.978 191.9 212.05 191.397 212.116L189.881 212.317C189.73 212.337 189.573 212.359 189.441 212.437C189.06 212.662 189.087 213.273 189.398 213.588C189.709 213.903 190.187 213.981 190.63 213.98C192.691 213.976 194.642 212.493 195.271 210.53C195.421 210.064 195.5 209.546 195.315 209.093C195.221 208.863 195.064 208.664 194.89 208.487C194.079 207.665 192.871 207.303 191.72 207.385C190.569 207.466 189.474 207.956 188.537 208.63C188.088 208.953 187.66 209.332 187.405 209.823C187.15 210.314 187.095 210.937 187.381 211.41C187.49 211.591 187.658 211.751 187.866 211.785C188.074 211.819 188.315 211.685 188.34 211.475C188.412 210.893 188.837 210.402 189.343 210.106C189.85 209.81 190.433 209.68 191.008 209.565C191.508 209.465 192.025 209.374 192.522 209.487ZM151.903 238.277C152.47 234.927 155.175 232.204 158.33 230.942C160.068 230.247 162.057 229.942 163.805 230.612C164.236 230.777 164.654 231.005 164.965 231.347C165.257 231.668 165.441 232.073 165.579 232.485C166.467 235.119 165.566 238.165 163.658 240.187C161.75 242.208 158.972 243.269 156.199 243.468C155.311 243.531 154.357 243.495 153.624 242.991C152.89 242.486 152.526 241.364 153.091 240.676C153.358 240.689 153.502 240.927 153.649 241.171C153.722 241.292 153.796 241.414 153.886 241.511C154.194 241.842 154.703 241.866 155.155 241.847C157.121 241.765 159.117 241.277 160.717 240.132C162.317 238.987 163.467 237.117 163.434 235.149C163.423 234.515 163.285 233.867 162.926 233.344C162.336 232.486 161.222 232.099 160.183 232.168C159.145 232.236 158.171 232.697 157.287 233.246C156.123 233.968 155.048 234.876 154.319 236.035C153.589 237.194 153.233 238.627 153.541 239.961C153.269 240.453 152.458 240.355 152.123 239.903C151.789 239.451 151.81 238.832 151.903 238.277ZM170.01 265.886C168.571 266.812 167.379 268.26 167.157 269.956C166.977 271.328 167.437 272.695 167.89 274.002C168.244 275.023 168.61 276.065 169.283 276.909C170.5 278.434 172.515 279.065 174.441 279.374C174.965 279.459 175.761 279.222 175.574 278.725C173.541 278.687 171.541 277.745 170.217 276.201C168.894 274.657 168.269 272.536 168.544 270.521C168.601 270.097 168.698 269.675 168.876 269.286C169.236 268.499 169.908 267.894 170.635 267.424C172.2 266.413 174.105 265.939 175.961 266.099C177.75 266.254 179.538 267.038 180.631 268.464C181.723 269.89 181.983 271.994 181.019 273.509C180.863 273.756 180.748 274.191 181.036 274.243C182.588 273.407 183.449 271.563 183.362 269.802C183.275 268.041 182.345 266.394 181.068 265.179C180.361 264.507 179.525 263.939 178.577 263.711C177.327 263.41 176.019 263.72 174.776 264.047C173.122 264.482 171.448 264.961 170.01 265.886ZM240.652 268.073C235.451 266.131 229.799 265.407 224.276 265.976C221.96 266.214 219.637 266.687 217.555 267.729C213.626 269.695 210.818 273.742 210.35 278.11C209.883 282.478 211.772 287.028 215.196 289.78C216.494 290.824 217.967 291.606 219.443 292.388L219.443 292.388C220.45 292.923 221.458 293.457 222.412 294.076C222.685 294.337 222.072 294.597 221.713 294.481C218.377 293.404 215.137 291.766 212.757 289.192C209.862 286.06 208.45 281.613 209.009 277.385C209.567 273.157 212.085 269.228 215.694 266.956C218.549 265.158 221.961 264.401 225.333 264.279C228.704 264.158 232.065 264.639 235.399 265.156C237.481 265.478 239.922 266.097 240.652 268.073ZM185.922 274.59C185.686 274.049 184.737 273.908 184.563 274.473C183.46 278.063 179.956 280.778 176.204 280.95C175.355 280.989 174.507 280.91 173.662 280.828C171.841 280.652 169.964 280.444 168.37 279.548C166.078 278.259 164.699 275.613 164.683 272.984C164.667 270.354 165.914 267.799 167.808 265.974C167.545 265.238 166.416 265.594 165.856 266.139C162.75 269.158 162.217 274.369 164.396 278.112C166.576 281.856 171.143 283.954 175.448 283.478C179.754 283.002 183.641 280.119 185.642 276.278C185.915 275.754 186.159 275.132 185.922 274.59ZM158.961 292.772C158.26 295.462 158.193 298.315 158.769 301.034C159.027 302.254 159.055 302.926 159.06 303.052L159.061 303.07L159.061 303.073L159.061 303.074C159.061 303.074 159.062 303.066 159.062 303.052C159.068 302.926 159.099 302.251 159.362 301.03C159.951 298.305 159.811 295.427 158.961 292.772ZM162.687 294.399C161.691 296.488 161.815 299.072 163.006 301.056C163.273 301.502 163.476 301.864 163.626 302.131L163.626 302.131C163.827 302.491 163.932 302.678 163.969 302.666C164.009 302.652 163.966 302.4 163.878 301.873L163.878 301.873C163.842 301.662 163.8 301.406 163.752 301.104L162.687 294.399ZM165.493 297.066C165.07 298.4 165.381 299.941 166.288 301.007C167.214 302.094 167.517 302.443 167.234 301.043C166.947 299.613 166.348 298.247 165.493 297.066ZM246.681 281.898C245.409 287.006 241.345 290.875 237.405 294.365C237.585 294.753 238.167 294.613 238.54 294.404C242.531 292.157 245.76 288.497 247.234 284.161C248.707 279.825 248.341 274.843 246.015 270.898C245.82 270.567 245.571 270.215 245.194 270.141C244.817 270.067 244.382 270.504 244.604 270.818C246.839 273.984 247.618 278.138 246.681 281.898ZM189.305 235.787C189.295 234.979 189.306 234.105 189.794 233.46C190.466 232.574 191.74 232.481 192.853 232.465C193.349 232.458 193.852 232.452 194.335 232.567C195.363 232.811 196.182 233.57 196.912 234.335C197.074 234.504 197.246 234.713 197.206 234.944C197.156 235.23 196.798 235.361 196.513 235.303C196.324 235.264 196.155 235.17 195.985 235.076L195.985 235.076L195.984 235.076L195.984 235.076L195.984 235.075L195.984 235.075L195.984 235.075L195.984 235.075L195.984 235.075L195.984 235.075L195.984 235.075C195.898 235.028 195.813 234.98 195.725 234.94C194.702 234.471 193.5 234.985 192.581 235.635C192.437 235.737 192.281 235.868 192.278 236.045C192.274 236.223 192.426 236.361 192.57 236.466C193.811 237.375 195.4 237.796 196.929 237.62C197.295 237.579 197.724 237.445 197.819 237.089C197.856 236.95 197.841 236.787 197.828 236.629C197.804 236.365 197.782 236.116 198.004 236.024C198.12 235.977 198.251 236.011 198.371 236.046C199.199 236.287 200.166 236.674 200.326 237.52C200.373 237.765 200.34 238.02 200.262 238.256C200.034 238.948 199.399 239.489 198.679 239.603C198.36 239.654 198.034 239.627 197.711 239.599C196.869 239.527 196.026 239.454 195.192 239.32C193.66 239.073 192.161 238.617 190.752 237.967C190.263 237.742 189.754 237.464 189.507 236.986C189.318 236.623 189.309 236.196 189.305 235.787ZM220.774 215.865C220.281 214.534 219.091 213.483 217.71 213.16C217.282 213.06 216.799 213.035 216.437 213.283C216.074 213.531 215.949 214.134 216.295 214.405C216.63 214.668 216.428 215.286 216.018 215.402C215.609 215.519 215.168 215.241 214.964 214.867C214.759 214.494 214.737 214.05 214.735 213.624C214.732 213.056 214.783 212.422 215.203 212.039C215.363 211.893 215.563 211.799 215.76 211.711C216.578 211.345 217.482 211.035 218.356 211.231C219.189 211.418 219.853 212.033 220.434 212.659C220.91 213.172 221.361 213.709 221.783 214.267C222.155 214.759 222.513 215.283 222.653 215.884C222.792 216.485 222.672 217.182 222.208 217.588C221.753 217.986 221.055 218.02 220.503 217.774C220.016 217.557 219.6 217.08 219.636 216.548C219.673 216.016 220.326 215.574 220.774 215.865ZM225.169 253.285C226.39 253.25 227.528 252.31 227.792 251.117C227.952 250.391 227.754 249.528 227.122 249.138C226.66 248.853 226.079 248.874 225.538 248.908C224.788 248.956 224.009 249.022 223.357 249.396C222.706 249.771 222.221 250.547 222.425 251.27C222.757 252.446 223.947 253.32 225.169 253.285ZM225.325 251.523C225.089 251.586 224.753 251.526 224.731 251.282C224.722 251.181 224.777 251.085 224.839 251.005C225.186 250.555 225.847 250.381 226.371 250.6C226.189 251.046 225.791 251.398 225.325 251.523ZM225.956 233.449C225.757 232.99 226.143 232.455 226.611 232.279C226.986 232.138 227.393 232.153 227.798 232.167L227.798 232.167C227.898 232.171 227.999 232.175 228.098 232.176C228.599 232.182 229.151 232.099 229.476 231.718C229.59 231.584 229.668 231.386 229.581 231.233C229.49 231.073 229.274 231.045 229.09 231.035C227.815 230.969 226.309 231.008 225.574 232.052C225.416 232.277 225.03 232.201 224.882 231.97C224.734 231.738 224.768 231.435 224.852 231.174C225.153 230.238 226.017 229.557 226.962 229.285C227.906 229.012 228.92 229.098 229.878 229.315C230.202 229.388 230.537 229.484 230.773 229.717C230.96 229.901 231.065 230.154 231.133 230.408C231.46 231.622 230.978 233.012 229.97 233.763C228.962 234.515 227.492 234.579 226.422 233.92C226.231 233.802 226.045 233.655 225.956 233.449ZM221.585 254.898C222.177 255.608 222.879 256.253 223.73 256.614C225.449 257.344 227.648 256.67 228.662 255.101C229.031 254.53 229.197 253.658 228.65 253.253C227.775 255.092 225.238 255.904 223.458 254.914C223.116 254.725 222.807 254.482 222.525 254.213C221.244 252.987 220.577 250.985 221.328 249.38C221.573 248.857 221.949 248.405 222.36 247.999C223.257 247.114 224.54 246.389 225.737 246.783C225.786 246.799 225.836 246.817 225.885 246.836L225.885 246.836C226.053 246.897 226.221 246.959 226.398 246.949C226.626 246.936 226.865 246.731 226.806 246.51C226.788 246.445 226.748 246.388 226.706 246.335C225.966 245.392 224.514 245.101 223.468 245.685C222.223 246.381 220.958 247.2 220.296 248.463C219.218 250.519 220.098 253.116 221.585 254.898ZM241.415 223.187C241.36 223.265 241.374 223.375 241.387 223.479C241.403 223.603 241.417 223.72 241.315 223.771C240.943 223.955 240.497 223.936 240.1 223.814C239.015 223.481 238.288 222.486 237.675 221.532C237.316 220.974 236.959 220.382 236.901 219.721C236.843 219.06 237.181 218.316 237.817 218.129C238.527 217.921 239.223 218.449 239.775 218.94C240.398 219.495 241.035 220.067 241.421 220.807C241.806 221.546 241.892 222.502 241.415 223.187ZM239.057 220.711C239.21 220.86 239.294 221.059 239.378 221.259C239.46 221.456 239.543 221.653 239.692 221.801C239.88 221.989 240.166 222.073 240.426 222.017C239.939 221.263 239.374 220.558 238.743 219.919C238.575 219.969 238.561 220.22 238.662 220.363C238.724 220.451 238.81 220.515 238.896 220.579L238.896 220.58C238.952 220.621 239.008 220.663 239.057 220.711ZM146.236 288.88C146.176 289.87 146.251 291.017 147.044 291.614C147.308 291.466 147.29 291.089 147.257 290.788C147.052 288.937 147.626 287.154 148.204 285.358C148.618 284.073 149.034 282.781 149.167 281.455C149.206 281.07 149.103 280.543 148.717 280.528C148.427 280.517 148.241 280.823 148.124 281.088C147.041 283.547 146.399 286.198 146.236 288.88ZM223.109 253.168C224.003 253.564 224.994 253.967 225.93 253.683C226.302 253.57 226.633 253.355 226.959 253.143C226.958 253.69 226.488 254.149 225.963 254.305C225.439 254.462 224.876 254.378 224.341 254.262C223.747 254.134 223.021 253.769 223.109 253.168ZM152.38 298.812C152.608 298.406 152.646 297.924 152.68 297.459L152.95 293.757C153.083 291.94 153.215 290.116 153.097 288.299C153.082 288.069 153.058 287.828 152.925 287.641C152.791 287.454 152.508 287.355 152.325 287.493C152.19 287.595 152.156 287.78 152.133 287.947C151.84 290.049 151.683 292.17 151.664 294.292C151.651 295.831 151.721 297.421 152.38 298.812ZM148.333 295.63C148.096 295.831 147.701 295.655 147.571 295.373C147.44 295.091 147.493 294.763 147.549 294.457C148.135 291.262 148.799 288.082 149.542 284.92C149.56 284.84 149.58 284.758 149.631 284.695C149.827 284.453 150.222 284.696 150.361 284.975C150.701 285.657 150.538 286.471 150.368 287.214L148.538 295.195C148.501 295.354 148.458 295.525 148.333 295.63ZM154.671 295.772C154.569 296.971 154.749 298.173 154.928 299.362C154.992 299.786 155.297 300.349 155.679 300.156L156.425 292.183C156.455 291.859 156.476 291.499 156.275 291.243C156.074 290.986 155.564 290.997 155.5 291.316L154.95 294.05C154.836 294.621 154.721 295.193 154.671 295.772ZM231.665 271.336C229.542 270.243 226.958 269.812 224.753 270.728C223.106 271.412 218.451 274.366 217.832 278.152C217.417 280.686 217.421 283.276 218.309 285.723L218.451 286.107C218.715 286.8 219.557 287.597 220.028 287.023C218.654 284.539 218.397 281.464 219.34 278.786C220.283 276.109 222.411 273.873 225.039 272.799C225.592 272.573 226.169 272.395 226.764 272.339C227.966 272.225 229.167 272.614 230.242 273.165C232.556 274.351 235.424 276.323 236.526 278.679C237.588 280.95 238.37 283.659 237.409 285.975C236.448 288.291 230.134 289.966 230.134 289.966L230.832 291.242C230.832 291.242 234.367 290.544 236.526 288.972C245.589 282.371 233.695 272.381 231.665 271.336Z" fill="#00160A"/>
<path fill-rule="evenodd" clip-rule="evenodd" d="M71.4592 238.745C68.254 239.088 64.8592 238.347 62.3566 236.315C60.5842 234.876 59.3388 232.874 58.4649 230.765C57.5161 228.475 56.9706 226.019 56.8609 223.542C56.8197 222.61 56.8418 221.661 57.1158 220.769C57.5667 219.3 58.6525 218.122 59.761 217.059C62.1191 214.798 64.8909 212.734 68.1235 212.258C70.3263 211.934 72.567 212.376 74.7231 212.931C76.4165 213.367 78.1078 213.881 79.631 214.739C82.9967 216.637 85.3291 220.256 85.6665 224.106C86.0039 227.955 85.5888 230.505 80.3944 235.287C77.6952 237.05 74.6644 238.401 71.4592 238.745ZM77.1115 226.662C76.5917 226.826 76.0735 227.116 75.5369 227.021C74.4405 226.828 74.2443 225.324 74.4877 224.238C75.1846 221.128 77.3522 218.382 80.2148 216.982C79.5668 215.806 77.8454 215.72 76.6279 216.285C75.4103 216.85 74.4586 217.868 73.2812 218.512C72.6952 218.833 72.0008 219.06 71.3634 218.86C70.3146 218.532 69.9142 217.158 70.2576 216.114C70.6009 215.07 71.4579 214.291 72.2808 213.562C69.2991 213.667 66.3486 214.562 63.8112 216.131C61.8248 217.36 59.9406 219.374 60.2042 221.695C61.8466 220.373 63.7749 219.408 65.8176 218.886C66.2508 218.776 66.7946 218.72 67.0658 219.076C67.2711 219.345 67.2122 219.732 67.0806 220.045C66.4277 221.593 64.5075 222.112 63.3166 223.298C63.1602 223.454 63.0103 223.634 62.9724 223.851C62.8982 224.277 63.3042 224.666 63.7308 224.737C64.1574 224.808 64.5856 224.653 64.9902 224.5C65.8305 224.183 66.6708 223.866 67.5111 223.549C68.1195 223.319 68.8417 223.1 69.3826 223.461C69.9423 223.834 69.995 224.683 69.6787 225.276C69.3624 225.87 68.7818 226.268 68.2231 226.642C66.8764 227.545 65.5297 228.448 64.183 229.35C63.0554 230.106 61.7922 231.125 61.8993 232.478C62.0002 233.752 63.4014 234.617 64.6765 234.535C65.9516 234.454 67.0737 233.674 68.0147 232.81C68.9558 231.945 69.8052 230.959 70.898 230.297C71.6111 229.865 72.6286 229.625 73.2079 230.224C73.6555 230.688 73.6123 231.432 73.4443 232.054C72.9602 233.847 71.6513 235.398 69.9661 236.177C71.3372 236.493 72.767 236.553 74.1597 236.352C74.954 236.238 75.7762 236.017 76.3506 235.457C76.925 234.896 77.1474 233.91 76.6491 233.281C75.906 232.342 75.9355 230.969 76.4103 229.871C76.8851 228.772 77.7333 227.884 78.5641 227.023C78.3263 226.532 77.6314 226.499 77.1115 226.662ZM83.4592 228.792C84.2059 227.066 84.233 225.115 84.044 223.244C83.8348 221.175 83.1135 218.809 81.1643 218.084C78.3079 219.269 76.1036 221.914 75.4523 224.938C75.3976 225.192 75.3547 225.465 75.4547 225.705C75.5546 225.945 75.8516 226.12 76.0818 225.999C76.8715 225.585 77.8428 225.35 78.6456 225.738C79.4485 226.126 79.8394 227.336 79.1893 227.946C78.4711 228.62 77.7334 229.321 77.3459 230.227C76.9584 231.133 77.0142 232.305 77.7438 232.967C78.292 233.464 78.2934 234.441 77.7466 234.94C79.3013 234.486 80.4091 233.149 81.4173 231.881C82.188 230.912 82.9676 229.929 83.4592 228.792ZM65.5617 219.867C63.9445 220.538 62.3747 221.323 60.8679 222.215C60.5095 222.427 60.1474 222.651 59.8853 222.975C59.5315 223.412 59.3971 223.982 59.2878 224.533C58.9346 226.315 58.7524 228.234 59.5007 229.889C59.7395 230.417 60.066 230.9 60.3908 231.38C60.4867 231.522 60.5955 231.674 60.7599 231.721C60.9242 231.769 61.1412 231.637 61.1026 231.47C60.9837 230.956 61.3728 230.473 61.7568 230.111C64.0058 227.994 67.0357 226.779 69.0582 224.445C68.7514 224.081 68.1694 224.252 67.732 224.439C66.6901 224.884 65.6157 225.253 64.5203 225.542C63.9553 225.691 63.3255 225.812 62.8098 225.537C62.055 225.135 61.9322 224.034 62.3309 223.277C62.7295 222.52 63.4874 222.032 64.2183 221.588C64.9492 221.143 65.716 220.68 66.1546 219.945C66.0748 219.736 65.7684 219.782 65.5617 219.867ZM71.0966 234.049C71.8113 233.475 72.5835 232.797 72.6614 231.884C72.7022 231.406 72.3958 230.822 71.9186 230.868C71.7719 230.882 71.638 230.954 71.5115 231.03C69.4332 232.271 68.0654 234.699 65.7209 235.303C66.3834 235.599 67.0742 235.833 67.7808 235.998C67.9912 236.048 68.2104 236.091 68.422 236.048C68.6683 235.997 68.8744 235.834 69.0704 235.677C69.7458 235.134 70.4212 234.591 71.0966 234.049ZM73.0294 214.201C72.5669 214.712 72.1044 215.224 71.642 215.735C71.2756 216.141 70.8826 216.675 71.0866 217.182C71.2368 217.555 71.6804 217.744 72.0816 217.713C72.4828 217.682 72.8482 217.476 73.1847 217.256C74.3836 216.469 75.4631 215.398 76.8623 215.083C75.8921 214.73 74.922 214.376 73.9519 214.023C73.7499 213.949 73.5246 213.875 73.3259 213.957C73.2066 214.007 73.1159 214.105 73.0294 214.201Z" fill="#00160A"/>
<path fill-rule="evenodd" clip-rule="evenodd" d="M91.0825 153.101C90.9615 155.525 89.0915 158.149 86.6816 157.863C85.5939 156.605 84.7426 155.043 83.9013 153.5C82.2855 150.537 80.7065 147.64 77.5606 147.091C74.4707 146.551 71.5931 148.823 69.6687 151.3C66.8815 154.888 65.0804 159.234 64.5126 163.741C64.1788 166.391 65.2655 170.066 67.9204 169.774C70.9529 169.441 73.1095 171.826 75.303 174.253C77.3332 176.498 79.395 178.779 82.212 178.971C85.5662 179.2 88.306 181.209 91.0794 183.244C92.9318 184.602 94.799 185.972 96.8744 186.829C100.778 188.442 105.281 188.13 109.266 186.729C113.251 185.328 116.797 182.916 120.154 180.351L120.33 180.217L120.33 180.217C122.162 178.815 124.081 177.349 126.359 177.04C138.01 175.462 148.846 168.628 155.291 158.795C164.428 166.099 177.203 168.595 188.418 165.268C190.321 164.704 192.236 163.947 193.647 162.551C195.058 161.155 195.858 158.988 195.165 157.128C194.406 155.094 192.139 154.006 189.985 153.744C188.804 153.6 187.613 153.643 186.422 153.685H186.422H186.422H186.422H186.422C185.44 153.72 184.457 153.755 183.479 153.686C177.555 153.267 172.622 149.181 168.137 145.289C174.636 143.296 179.905 138.288 183.385 132.448C186.864 126.609 188.729 119.956 190.145 113.307C190.891 109.808 191.444 105.867 189.446 102.9C188.551 101.572 187.239 100.601 185.932 99.6339C184.46 98.5446 182.994 97.4595 182.136 95.8738C180.485 92.8237 177.268 91.015 174.216 89.3674C166.23 85.0556 157.056 80.6178 148.449 83.4974C145.097 84.6191 142.201 86.7684 139.377 88.8956C134.688 92.428 129.665 96.5716 128.772 102.374C121.1 98.9414 111.174 101.683 106.351 108.566C105.248 110.141 104.401 111.877 103.555 113.611C102.558 115.653 101.564 117.693 100.153 119.463C94.488 116.882 88.7158 114.536 82.8564 112.433C80.2586 111.5 77.1553 110.676 74.9165 112.29C73.1214 113.585 72.5708 116.125 73.0977 118.275C73.6246 120.424 75.0313 122.246 76.5398 123.866C79.8125 127.379 83.7437 130.276 88.0679 132.362C88.207 132.43 88.3472 132.496 88.4878 132.563L88.4888 132.564C89.8428 133.209 91.2346 133.872 92.1362 135.056C93.1317 136.363 93.1934 138.55 91.7979 139.418C89.7367 140.699 89.3572 143.573 89.7797 145.963C89.9241 146.78 90.136 147.589 90.3476 148.397C90.7554 149.953 91.1621 151.505 91.0825 153.101ZM147.042 165.88C141.848 171.334 134.54 174.524 127.066 175.457C119.593 176.39 111.962 175.177 104.824 172.778C106.744 172.777 108.133 170.263 107.111 168.637C103.177 173.223 97.1787 175.371 91.4633 177.332C86.2998 179.104 80.1281 177.817 76.3353 173.891C72.5424 169.965 71.5161 163.522 74.1833 158.759C75.3427 156.689 77.3092 154.887 79.6734 154.684C82.0376 154.48 84.5833 156.441 84.364 158.803C83.0484 158.575 81.664 159.692 81.6098 161.026C86.6993 160.478 91.484 157.562 94.3035 153.289C95.2767 151.815 96.0163 150.209 96.7565 148.601L96.7565 148.601L96.7565 148.601L96.7566 148.601L96.7566 148.601C97.2535 147.521 97.7507 146.441 98.3192 145.4C99.7342 142.808 101.766 140.338 104.582 139.447C106.841 138.732 109.284 139.129 111.62 139.532L121.996 141.321C122.773 140.65 121.515 139.576 120.511 139.366C117.268 138.688 113.98 138.271 110.691 137.853L110.691 137.853C107.642 137.466 104.592 137.079 101.578 136.484C95.3136 135.248 89.0175 132.987 84.4578 128.517C87.5507 126.738 89.9038 123.715 90.8693 120.28C91.0646 119.585 90.5993 118.443 90.0349 118.893C89.3902 121.123 88.6913 123.449 87.0758 125.116C85.4604 126.783 82.6249 127.515 80.7964 126.085C78.4228 124.229 75.9273 122.203 74.9886 119.34C74.0499 116.477 75.5348 112.631 78.5277 112.28C79.871 112.122 81.1842 112.677 82.423 113.221L94.9207 118.699C98.6403 120.329 102.415 121.976 106.433 122.568C109.255 122.983 112.124 122.867 114.973 122.749L123.05 122.416C123.38 122.402 123.719 122.387 124.023 122.257C124.835 121.911 125.11 120.92 125.289 120.056C127.456 109.597 130.369 98.5589 138.247 91.3461C141.772 88.1186 146.164 85.8463 150.835 84.8325C155.439 83.8333 160.519 84.1271 164.483 86.6735C157.833 87.1629 151.376 89.967 146.479 94.4919C144.422 92.2956 140.593 94.0908 138.952 96.6136C136.408 100.524 136.454 105.957 139.064 109.823C141.261 113.078 142.076 116.962 142.892 120.855C143.643 124.432 144.395 128.017 146.223 131.129C149.115 136.051 154.501 139.211 160.125 140.191C165.75 141.17 171.581 140.147 176.927 138.142C170.944 144.11 161.386 146.174 153.473 143.208C152.896 142.991 152.323 142.75 151.748 142.508C149.93 141.742 148.106 140.974 146.156 140.997C147.298 142.207 148.757 143.115 150.347 143.606C148.514 146.685 146.591 149.711 144.58 152.678C144.323 153.057 144.03 153.462 143.59 153.59C143.1 153.733 142.588 153.489 142.141 153.241C138.445 151.199 135.132 148.465 132.424 145.224L127.008 151.813C129.787 155.21 133.037 158.223 136.635 160.738C131.846 166.654 124.591 170.507 117.007 171.162C124.857 171.562 132.804 167.88 137.574 161.633C140.594 163.329 143.767 164.752 147.042 165.88ZM171.867 107.946C173.601 106.054 174.244 103.353 174.096 100.791C173.948 98.2287 173.086 95.7647 172.132 93.3822C174.617 93.0876 177.141 94.025 179.12 95.5557C181.1 97.0865 182.586 99.1693 183.806 101.354C185.284 104.003 186.417 106.866 186.909 109.859C188.067 116.907 185.595 124.092 182.076 130.306C181.392 131.513 180.657 132.711 179.66 133.675C178.655 134.645 177.42 135.342 176.153 135.93C170.928 138.358 164.917 139.059 159.273 137.898C162.876 134.898 165.42 130.766 167.041 126.367C168.661 121.968 169.403 117.292 169.83 112.624L169.832 112.598C169.94 111.42 170.053 110.183 170.724 109.211C170.946 108.889 171.221 108.61 171.496 108.331C171.621 108.204 171.747 108.077 171.867 107.946ZM165.347 127.39C163.792 131.027 161.384 134.366 158.119 136.598C157.736 136.859 157.326 137.111 156.866 137.165C156.46 137.212 156.053 137.1 155.663 136.977C152.887 136.101 150.264 134.548 148.483 132.245C147.837 131.41 147.309 130.488 146.839 129.542C143.411 122.655 143.075 114.298 145.939 107.157C146.076 106.816 146.272 106.433 146.632 106.362C147.098 106.269 147.456 106.746 147.718 107.143C149.857 110.385 153.858 112.026 157.739 112.196C161.62 112.366 165.437 111.263 169.117 110.02C168.446 111.66 168.275 113.446 168.106 115.216L168.106 115.219C168.085 115.441 168.064 115.663 168.041 115.883C167.647 119.819 166.902 123.754 165.347 127.39ZM164.557 93.6077C166.543 93.1562 168.86 93.032 170.377 94.3903C170.867 94.829 171.231 95.3917 171.531 95.9773C173.41 99.6498 172.674 104.487 169.787 107.434C166.45 110.841 161.168 111.403 156.416 110.999C154.711 110.853 152.957 110.591 151.502 109.691C149.618 108.527 148.503 106.476 147.472 104.516C152.051 99.3997 157.861 95.1297 164.557 93.6077ZM180.617 155.373C179.994 156.946 179.365 158.541 179.161 160.22C178.957 161.9 179.223 163.702 180.244 165.051C171.767 165.52 163.153 162.906 156.366 157.806C158.555 154.708 160.283 151.287 161.477 147.687C161.948 146.265 163.749 145.672 165.21 146.001C166.556 146.304 167.685 147.167 168.787 148.009C168.882 148.082 168.977 148.154 169.072 148.226C172.68 150.966 176.656 153.174 180.617 155.373ZM121.382 176.855C120.045 178.36 118.447 179.609 116.815 180.788C113.408 183.248 109.693 185.484 105.553 186.198C99.4843 187.245 92.9283 184.628 89.2496 179.69L102.485 174.752C102.802 174.634 103.131 174.514 103.468 174.533C103.659 174.544 103.842 174.599 104.026 174.653L104.026 174.653C104.149 174.69 104.271 174.727 104.396 174.75C104.821 174.831 105.25 174.76 105.681 174.689C105.948 174.645 106.217 174.601 106.486 174.593C107.477 174.563 108.387 175.016 109.288 175.464L109.288 175.464C109.517 175.577 109.745 175.691 109.973 175.796C113.483 177.41 117.53 177.149 121.382 176.855ZM102.271 120.224C102.178 120.016 102.276 119.776 102.374 119.569C105.085 113.892 108.671 108.634 112.966 104.038C115.988 108.234 117.998 113.151 118.782 118.261C118.939 119.283 118.769 120.695 117.744 120.823C112.829 121.436 107.827 121.353 102.935 120.577C102.676 120.536 102.378 120.463 102.271 120.224ZM120.784 119.874C119.772 114.31 117.671 108.946 114.634 104.175C117.204 102.822 120.242 102.8 123.146 102.809C124.981 102.815 126.983 102.88 128.381 104.067L124.755 114.766C124.139 116.582 123.516 118.449 123.594 120.365L121.302 120.402C121.22 120.403 121.136 120.404 121.06 120.373C120.877 120.296 120.819 120.07 120.784 119.874ZM150.274 147.253C150.883 146.217 151.463 145.111 151.524 143.911C154.267 145.144 157.286 145.755 160.292 145.685C160.764 145.674 160.747 146.402 160.554 146.832C159.969 148.135 159.383 149.439 158.705 150.696C158.01 151.987 157.221 153.224 156.432 154.46L154.543 157.422C154.284 157.827 154.017 158.242 153.633 158.531C152.601 159.306 151.129 158.933 149.952 158.405C147.999 157.527 146.202 156.306 144.668 154.813C146.798 152.502 148.681 149.962 150.274 147.253ZM79.3625 149.812C80.271 150.728 80.8648 151.902 81.4437 153.055L78.718 153.444C77.8098 153.574 76.8786 153.711 76.0759 154.155C75.295 154.587 74.6926 155.279 74.1626 155.997C71.9458 159.001 70.7172 162.721 70.7094 166.454C70.7066 167.802 69.1131 168.764 67.8089 168.422C66.5048 168.08 65.6188 166.785 65.3933 165.456C65.1679 164.126 65.4854 162.767 65.8836 161.479C67.2849 156.946 69.7915 152.665 73.5002 149.706C74.2088 149.141 74.9918 148.611 75.8869 148.468C77.161 148.265 78.4539 148.896 79.3625 149.812ZM193.824 157.4C194.139 157.805 194.372 158.298 194.358 158.812C194.34 159.475 193.92 160.056 193.467 160.541C190.836 163.361 186.792 164.321 182.962 164.773C182.71 164.803 182.445 164.83 182.208 164.737C182.013 164.661 181.857 164.511 181.718 164.355C180.795 163.316 180.428 161.863 180.503 160.475C180.578 159.086 181.058 157.749 181.654 156.493C181.78 156.228 181.925 155.951 182.182 155.809C182.386 155.696 182.63 155.687 182.864 155.681L187.499 155.559C188.64 155.529 189.794 155.5 190.911 155.736C192.028 155.971 193.122 156.499 193.824 157.4ZM142.165 113.603C140.276 110.104 138.863 106.348 137.977 102.471L138.74 100.433C139.684 98.6059 140.874 96.9056 142.268 95.3928C142.835 94.7767 143.819 94.7086 144.603 95.0054C145.386 95.3023 146.016 95.8926 146.624 96.4687L149.361 99.0614C149.442 99.1385 149.527 99.2217 149.555 99.3305C149.606 99.5352 149.436 99.7227 149.283 99.8681C148.002 101.086 146.863 102.46 145.95 103.975C144.57 106.264 143.728 108.829 142.896 111.369L142.165 113.603ZM149.159 93.9486C154.731 90.9644 160.826 88.1562 167.111 88.8278C170.396 89.1789 173.54 90.4861 176.276 92.3378C168.436 90.3224 159.696 92.1814 153.355 97.2135C152.375 97.9912 150.904 98.836 150.032 97.9393C149.808 97.7091 149.661 97.3865 149.518 97.0722C149.29 96.5688 149.071 96.0867 148.559 96.0395C148.07 95.9946 147.853 95.3316 148.06 94.8868C148.267 94.442 148.727 94.1803 149.159 93.9486ZM133.852 148.532C134.952 149.588 136.163 150.521 137.371 151.452L142.253 155.212C140.75 156.536 139.279 157.898 137.842 159.295C134.422 157.268 131.37 154.623 128.876 151.526C130.241 150.105 131.551 148.63 132.803 147.108C133 147.67 133.423 148.119 133.852 148.532ZM102.465 138.362C99.8947 140.37 97.2373 142.484 95.8235 145.423C95.5472 145.998 95.319 146.602 95.0911 147.206C94.6068 148.488 94.124 149.767 93.1849 150.743C92.7686 150.621 92.6049 150.131 92.5035 149.709L91.5254 145.64C91.3934 145.091 91.2605 144.527 91.3355 143.968C91.4101 143.411 91.6847 142.903 91.9545 142.41L94.8243 137.166C94.8883 137.049 94.9546 136.929 95.0571 136.844C95.311 136.633 95.6867 136.7 96.0072 136.779L102.465 138.362ZM144.222 156.378C145.975 158.18 148.153 159.565 150.529 160.389C150.973 159.971 151.832 160.201 152.007 160.785C151.19 161.846 150.292 162.845 149.325 163.771C148.893 164.184 148.201 164.097 147.618 163.963C144.771 163.31 142.029 162.203 139.527 160.696C139.359 160.595 139.171 160.452 139.187 160.257C139.198 160.126 139.302 160.024 139.398 159.935L142.912 156.7C143.28 156.36 143.873 156.019 144.222 156.378ZM189.078 111.176C189.045 111.572 188.99 112.015 188.68 112.264C188.677 109.15 187.905 106.039 186.45 103.285C186.187 102.785 185.901 102.297 185.583 101.83C185.542 101.77 185.5 101.71 185.458 101.65L185.458 101.65C185.137 101.186 184.809 100.712 184.731 100.159L188.496 104.092C188.842 104.454 189.198 104.831 189.362 105.305C189.52 105.761 189.482 106.259 189.443 106.741L189.078 111.176ZM184.752 106.178L183.9 105.104C182.962 103.921 181.811 102.63 180.302 102.629C179.426 102.628 178.621 103.076 177.861 103.512L176.68 104.189C176.358 104.374 176.027 104.566 175.8 104.86C175.144 105.708 175.622 106.948 176.242 107.822C176.671 108.428 177.185 109.009 177.867 109.3C178.749 109.677 179.764 109.51 180.689 109.255C181.956 108.906 183.18 108.402 184.325 107.758C184.692 107.552 185.096 107.251 185.078 106.831C185.067 106.584 184.906 106.372 184.752 106.178ZM177.304 107.008C177.158 106.774 177.006 106.524 177.004 106.249C176.999 105.709 177.537 105.347 178.011 105.089L179.693 104.171C179.948 104.033 180.213 103.891 180.502 103.871C180.791 103.852 181.112 103.991 181.21 104.264C181.497 105.07 182.204 105.712 183.033 105.921C183.301 105.989 183.388 106.361 183.261 106.607C183.134 106.853 182.874 106.997 182.626 107.12C181.739 107.56 180.812 107.919 179.86 108.191C179.478 108.299 179.074 108.395 178.688 108.303C178.057 108.153 177.65 107.557 177.304 107.008ZM165.334 115.315C163.665 115.509 163.348 118.518 164.123 120.123C164.283 120.453 164.532 120.793 164.896 120.839C165.518 120.918 165.861 120.151 165.999 119.539L166.002 119.525C166.184 118.719 166.993 115.121 165.334 115.315ZM156.728 119.262C157.061 118.483 157.173 117.611 157.045 116.774C156.986 116.385 156.869 115.99 156.609 115.694C156.349 115.399 155.919 115.227 155.549 115.36C155.214 115.481 155.003 115.809 154.845 116.128C154.285 117.253 154.061 118.544 154.211 119.792C154.28 120.373 155.012 120.69 155.568 120.507C156.123 120.323 156.497 119.799 156.728 119.262ZM161.647 117.48C161.906 117.266 162.233 117.656 162.338 117.975C162.684 119.025 162.97 120.095 163.195 121.178C163.337 121.862 163.454 122.573 163.303 123.255C163.089 124.217 162.358 125 161.51 125.501C160.662 126.002 159.696 126.261 158.744 126.515C158.493 126.582 158.177 126.63 158.014 126.427C157.876 126.254 157.944 125.984 158.101 125.828C158.255 125.676 158.47 125.605 158.676 125.538L158.688 125.533C160.172 125.046 161.758 124.166 162.103 122.643C162.293 121.805 162.062 120.964 161.83 120.119C161.619 119.349 161.406 118.577 161.511 117.801C161.527 117.683 161.555 117.556 161.647 117.48ZM151.284 114.054C150.893 113.513 151.206 112.69 151.773 112.337C152.339 111.984 153.056 111.989 153.718 112.074C154.508 112.176 155.286 112.377 156.027 112.671C156.184 112.734 156.354 112.814 156.423 112.968C156.552 113.255 156.219 113.569 155.905 113.569C155.652 113.569 155.423 113.447 155.196 113.326L155.196 113.326C155.141 113.297 155.087 113.268 155.032 113.241C153.795 112.627 152.155 112.983 151.284 114.054ZM165.538 113.867C166.126 113.77 166.749 113.905 167.243 114.239C167.449 114.378 167.745 114.144 167.746 113.895C167.747 113.646 167.561 113.436 167.366 113.282C166.944 112.95 166.419 112.752 165.883 112.722C165.538 112.702 165.155 112.769 164.933 113.034C164.71 113.299 164.777 113.797 165.111 113.889C165.23 113.922 165.355 113.9 165.478 113.878C165.498 113.874 165.518 113.871 165.538 113.867ZM158.244 129.138C158.409 129.044 158.627 129.207 158.652 129.396C158.677 129.584 158.569 129.764 158.446 129.909C157.83 130.636 156.768 130.86 155.83 130.69C154.892 130.519 154.052 130.015 153.261 129.483C152.889 129.233 152.522 128.975 152.162 128.709C151.788 128.433 151.39 128.095 151.345 127.632C151.3 127.17 151.893 126.704 152.231 127.022C153.062 127.805 153.913 128.601 154.947 129.086C155.981 129.57 157.249 129.699 158.244 129.138ZM140.441 132.846C136.977 125.316 135.532 116.869 136.296 108.616C136.309 108.475 136.327 108.324 136.42 108.218C136.552 108.067 136.821 108.074 136.946 108.23C136.901 112.77 136.859 117.337 137.6 121.816C138.341 126.295 139.915 130.726 142.788 134.242C142.874 134.347 142.961 134.451 143.048 134.556C143.542 135.149 144.041 135.746 144.321 136.461C142.453 136.425 141.222 134.543 140.441 132.846ZM143.839 98.8452C143.775 98.776 143.7 98.7148 143.614 98.6775C143.364 98.5696 143.071 98.6802 142.852 98.8421C141.98 99.4875 141.977 100.997 142.846 101.646C143.27 101.285 143.705 100.91 143.953 100.411C144.202 99.9128 144.217 99.2542 143.839 98.8452ZM151.357 106.796C152.296 107.559 153.367 108.16 154.508 108.565C158.189 109.87 162.326 109.05 165.878 107.427C166.421 107.179 167.113 107.309 167.528 107.738C165.247 109.364 162.453 110.257 159.652 110.256C159.035 110.256 158.418 110.214 157.802 110.16C156.543 110.05 155.275 109.889 154.091 109.448C152.906 109.007 151.801 108.261 151.13 107.19L151.357 106.796ZM191.442 156.409C191.406 156.534 191.507 156.654 191.599 156.746L192.998 158.134C193.15 157.735 192.979 157.27 192.686 156.959C192.393 156.649 191.996 156.46 191.61 156.277C191.534 156.281 191.464 156.336 191.442 156.409Z" fill="#00160A"/>
<path fill-rule="evenodd" clip-rule="evenodd" d="M283.3 102.418C285.014 103.012 286.628 101.466 288.104 100.414C290.389 98.7846 293.37 98.1686 296.113 98.7585C296.568 98.8564 297.045 99.0033 297.345 99.3595C297.619 99.6851 297.697 100.129 297.741 100.553C298.011 103.144 297.363 105.822 295.938 108.004C295.244 109.065 294.376 110.01 293.756 111.115C293.136 112.221 292.782 113.572 293.223 114.76C295.849 121.824 294.757 130.155 290.397 136.303C286.038 142.45 278.538 146.239 271.003 146.098C267.149 146.026 263.374 144.997 259.743 143.704C258.159 143.139 256.418 142.52 254.845 143.116C251.976 144.204 248.955 144.89 245.898 145.15C245.139 145.214 244.347 145.247 243.647 144.948C242.599 144.5 241.966 143.363 241.846 142.23C241.725 141.097 242.039 139.962 242.435 138.893C243.628 135.669 247.335 130.632 249.578 129.472C249.397 125.557 249.417 121.595 250.263 117.768C251.11 113.942 252.837 110.228 255.671 107.52C256.842 106.402 258.181 105.471 259.584 104.663C266.68 100.577 275.563 99.7364 283.3 102.418ZM272.493 102.1C267.067 102.227 261.785 104.407 257.543 107.793C256.297 108.788 255.127 109.892 254.192 111.183C253.455 112.2 252.872 113.323 252.385 114.481C249.496 121.353 250.156 129.609 254.099 135.935C254.185 136.073 254.284 136.219 254.437 136.273C254.627 136.339 254.83 136.243 255.007 136.149C267.393 129.548 278.418 120.406 287.197 109.456C287.407 109.195 287.627 108.893 287.581 108.561C287.548 108.313 287.37 108.111 287.197 107.93C283.451 104.002 277.92 101.973 272.493 102.1ZM280.08 143.123C285.963 140.361 290.431 134.903 292.342 128.691C292.775 127.284 293.086 125.83 293.116 124.359C293.142 123.122 292.969 121.89 292.797 120.664C292.548 118.887 292.298 117.111 292.048 115.334C291.982 114.863 291.528 114.241 291.197 114.582C281.992 124.055 271.941 132.705 261.202 140.395C260.845 140.651 260.451 140.967 260.432 141.407C260.41 141.915 260.895 142.284 261.335 142.538C266.965 145.784 274.197 145.884 280.08 143.123ZM243.792 142.399C244.22 143.086 245.148 143.226 245.956 143.249C250.199 143.366 254.396 142.123 258.192 140.224C261.987 138.326 265.422 135.786 268.761 133.166C273.214 129.671 277.534 126.008 281.744 122.225C286.957 117.538 292.081 112.568 295.504 106.45C296.166 105.267 296.777 103.969 296.673 102.617C296.57 101.265 295.491 99.8999 294.136 99.9528C291.261 100.065 288.434 101.171 286.245 103.039C285.81 103.41 286.117 104.201 286.653 104.402C287.189 104.603 287.786 104.403 288.31 104.172C288.833 103.941 289.378 103.671 289.947 103.734C290.816 103.831 291.433 104.72 291.485 105.593C291.537 106.466 291.151 107.305 290.696 108.051C289.854 109.433 288.755 110.638 287.645 111.814C277.773 122.273 266.384 131.299 253.947 138.521C252.827 139.172 251.694 139.81 250.488 140.284C249.856 140.532 249.131 140.732 248.514 140.448C247.502 139.982 247.421 138.561 247.725 137.489C248.181 135.88 249.165 134.425 250.49 133.404C250.239 132.697 249.988 131.99 249.737 131.283C246.467 133.372 244.172 136.925 243.613 140.765C243.532 141.319 243.496 141.924 243.792 142.399ZM253.09 137.548C253.114 137.475 253.071 137.399 253.03 137.334C252.608 136.663 252.185 135.992 251.763 135.32C251.572 135.017 251.202 134.673 250.916 134.889C249.883 135.666 249.144 136.825 248.873 138.089C248.82 138.338 248.789 138.617 248.925 138.833C249.177 139.235 249.781 139.145 250.228 138.985C251.18 138.644 252.098 138.205 252.961 137.677C253.015 137.645 253.072 137.607 253.09 137.548ZM289.841 105.595C289.799 105.421 289.591 105.345 289.412 105.337C288.868 105.314 288.299 105.761 288.333 106.305C288.368 106.848 289.176 107.191 289.514 106.763C289.616 106.634 289.659 106.47 289.699 106.31C289.74 106.152 289.78 105.994 289.82 105.837C289.84 105.757 289.861 105.674 289.841 105.595Z" fill="#00160A"/>
</svg>
