<svg width="362" height="290" viewBox="0 0 362 290" fill="none" xmlns="http://www.w3.org/2000/svg">
<rect width="362" height="290" fill="#EEEEEE"/>
<path fill-rule="evenodd" clip-rule="evenodd" d="M299.736 94.25C305.334 94.25 309.872 98.7943 309.872 104.4C309.872 110.006 305.334 114.55 299.736 114.55H241.816C247.414 114.55 251.952 119.094 251.952 124.7C251.952 130.306 247.414 134.85 241.816 134.85H273.672C279.27 134.85 283.808 139.394 283.808 145C283.808 150.606 279.27 155.15 273.672 155.15H258.94C251.882 155.15 246.16 159.694 246.16 165.3C246.16 169.037 249.056 172.42 254.848 175.45C260.446 175.45 264.984 179.994 264.984 185.6C264.984 191.206 260.446 195.75 254.848 195.75H134.664C129.066 195.75 124.528 191.206 124.528 185.6C124.528 179.994 129.066 175.45 134.664 175.45H78.192C72.594 175.45 68.056 170.906 68.056 165.3C68.056 159.694 72.594 155.15 78.192 155.15H136.112C141.71 155.15 146.248 150.606 146.248 145C146.248 139.394 141.71 134.85 136.112 134.85H99.912C94.314 134.85 89.776 130.306 89.776 124.7C89.776 119.094 94.314 114.55 99.912 114.55H157.832C152.234 114.55 147.696 110.006 147.696 104.4C147.696 98.7943 152.234 94.25 157.832 94.25H299.736ZM299.736 134.85C305.334 134.85 309.872 139.394 309.872 145C309.872 150.606 305.334 155.15 299.736 155.15C294.138 155.15 289.6 150.606 289.6 145C289.6 139.394 294.138 134.85 299.736 134.85Z" fill="white"/>
<path fill-rule="evenodd" clip-rule="evenodd" d="M144.716 193.129L146.874 193.054V223.502C146.874 224.191 147.434 224.75 148.125 224.75H223.189C223.88 224.75 224.44 224.191 224.44 223.502V119.125C224.44 116.598 222.386 114.55 219.853 114.55H151.461C148.927 114.55 146.874 116.598 146.874 119.125V140.828L144.716 140.753C144.463 140.744 144.209 140.74 143.954 140.74C130.872 140.74 120.184 152.43 120.184 166.941C120.184 181.452 130.872 193.142 143.954 193.142C144.209 193.142 144.463 193.138 144.716 193.129ZM144.955 183.121C144.623 183.147 144.289 183.161 143.954 183.161C136.058 183.161 129.803 175.831 129.803 166.941C129.803 158.051 136.058 150.721 143.954 150.721C144.289 150.721 144.623 150.735 144.955 150.761L146.874 150.915V182.967L144.955 183.121Z" fill="#EEEEEE" stroke="black" stroke-width="2.5" stroke-linejoin="round"/>
<path d="M212.856 123.513V150.075M212.856 158.313V165.191V158.313Z" stroke="black" stroke-width="2.5" stroke-linecap="round" stroke-linejoin="round"/>
<path d="M97.2012 213.15H107.152M262.273 213.15H266.432M233.128 213.15H255.467M115.84 213.15H141.114" stroke="black" stroke-width="2.5" stroke-linecap="round" stroke-linejoin="round"/>
<path d="M185.344 50.75C181.483 56.8596 179.552 62.1763 179.552 66.7C179.552 74.7564 186.291 78.3644 186.291 87.0913C186.291 91.5206 184.044 95.9185 179.552 100.285" stroke="black" stroke-width="2.5" stroke-linecap="round"/>
<path d="M167.968 66.7C166.705 74.6934 172.312 76.1717 172.312 83.3382C172.312 86.9754 170.864 90.6127 167.968 94.25" stroke="black" stroke-width="2.5" stroke-linecap="round"/>
<path d="M195.184 63.0375C193.271 67.9953 194.345 71.0172 195.184 72.7959C196.975 76.5979 199.824 79.8799 199.824 83.7488C199.824 88.2423 198.277 92.5668 195.184 96.7224" stroke="black" stroke-width="2.5" stroke-linecap="round"/>
<path d="M152.04 121.35C152.04 120.798 152.488 120.35 153.04 120.35L181 120.35V220.4H153.04C152.488 220.4 152.04 219.952 152.04 219.4V121.35Z" fill="black"/>
</svg>
