<svg width="358" height="358" viewBox="0 0 358 358" fill="none" xmlns="http://www.w3.org/2000/svg">
<path d="M107.727 110.486C139.596 116.682 161.589 106.253 175.604 94.2583C182.606 88.2665 187.613 81.8887 190.869 77.0089C192.498 74.5685 193.69 72.5012 194.476 71.0419C194.869 70.3122 195.16 69.7344 195.354 69.3377C195.451 69.1394 195.524 68.9864 195.572 68.8823C195.596 68.8302 195.615 68.7904 195.627 68.7633L195.634 68.7477C201.843 58.2335 210.093 53.9804 218.804 54.013C227.561 54.0458 236.871 58.4112 245.125 65.3211C253.373 72.2257 260.519 81.632 264.949 91.6542C269.382 101.681 271.078 112.276 268.502 121.583C265.873 131.084 265.502 138.133 267.027 144.276C268.551 150.416 271.954 155.592 276.752 161.365C278.991 164.059 281.537 166.888 284.35 170.014C293.599 180.29 305.732 193.772 319.309 216.189C324.301 224.43 325.186 232.072 322.657 238.684C320.122 245.312 314.118 251.007 305.122 255.253C287.126 263.75 257.357 266.348 220.476 259.132C211.908 257.455 204.428 260.726 197.369 266.127C192.084 270.171 186.979 275.456 181.793 280.825C180.07 282.608 178.339 284.4 176.59 286.159C169.545 293.242 162.181 299.81 153.78 303.312C145.411 306.8 135.98 307.257 124.748 302.044C114.857 297.453 110.056 291.792 107.445 285.413C105.336 280.26 104.648 274.634 103.912 268.624C103.73 267.134 103.544 265.619 103.334 264.082C102.278 256.381 100.59 248.213 95.3736 239.981C90.1571 231.748 81.4408 223.496 66.4004 215.562C51.5268 207.715 42.7688 196.469 38.9535 184.219C35.1356 171.961 36.2567 158.663 41.2084 146.712C51.1139 122.805 76.2999 104.376 107.727 110.486Z" fill="white" stroke="black"/>
<path d="M183.618 191.317C178.048 201.992 176.643 207.666 159.746 218.259C159.615 218.344 159.516 218.472 159.467 218.62C156.767 226.989 152.198 234.633 146.105 240.973C146.023 241.058 145.965 241.163 145.938 241.278C145.91 241.392 145.914 241.512 145.95 241.624C147.841 247.918 149.888 259.265 144.193 268.566C135.822 282.26 129.622 273.992 130.913 270.891C132.019 268.235 141.465 262.531 139.284 248.28C139.266 248.166 139.218 248.058 139.146 247.968C139.075 247.878 138.981 247.807 138.874 247.764C138.767 247.72 138.65 247.705 138.536 247.719C138.421 247.734 138.312 247.777 138.22 247.846C131.373 252.815 123.515 256.213 115.205 257.798C115.113 257.813 115.025 257.848 114.947 257.9C114.869 257.951 114.803 258.019 114.753 258.098C114.703 258.177 114.671 258.266 114.658 258.359C114.645 258.451 114.652 258.546 114.678 258.635C116.797 266.221 117.799 278.075 108.953 288.977C104.23 294.661 97.9674 286.352 104.23 280.689C108.116 277.186 107.816 267.11 105.997 259.349C105.962 259.198 105.876 259.064 105.754 258.97C105.631 258.876 105.48 258.827 105.325 258.832C104.964 258.843 104.591 258.843 104.23 258.843C91.4476 258.862 79.0203 254.638 68.8971 246.833C68.8045 246.761 68.6946 246.714 68.5784 246.697C68.4621 246.68 68.3434 246.693 68.2339 246.736C68.1244 246.779 68.0279 246.849 67.954 246.94C67.88 247.032 67.8311 247.141 67.812 247.257C65.3833 263.295 75.0257 268.845 76.3997 272.958C77.9293 277.557 74.4155 281.649 70.0855 280.492C69.9916 280.464 69.9039 280.418 69.8272 280.357C55.7105 269.755 56.9403 247.536 58.4904 236.84C58.5046 236.752 58.4999 236.663 58.4767 236.577C58.4536 236.492 58.4124 236.412 58.356 236.344C50.4617 226.185 46.1878 213.68 46.2132 200.814C46.2132 177.221 60.2988 156.914 80.5232 147.851C80.5245 147.851 80.5259 147.851 80.5271 147.85C80.5284 147.85 80.5296 147.849 80.5305 147.848C80.5315 147.847 80.5323 147.846 80.5328 147.845C80.5333 147.844 80.5336 147.842 80.5335 147.841C83.644 143.903 87.4369 138.333 88.0157 134.427C88.0348 134.295 88.0929 134.171 88.1826 134.072C88.2723 133.973 88.3896 133.902 88.5194 133.87C88.6491 133.838 88.7856 133.845 88.9112 133.891C89.0368 133.937 89.146 134.019 89.2247 134.127C90.7129 136.132 93.0175 139.956 92.5112 143.986C92.4904 144.12 92.4802 144.255 92.4594 144.389C92.4181 144.617 92.3665 144.833 92.3148 145.061C92.263 145.237 92.2217 145.412 92.1598 145.588C92.8825 144.985 93.5721 144.343 94.2256 143.666C95.7446 142.105 97.6669 139.759 98.4937 137.248C98.5328 137.114 98.6125 136.996 98.7217 136.909C98.831 136.822 98.9645 136.771 99.1038 136.763C99.2432 136.755 99.3815 136.791 99.4999 136.865C99.6182 136.939 99.7107 137.048 99.7646 137.177C100.302 138.499 100.932 140.349 101.149 142.24C101.168 142.41 101.249 142.566 101.377 142.679C101.506 142.792 101.671 142.853 101.842 142.85C102.638 142.819 103.433 142.798 104.229 142.798C136.276 142.798 162.256 168.779 162.256 200.815C162.256 201.549 162.246 202.272 162.215 202.996C162.21 203.106 162.233 203.216 162.28 203.316C162.327 203.416 162.399 203.502 162.487 203.568C162.576 203.635 162.679 203.678 162.788 203.695C162.897 203.713 163.009 203.703 163.114 203.667C166.565 202.458 170.916 199.544 173.541 192.61C178.45 179.692 178.967 176.075 177.417 165.999C175.866 155.923 183.359 156.44 184.909 159.798C186.458 163.156 189.818 179.433 183.618 191.317Z" fill="black"/>
<path d="M81.5654 205.904C81.3678 205.904 81.1758 205.838 81.0194 205.717C80.8629 205.597 80.7509 205.427 80.7007 205.236C80.311 203.534 80.2273 201.777 80.4535 200.045C80.9624 196.282 83.0101 193.516 86.3755 192.047C88.5747 191.086 90.6536 191.03 92.5542 191.882C96.4498 193.628 98.1082 198.579 98.177 198.789C98.2436 199.012 98.2204 199.253 98.1122 199.46C98.004 199.666 97.8195 199.822 97.5978 199.895C97.3762 199.968 97.135 199.951 96.9255 199.848C96.7161 199.746 96.555 199.565 96.4765 199.346C96.4623 199.303 94.9872 194.929 91.8168 193.513C90.3973 192.879 88.8079 192.938 87.0926 193.687C84.3079 194.904 82.6736 197.106 82.2354 200.232C82.0352 201.749 82.1022 203.29 82.4334 204.784C82.493 205.014 82.459 205.258 82.3388 205.462C82.2187 205.667 82.0222 205.816 81.7926 205.876C81.7183 205.895 81.642 205.904 81.5654 205.904Z" fill="white"/>
<path d="M108.545 197.708C108.358 197.708 108.175 197.649 108.023 197.539C107.871 197.43 107.757 197.275 107.697 197.097C107.198 195.431 107 193.69 107.114 191.954C107.378 188.182 109.242 185.3 112.506 183.621C114.642 182.522 116.716 182.332 118.671 183.061C122.663 184.546 124.636 189.347 124.718 189.551C124.804 189.77 124.799 190.015 124.706 190.232C124.613 190.448 124.438 190.619 124.219 190.707C124 190.796 123.755 190.794 123.538 190.702C123.32 190.611 123.148 190.438 123.057 190.22C123.039 190.178 121.289 185.94 118.04 184.736C116.578 184.194 114.992 184.354 113.325 185.213C110.625 186.602 109.138 188.893 108.904 192.025C108.802 193.544 108.969 195.069 109.396 196.531C109.44 196.665 109.452 196.809 109.43 196.949C109.409 197.089 109.354 197.222 109.271 197.336C109.188 197.451 109.079 197.545 108.953 197.609C108.827 197.674 108.687 197.708 108.546 197.708H108.545Z" fill="white"/>
<path d="M106.268 216.432C100.176 216.432 95.5318 212.378 95.2992 212.172C95.2113 212.094 95.1397 211.999 95.0883 211.893C95.037 211.788 95.007 211.673 95 211.556C94.9931 211.438 95.0093 211.321 95.0478 211.21C95.0862 211.099 95.1462 210.996 95.2242 210.908C95.3023 210.82 95.3969 210.749 95.5026 210.697C95.6083 210.646 95.7231 210.616 95.8405 210.609C95.9578 210.602 96.0754 210.618 96.1864 210.657C96.2975 210.695 96.3999 210.755 96.4878 210.833C96.5488 210.887 102.682 216.218 109.588 214.16C116.462 212.112 118.347 203.384 118.365 203.296C118.416 203.066 118.554 202.865 118.752 202.736C118.949 202.608 119.19 202.563 119.42 202.61C119.651 202.658 119.854 202.794 119.984 202.99C120.115 203.186 120.163 203.426 120.119 203.657C119.693 205.465 119.026 207.207 118.137 208.837C116.172 212.46 113.393 214.894 110.1 215.875C108.856 216.246 107.566 216.433 106.268 216.432Z" fill="white"/>
<path d="M299.198 176.596C299.122 178.539 298.924 180.475 298.607 182.394C294.292 208.789 269.409 226.68 243.014 222.365C216.629 218.052 198.728 193.167 203.043 166.772C203.318 165.089 203.682 163.443 204.112 161.837C184.536 148.542 185.679 122.906 189.432 120.064C193.222 117.186 197.36 119.611 196.927 127.572C196.483 139.133 203.6 148.694 207.548 152.859C216.791 134.432 237.218 123.3 258.636 126.801C279.422 130.199 294.927 146.357 298.478 165.953C302.352 164.545 309.195 160.48 314.738 148.925C315.513 146.622 315.727 144.929 315.768 143.91C315.795 142.957 316.167 142.047 316.815 141.348C318.027 140.08 320.174 138.734 322.946 140.801C323.577 141.272 324.085 141.888 324.428 142.596C324.772 143.304 324.94 144.085 324.92 144.872C324.746 151.117 319.749 166.311 299.198 176.596Z" fill="black"/>
<path d="M270.404 185.156C269.182 192.632 258.9 197.171 247.447 195.299C235.983 193.425 227.682 185.848 228.904 178.372C229.137 176.98 229.681 175.659 230.496 174.506C230.718 174.194 231.052 173.979 231.429 173.906C231.805 173.833 232.195 173.907 232.518 174.112C236.622 176.681 243.117 178.947 250.611 180.172C257.508 181.3 263.89 181.317 268.535 180.435C268.913 180.363 269.305 180.439 269.629 180.647C269.953 180.855 270.184 181.18 270.275 181.555C270.554 182.735 270.598 183.959 270.404 185.156Z" fill="white"/>
<path d="M248.671 170.323C248.541 170.323 248.413 170.295 248.295 170.241C248.177 170.186 248.072 170.107 247.988 170.008C247.904 169.909 247.842 169.793 247.807 169.668C247.773 169.543 247.765 169.412 247.786 169.284C248.087 167.446 247.645 165.564 246.558 164.052C245.471 162.54 243.828 161.522 241.99 161.222C240.152 160.921 238.27 161.363 236.758 162.45C235.247 163.538 234.228 165.181 233.928 167.018C233.89 167.253 233.76 167.462 233.567 167.601C233.374 167.739 233.135 167.796 232.9 167.757C232.666 167.719 232.457 167.589 232.318 167.396C232.179 167.204 232.123 166.964 232.161 166.729C232.538 164.423 233.816 162.361 235.714 160.997C237.611 159.633 239.972 159.078 242.279 159.455C244.585 159.832 246.647 161.11 248.011 163.007C249.375 164.905 249.93 167.266 249.553 169.572C249.519 169.782 249.411 169.972 249.25 170.11C249.088 170.247 248.883 170.323 248.671 170.323Z" fill="white"/>
<path d="M270.14 173.833C270.011 173.833 269.882 173.804 269.765 173.75C269.647 173.695 269.542 173.616 269.458 173.517C269.374 173.418 269.312 173.302 269.278 173.177C269.243 173.052 269.235 172.921 269.256 172.793C269.549 170.959 269.103 169.083 268.016 167.577C266.929 166.071 265.289 165.057 263.455 164.757C261.622 164.457 259.745 164.896 258.235 165.978C256.724 167.06 255.704 168.696 255.398 170.528C255.379 170.644 255.338 170.756 255.276 170.856C255.214 170.956 255.133 171.043 255.038 171.112C254.942 171.181 254.834 171.231 254.719 171.258C254.605 171.285 254.486 171.289 254.37 171.27C254.253 171.251 254.142 171.209 254.042 171.147C253.942 171.085 253.855 171.004 253.787 170.908C253.718 170.812 253.669 170.704 253.642 170.589C253.616 170.474 253.612 170.355 253.631 170.239C254.015 167.939 255.294 165.884 257.19 164.526C259.086 163.167 261.442 162.616 263.744 162.992C266.045 163.368 268.104 164.642 269.468 166.533C270.833 168.424 271.392 170.779 271.023 173.082C270.988 173.292 270.881 173.482 270.719 173.619C270.558 173.757 270.352 173.833 270.14 173.833Z" fill="white"/>
</svg>
