<svg width="362" height="362" viewBox="0 0 362 362" fill="none" xmlns="http://www.w3.org/2000/svg">
<rect width="362" height="362" fill="#EEEEEE"/>
<path fill-rule="evenodd" clip-rule="evenodd" d="M159.424 64.9953C151.764 70.8356 145.35 78.0901 140.508 86.3485C132.577 84.7653 124.03 84.4284 115.376 85.6679C117.548 76.2318 121.998 67.3507 128.427 59.9321C129.924 58.2138 132.139 57.292 134.412 57.4561C143.26 58.0835 151.803 60.7044 159.424 64.9953ZM180.999 109.463C188.663 100.995 197.629 94.8005 207.165 90.7552C201.489 82.2458 193.64 75.252 184.238 70.5508C182.201 69.5324 179.798 69.5324 177.761 70.5508C168.358 75.252 160.51 82.2458 154.834 90.7552C164.371 94.8005 173.336 100.996 180.999 109.463ZM227.166 180.999C233.779 177.703 239.846 173.349 245.136 168.059C261.098 152.093 266.687 128.476 259.539 107.036C258.82 104.878 257.121 103.179 254.963 102.46C233.542 95.3213 209.921 100.886 193.94 116.863C188.65 122.153 184.291 128.22 180.999 134.837C177.708 128.22 173.349 122.153 168.059 116.863C152.092 100.901 128.476 95.3116 107.036 102.46C104.873 103.179 103.179 104.878 102.46 107.036C95.3212 128.456 100.886 152.078 116.863 168.059C122.148 173.344 128.22 177.703 134.832 180.999C128.22 184.296 122.153 188.65 116.863 193.94C100.901 209.906 95.3116 233.523 102.46 254.963C103.179 257.121 104.878 258.82 107.036 259.539C128.456 266.678 152.078 261.112 168.059 245.136C173.349 239.846 177.708 233.779 180.999 227.162C184.291 233.779 188.65 239.846 193.94 245.136C209.993 261.19 233.639 266.649 254.963 259.539C257.126 258.82 258.82 257.121 259.539 254.963C266.678 233.543 261.112 209.921 245.136 193.94C239.851 188.655 233.779 184.296 227.166 180.999ZM288.837 184.238C284.502 192.907 278.223 200.248 270.602 205.794C266.506 196.661 260.513 188.22 252.535 180.999C260.189 174.073 266.33 165.734 270.597 156.2C278.218 161.746 284.502 169.092 288.837 177.761C289.855 179.798 289.855 182.201 288.837 184.238ZM91.402 205.799C95.6692 196.265 101.81 187.926 109.463 180.999C101.486 173.78 95.4926 165.337 91.3972 156.205C83.7759 161.751 77.4964 169.092 73.162 177.761C72.1436 179.798 72.1436 182.201 73.162 184.238C77.4964 192.907 83.7807 200.253 91.402 205.799ZM207.261 271.282C201.619 279.497 193.935 286.255 184.769 290.84C182.782 291.829 180.395 291.884 178.296 290.84C169 286.192 161.225 279.304 155.563 270.925C165.157 266.736 173.772 260.521 180.999 252.535C188.675 261.016 197.67 267.224 207.261 271.282ZM302.067 236.405C294.523 242.945 285.463 247.434 275.848 249.562C277.649 239.832 277.484 229.821 275.332 220.091C282.871 215.293 289.503 209.144 294.885 201.918C300.43 210.375 303.814 220.197 304.543 230.42C304.707 232.693 303.785 234.908 302.067 236.405ZM233.571 302.067C240.005 294.648 244.451 285.762 246.623 276.326C238.371 277.52 229.815 277.289 221.645 275.674C216.702 283.918 210.181 291.134 202.415 296.917C210.075 301.261 218.681 303.91 227.586 304.543C227.76 304.557 227.929 304.562 228.103 304.562C230.193 304.562 232.191 303.66 233.571 302.067ZM134.412 304.543C143.559 303.891 152.382 301.116 160.192 296.569C152.566 290.806 146.165 283.648 141.305 275.491C132.892 277.256 124.02 277.581 115.376 276.331C117.548 285.767 121.998 294.648 128.427 302.067C129.808 303.66 131.806 304.562 133.896 304.562C134.07 304.562 134.239 304.557 134.412 304.543ZM246.623 85.6679C237.97 84.4284 229.422 84.7653 221.49 86.3485C216.649 78.0901 210.235 70.8356 202.575 64.9953C210.196 60.7044 218.739 58.0835 227.586 57.4561C229.86 57.292 232.075 58.2138 233.571 59.9321C240.001 67.3507 244.451 76.2318 246.623 85.6679ZM59.9321 237.307C67.5245 243.891 76.6469 248.394 86.334 250.503C84.3406 240.478 84.4468 230.13 86.6719 220.091C79.2774 215.389 72.7566 209.39 67.4328 202.343C61.6987 210.905 58.1945 220.906 57.456 231.322C57.2919 233.596 58.2138 235.811 59.9321 237.307ZM304.543 131.579C303.814 141.802 300.43 151.624 294.885 160.081C289.503 152.85 282.871 146.706 275.327 141.908C277.48 132.183 277.649 122.167 275.848 112.437C285.463 114.565 294.523 119.054 302.067 125.594C303.785 127.09 304.707 129.306 304.543 131.579ZM67.1142 160.081C72.4959 152.855 79.1278 146.706 86.667 141.908C84.5143 132.178 84.3551 122.162 86.1506 112.437C76.5359 114.565 67.4762 119.054 59.9321 125.594C58.2138 127.09 57.2919 129.306 57.456 131.579C58.1849 141.802 61.5684 151.624 67.1142 160.081ZM159.279 180.999C159.279 169.024 169.024 159.279 180.999 159.279C192.974 159.279 202.719 169.024 202.719 180.999C202.719 192.974 192.974 202.719 180.999 202.719C169.024 202.719 159.279 192.974 159.279 180.999ZM173.759 180.999C173.759 184.996 177.003 188.239 180.999 188.239C184.996 188.239 188.239 184.996 188.239 180.999C188.239 177.003 184.996 173.759 180.999 173.759C177.003 173.759 173.759 177.003 173.759 180.999Z" fill="black"/>
<path d="M124.674 290.409C116.079 290.477 109.322 290.86 103.601 291.666C89.8459 293.605 81.668 298.159 78.0455 306.748C76.1963 311.133 77.0868 314.923 80.4825 317.874C83.398 320.408 88.1411 322.325 94.5972 323.728L94.9576 323.805C106.002 326.149 121.684 326.998 141.57 326.699L142.793 326.68C152.134 326.519 161.713 326.135 173.243 325.515L184.722 324.865C188.755 324.632 192.91 324.393 194.389 324.314L196.39 324.211C200.639 323.999 203.378 323.921 205.068 323.974L206.964 324.045C234.368 325.049 255.754 323.678 269.513 320.448C275.79 318.974 280.28 317.147 282.791 315.068C285.51 312.816 285.98 310.105 283.964 307.712C277.674 300.244 267.35 296.025 250.672 293.776L249.81 293.662C235.952 291.864 218.717 291.312 185.963 291.29L181.25 291.286C174.877 291.267 168.775 291.18 160.676 291.007L140.752 290.553C134.789 290.429 131.435 290.39 127.697 290.396L124.674 290.409Z" fill="#EEEEEE"/>
<ellipse cx="181.152" cy="314.814" rx="102.845" ry="10.7351" fill="#E7EAEE"/>
<path fill-rule="evenodd" clip-rule="evenodd" d="M202.246 238.594C204.113 238.923 205.392 237.099 208.283 231.017L208.496 230.576L208.706 230.155C212.152 223.38 216.137 221.22 220.66 223.676L222.476 218.318L221.866 218.038L221.28 217.773C211.888 213.577 206.816 213.322 206.063 217.008L205.988 217.411L205.926 217.735C205.374 220.546 204.027 225.958 203.052 230.565L202.887 231.351C202.073 235.3 201.597 238.479 202.246 238.594Z" fill="#EEEEEE"/>
<path fill-rule="evenodd" clip-rule="evenodd" d="M182.247 184.255C182.247 184.255 195.976 186.074 202.92 185.759C209.864 185.444 220.019 182.54 220.019 182.54L219.778 191.309C219.778 191.309 252.173 190.655 247.281 217.192C244.059 234.67 219.405 227.483 219.405 227.483L224.12 217.192C224.12 217.192 238.908 218.261 233.523 213.762C232.524 212.927 226.138 211.776 217.734 212.001C210.516 212.194 204.246 210.032 203.594 208.09C201.148 200.811 204.699 196.982 204.699 196.982C204.699 196.982 201.264 198.654 201.916 202.719C202.567 206.785 197.766 290.027 197.766 290.027C197.766 290.027 193.423 290.797 191.238 290.797C189.054 290.797 186.047 290.027 186.047 290.027L182.247 184.255Z" fill="#EEEEEE"/>
<path fill-rule="evenodd" clip-rule="evenodd" d="M182.247 184.255C182.247 184.255 189.489 290.713 188.48 290.546C187.72 290.421 186.047 290.027 186.047 290.027L182.247 184.255Z" fill="#E7EAEE"/>
<path fill-rule="evenodd" clip-rule="evenodd" d="M188.21 291.667C188.686 295.856 187.796 297.534 187.914 297.534C189.855 297.534 191.014 297.496 194.127 297.254C194.127 297.254 193.952 295.449 193.952 294.601C193.952 293.587 194.127 291.667 194.127 291.667H188.21Z" fill="#EEEEEE"/>
<path d="M183.413 87.3848C183.413 87.3848 176.173 90.1035 176.173 84.9858C176.173 79.8682 181.759 82.4194 181.759 82.4194" fill="#EEEEEE"/>
<path d="M215.269 87.9189C216.789 88.257 221.544 91.2222 221.544 84.0427C221.544 80.6164 216.114 83.0912 216.114 83.0912" fill="#EEEEEE"/>
<path d="M197.991 57.976C192.01 58.5563 179.475 64.244 181.757 80.4941C183.526 93.0911 192.948 106.669 198.738 106.669C204.422 106.669 213.993 95.2388 215.382 83.9848C218.22 61.0017 203.973 57.3958 197.991 57.976Z" fill="#EEEEEE"/>
<path fill-rule="evenodd" clip-rule="evenodd" d="M198.213 69.6046C198.531 68.8668 199.559 68.8176 199.946 69.5217C201.919 73.1127 204.13 75.6151 206.563 77.0476C209.019 78.4941 211.918 78.6369 214.874 77.3112C215.361 77.093 215.932 77.3106 216.15 77.797C216.368 78.2835 216.151 78.8547 215.664 79.0728C212.141 80.6528 208.583 80.4775 205.583 78.7113C203.246 77.3347 201.14 75.1472 199.258 72.1602L199.189 72.0491L199.127 72.1699C197.607 75.0557 195.646 77.3605 193.245 79.0727L193.003 79.2419C189.98 81.3224 186.432 82.2474 182.394 82.0195C181.861 81.9895 181.454 81.5336 181.484 81.0013C181.514 80.469 181.97 80.0619 182.502 80.0919C186.125 80.2964 189.249 79.482 191.908 77.6515C194.594 75.8035 196.694 73.1284 198.213 69.6046Z" fill="#E7EAEE"/>
<path fill-rule="evenodd" clip-rule="evenodd" d="M229.087 162.067C228.505 173.022 224.412 177.67 219.297 178.338C218.617 178.427 219.568 182.331 218.977 182.843C215.605 185.759 209.662 185.885 200.343 185.97C191.907 186.046 186.466 185.365 182.685 183.815C182.396 183.697 182.656 178.783 182.357 178.756C177.621 178.338 172.165 174.134 170.839 162.702C166.35 123.996 179.851 116.516 192.701 110.349C193.398 110.014 193.777 109.431 194.469 109.1C195.93 108.401 195.549 110.01 198.87 110.01C202.19 110.01 202.19 108.749 203.685 109.463C204.243 109.73 204.335 111.395 204.891 111.688C218.04 118.627 230.696 131.79 229.087 162.067Z" fill="#EEEEEE"/>
<path fill-rule="evenodd" clip-rule="evenodd" d="M204.891 111.688C222.255 117.972 230.321 134.765 229.087 162.067C227.608 194.801 190.43 165.497 202.824 137.297C205.777 130.579 209.657 159.025 209.699 159.145C210.688 161.942 213.707 164.112 216.761 165.271C216.761 165.271 218.128 145.555 215.752 136.259C213.517 127.515 204.891 111.688 204.891 111.688Z" fill="#EEEEEE"/>
<path fill-rule="evenodd" clip-rule="evenodd" d="M193.709 105.221C193.709 105.221 194.197 106.684 194.028 107.588C193.858 108.492 192.822 109.955 192.822 109.955C192.822 109.955 163.996 118.748 170.671 162.631C178.097 194.456 204.13 173.759 199.613 148.383C199.426 129.54 195.16 135.92 191.955 156.684C191.172 161.764 181.538 163.206 181.538 163.206" fill="#EEEEEE"/>
<ellipse cx="207.305" cy="92.9133" rx="2.65467" ry="2.172" fill="#FFB61D"/>
<ellipse cx="191.377" cy="92.9133" rx="2.65467" ry="2.172" fill="#FFB61D"/>
<path d="M194.055 95.8426C194.17 95.322 196.546 95.7306 197.215 96.6196L197.421 96.8952C198.044 97.7209 198.424 97.9813 199.227 97.9813C200.254 97.9813 200.603 97.7972 201.187 97.0328L201.343 96.8231C202.021 95.8949 204.412 95.2209 204.593 95.7222C204.774 96.2236 204.515 96.777 204.014 96.9584C203.638 97.0944 203.424 97.2726 203.058 97.7528L202.886 97.9845C201.884 99.3565 201.05 99.912 199.227 99.912C197.747 99.912 196.889 99.3575 195.975 98.1818L195.672 97.78L195.535 97.6021C195.233 97.2203 195.049 97.0659 194.836 97.005L194.789 96.9933C194.269 96.8784 193.94 96.3632 194.055 95.8426Z" fill="#00160A"/>
<path d="M195.93 81.4897C194.78 81.1378 193.732 81.037 193.125 81.1106C192.472 81.1899 191.647 81.5263 190.886 81.8368C190.277 82.0853 189.709 82.3172 189.302 82.3869C188.899 82.4562 188.293 82.4336 187.704 82.4117C186.958 82.3839 186.237 82.3571 185.98 82.5177C185.519 82.8053 186.207 83.2699 186.609 83.3232C188 83.5072 189.013 83.551 189.684 83.4436C190.279 83.3485 190.817 83.1837 191.547 82.9035L192.309 82.6136C192.816 82.4251 192.946 82.3947 193.125 82.3906L193.251 82.3909C193.761 82.4037 194.514 82.5566 195.489 82.855C195.877 82.9735 196.289 82.7639 196.411 82.3869C196.533 82.0099 196.318 81.6082 195.93 81.4897Z" fill="#00160A"/>
<path d="M198.776 91.8487C199.32 90.2579 199.636 82.4216 199.036 82.4154C198.437 82.4091 197.945 82.8903 197.939 83.49C197.93 84.3333 197.936 85.1421 197.941 85.9005C197.956 88.1765 197.968 89.9977 197.587 90.9285L197.506 91.1207C197.014 92.3407 196.876 93.3788 198.19 93.6217C198.975 93.7667 202.497 91.7688 202.294 91.2044C202.092 90.64 201.47 90.3469 200.905 90.5498L200.757 90.6024C200.422 90.72 199.984 91.0867 199.589 91.4169C199.239 91.7102 198.923 91.9747 198.744 92.01L198.716 92.0151L198.776 91.8487Z" fill="#00160A"/>
<path d="M203.235 81.4897C204.385 81.1378 205.433 81.037 206.04 81.1106C206.692 81.1899 207.518 81.5264 208.279 81.8368C208.888 82.0853 209.456 82.3172 209.863 82.3869C210.266 82.4562 210.872 82.4336 211.461 82.4117C212.207 82.3839 212.928 82.3571 213.185 82.5177C213.646 82.8053 212.958 83.2699 212.556 83.3232C211.165 83.5072 210.152 83.551 209.481 83.4436C208.886 83.3485 208.348 83.1837 207.618 82.9035L206.856 82.6136C206.349 82.4251 206.219 82.3947 206.04 82.3906L205.914 82.3909C205.404 82.4037 204.651 82.5566 203.676 82.855C203.288 82.9735 202.876 82.7639 202.754 82.3869C202.632 82.0099 202.847 81.6082 203.235 81.4897Z" fill="#00160A"/>
<path d="M209.449 86.9465C209.752 86.4291 209.579 85.7637 209.061 85.4604C208.879 85.3535 208.734 85.5565 208.514 85.8643C208.112 86.4291 207.458 87.3466 205.857 87.3466C204.245 87.3466 203.583 86.4205 203.181 85.8571C202.966 85.5568 202.826 85.3596 202.653 85.4604C202.136 85.7637 201.962 86.4291 202.266 86.9465C203.031 88.2521 204.276 88.9313 205.857 88.9313C207.438 88.9313 208.684 88.2521 209.449 86.9465Z" fill="#00160A"/>
<path d="M195.585 85.4843C196.089 85.8091 196.235 86.4812 195.91 86.9854C195.079 88.2763 193.75 88.9313 192.06 88.9313C190.358 88.9313 189.043 88.2643 188.269 86.9478C187.965 86.4308 187.848 85.7333 188.655 85.4612C189.007 85.3423 189.364 85.6863 189.806 86.1114C190.374 86.6591 191.083 87.3414 192.101 87.3414C194.027 87.3414 194.709 86.376 195.099 85.8251C195.295 85.5478 195.416 85.3756 195.585 85.4843Z" fill="#00160A"/>
<path fill-rule="evenodd" clip-rule="evenodd" d="M199.025 35.9444C192.94 37.0299 188.279 41.6404 187.369 48.4515C187.325 48.7754 187.297 49.0911 187.283 49.3989C186.229 49.7297 183.105 50.7382 183.191 51.0531C183.27 51.3462 186.041 50.6874 187.29 50.3746C187.471 53.3609 189.158 55.5018 192.001 56.8116C192.724 57.145 193.502 57.4187 194.328 57.6394C191.39 58.5647 188.387 60.2575 186.015 62.5834C181.631 66.881 179.6 72.9427 180.682 80.6451C180.691 80.7146 180.701 80.7841 180.712 80.8537C177.215 79.7766 175.087 81.206 175.087 84.9858C175.087 88.7779 180.632 90.909 182.977 89.3673C185.341 95.6273 189.023 101.415 192.724 104.765C192.612 105.007 192.588 105.291 192.679 105.565C192.951 106.38 193.034 106.996 192.96 107.388L192.945 107.46C192.861 107.805 192.62 108.298 192.217 108.914L192.14 109.03L191.914 109.101C172.535 115.325 165.12 133.36 169.597 162.794L169.613 162.878L169.696 163.225C171.857 172.176 175.946 177.398 181.04 178.751C181.04 178.776 181.04 178.8 181.04 178.825C181.931 208.973 182.709 232.994 183.375 250.89L183.617 257.245L183.858 263.269C184.199 271.547 184.505 277.912 184.777 282.366L184.95 285.099C185.248 289.571 185.422 290.555 186.06 291.007L186.122 291.048L186.17 291.077C186.307 291.156 186.476 291.228 186.679 291.291C186.441 291.29 186.203 291.29 185.963 291.29L181.25 291.286C174.877 291.267 168.775 291.18 160.676 291.007L140.752 290.553C134.789 290.429 131.435 290.39 127.697 290.396L124.674 290.409C116.079 290.477 109.322 290.86 103.601 291.666C89.8459 293.605 81.668 298.159 78.0455 306.748C76.1963 311.133 77.0868 314.923 80.4825 317.874C83.398 320.408 88.1411 322.325 94.5972 323.728L94.9576 323.805C106.002 326.149 121.684 326.998 141.57 326.699L142.793 326.68C152.134 326.519 161.713 326.135 173.243 325.515L184.722 324.865C188.755 324.632 192.91 324.393 194.389 324.314L196.39 324.211C200.639 323.999 203.378 323.921 205.068 323.974L206.964 324.045C234.368 325.049 255.754 323.678 269.513 320.448C275.79 318.974 280.28 317.147 282.791 315.068C285.51 312.816 285.98 310.105 283.964 307.712C277.674 300.244 267.35 296.025 250.672 293.776L249.81 293.662C237.861 292.112 223.401 291.488 198.646 291.331L198.782 291.322C199.397 291.28 199.882 290.781 199.906 290.165L201.697 239.927C201.747 239.928 201.799 239.927 201.853 239.923C204.193 239.762 205.778 238.316 208.664 232.876L209.008 232.222L209.401 231.461C210.104 230.162 211.974 228.143 213.576 226.413L213.576 226.412C214.628 225.277 215.565 224.265 215.981 223.663C216.844 223.832 218.098 223.965 219.743 224.061L219.949 224.072L218.644 227.242L218.619 227.31C218.456 227.806 218.72 228.35 219.222 228.523C236.446 234.446 245.81 229.823 248.228 217.376C251.677 199.622 242.342 190.703 220.83 190.93L221.17 179.566C222.492 179.379 223.729 178.847 224.839 177.946C227.98 175.398 229.811 170.115 230.172 162.116C231.4 134.941 223.469 117.832 206.322 111.068L205.739 110.843L205.684 110.69C205.382 109.836 205.18 109.144 205.077 108.623L205.055 108.506C204.947 107.895 204.947 106.874 205.067 105.477C205.082 105.303 205.056 105.135 204.995 104.983C209.219 101.566 213.342 95.4261 215.354 89.0759L215.405 89.0936C215.426 89.1008 215.447 89.1085 215.47 89.1165L216.396 89.4459C217.005 89.6505 217.514 89.7822 218.035 89.8507C220.892 90.2259 222.63 88.3638 222.63 84.0427C222.63 82.4095 221.844 81.2796 220.374 81.022C219.413 80.8535 218.206 81.0763 216.707 81.6604C217.422 72.268 215.222 65.5499 210.736 61.3513C209.046 59.7695 207.069 58.6107 205.016 57.8621C206.925 57.3516 208.837 56.4877 210.323 55.3056C213.734 52.5934 214.809 48.5142 212.853 43.2164L219.504 41.7323L219.557 41.7138C219.781 41.6215 219.837 41.0674 219.837 40.6536C219.837 40.2397 219.497 39.7656 219.24 39.8383L212.436 42.1821C210.247 37.3227 204.731 34.9265 199.025 35.9444ZM188.646 292.741L188.973 292.742C190.54 292.744 192.07 292.751 193.565 292.761C193.45 294.073 193.422 295.67 193.536 296.84H188.991C188.947 295.904 188.83 294.173 188.646 292.741ZM187.314 292.74C187.21 293.568 187.125 294.502 187.05 295.341C186.99 296.001 186.936 296.602 186.881 297.047C186.844 297.076 186.809 297.109 186.775 297.144C184.235 299.843 181.606 301.6 178.889 302.433L178.447 302.565C176.124 303.244 171.774 304.315 171.86 304.29C169.964 304.831 169.046 305.454 168.723 306.754C168.192 308.895 170.358 309.834 175.977 309.871L176.405 309.872C177.327 309.871 178.141 309.777 179.934 309.493L181.329 309.271C182.736 309.052 183.568 308.958 184.33 308.951L184.66 308.953C185.06 308.964 185.473 309.005 186.377 309.12L187.481 309.264C188.12 309.346 188.572 309.396 189.049 309.435C191.024 309.598 192.533 309.462 193.796 308.856C197.066 307.287 197.464 303.384 195.324 297.476C195.321 297.47 195.319 297.463 195.316 297.456C195.327 297.39 195.333 297.322 195.333 297.254V292.775C222.635 293.015 237.847 294.482 250.349 296.168L251.31 296.301C266.881 298.506 276.409 302.489 282.118 309.267C284.422 312.002 280.265 315.445 268.961 318.099C255.304 321.305 233.823 322.657 206.213 321.602L205.374 321.57C203.398 321.491 200.073 321.597 194.564 321.888L189.498 322.173C187.57 322.283 185.351 322.411 183.253 322.532C180.118 322.713 177.253 322.878 176.033 322.946L173.116 323.105C162.091 323.698 152.859 324.074 143.916 324.246L142.751 324.267C122.453 324.616 106.506 323.789 95.4587 321.444C82.6326 318.722 76.5321 314.258 79.3038 307.686C82.5001 300.107 90.7883 295.006 103.549 293.146L103.938 293.091C107.752 292.553 112.058 292.637 117.102 292.736C119.612 292.785 122.304 292.837 125.21 292.819L127.7 292.809C131.742 292.803 158.682 292.412 158.682 292.412C168.114 292.621 174.828 292.721 181.997 292.735L187.314 292.74ZM203.37 106.159C201.766 107.177 200.185 107.755 198.738 107.755C197.602 107.755 196.382 107.339 195.131 106.587C195.175 107.019 195.164 107.419 195.095 107.788C194.947 108.577 194.481 109.973 193.708 111.065C193.687 111.095 193.664 111.124 193.64 111.152C194.676 111.739 196.278 112.349 198.49 112.039C200.927 111.698 202.274 110.832 203.091 110.159C202.964 108.866 203.128 107.332 203.37 106.159ZM203.358 111.453C202.346 112.776 200.641 114.211 198.49 114.211C195.248 114.211 193.119 113.407 192.427 111.7C174.499 117.522 166.599 133.716 170.652 161.608L170.773 162.424L170.839 162.702C173.326 173.03 179.192 177.567 184.969 176.86L185.146 176.836C190.318 176.109 195.36 171.13 196.709 165.456L196.909 164.602C197.916 160.223 198.527 156.351 198.527 153.169L198.524 151.849C198.49 144.917 198.194 139.787 197.821 137.524L197.794 137.37L197.753 137.482C197.596 137.908 197.427 138.43 197.25 139.046L197.197 139.233C196.382 142.123 195.426 146.821 194.339 153.348C193.54 158.145 180.71 164.166 180.518 163.598C180.458 163.42 181.51 162.697 183.004 161.667L183.005 161.666L183.011 161.662C183.594 161.261 184.243 160.814 184.919 160.335C184.895 160.291 184.871 160.243 184.846 160.193C182.956 156.402 181.791 153.075 181.361 150.199C180.935 147.356 181.928 135.917 182.559 135.92L182.638 135.923C182.956 135.945 182.887 137.428 182.783 139.625C182.67 142.02 182.517 145.265 182.782 148.394C183.071 151.792 184.577 155.215 185.624 157.592C185.913 158.249 186.166 158.826 186.35 159.3C189.115 157.248 191.887 154.848 192.196 152.991L192.443 151.528C193.421 145.802 194.292 141.577 195.058 138.815L195.106 138.644C195.526 137.155 195.917 136.092 196.304 135.415C196.911 134.353 197.831 133.799 198.798 134.569C199.873 135.423 200.41 139.098 200.608 145.799C200.772 142.798 201.045 140.368 201.415 138.549C201.725 137.028 202.101 135.928 202.571 135.232C203.239 134.244 204.282 133.907 205.231 134.57L205.295 134.617C207.333 136.178 208.706 143.746 208.787 153.588L208.791 154.411L208.81 154.526C210.055 159.231 212.634 161.973 214.975 163.615C219.751 155.789 216.971 141.29 215.792 135.139C215.452 133.367 215.245 132.288 215.391 132.262C216.046 132.143 216.674 132.579 216.793 133.234C218.302 141.579 219.079 147.749 219.121 151.774C219.164 155.847 218.482 160.139 217.08 164.649C217.059 164.714 217.034 164.776 217.004 164.835C217.718 165.202 218.345 165.467 218.818 165.667C219.429 165.926 219.783 166.076 219.737 166.195C219.523 166.756 210.867 166.756 206.633 154.68C206.618 154.638 206.618 154.577 206.618 154.523L206.618 154.504C206.618 149.467 206.273 144.976 205.668 141.549C205.392 139.989 205.069 138.7 204.725 137.754L204.679 137.629C204.525 137.224 204.374 136.906 204.245 136.686L204.239 136.676L204.212 136.73C203.985 137.198 203.752 137.958 203.544 138.982L203.51 139.152C203.404 139.692 203.273 140.291 203.129 140.947C202.508 143.775 201.654 147.665 201.634 152.512L201.633 153.236C201.633 161.692 207.577 171.931 214.334 175.943C221.356 180.111 227.37 176.014 228.003 162.018C229.217 135.144 221.796 117.137 204.522 112.709C203.958 112.565 203.587 112.098 203.358 111.453ZM200.584 155.826C200.338 158.828 199.711 162.223 198.822 165.959C197.274 172.471 191.543 178.13 185.448 178.987C184.395 179.135 183.369 179.144 182.376 179.014C182.437 179.901 182.507 181.178 182.584 182.789C182.801 182.759 183.029 182.788 183.244 182.884C184.834 183.599 193.636 184.587 201.282 184.74L201.85 184.75C210.946 184.887 217.459 183.876 218.682 182.019L218.756 179.541C217.284 179.319 215.746 178.734 214.191 177.81C207.464 173.816 201.607 164.428 200.584 155.826ZM177.259 84.9858C177.071 82.1733 179.349 82.358 181.03 82.6785C181.388 84.4604 181.887 86.2594 182.496 88.0322L182.41 88.0298C180.543 87.978 177.454 87.8923 177.259 84.9858ZM216.573 83.1341C216.539 83.459 216.501 83.787 216.46 84.1179C216.312 85.3148 216.069 86.5278 215.745 87.7395C217.921 87.9971 221.564 88.1394 220.884 83.3061C220.619 81.4238 218.193 82.4447 216.573 83.1341ZM198.413 56.854C199.342 56.7988 200.304 56.8317 201.278 56.954C203.743 56.9238 207.431 55.7992 209.121 53.7945C215.752 45.93 206.559 37.0203 199.418 38.1719C194.116 39.0271 189.113 42.7504 188.317 48.7073C187.935 51.5687 189.803 56.1256 198.413 56.854ZM184.233 227.751C185.241 257.33 186.326 289.174 186.816 290.027C186.899 290.176 188.158 290.187 189.156 290.197L189.157 290.197H189.162C189.424 290.199 189.667 290.202 189.867 290.206L190.404 290.214L191.014 290.215C192.491 290.208 194.354 290.139 196.6 290.008L197.536 289.95L201.226 202.009C201.125 200.009 199.279 197.723 198.039 196.185C197.3 195.27 196.776 194.621 196.961 194.455C197.452 194.017 201.288 198.318 201.995 199.839C202.008 199.891 202.023 199.96 202.04 200.044C202.475 198.903 203.088 197.705 203.886 196.461C204.174 196.012 207.824 190.949 205.22 196.169C199.644 207.347 205.96 211.891 216.985 211.931L217.026 211.931L217.031 211.931C217.122 211.932 217.19 211.932 217.341 211.913C221.633 211.368 226.292 211.62 229.962 212.098C233.568 212.569 239.804 216.081 232.746 218.064C231.06 218.538 228.35 218.252 225.221 217.572L224.373 217.431L219.404 227.483L220.263 227.668C235.322 232.456 244.056 227.988 246.266 217.342L246.333 217.007C249.485 200.782 242.718 190.741 220.804 191.812L220.775 192.765C220.755 193.431 220.199 193.955 219.533 193.935C218.867 193.915 218.343 193.358 218.363 192.692L218.385 191.969C210.711 192.532 215.737 191.569 218.41 191.139L218.591 185.075C215.431 186.683 209.609 187.282 201.869 187.164L201.234 187.153C193.735 187.003 185.345 186.103 182.696 185.25C183.097 194.431 183.652 210.714 184.233 227.748L184.233 227.751ZM222.225 218.545L220.434 222.895C219.193 222.706 218.337 222.486 217.695 222.321C217.482 222.267 217.292 222.218 217.12 222.179C216.887 220.45 216.893 219.197 217.111 218.457C217.3 217.814 217.574 217.451 217.931 217.288C218.701 217.54 219.607 217.813 220.65 218.109L221.433 218.329L222.225 218.545ZM215.488 222.3C215.583 222.238 215.683 222.191 215.786 222.158C215.526 220.767 215.524 218.65 215.742 217.911C215.89 217.408 216.016 217.012 216.185 216.693C215.937 216.608 215.559 216.414 215.095 216.177C212.956 215.082 208.97 213.042 207.214 216.243C204.252 221.646 201.65 238.619 202.407 238.624C203.484 238.63 206.223 234.8 208.025 231.398L208.105 231.246L208.57 230.341C209.985 227.597 212.245 224.427 215.488 222.3ZM223.944 216.363C223.557 216.295 223.175 216.467 222.967 216.786C222.885 216.736 222.794 216.697 222.695 216.673L216.012 215.023L215.865 214.939C210.783 212.067 207.497 212.31 205.204 215.51C204.39 216.644 203.983 218.071 203.787 219.964L203.764 220.203L203.736 220.529C203.71 220.857 203.689 221.196 203.668 221.615L203.586 223.36L203.571 223.624C203.546 224.035 203.52 224.303 203.484 224.555L203.461 224.705L203.387 225.11L203.342 225.319C203.316 225.432 203.284 225.561 203.243 225.722L203.125 226.173L202.4 228.79C202.27 229.387 202.148 229.949 202.034 230.477L202.811 208.686C205.252 211.717 210.44 213.313 217.852 212.852L218.463 212.818C218.75 212.803 219.04 212.787 219.332 212.772L219.341 212.771L219.394 212.768L219.405 212.768C222.633 212.594 226.136 212.406 229.31 213.111C237.224 214.869 233.987 216.484 233.29 216.832L233.248 216.853L233.227 216.864L233.136 216.907C232.021 217.403 229.406 217.302 224.463 216.453L223.944 216.363ZM172.125 305.742L172.389 305.665C172.261 305.703 181.807 304.352 186.916 299.037C187.88 298.034 193.731 298.771 193.731 298.771L193.737 298.786C195.94 302.433 196.257 306.225 193.494 307.343C192.519 307.738 190.871 308.131 189.208 307.994L188.966 307.973L188.625 307.939C188.391 307.914 188.139 307.884 187.843 307.846L186.199 307.635C185.334 307.529 184.952 307.502 184.429 307.502C183.516 307.502 179.128 308.147 179.128 308.147C177.789 308.353 177.107 308.423 176.402 308.424C173.581 308.428 171.804 307.735 170.93 307.379L170.847 307.343C170.769 307.308 170.705 307.273 170.655 307.241L170.602 307.202L170.597 307.219C170.698 306.811 171.04 306.072 172.125 305.742ZM214.827 84.1179C215.103 81.8839 215.194 79.7958 215.121 77.8546C211.776 79.1825 208.428 78.9387 205.583 77.2633C203.245 75.8867 201.14 73.6992 199.258 70.7122L199.189 70.6016L199.127 70.7219C197.607 73.6077 195.645 75.9125 193.244 77.6247L193.003 77.7939C189.989 79.8678 186.454 80.7935 182.432 80.5737L182.448 80.6451C184.742 90.7413 192.714 106.296 198.87 106.669C201.224 106.812 204.641 103.009 207.81 98.8856C211.231 94.4337 214.199 89.2051 214.827 84.1179ZM209.252 62.937C212.264 65.7567 214.391 70.0643 214.98 75.8229C214.944 75.8341 214.909 75.8475 214.874 75.8631C211.918 77.1889 209.019 77.5288 206.563 76.0823C204.13 74.6498 201.919 71.6647 199.945 68.0737C199.558 67.3696 198.531 67.4188 198.213 68.1566C198.15 68.3032 198.081 68.4683 198.005 68.6492C197.133 70.7352 195.379 74.9284 191.576 77.142C188.807 78.7534 184.721 79.1614 182.703 79.3629L182.701 79.3631L182.698 79.3634C182.518 79.3814 182.354 79.3977 182.21 79.4131C182.135 78.9433 182.078 78.4764 182.039 78.013C184.344 77.5956 189.189 76 191.136 74.7766C193.607 73.2247 194.364 71.6408 195.622 69.0076C195.852 68.525 196.099 68.007 196.377 67.4477C196.617 66.9647 197.186 63.7463 195.838 66.1938C195.756 66.3425 195.669 66.5048 195.576 66.6791L195.575 66.6801L195.575 66.6807L195.574 66.6812C194.171 69.3038 191.321 74.6316 181.983 77.0619C181.801 71.6549 183.987 66.8098 187.183 63.6765C190.168 60.7502 194.682 58.8154 198.112 58.4826C201.72 58.1326 206.083 59.9708 209.252 62.937Z" fill="#00160A"/>
<path fill-rule="evenodd" clip-rule="evenodd" d="M111.554 231.599C110.976 225.44 108.11 219.344 103.568 215.158C100.261 212.11 95.5213 209.558 91.0986 211.741C84.2945 215.802 82.4674 224.136 83.1534 231.599C84.0039 240.848 88.3245 246.551 96.6249 249.958C101.302 251.877 104.411 254.409 106.949 258.82C108.98 262.348 110.164 266.765 112.716 269.963C116.531 274.743 121.306 276.869 127.191 276.074C128.357 276.074 132.114 279.573 133.289 281.692C136.355 287.226 138.987 293.07 140.195 299.318C140.547 301.142 140.298 307.963 141.543 309.28C143.819 311.688 143.152 307.051 143.016 305.651C141.885 294.06 137.724 284.186 131.683 274.442C133.539 272.018 133.807 265.848 133.224 263.902C131.683 257.869 112.717 243.997 111.554 231.599Z" fill="#EEEEEE"/>
<path fill-rule="evenodd" clip-rule="evenodd" d="M90.4023 210.342L90.3685 210.361C84.048 214.133 81.7362 219.405 82.1901 231.643C82.667 244.502 87.3309 246.781 95.7039 250.299L95.9589 250.405C100.659 252.333 103.623 254.847 106.048 259.061L106.243 259.405C106.667 260.168 107.045 260.948 107.579 262.139L108.535 264.308C109.825 267.218 110.647 268.749 111.856 270.264C115.825 275.236 120.788 277.36 126.772 276.553L126.829 276.542L126.885 276.524C127.812 276.159 130.965 279.365 132.384 281.926C135.83 288.145 138.055 293.57 139.163 299.029L139.238 299.409C139.31 299.779 139.357 300.348 139.412 301.428L139.487 303.027C139.505 303.401 139.522 303.725 139.54 304.032L139.551 304.214C139.731 307.19 140.026 308.889 140.709 309.611C141.622 310.577 142.464 310.759 142.926 309.92C143.188 309.443 143.25 308.673 143.193 307.59L143.171 307.228C143.157 307.043 143.141 306.851 143.121 306.645L142.965 305.125C141.859 294.586 138.258 285.022 131.901 274.659L131.778 274.458L131.856 274.333C133.378 271.821 133.933 266.197 133.203 263.764C131.957 259.606 129.491 256.24 125.005 251.803L124.224 251.033C116.638 243.53 114.093 239.66 112.008 231.401L111.291 228.544L111.273 228.474C109.56 221.873 107.763 217.944 104.365 214.812C100.287 211.054 94.5552 208.293 90.4023 210.342ZM103.711 215.522C106.828 218.395 109.032 222.025 110.651 228.071L110.999 229.409L111.483 231.351C112.008 236.556 113.631 242.688 123.546 251.72L124.073 252.24C128.615 256.697 131.067 259.999 132.279 264.041C132.967 266.339 132.337 272.163 130.817 274.148C130.695 274.308 130.684 274.526 130.79 274.696C137.255 285.123 140.897 294.679 142.004 305.218L142.14 306.531L142.178 306.929C142.195 307.119 142.209 307.297 142.219 307.47L142.229 307.64C142.276 308.541 142.224 309.193 142.08 309.455L142.073 309.472L142.09 309.477C141.962 309.449 141.726 309.281 141.411 308.948C140.974 308.486 140.691 306.915 140.527 304.365L140.493 303.791L140.367 301.214C140.316 300.237 140.27 299.688 140.197 299.286L140.186 299.226C139.084 293.524 136.799 287.904 133.228 281.458L133.15 281.319C131.48 278.385 128.236 275.1 126.608 275.599L126.598 275.602L126.643 275.596C121.004 276.357 116.372 274.375 112.611 269.662C111.434 268.188 110.628 266.665 109.305 263.661L108.622 262.109C107.903 260.487 107.457 259.574 106.885 258.579C104.397 254.256 101.333 251.617 96.5906 249.622L96.3254 249.512C88.117 246.143 83.9781 240.545 83.1514 231.554L83.1278 231.286C82.4308 222.983 84.923 215.822 90.6766 212.268L90.8461 212.165L90.8295 212.173C94.5578 210.334 99.8953 212.005 103.711 215.522Z" fill="#00160A"/>
<path fill-rule="evenodd" clip-rule="evenodd" d="M138.289 276.222C141.082 276.651 143.514 275.016 144.451 272.291C145.26 269.936 145.339 267.197 146.259 264.97C146.892 263.437 147.899 262.135 149.131 261.033C152.379 258.129 155.771 257.403 156.74 252.582C157.499 248.804 156.556 241.102 151.282 241.869C147.613 242.406 144.648 247.309 142.939 250.401C140.825 254.227 138.852 258.327 137.74 262.529C135.91 269.452 135.663 277.136 135.64 284.227C135.637 285.081 135.459 295.518 136.679 295.347C137.888 295.177 137.122 284.344 137.226 282.101" fill="#EEEEEE"/>
<path fill-rule="evenodd" clip-rule="evenodd" d="M98.5684 218.31C97.6388 218.787 97.8211 220.321 98.9332 223.058C100.047 225.801 101.691 227.866 103.369 228.805C105.086 229.766 106.654 229.37 107.088 227.685C107.479 226.165 104.804 222.362 101.965 219.847C100.487 218.538 99.3333 217.918 98.5684 218.31ZM101.325 220.57C103.604 223.325 106.413 226.916 106.153 227.927C105.899 228.916 105.06 229.128 103.841 228.445C102.37 227.623 100.601 225.288 99.5638 222.735L99.4112 222.351C98.4628 220.523 98.4655 218.872 99.009 218.686C99.5262 218.509 100.647 219.75 101.325 220.57ZM146.395 248.29C146.016 247.254 147.155 245.978 149.257 245.058C151.513 244.071 152.981 244 152.974 245.229C152.969 246.059 151.849 247.219 150.141 248.262C148.409 249.319 146.792 249.376 146.395 248.29ZM151.995 245.294C151.956 245.289 151.908 245.285 151.848 245.286L151.785 245.288C151.722 245.291 151.645 245.288 151.552 245.286C150.973 245.269 149.783 245.236 147.556 246.34C147.079 246.577 146.774 247.835 146.819 247.959C146.928 248.257 148.351 248.706 149.638 247.921C150.174 247.593 150.644 247.015 151.027 246.545C151.188 246.347 151.334 246.169 151.462 246.036C151.751 245.736 151.927 245.478 151.986 245.321L151.995 245.294ZM148.352 254.679L148.118 255.057C147.098 256.722 146.481 257.902 146.233 258.647C145.901 259.643 146.256 260.347 147.178 260.046C148.019 259.771 149.639 258.409 151.654 256.421C153.284 254.813 154.099 252.369 153.474 251.198C152.624 249.606 150.641 250.998 148.352 254.679ZM152.622 251.17C153.008 251.892 152.335 254.393 150.976 255.734L150.519 256.18C150.165 256.522 149.785 256.906 149.409 257.287C148.252 258.458 147.126 259.598 146.855 259.399C146.54 259.167 147.566 256.994 148.689 255.189C149.771 253.449 151.19 251.842 151.907 251.339C152.374 251.011 152.541 251.018 152.622 251.17ZM139.205 269.568C138.931 271.388 139.176 272.747 140.095 272.935C141.04 273.129 142.044 271.87 143.163 269.303C144.232 266.853 143.952 264.531 142.554 264.179C141.112 263.816 139.803 265.826 139.234 269.383L139.205 269.568ZM142.318 265.115C142.943 265.272 143.266 266.91 142.459 269.011C141.824 270.662 140.095 274.583 139.638 271.513C139.568 271.046 139.568 270.436 139.677 269.712L139.735 269.346C140.233 266.422 141.68 264.955 142.318 265.115ZM89.1981 239.211C86.8341 236.632 85.4344 233.419 86.5976 232.014C87.9836 230.339 94.3804 236.133 94.2969 239.028C94.2481 240.717 93.513 241.584 92.2948 241.363C91.3916 241.198 90.2907 240.403 89.1981 239.211ZM87.3376 232.151L87.3042 232.195C86.6706 233.114 87.4109 236.359 89.427 238.559C90.3894 239.608 91.8231 240.778 92.4676 240.895C93.0059 240.993 93.2983 240.649 93.3319 239.483C93.3628 238.412 92.171 236.172 90.4264 234.592C90.2334 234.417 90.0028 234.181 89.7526 233.926L89.7526 233.926C88.9942 233.151 88.056 232.193 87.4411 232.185C87.3434 232.184 87.3223 232.174 87.3376 232.151ZM87.3376 232.151L87.3413 232.146C87.3399 232.148 87.3387 232.15 87.3376 232.151ZM115.276 267.359C115.815 269.703 116.88 271.228 118.322 272.065C119.3 272.632 120.208 272.798 121.248 272.798C123.48 272.798 124.515 271.804 124.127 270.189C123.835 268.978 122.715 267.473 121.222 266.161C119.733 264.853 118.136 263.966 116.976 263.894C115.39 263.795 114.75 265.076 115.276 267.359ZM116.916 264.857C117.813 264.913 119.242 265.707 120.584 266.886C121.942 268.079 122.953 269.437 123.188 270.415C123.413 271.351 122.911 272.316 121.248 272.316C120.362 272.316 119.608 272.177 118.806 271.712C117.604 271.015 116.215 269.234 115.734 267.143C115.334 265.404 116.114 264.807 116.916 264.857ZM119.305 257.445C117.307 255.785 116.351 254.04 116.926 253.08C117.582 251.987 119.298 252.698 121.037 254.609C122.125 255.804 123.649 257.872 124.099 258.894C124.282 259.31 124.344 259.62 124.204 259.904C123.992 260.332 123.57 260.343 123.077 260.141C122.447 259.883 121.383 259.144 119.809 257.861L119.305 257.445ZM118.316 253.655C118.104 253.568 117.936 253.536 117.826 253.549C117.775 253.556 117.762 253.563 117.754 253.577C117.742 253.597 117.72 253.624 117.693 253.657C117.558 253.823 117.298 254.142 117.524 254.553C117.878 255.201 119.01 256.428 119.922 257.186C121.138 258.197 122.413 258.906 123.172 259.328L123.172 259.328C123.314 259.407 123.438 259.476 123.54 259.535L123.605 259.571L123.533 259.437C123.009 258.479 121.333 256.392 120.431 255.378L120.324 255.259C119.565 254.426 118.866 253.883 118.316 253.655ZM98.1021 244.392C97.5266 245.352 98.4826 247.097 100.481 248.757L100.985 249.173C102.559 250.456 103.623 251.195 104.253 251.453C104.746 251.655 105.168 251.644 105.38 251.216C105.52 250.932 105.458 250.622 105.275 250.206C104.825 249.184 103.301 247.116 102.213 245.921C100.474 244.01 98.7576 243.299 98.1021 244.392ZM99.002 244.861C99.1119 244.848 99.2802 244.88 99.4919 244.967C100.042 245.195 100.741 245.738 101.5 246.571L101.607 246.69C102.509 247.704 103.702 249.791 104.227 250.749L104.298 250.883L104.234 250.847C103.586 250.473 102.542 249.698 101.098 248.498C100.186 247.74 99.0545 246.513 98.6995 245.865C98.4739 245.454 98.7341 245.135 98.8692 244.969C98.896 244.936 98.9179 244.909 98.9301 244.889C98.9382 244.875 98.9507 244.868 99.002 244.861ZM110.134 245.861C108.136 244.201 107.18 242.456 107.755 241.496C108.411 240.403 110.128 241.114 111.867 243.025C112.955 244.22 114.478 246.288 114.928 247.31C115.111 247.726 115.173 248.036 115.033 248.32C114.821 248.748 114.4 248.759 113.906 248.557C113.277 248.299 112.212 247.56 110.639 246.277L110.134 245.861ZM109.145 242.071C108.934 241.984 108.765 241.952 108.655 241.965C108.604 241.972 108.592 241.979 108.583 241.993C108.581 241.997 108.579 242.001 108.576 242.005C108.493 242.142 108.249 242.547 108.511 243.025C108.865 243.673 109.903 245.313 110.268 245.602C111.352 246.459 112.711 247.124 113.611 247.565C113.934 247.723 114.199 247.852 114.37 247.951L114.434 247.987L114.363 247.853C113.838 246.895 112.163 244.808 111.26 243.794L111.153 243.675C110.395 242.842 109.696 242.299 109.145 242.071Z" fill="#FFB61D"/>
<path fill-rule="evenodd" clip-rule="evenodd" d="M151.213 241.392C153.877 241.004 156.233 242.545 157.212 245.362C157.981 247.576 157.65 250.504 157.213 252.677C156.653 255.465 155.486 256.955 152.915 258.801L151.371 259.885C150.837 260.265 150.4 260.595 149.981 260.94C149.799 261.09 149.623 261.24 149.452 261.393C148.209 262.505 147.282 263.757 146.705 265.154L146.626 265.351C146.32 266.134 146.127 266.911 145.848 268.359L145.608 269.627C145.366 270.888 145.183 271.647 144.908 272.448C143.851 275.52 141.621 277.148 138.699 276.699C138.435 276.658 137.57 276.724 139.509 276.331C141.449 275.938 143.08 274.794 143.995 272.134C144.252 271.385 144.427 270.659 144.662 269.437L144.903 268.162C145.216 266.537 145.429 265.715 145.812 264.786C146.448 263.248 147.462 261.878 148.809 260.674C148.99 260.512 149.176 260.353 149.367 260.195C149.751 259.879 150.147 259.577 150.608 259.244L151.078 258.91C151.467 258.637 152.061 258.224 152.181 258.139L152.514 257.899C154.788 256.242 156.257 254.938 156.749 252.487C157.153 250.478 156.528 247.724 155.817 245.679C154.975 243.256 153.492 241.553 151.352 241.864C148.202 242.325 140.381 253.773 138.218 260.782C136.439 266.549 135.987 275.403 136.105 283.352L136.124 284.484L136.122 286.046C136.123 287.311 136.135 288.368 136.169 289.468L136.177 289.744C136.23 291.335 136.322 292.642 136.46 293.582C136.505 293.892 136.555 294.157 136.608 294.373L136.635 294.478L136.65 294.413C136.71 294.123 136.759 293.744 136.796 293.283L136.808 293.127L136.83 292.795C136.889 291.766 136.901 290.451 136.876 288.808L136.854 287.66C136.844 287.239 136.832 286.785 136.817 286.258L136.736 283.225C136.727 282.754 136.728 282.507 136.736 282.277L136.772 281.398C136.798 280.684 136.814 279.943 136.832 278.765L136.859 277.058C136.933 273.155 137.075 271.211 137.54 268.821C137.61 268.461 137.687 268.105 137.77 267.754C138.988 262.625 141.61 258.934 144.146 254.41C144.908 253.052 148.905 250.971 148.942 251.235C148.979 251.499 145.519 253.061 144.469 254.807C142.235 258.523 139.9 262.963 138.709 267.977C138.629 268.315 138.555 268.658 138.488 269.006L138.4 269.475C138.017 271.596 137.892 273.495 137.824 277.086L137.774 280.076C137.761 280.685 137.747 281.169 137.728 281.662L137.699 282.379C137.692 282.643 137.695 282.969 137.712 283.667L137.814 287.455C137.823 287.827 137.83 288.171 137.836 288.514L137.852 289.622C137.898 293.916 137.698 295.692 136.746 295.825C136.001 295.929 135.722 295.205 135.505 293.722C135.369 292.796 135.278 291.556 135.223 290.06L135.213 289.776C135.172 288.563 135.158 287.429 135.156 286.049L135.157 284.239C134.953 275.979 135.9 266.588 137.779 260.498C140.044 253.155 147.558 241.926 151.213 241.392Z" fill="#00160A"/>
<ellipse cx="136.595" cy="300.219" rx="18.824" ry="13.9973" fill="#EEEEEE"/>
<ellipse cx="129.116" cy="300.219" rx="11.345" ry="13.9973" fill="#E7EAEE"/>
<path fill-rule="evenodd" clip-rule="evenodd" d="M155.419 285.618H117.771C117.437 285.618 117.167 285.888 117.167 286.221C117.167 296.533 118.14 302.953 120.726 307.41C123.641 312.436 128.664 314.819 136.595 314.819C144.525 314.819 149.548 312.436 152.463 307.41C155.049 302.953 156.022 296.533 156.022 286.221C156.022 285.888 155.752 285.618 155.419 285.618ZM119.34 286.825H154.331L154.331 286.963C154.285 296.641 154.29 302.688 151.902 306.805C149.223 311.423 144.125 314.095 136.595 314.095C129.064 314.095 124.449 310.94 121.77 306.322L121.68 306.165C119.389 302.106 119.412 296.678 119.343 287.344L119.34 286.825Z" fill="#00160A"/>
</svg>
