<svg width="362" height="362" viewBox="0 0 362 362" fill="none" xmlns="http://www.w3.org/2000/svg">
<rect width="362" height="362" fill="#EEEEEE"/>
<path fill-rule="evenodd" clip-rule="evenodd" d="M307.827 271.784C363.261 222.324 291.692 194.102 304.882 152.305C318.072 110.508 351.459 47.6503 226.887 58.7246C102.315 69.7988 -1.10602 195.616 43.3045 254.831C87.7149 314.045 252.394 321.244 307.827 271.784Z" fill="black"/>
<path fill-rule="evenodd" clip-rule="evenodd" d="M204.988 170.386C208.587 172.133 212.185 173.881 215.784 175.628C221.453 178.381 227.219 181.2 231.79 185.529C236.362 189.858 239.631 196.016 238.946 202.262C238.141 209.605 232.318 215.261 226.85 220.248C219.722 226.749 212.594 233.25 205.466 239.752C202.343 242.601 198.922 246.658 200.605 250.53C204.974 260.585 208.931 272.024 204.958 282.242C203.837 285.127 201.514 288.105 198.413 287.963C196.105 287.858 194.274 286.05 192.79 284.286C186.889 277.274 182.51 268.997 180.04 260.184C176.877 248.899 177.263 235.673 184.961 226.816C190.943 219.933 201.251 215.305 201.888 206.222C190.233 196.362 173.374 193.001 158.809 197.636C144.244 202.271 132.461 214.746 128.7 229.512C126.652 237.554 131.236 245.832 136.875 251.937C142.514 258.041 149.431 263.102 153.77 270.183C162.496 284.425 158.686 302.66 154.603 318.842C153.186 324.458 144.636 325.395 140.38 321.453C136.124 317.511 135.391 311.072 135.842 305.299C136.293 299.526 137.645 293.691 136.511 288.012C133.583 273.356 116.365 266.666 107.927 254.311C101.533 244.948 100.652 232.697 103.02 221.62C105.387 210.543 110.682 200.339 115.92 190.288C106.172 175.418 102.08 156.962 104.633 139.385C105.922 130.517 94.2061 123.693 95.4261 114.814C96.3999 107.728 104.743 104.529 111.795 103.196C125.218 100.658 138.944 99.7204 152.589 100.408C155.64 100.562 156.982 96.1458 155.454 93.5102C153.926 90.8746 150.943 89.5178 148.472 87.7281C143.494 84.1226 140.367 78.438 138.642 72.5519C136.429 64.9981 136.425 56.4212 140.535 49.7018C141.562 48.0226 143.328 45.5337 146.015 47.9456C146.822 43.7357 155.381 39.6895 160.853 41.9495C164.133 43.3041 167.628 40.5262 169.713 37.6623C171.797 34.7983 173.813 31.3401 177.277 30.563C183.48 29.1715 187.452 37.4412 186.737 43.7357C186.023 50.0302 183.245 56.68 185.972 62.402C187.01 64.5775 188.806 66.4612 189.15 68.8452C189.449 70.9132 188.914 70.1068 187.749 74.8682C186.585 79.6296 183.78 81.1588 182.623 83.793C180.843 87.8473 181.111 91.4086 177.391 94.9969C176.765 95.6007 178.04 96.9845 177.59 98.0098C186.75 98.1407 193.709 105.752 200.799 111.533C209.617 118.722 220.404 123.752 231.755 124.727C243.106 125.703 254.984 122.384 263.46 114.798C266.778 111.827 274.692 115.708 275.27 111.301C275.38 110.159 275.077 109.668 273.992 109.387C273.43 109.242 272.102 109.544 271.69 109.015C270.482 107.466 277.52 104.796 277.222 106.923C277.146 107.468 276.826 107.87 276.867 108.223C276.985 109.249 277.571 109.566 278.476 109.747C280.383 109.865 283.115 108.562 284.256 106.923C285.02 105.824 284.722 105.533 284.123 105.485C283.143 105.405 281.357 105.975 282.089 104.729C282.988 103.196 285.307 101.742 287.512 103.077C287.988 103.365 287.821 103.924 287.577 104.473C287.129 105.481 286.422 106.456 288.954 105.663C292.867 104.439 293.091 104.668 294.102 104.968C295.113 105.267 296.597 107.044 297.548 108.703C299.503 112.118 301.508 115.7 301.691 119.628C301.874 123.555 299.6 127.898 295.734 128.683C295.699 129.826 296.26 130.903 297.111 131.661C298.039 132.486 300.422 131.983 300.022 132.72C298.72 135.116 295.552 135.731 293.057 134.892C292.373 134.662 293.952 133.483 294.102 132.666C294.342 131.357 294.069 129.948 293.269 128.879C291.013 129.831 288.757 130.782 286.501 131.734C287.156 132.568 286.857 133.558 287.512 134.392C288.13 135.18 289.717 134.98 289.983 136.099C290.273 137.314 287.929 137.824 286.719 137.938C285.392 138.063 283.328 138.198 282.71 137.314C282.007 136.309 284.208 135.987 284.31 134.935C284.421 133.787 284 132.56 282.988 132.004C281.051 130.94 278.27 132.9 278.632 135.075C279.543 140.554 277.264 146.446 272.899 149.9C268.533 153.353 262.257 154.228 257.107 152.102C252.451 150.179 247.294 152.652 242.476 154.127C231.553 157.469 219.089 155.338 209.91 148.557C209.381 156.137 207.924 164.348 203.061 169.937C203.849 170.386 203.444 170.386 204.988 170.386Z" fill="#EEEEEE"/>
<ellipse cx="156.402" cy="85.6733" rx="2.65467" ry="2.64593" fill="#FFB61D"/>
<circle cx="175.449" cy="80.364" r="2.65467" fill="#FFB61D"/>
<path fill-rule="evenodd" clip-rule="evenodd" d="M190.953 198.611C189.758 198.075 188.561 197.539 187.357 197.017C178.54 193.192 167.966 190.442 159.647 195.247C158.377 187.161 167.077 180.985 175.084 179.156C177.28 178.654 179.546 178.298 181.812 177.943C187.808 177.001 193.805 176.059 198.512 172.414C205.501 167.002 207.365 157.355 207.98 148.557C217.159 155.338 229.622 157.469 240.545 154.127C241.379 153.872 242.223 153.586 243.073 153.299C247.133 151.928 251.326 150.511 255.177 152.102C260.326 154.228 266.602 153.353 270.968 149.9C275.334 146.446 277.612 140.554 276.701 135.075C276.339 132.9 279.12 130.94 281.058 132.004C282.069 132.56 282.49 133.787 282.379 134.935C282.334 135.406 281.868 135.731 281.43 136.036C280.889 136.412 280.391 136.759 280.779 137.314C281.397 138.198 283.462 138.063 284.788 137.938C285.999 137.824 288.342 137.314 288.053 136.099C287.9 135.458 287.314 135.25 286.725 135.041C286.286 134.885 285.845 134.729 285.581 134.392C285.254 133.975 285.165 133.519 285.076 133.063C284.987 132.607 284.897 132.151 284.57 131.734L291.339 128.879C292.139 129.948 292.411 131.357 292.172 132.666C292.107 133.017 291.778 133.436 291.479 133.817C291.082 134.322 290.736 134.761 291.127 134.892C293.621 135.731 296.79 135.116 298.091 132.72C298.295 132.345 297.778 132.291 297.099 132.22C296.444 132.151 295.636 132.066 295.181 131.661C294.33 130.903 293.769 129.826 293.803 128.683C297.67 127.898 299.944 123.555 299.761 119.628C299.578 115.7 297.572 112.118 295.617 108.703C294.667 107.044 293.182 105.267 292.172 104.968C292.109 104.949 292.049 104.931 291.991 104.913C291.118 104.645 290.693 104.515 287.024 105.663C284.751 106.375 285.087 105.662 285.504 104.78C285.552 104.679 285.6 104.577 285.646 104.473C285.89 103.924 286.058 103.365 285.581 103.077C283.376 101.742 281.058 103.196 280.158 104.729C279.621 105.644 280.441 105.58 281.303 105.513C281.615 105.488 281.932 105.464 282.192 105.485C282.791 105.533 283.089 105.824 282.325 106.923C281.185 108.562 278.452 109.865 276.545 109.747C275.64 109.566 275.054 109.249 274.936 108.223C274.915 108.035 274.995 107.834 275.086 107.604C275.167 107.402 275.256 107.178 275.292 106.923C275.589 104.796 268.551 107.466 269.76 109.015C270.028 109.36 270.686 109.351 271.267 109.344C271.577 109.34 271.866 109.336 272.061 109.387C273.146 109.668 273.45 110.159 273.339 111.301C273.024 113.707 270.52 113.643 267.773 113.572C265.488 113.513 263.035 113.449 261.529 114.798C253.054 122.384 241.176 125.703 229.824 124.727C218.473 123.752 207.686 118.722 198.869 111.533C197.652 110.541 196.439 109.495 195.217 108.442C189.325 103.36 183.247 98.1182 175.659 98.0098C175.882 97.5026 175.682 96.9076 175.5 96.3628C175.313 95.8062 175.144 95.302 175.46 94.9969C177.419 93.107 178.42 89.4254 179.287 86.237C180.066 83.3717 180.736 80.9047 181.897 80.4948C184.219 79.6745 184.9 77.6274 185.686 75.2659C185.73 75.1343 185.774 75.0016 185.819 74.8682C186.087 74.069 186.326 73.4235 186.53 72.8735C187.153 71.1916 187.445 70.4037 187.22 68.8452C186.995 67.2908 186.153 65.949 185.307 64.6004C184.855 63.8807 184.403 63.159 184.042 62.402C182.057 58.2392 182.987 53.5854 183.916 48.9346C184.264 47.1926 184.612 45.451 184.807 43.7357C185.521 37.4412 181.549 29.1715 175.347 30.563C172.324 31.2411 170.404 33.9605 168.579 36.5453C168.312 36.9228 168.048 37.2973 167.782 37.6623C165.698 40.5262 162.203 43.3041 158.923 41.9495C153.45 39.6895 144.891 43.7357 144.085 47.9456C141.398 45.5337 139.632 48.0226 138.605 49.7018C134.494 56.4212 134.499 64.9981 136.712 72.5519C138.436 78.438 141.564 84.1226 146.541 87.7281C147.174 88.1865 147.841 88.6164 148.508 89.0468C150.445 90.2967 152.387 91.5496 153.524 93.5102C155.052 96.1458 153.709 100.562 150.658 100.408C137.014 99.7204 123.287 100.658 109.865 103.196C102.812 104.529 94.4692 107.728 93.4955 114.814C92.8868 119.244 95.4981 123.162 98.1078 127.078C100.729 131.011 103.348 134.941 102.703 139.385C100.149 156.962 104.242 175.418 113.989 190.288C108.751 200.339 103.457 210.543 101.089 221.62C98.7213 232.697 99.6022 244.948 105.997 254.311C109.329 259.191 114.031 263.186 118.681 267.138C125.806 273.193 132.809 279.145 134.58 288.012C135.413 292.181 134.906 296.434 134.399 300.685C134.215 302.225 134.031 303.764 133.911 305.299C133.46 311.072 134.193 317.511 138.449 321.453C140.88 323.704 144.71 324.364 147.813 323.47C147.786 323.945 147.759 324.387 147.733 324.803C147.592 327.066 147.499 328.552 147.897 330.312C148.001 330.77 148.17 331.293 148.611 331.46C149.488 331.792 150.073 330.453 150.014 329.543C149.789 326.1 149.359 324.157 148.945 323.06C150.75 322.257 152.166 320.848 152.673 318.842C156.755 302.66 160.565 284.425 151.839 270.183C148.957 265.479 144.936 261.666 140.908 257.846C138.874 255.917 136.837 253.985 134.945 251.937C129.306 245.832 124.722 237.554 126.77 229.512C130.53 214.746 142.313 202.271 156.878 197.636C171.443 193.001 188.303 196.362 199.957 206.222C199.523 212.409 194.603 216.529 189.619 220.702C187.285 222.656 184.938 224.621 183.03 226.816C175.332 235.673 174.946 248.899 178.109 260.184C180.58 268.997 184.958 277.274 190.859 284.286C192.344 286.05 194.174 287.858 196.482 287.963C199.584 288.105 201.906 285.127 203.028 282.242C207 272.024 203.043 260.585 198.674 250.53C196.992 246.658 200.412 242.601 203.536 239.752L224.919 220.248C230.387 215.261 236.21 209.605 237.015 202.262C237.701 196.016 234.431 189.858 229.86 185.529C225.289 181.2 219.522 178.381 213.853 175.628L203.057 170.386C206.616 174.943 211.987 177.501 217.276 180.02C218.298 180.507 219.316 180.992 220.318 181.49C226.506 184.565 232.858 189.052 234.275 195.796C236.016 204.08 229.691 211.684 223.828 217.808C216.403 225.563 208.914 233.374 200.094 239.509C197.093 241.596 193.765 243.538 190.108 243.669C186.45 243.8 182.471 241.515 181.897 237.914C181.378 234.662 183.626 231.682 185.74 229.152L201.373 210.44C203.749 207.597 206.879 206.857 210.602 205.976C211.912 205.666 213.295 205.339 214.745 204.897C205.973 205.343 198.504 201.995 190.953 198.611ZM127.684 148.321C128.315 153.985 130.066 159.656 133.617 164.123C137.168 168.589 142.701 171.699 148.414 171.452C150.327 171.369 150.94 168.533 149.804 166.997C148.819 165.665 147.19 165.058 145.61 164.47C145.368 164.38 145.128 164.291 144.891 164.199C143.106 163.509 141.202 162.353 140.88 160.472C145.918 164.377 153.439 164.74 158.831 161.337C160.708 166.705 166.933 169.927 172.568 169.041C178.203 168.155 182.913 163.667 184.782 158.297C184.817 158.194 184.853 158.091 184.888 157.987C185.172 157.151 185.464 156.292 186.109 155.7C186.71 155.149 187.53 154.914 188.317 154.697L203.724 150.452C204.106 150.347 204.54 150.248 204.879 150.453C205.241 150.671 205.341 151.142 205.394 151.56C206.46 159.982 201.715 168.828 194.096 172.624C190.01 174.66 185.341 175.325 180.713 175.985C174.673 176.845 168.702 177.696 164.184 181.568C161.725 183.676 160.019 186.444 158.31 189.218C157.493 190.543 156.676 191.869 155.775 193.125C150.253 200.828 140.111 206.044 131.103 203.034C125.933 201.307 121.914 197.219 118.611 192.895C108.667 179.881 103.419 163.381 104.023 147.035C104.133 144.07 104.439 141.067 105.515 138.3C112.341 146.204 120.234 153.193 128.915 159.019C128.611 157.45 127.52 156.162 126.435 154.986C123.328 151.622 119.899 148.472 116.474 145.325C108.508 138.007 100.563 130.707 96.7378 120.783C95.8969 118.601 95.2748 116.22 95.7929 113.941C96.968 108.771 103.065 106.619 108.28 105.57C120.802 103.05 133.583 101.801 146.358 101.85C147.037 109.735 153.621 116.787 161.495 117.826C169.37 118.864 177.668 113.613 179.879 106.012C179.944 105.786 180.006 105.558 180.067 105.329C180.342 104.307 180.62 103.275 181.277 102.458C182.081 101.457 183.716 100.964 184.654 101.842C191.611 108.344 198.91 114.596 207.229 119.246C215.547 123.897 224.999 126.896 234.528 126.476C218.25 132.393 201.613 137.325 184.736 141.236C183.446 141.535 181.847 141.731 181.018 140.702C178.079 137.054 173.285 134.972 168.602 135.309C163.919 135.646 159.476 138.394 157.094 142.426C156.231 143.885 154.079 143.702 152.442 143.245C149.037 142.296 145.532 140.835 143.52 137.938C143.18 137.449 142.886 136.923 142.592 136.397C142.017 135.369 141.444 134.345 140.537 133.61C139.253 132.572 137.572 132.319 135.908 132.068C135.445 131.998 134.983 131.929 134.532 131.843C129.393 130.862 124.842 127.221 122.772 122.433C127.616 119.2 134.158 120.734 139.507 123.046C140.349 123.41 141.194 123.793 142.042 124.177C146.576 126.23 151.203 128.326 156.095 127.878C160.254 127.497 163.884 125.341 167.529 123.175C170.752 121.26 173.987 119.338 177.611 118.63C186.907 116.813 196.032 123.71 200.384 132.094C200.417 132.159 200.451 132.223 200.484 132.288C201.196 133.664 201.966 135.153 203.394 135.731C201.937 127.57 195.786 120.412 187.917 117.723C180.049 115.033 170.783 116.92 164.605 122.471C160.772 125.915 154.947 126.159 149.944 124.893C147.127 124.18 144.441 123.063 141.753 121.946C139.67 121.08 137.584 120.213 135.436 119.533C130.516 117.978 124.834 117.517 120.455 120.24C119.14 117.353 117.381 114.668 115.259 112.307C117.363 124.336 128.373 134.226 140.598 135.067L133.814 137.636C132.229 138.236 130.586 138.873 129.423 140.103C127.431 142.208 127.363 145.446 127.684 148.321ZM124.337 232.457C123.678 235.768 123.316 239.355 124.802 242.388C125.603 244.023 126.882 245.366 128.14 246.686L128.226 246.777C135.792 254.722 142.898 263.101 149.498 271.859C146.568 274.664 143.305 277.125 139.8 279.174C138.824 279.745 137.769 280.3 136.637 280.279C134.951 280.249 133.58 278.978 132.393 277.784C124.105 269.44 116.031 260.885 108.182 252.13C105.686 249.347 103.148 246.432 102.014 242.875C100.572 238.353 101.593 233.461 102.622 228.829C105.46 216.055 108.446 202.932 115.847 192.125C120.004 199.564 127.704 204.933 136.143 206.277C130.292 213.966 126.222 222.993 124.337 232.457ZM177.062 90.0446C175.824 92.6238 173.736 94.9022 171.028 95.847C167.417 97.1066 163.446 95.8464 159.911 94.3892C158.074 93.6321 156.218 92.792 154.795 91.4086C153.588 90.2343 152.761 88.7334 151.994 87.2355C149.608 82.5711 147.636 77.6964 146.109 72.6869C144.846 68.5444 144.196 63.3024 147.557 60.5588C151.396 63.4949 156.56 64.2315 161.368 63.6744C165.642 63.1792 169.736 61.7635 173.809 60.3553C174.318 60.1796 174.825 60.004 175.333 59.8304C175.913 59.6321 176.6 59.4489 177.1 59.8017C177.483 60.0716 177.619 60.5667 177.723 61.0225C179.269 67.8009 179.719 74.8263 179.052 81.7457C178.777 84.5916 178.3 87.4653 177.062 90.0446ZM192.488 283.689C185.606 274.547 180.995 263.719 179.18 252.435C178.4 247.59 178.148 242.512 179.769 237.879C181.316 243.948 188.646 247.823 194.558 245.698C196.1 248.865 197.503 252.1 198.76 255.39C202.063 264.034 204.311 273.871 200.653 282.371C199.774 284.415 198.037 286.59 195.83 286.264C194.399 286.053 193.356 284.842 192.488 283.689ZM146.663 47.6314C148.403 44.5261 152.231 42.9485 155.788 43.2469C156.618 43.3166 157.445 43.4216 158.255 43.5245C160.822 43.8507 163.223 44.1557 165.036 43.2469C167.796 41.8633 168.949 39.9399 170.124 37.9822C170.907 36.6753 171.7 35.353 172.986 34.1659C173.8 33.4149 174.707 32.6941 175.79 32.4567C178.006 31.9712 180.133 33.6521 181.395 35.5303C184.102 39.5613 184.46 45.0478 182.297 49.3938C179.916 54.1798 175.007 57.1748 170.095 59.3167C166.559 60.8589 162.817 62.1098 158.958 62.1893C155.099 62.2688 151.083 61.051 148.422 58.2649C145.761 55.4788 144.782 50.9895 146.663 47.6314ZM135.782 299.505C135.617 298.283 135.486 296.917 136.231 295.931C139.282 296.205 142.432 295.103 144.642 292.988C143.97 291.606 141.889 291.7 140.575 292.502C140.07 292.81 139.607 293.188 139.145 293.565C138.403 294.171 137.665 294.774 136.766 295.078C135.896 294.221 136.052 292.708 136.775 291.725C137.498 290.742 138.634 290.162 139.728 289.617L146.616 286.185C145.293 284.88 143.087 284.863 141.398 285.643C139.709 286.424 138.417 287.841 137.173 289.222C135.793 286.819 136.778 283.371 139.221 282.054L148.144 277.242C148.837 276.868 149.573 276.484 150.36 276.507C152.066 276.558 153.096 278.398 153.562 280.034C154.912 284.765 154.501 289.795 154.078 294.696C153.456 301.903 152.824 309.166 150.795 316.111C150.096 318.505 148.992 321.113 146.67 322.041C144.151 323.048 141.187 321.52 139.68 319.27C138.173 317.02 137.773 314.235 137.41 311.555L135.782 299.505ZM254.74 136.099C255.706 135.981 256.543 134.869 256.072 134.02L252.755 128.042C252.318 127.254 251.87 126.433 251.812 125.535C251.754 124.637 252.204 123.639 253.063 123.361C254.293 122.963 255.424 124.148 256.136 125.224C257.636 127.489 258.944 129.881 260.042 132.366C261.344 130.637 259.921 128.249 258.622 126.519C257.322 124.788 256.185 122.134 257.81 120.703C259.416 119.289 261.967 120.738 263.197 122.486C263.843 123.405 264.374 124.423 264.903 125.438C265.928 127.404 266.946 129.356 268.777 130.535C269.568 130.054 269.174 128.846 268.695 128.055L262.548 117.917C261.998 117.01 262.907 115.781 263.959 115.628C265.011 115.475 266.026 116.036 266.904 116.632C271.131 119.499 274.498 123.888 275.292 128.921C276.086 133.955 273.929 139.546 269.497 142.087C268.156 142.855 266.663 143.334 265.145 143.628C255.905 145.418 245.792 139.524 242.83 130.622C242.376 129.259 242.267 127.398 243.554 126.753C244.534 126.261 245.719 126.845 246.536 127.576C247.717 128.633 248.56 129.985 249.404 131.338C250.216 132.64 251.03 133.944 252.145 134.985C252.855 135.648 253.774 136.216 254.74 136.099ZM158.347 146.101C159.482 146.136 160.658 146.172 161.602 146.781C162.643 147.453 163.096 149.153 162.11 149.902C161.737 150.186 161.253 150.268 160.79 150.342C156.483 151.031 151.57 151.566 148.222 148.78C147.47 149.123 147.25 150.154 147.557 150.92C147.864 151.685 148.548 152.23 149.232 152.694C152.27 154.752 155.908 155.921 159.58 156.02C157.175 158.096 153.654 158.802 150.63 157.815C149.443 157.428 147.773 156.986 147.248 158.116C149.577 160.334 153.132 160.504 156.354 160.546C150.598 163.279 143.047 161.499 139.13 156.487C138.852 156.13 138.223 156.312 138.001 156.707C137.78 157.102 137.84 157.587 137.906 158.035C138.245 160.312 138.711 162.816 140.525 164.242C141.485 164.997 142.677 165.325 143.869 165.654C144.345 165.786 144.82 165.917 145.282 166.075C146.899 166.631 148.571 167.849 148.587 169.554C143.376 170.002 138.275 167.059 135.12 162.903C131.965 158.746 130.516 153.535 129.848 148.366C129.675 147.03 129.553 145.647 129.943 144.357C130.719 141.789 133.265 140.236 135.612 138.922C137.314 137.969 139.662 137.091 141.012 138.496C145.412 143.075 151.64 145.859 157.997 146.09C158.113 146.094 158.23 146.098 158.347 146.101ZM169.523 155.334L236.21 136.939C239.114 136.138 242.551 135.438 244.875 137.349C218.472 145.479 191.73 152.519 164.742 158.444C163.273 158.766 161.179 158.701 160.922 157.224C161.809 157.257 161.806 156.266 161.802 155.218C161.799 154.187 161.795 153.1 162.64 152.88L240.353 132.656C240.822 132.534 241.419 132.452 241.707 132.842C242.176 133.474 241.216 134.182 240.456 134.392L166.339 154.923C167.012 155.844 168.421 155.638 169.523 155.334ZM244.711 150.033C239.9 153.245 233.792 154.088 228.041 153.409C222.29 152.73 216.807 150.644 211.478 148.386L243.384 139.475C244.502 139.162 245.883 138.917 246.672 139.766C253.146 146.736 264.926 147.98 272.723 142.517C271.814 146.854 267.877 150.382 263.452 150.825C260.932 151.078 258.449 150.426 255.98 149.777C255.325 149.605 254.671 149.434 254.017 149.279C250.899 148.541 247.373 148.255 244.711 150.033ZM156.541 96.6577C156.996 96.0078 157.977 95.6494 158.609 96.1317C162.311 98.9591 167.458 99.794 171.869 98.2827C173.277 97.8004 174.879 98.7991 175.46 100.165C176.042 101.531 175.807 103.113 175.296 104.507C173.742 108.75 169.557 111.906 165.036 112.246C160.515 112.586 155.902 110.09 153.727 106.127C153.055 104.904 152.831 102.986 154.126 102.459C155.419 101.933 155.789 100.312 155.929 98.9279L155.933 98.8861C156.011 98.1098 156.093 97.2962 156.541 96.6577ZM279.835 130.624C279.315 130.765 278.764 130.903 278.243 130.764C277.721 130.625 277.262 130.103 277.393 129.581C282.056 128.844 286.558 127.107 290.504 124.524C292.041 123.518 293.673 121.764 292.897 120.103C292.382 119.001 291.002 118.578 289.784 118.627C288.019 118.699 286.375 119.487 284.788 120.261L276.231 124.431C275.834 123.962 275.999 123.207 276.419 122.758C276.825 122.325 277.4 122.103 277.956 121.888L278.018 121.864C281.902 120.362 285.521 118.181 288.661 115.45C289.58 114.65 289.102 113.003 288.053 112.383C287.003 111.762 285.684 111.885 284.484 112.108C281.004 112.756 277.654 114.093 274.689 116.021C273.229 116.969 271.157 118.02 269.963 116.755C273.186 113.5 277.603 111.763 281.883 110.114L290.165 106.923C290.741 106.701 291.364 106.476 291.962 106.628C292.775 106.836 293.252 107.656 293.621 108.408C295.713 112.676 297.253 117.212 298.191 121.869C298.327 122.545 298.44 123.291 298.091 123.886C297.774 124.426 297.157 124.702 296.578 124.94C291.126 127.187 285.53 129.087 279.835 130.624ZM240.667 130.909C240.357 131.238 239.894 131.367 239.456 131.481L163.402 151.322C164.582 148.481 168.053 147.509 171.069 146.853C192.053 142.289 212.609 135.996 233.143 129.71C234.311 129.352 235.478 128.995 236.646 128.638C237.659 128.328 238.762 128.02 239.755 128.39C240.748 128.76 241.393 130.14 240.667 130.909ZM137.731 55.238C138.197 53.7182 138.959 51.6181 140.151 50.5623C140.759 50.024 141.582 49.4498 142.313 49.8038C142.773 50.0263 142.999 50.5408 143.187 51.0143C143.469 51.7223 143.872 52.6717 144.274 53.6211C144.677 54.5705 145.08 55.5199 145.362 56.228C145.757 57.2212 146.14 58.7646 145.414 59.2662C142.313 61.4111 143.019 69.2416 144.408 72.8445C144.739 73.7048 145.024 75.4676 144.738 76.7527C144.452 78.0379 143.019 79.1939 141.847 78.5864C141.175 78.2379 140.108 76.391 139.722 75.722C139.687 75.6609 139.657 75.6096 139.634 75.5702C133.921 65.8302 137.088 57.032 137.658 55.4481C137.693 55.3498 137.719 55.2793 137.731 55.238ZM162.793 160.701C167.872 159.763 172.898 158.544 177.842 157.052C177.918 157.029 177.995 157.005 178.072 156.982C179.61 156.516 181.172 156.044 182.777 156.052C182.576 158.584 181.164 160.93 179.227 162.582C177.291 164.234 174.866 165.24 172.382 165.812C170.499 166.246 168.513 166.441 166.642 165.959C164.77 165.478 163.025 164.231 162.313 162.44C162.058 161.799 162.112 160.827 162.793 160.701ZM169.09 145.594C165.851 146.051 162.427 145.817 159.511 144.339C158.895 144.027 159.214 143.087 159.649 142.552C161.888 139.8 165.279 138.009 168.821 137.708C172.363 137.407 176.009 138.6 178.683 140.935C179.125 141.321 179.574 141.931 179.276 142.436C179.119 142.702 178.805 142.824 178.513 142.928C175.434 144.029 172.329 145.137 169.09 145.594ZM159.11 115.656C156.23 114.756 153.977 112.472 152.33 109.952C151.332 108.424 150.515 106.792 149.698 105.159C149.167 104.098 148.636 103.037 148.055 102.003C149.122 101.827 150.161 102.552 150.753 103.454C151.175 104.098 151.432 104.827 151.688 105.557C151.79 105.849 151.893 106.141 152.006 106.428C154.136 111.815 160.478 115.046 166.189 113.978C171.9 112.91 176.532 107.898 177.522 102.192C177.626 101.593 177.815 100.851 178.414 100.732C179.061 101.271 179.089 102.244 178.975 103.077C178.147 109.117 172.651 113.662 166.78 115.378C164.289 116.106 161.587 116.43 159.11 115.656ZM273.277 119.273C276.876 116.474 281.118 114.501 285.581 113.55C286.118 113.436 286.922 113.553 286.873 114.098C286.858 114.269 286.746 114.416 286.635 114.548C284.418 117.213 281.172 118.773 278.031 120.253C277.151 120.668 276.223 121.092 275.252 121.032C274.28 120.972 273.276 120.243 273.277 119.273ZM288.851 120.614C289.313 120.467 289.819 120.329 290.273 120.499C290.728 120.668 291.028 121.291 290.709 121.654C287.954 124.788 283.831 126.335 279.809 127.473C278.758 127.771 277.212 127.764 277.032 126.689C280.596 124.028 284.609 121.965 288.851 120.614ZM180.66 74.7015C180.892 73.2674 181.17 71.5539 181.17 70.4457C181.17 68.9232 181.402 67.0611 182.827 66.5189C184.192 65.9992 185.736 67.2462 185.999 68.6792C186.262 70.1121 184.637 75.8976 183.831 77.1126C183.462 77.6677 183.033 78.2215 182.427 78.5006C181.82 78.7797 180.994 78.6894 180.623 78.1361C180.429 77.848 180.386 77.4883 180.353 77.1433C180.32 76.7974 180.476 75.8371 180.66 74.7015ZM180.692 56.6799C180.764 56.7818 180.794 56.9056 180.823 57.0264C181.414 59.5292 181.644 62.1167 181.502 64.6841C180.823 64.9883 180.261 64.0856 180.062 63.3712L179.209 60.3153C178.873 59.1125 178.603 57.6407 179.499 56.7683C179.824 56.4516 180.433 56.3078 180.692 56.6799ZM144.784 83.9108C143.902 83.3036 143.187 82.8113 143.187 81.309C143.187 79.5317 145.114 77.7997 145.535 78.1361C147.062 79.359 149.807 85.4239 149.944 87.3714C148.795 86.9038 147.948 86.266 146.401 85.1015C146.065 84.8481 145.695 84.5697 145.282 84.2627C145.112 84.137 144.945 84.022 144.784 83.9108ZM154.807 153.198L157.922 152.542C158.31 152.46 158.783 152.404 159.042 152.703C159.543 153.279 158.557 154.008 157.792 154.022C156.745 154.041 155.695 153.751 154.807 153.198ZM249.359 124.681C249.922 124.745 250.398 125.462 250.028 125.89L249.993 125.928C249.507 126.299 248.947 126.69 248.341 126.603C247.735 126.516 247.308 125.631 247.809 125.281C248.274 124.957 248.795 124.618 249.359 124.681ZM253.84 133.961L253.132 133.857L253.063 133.851L251.563 131.552C252.878 131.127 254.344 132.678 253.84 133.961ZM250.546 129.812C249.97 129.839 249.507 129.123 249.771 128.612C250.035 128.101 250.889 128.06 251.201 128.543C251.513 129.027 251.122 129.784 250.546 129.812ZM171.924 54.833L166.51 57.3875C162.373 59.3392 157.177 58.8335 153.497 56.1212C152.978 56.0012 152.528 56.6199 152.615 57.1438C152.703 57.6677 153.131 58.064 153.559 58.3803C156.525 60.5712 160.582 60.8457 164.16 59.9377C167.739 59.0297 170.948 57.0748 174.057 55.0897C173.832 54.3034 172.666 54.4831 171.924 54.833ZM166.834 66.6846C166.389 67.0812 165.619 66.5428 165.626 65.948C165.633 65.3532 166.117 64.8751 166.616 64.5488C168.709 63.1807 171.711 63.3931 173.589 65.0422C173.174 65.7212 172.205 65.5638 171.389 65.4311C171.325 65.4207 171.262 65.4105 171.201 65.4008C169.651 65.1581 168.003 65.6427 166.834 66.6846ZM156.806 68.932C157.516 68.7705 158.268 68.2288 158.201 67.506C158.144 66.8966 157.529 66.492 156.937 66.328C155.542 65.9412 153.94 66.444 153.019 67.5575C152.098 68.6711 151.909 70.334 152.557 71.6244C152.869 71.3465 153.123 71.0044 153.376 70.6641C153.751 70.1591 154.123 69.6582 154.677 69.3776C155.096 69.1651 155.565 69.1085 156.036 69.0518H156.036C156.295 69.0206 156.554 68.9893 156.806 68.932ZM170.945 76.9534C171.805 76.9412 172.384 76.0569 172.6 75.2281C173.044 73.5238 172.592 71.6135 171.431 70.2862C170.906 69.6853 170.01 69.1854 169.341 69.6227C169.134 69.7581 168.985 69.9659 168.865 70.1818C168.026 71.6926 168.447 73.5817 169.099 75.1814C169.442 76.0221 170.035 76.9664 170.945 76.9534ZM160.083 76.957L159.827 74.2993C159.729 73.2879 159.512 72.0988 158.587 71.6711C157.323 71.0867 155.989 72.4868 155.658 73.8351C155.302 75.2831 155.507 76.8605 156.222 78.1702C156.87 79.3581 158.484 80.3533 159.514 79.4739C160.197 78.8911 160.168 77.8489 160.083 76.957ZM157.948 276.155C165.071 275.944 172.194 275.736 179.317 275.53C180.099 275.508 180.939 275.501 181.589 275.937C182.191 276.341 182.52 277.113 182.394 277.825L161.484 278.217C160.707 278.232 159.904 278.241 159.189 277.938C158.474 277.634 157.871 276.926 157.948 276.155ZM165.265 85.5581C164.501 85.3409 164.861 84.2117 165.22 83.506C166.38 81.2262 165.726 78.4301 164.565 76.151L164.536 76.0946C164.279 75.5897 164.003 75.0504 164.095 74.4945C164.19 73.9178 164.919 73.4382 165.375 73.8059C165.512 73.9165 165.595 74.0784 165.675 74.2355C166.547 75.9663 167.402 77.7454 167.686 79.6612C167.97 81.5771 167.604 83.6801 166.285 85.103C166.019 85.3908 165.643 85.6657 165.265 85.5581ZM166.404 92.819C169.979 92.248 172.846 88.7791 172.724 85.1734C172.717 84.9589 172.697 84.7356 172.587 84.5515C172.276 84.0353 171.432 84.1557 171.033 84.6078C170.706 84.9799 170.581 85.473 170.458 85.9593L170.458 85.9601L170.458 85.9607C170.431 86.0649 170.405 86.1688 170.377 86.2711C169.899 88.0068 168.71 89.5367 167.143 90.4319C167.066 90.4755 166.988 90.5184 166.91 90.5615C166.452 90.8134 165.982 91.0723 165.742 91.5255C165.46 92.0563 165.809 92.914 166.404 92.819ZM188.234 309.975C188.386 314.257 188.864 327.846 188.306 330.312C188.202 330.77 188.033 331.293 187.593 331.46C186.715 331.792 186.2 330.479 186.189 329.543C186.101 321.962 186.012 313.053 185.924 304.145C185.836 295.236 185.747 286.327 185.659 278.746C187.114 278.746 187.593 283.861 187.593 287.165C187.593 298.266 188.234 309.975 188.234 309.975ZM138.16 215.818C137.947 215.694 137.7 215.57 137.445 215.443C136.432 214.936 135.317 214.378 135.903 213.592C151.42 214.262 166.973 214.106 182.473 213.127C186.863 212.85 191.815 212.21 194.424 208.682C194.529 208.54 194.629 208.394 194.73 208.248C195.077 207.745 195.426 207.24 195.936 206.914C196.595 206.493 197.649 206.546 197.979 207.253C197.514 211.036 193.956 214.189 190.131 214.207C188.458 214.215 187.891 216.392 187.678 218.046C187.466 219.7 186.321 221.819 184.751 221.243C185.147 219.887 185.404 218.49 185.515 217.082C185.553 216.61 185.543 216.062 185.176 215.761C184.892 215.527 184.487 215.526 184.118 215.536L143.164 216.7C142.904 216.708 142.618 216.726 142.433 216.907C142.206 217.128 142.227 217.491 142.264 217.804L145.171 242.497C145.235 243.04 145.456 243.734 146.005 243.737L169.222 243.864C170.456 243.871 172.212 244.811 171.458 245.785C171.15 246.183 170.571 246.22 170.066 246.222L146.438 246.317C145.44 246.321 145.158 247.672 145.195 248.666L145.571 258.827C142.733 256.811 142.538 252.766 142.518 249.294C142.46 239.175 141.552 229.061 139.808 219.093C139.59 217.848 139.256 216.453 138.16 215.818Z" fill="#00160A"/>
<path fill-rule="evenodd" clip-rule="evenodd" d="M190.731 263.785C191.703 261.588 193.968 260.018 196.373 259.874C196.998 259.837 197.708 259.929 198.09 260.423C198.471 260.918 198.144 261.858 197.523 261.777C196.032 261.582 194.544 262.34 193.497 263.416C192.451 264.492 191.769 265.859 191.103 267.202C190.146 266.421 190.231 264.912 190.731 263.785Z" fill="#00160A"/>
<path fill-rule="evenodd" clip-rule="evenodd" d="M296.967 53.5636C298.19 53.6787 299.323 52.9726 300.336 52.2813C303.153 50.3592 306.188 47.7386 306.003 44.3401C305.944 43.2609 305.554 42.2454 305.163 41.2288C304.996 40.7937 304.829 40.3584 304.687 39.9178C303.949 37.6169 303.922 35.1908 303.894 32.7585C303.872 30.7635 303.849 28.7643 303.434 26.8264C303.286 26.1315 302.988 25.342 302.303 25.1444C301.917 25.033 301.506 25.1462 301.121 25.2589L288.814 28.8595C286.497 29.5373 286.001 32.5363 285.934 34.9426L285.754 41.4899C285.022 41.5813 284.328 41.2955 283.633 41.0096C283.368 40.9005 283.103 40.7914 282.836 40.7033C280.207 39.8355 277.026 41.2946 275.977 43.8505C274.928 46.4064 276.169 49.6701 278.654 50.8899C281.139 52.1098 284.49 51.1002 285.882 48.7123C286.827 47.0908 286.883 45.1221 286.914 43.247L286.972 39.7261C286.994 38.4103 288.474 37.6806 289.726 37.2623C293.581 35.9738 297.471 34.7912 301.391 33.7162C301.778 33.61 302.26 33.5303 302.525 33.8317C302.668 33.9945 302.699 34.2239 302.724 34.4389L303.26 39.0485C303.34 39.7321 303.262 40.6514 302.588 40.7963C299.329 41.4962 296.432 43.7151 294.914 46.674C294.267 47.9345 293.859 49.3823 294.146 50.7691C294.432 52.1558 295.554 53.4305 296.967 53.5636ZM301.946 27.1951C302.083 27.3343 302.123 27.5394 302.156 27.7317L302.53 29.8956C302.628 30.4671 302.722 31.0811 302.473 31.6057C302.08 32.4344 301.036 32.6838 300.131 32.8619C298.039 33.2732 295.974 33.819 293.954 34.4948C292.265 35.0597 290.609 35.7146 288.953 36.3693C288.813 36.4247 288.673 36.48 288.533 36.5353C288.14 36.6904 287.598 36.8023 287.373 36.447C287.317 36.3581 287.294 36.2529 287.274 36.1496C286.879 34.0513 287.851 31.7625 289.64 30.5777C290.626 29.9251 291.791 29.605 292.934 29.2948L300.967 27.114C301.299 27.0239 301.704 26.9514 301.946 27.1951ZM285.738 44.4503C285.704 46.4784 285.214 48.7972 283.41 49.7787C281.978 50.5574 280.11 50.1831 278.811 49.2051C277.285 48.0565 276.448 45.7692 277.563 44.2302C278.027 43.5892 278.752 43.1737 279.503 42.9018C281.228 42.2774 283.199 42.3402 284.879 43.073C285.147 43.19 285.421 43.3345 285.576 43.5795C285.737 43.8336 285.743 44.1509 285.738 44.4503ZM70.7111 48.9818C70.9195 49.6219 71.8278 49.5974 72.4852 49.4436L78.4629 48.0456C78.2961 46.4937 77.9937 44.9562 77.5601 43.4563C77.4324 43.0143 77.2783 42.552 76.9306 42.2494C76.392 41.7809 75.586 41.8457 74.877 41.9377L65.6956 43.1286C65.0652 43.2103 64.2239 43.6188 64.4638 44.2053C66.5658 49.3442 68.2237 54.6633 69.4131 60.0845C69.6407 61.1216 69.6023 62.5779 68.5617 62.8053C65.5479 63.4641 62.9693 65.821 62.0512 68.7561C61.7688 69.659 61.6405 70.6618 62.0059 71.5346C62.2039 72.0077 62.5362 72.4145 62.9086 72.768C64.696 74.4647 67.5471 74.9366 69.789 73.9067C72.031 72.8768 73.5224 70.4102 73.3882 67.954C73.3375 67.0263 73.0784 66.124 72.821 65.231L66.9517 44.8732L74.7228 44.2655C75.5034 44.3092 75.8332 45.4143 75.4208 46.0761C75.0084 46.7378 74.1891 47.0131 73.4227 47.1667C73.3123 47.1888 73.2009 47.2098 73.0891 47.2307C72.425 47.3554 71.7493 47.4822 71.2108 47.878C70.8622 48.1342 70.5774 48.5713 70.7111 48.9818Z" fill="#FFB61D"/>
<path fill-rule="evenodd" clip-rule="evenodd" d="M189.451 257.2C189.217 257.502 188.691 257.416 188.466 257.108C188.241 256.799 188.261 256.372 188.384 256.011C188.603 255.364 189.099 254.85 189.619 254.405C190.926 253.289 192.482 252.463 194.142 252.006C194.796 251.825 195.559 251.721 196.1 252.128C196.642 252.536 196.555 253.624 195.879 253.685C193.374 253.908 190.985 255.215 189.451 257.2Z" fill="#00160A"/>
</svg>
