<svg width="362" height="362" viewBox="0 0 362 362" fill="none" xmlns="http://www.w3.org/2000/svg">
<rect width="362" height="362" fill="#EEEEEE"/>
<path fill-rule="evenodd" clip-rule="evenodd" d="M95.2885 63.0637C95.2952 62.5439 95.6749 62.1043 96.1884 62.022C98.8026 61.2339 101.263 60.0384 103.849 59.1663C105.242 58.7065 106.596 58.134 107.896 57.4546C108.839 56.9529 109.914 56.8053 110.899 56.3763L111.166 56.2519C112.302 55.6838 113.578 55.4445 114.763 54.9522C115.762 54.5368 116.887 54.4919 117.925 54.0986C119.442 53.5446 120.986 53.0674 122.551 52.6687C123.523 52.2915 124.555 52.0951 125.598 52.089C125.877 52.1162 126.045 51.9497 126.265 51.8911C127.202 51.6093 128.155 51.3849 129.12 51.2192C131.17 50.9257 133.192 50.4355 135.244 50.1737C136.733 49.9848 138.204 49.7075 139.684 49.4741C141.109 49.2506 142.537 49.0552 143.971 48.8879C147.324 48.4838 150.698 48.2764 154.076 48.2667C156.72 48.2917 159.361 48.4662 161.986 48.7892C164.123 48.9644 166.247 49.2819 168.342 49.7395C170.003 50.1594 171.734 50.3408 173.326 50.902C174.829 51.4316 176.37 51.8825 177.874 52.3707C181.359 53.5011 184.788 54.7669 188.161 56.1682C190.148 56.991 192.13 57.8616 194.123 58.6501C196.462 59.5752 198.677 60.7586 201.011 61.6902C202.378 62.2372 203.719 62.9837 205.071 63.6266C206.379 64.2488 207.592 65.0502 208.939 65.5902C210.263 66.1756 211.557 66.8278 212.815 67.5443C214.006 68.1714 215.425 68.5649 216.358 69.6702C217.544 69.5918 218.238 70.5877 219.174 71.0401C220.11 71.4925 221.026 72.013 221.969 72.3999C222.942 72.7983 223.922 73.2315 224.873 73.653C226.803 74.5086 228.804 75.1747 230.725 76.0213C231.898 76.537 233.14 76.6631 234.325 77.0644C236.597 77.8206 238.94 78.3488 241.317 78.6413C242.274 78.7401 243.211 78.9837 244.094 79.3637C244.758 79.6687 245.377 79.2596 246.042 79.4406C247.118 79.734 248.243 79.8457 249.341 80.0551C249.679 80.1822 250.06 80.117 250.336 79.8846L250.966 80.6039C251.361 80.6769 251.065 80.3142 251.273 80.2058C251.732 80.2495 252.239 80.1786 252.685 80.5265C253.103 80.8542 253.554 80.4286 254.039 80.5809C255.095 80.9081 256.339 80.2926 257.305 81.1881C258.359 80.8894 259.408 81.2201 260.46 81.2257C260.969 81.2006 261.469 81.3566 261.872 81.6639L261.964 81.7375C262.334 82.0773 262.898 81.2822 263.233 81.9347C265.055 81.5787 266.667 82.5113 268.312 82.9389C270.953 83.6259 273.661 84.1155 276.203 85.2557C277.474 85.8257 278.961 86.0495 280.268 86.606C283.205 87.8562 286.233 88.9081 289.02 90.5112C290.171 91.174 291.47 91.5803 292.616 92.2544L293.94 93.0338C295.925 94.2059 297.897 95.3995 299.791 96.7177C300.273 96.9536 300.68 97.3199 300.965 97.7751C301.236 98.3521 301.956 98.1158 302.429 98.471C302.993 98.8897 303.299 99.5405 303.985 99.8879C304.363 100.079 304.778 100.601 305.216 100.824C306.639 101.55 307.473 103.003 308.913 103.695C309.401 104.039 309.806 104.487 310.098 105.007C311.241 106.436 312.95 107.291 313.962 108.81L314.096 109.022C314.594 109.827 315.271 110.505 316.075 111.003L316.388 111.191C316.619 111.331 316.834 111.48 316.88 111.696C317.07 112.601 317.849 113.063 318.358 113.708C318.903 114.398 319.681 114.892 320.162 115.677C320.566 116.52 321.116 117.285 321.788 117.936C323.054 118.898 323.755 120.245 324.63 121.472C325.068 122.085 325.807 122.569 325.673 123.535C325.605 124.026 326.655 123.667 326.564 124.376L326.55 124.457C326.443 124.94 326.748 125.19 327.18 125.414C327.574 125.62 327.293 126.378 327.764 126.513C328.236 126.648 328.778 127.005 328.67 127.246C328.403 127.851 329.339 127.834 329.083 128.312C329.069 128.37 329.082 128.43 329.12 128.476C330.23 129.717 330.527 131.417 331.581 132.719C332.182 133.528 332.625 134.443 332.885 135.416C333.188 136.3 333.563 137.157 334.007 137.978C334.711 139.406 334.954 140.983 335.667 142.391C335.86 142.772 335.071 143.449 336.03 143.607C335.785 144.195 336.371 144.477 336.499 144.917C336.54 145.312 336.519 145.711 336.438 146.099C336.941 146.85 337.259 147.709 337.368 148.606C337.804 150.395 338.126 152.21 338.333 154.04L338.499 155.547C338.718 157.559 338.883 159.581 338.467 161.598C338.36 162.116 338.876 162.301 338.829 162.765C338.568 165.462 338.584 168.177 337.832 170.836C337.518 171.95 337.598 173.218 337.284 174.363C336.69 176.533 336.376 178.761 335.522 180.886L335.366 181.26C334.788 182.582 334.4 184.047 333.843 185.416C333.491 186.358 310.354 297.237 231.773 268.961C194.508 255.552 160.759 326.741 109.498 311.611C-35.6219 268.776 33.3909 90.7683 91.8472 64.1884C92.2953 64.0728 92.7266 63.8998 93.1304 63.6737C93.7311 63.1746 94.5152 62.953 95.2885 63.0637Z" fill="black"/>
<path fill-rule="evenodd" clip-rule="evenodd" d="M145.525 266.827C143.492 248.027 144.941 224.375 152.217 206.921C150.884 209.419 170.063 213.505 169.859 214.575C168.526 221.597 167.672 229.512 166.524 238.243C165.22 248.16 166.108 258.779 167.208 266.688C169.811 285.399 147.555 285.609 145.525 266.827Z" fill="#EEEEEE"/>
<path fill-rule="evenodd" clip-rule="evenodd" d="M147.744 207.726C152.284 193.972 163.086 182.424 176.506 176.976C183.328 174.207 191.256 172.939 187.237 173.844C186.436 178.778 191.491 183.136 196.485 183.371C201.478 183.606 206.121 180.93 210.189 178.025C207.518 173.258 210.209 175.605 214.092 181C214.225 181.298 195.015 185.657 183.015 194.395C172.526 202.033 168.732 214.181 172.6 214.575C170.738 215.42 168.585 215.608 166.605 215.099C166.605 215.099 153.076 211.225 147.744 207.726Z" fill="#EEEEEE"/>
<path fill-rule="evenodd" clip-rule="evenodd" d="M147.744 207.725C152.284 193.972 163.086 182.424 176.506 176.976C178.982 175.971 185.353 173.722 188.85 171.841C194.997 168.535 193.549 165.653 193.549 163.561C193.549 161.23 203.955 158.369 206.119 159.995C207.633 161.132 206.842 165.361 207.721 168.895C209.099 174.439 211.832 179.688 212.929 178.905C216.217 183.536 230.407 187.129 242.187 199.991C247.256 205.526 248.639 211.922 250.449 216.804C252.031 221.07 255.053 223.993 255.861 225.116C255.921 225.252 236.807 234.313 236.807 234.313C236.807 234.313 241.686 261.929 235.15 266.688C224.661 274.325 167.019 295.825 170.887 296.219C169.803 296.711 165.145 257.884 165.933 239.476C166.499 226.266 170.687 214.788 169.859 214.575C169.859 214.575 153.076 211.225 147.744 207.725Z" fill="#EEEEEE"/>
<path fill-rule="evenodd" clip-rule="evenodd" d="M241.675 257.779C251.218 254.342 252.169 229.148 252.404 228.932C253.857 235.518 254.911 242.192 255.559 248.906C255.844 251.858 256.05 254.849 255.588 257.779C255.103 260.856 253.891 263.782 252.386 266.51C249.05 272.558 244.211 277.769 238.426 281.544C237.49 282.155 236.501 282.739 235.401 282.934C232.967 283.366 230.641 281.825 228.791 280.186C219.441 271.904 214.752 259.672 210.861 247.804C209.565 243.852 201.602 222.373 202.992 221.72C200.707 220.956 198.136 221.084 195.937 222.071C194.608 222.667 193.539 220.436 194.376 219.244C195.213 218.052 196.805 217.746 198.189 217.291C199.573 216.836 201.081 215.811 200.98 214.358C198.561 214.727 196.174 215.312 193.859 216.103C192.76 216.478 191.634 215.412 191.357 214.285C190.612 211.263 193.661 208.68 196.532 207.479C199.519 206.23 202.738 205.536 205.975 205.444C206.633 205.425 216.888 206.847 214.812 215.016C214.787 215.114 214.506 215.999 214.484 216.103C212.312 226.303 230.444 261.823 241.675 257.779Z" fill="#EEEEEE"/>
<path fill-rule="evenodd" clip-rule="evenodd" d="M198.506 206.011C197.461 205.466 197.994 203.893 198.593 202.878C200.527 199.599 201.76 195.907 202.184 192.123C205.077 191.738 208.111 192.55 210.425 194.329C210.802 194.618 211.175 194.954 211.325 195.405C211.517 195.986 211.296 196.615 211.077 197.187C209.998 200.008 208.918 202.828 207.838 205.649C209.686 205.65 200.694 207.263 198.506 206.011Z" fill="#EEEEEE"/>
<path fill-rule="evenodd" clip-rule="evenodd" d="M168.762 136.239C165.255 104.71 161.505 106.471 157.367 99.8917C151.251 90.1673 152.852 77.3966 157 66.6837C159.599 59.9727 163.143 53.558 168.021 48.2667C168.903 48.5413 169.205 49.7063 168.928 50.5877C168.651 51.4691 167.983 52.1609 167.445 52.9127C165.844 55.1526 165.378 58.1622 166.226 60.7815C167.436 64.5197 171.059 67.0707 174.857 68.0746C178.656 69.0784 182.661 68.7923 186.579 68.4988C190.429 68.2105 194.278 67.9222 198.127 67.6339C201.974 67.3458 206.009 67.0883 209.527 68.6715C213.045 70.2548 215.762 74.3361 214.457 77.9667C214.055 79.0852 214.695 80.3479 215.609 81.1077C216.523 81.8676 217.673 82.27 218.731 82.8101C223.193 85.086 225.97 89.8434 227.061 94.732C228.152 99.6206 227.789 104.702 227.421 109.697C227.164 113.18 226.907 116.664 226.65 120.148C226.472 122.556 226.35 125.181 227.737 127.159C229.406 129.541 227.573 132.825 225.41 134.769C223.247 136.713 220.518 138.528 220.024 141.394C219.374 145.158 207.721 162.196 196.465 163.562C185.567 164.884 170.336 150.385 168.762 136.239Z" fill="#EEEEEE"/>
<path fill-rule="evenodd" clip-rule="evenodd" d="M173.362 140.499C176.527 140.711 179.707 140.703 182.871 140.475C184.059 140.389 185.464 140.123 185.938 139.03C186.509 137.715 187.885 136.791 189.319 136.761C190.752 136.731 192.166 137.596 192.791 138.886C193.463 140.272 195.438 140.2 196.943 139.874C200.94 139.008 204.873 137.847 208.699 136.402C210.432 135.748 211.44 133.848 211.589 132.001C211.738 130.155 211.192 128.331 210.652 126.559C205.835 127.664 200.869 127.911 195.933 128.153C185.984 128.642 176.035 129.131 166.086 129.62C166.714 132.389 167.343 135.157 167.971 137.926C168.108 138.532 168.263 139.172 168.695 139.619C169.127 140.067 169.934 140.213 170.353 139.754C169.05 136.692 167.72 133.39 168.395 130.132C169.232 132.943 170.07 135.755 170.907 138.567C171.062 139.088 171.236 139.638 171.647 139.994C172.106 140.392 172.756 140.458 173.362 140.499ZM210.474 125.655C210.857 125.199 210.564 124.275 209.978 124.376C195.858 126.811 181.393 125.813 167.095 126.746C166.313 126.797 165.281 127.125 165.349 127.906C167.566 128.656 169.971 128.525 172.308 128.386C184.483 127.662 196.659 126.938 208.835 126.214C209.428 126.179 210.092 126.11 210.474 125.655Z" fill="#E7EAEE"/>
<path fill-rule="evenodd" clip-rule="evenodd" d="M201.579 219.958C201.579 222.885 207.313 238.979 206.12 234.995C206.254 236.553 207.231 239.358 205.887 240.156C205.03 240.666 203.949 240.504 202.97 240.316C195.159 238.815 187.478 236.64 180.041 233.822C178.733 233.326 177.301 232.686 176.774 231.39C175.948 229.357 177.828 227.31 179.522 225.914C183.238 222.851 186.953 219.788 190.669 216.725C190.944 216.499 191.257 216.26 191.612 216.285C191.967 216.31 192.269 216.779 192.018 217.032C188.03 220.298 201.579 217.031 201.579 219.958Z" fill="#EEEEEE"/>
<path fill-rule="evenodd" clip-rule="evenodd" d="M205.887 240.156C205.03 240.666 203.949 240.504 202.97 240.316C195.159 238.815 187.478 236.639 180.04 233.822C178.733 233.326 177.301 232.686 176.774 231.39C175.948 229.357 178.79 226.853 181 225.647C184.839 223.551 188.86 228.122 194.233 231.39C199.926 234.854 206.864 237.08 206.698 236.613" fill="#FFB61D"/>
<path fill-rule="evenodd" clip-rule="evenodd" d="M224.041 151.936C223.733 151.982 223.833 152.454 224.013 152.708C225.893 155.354 227.772 158 229.652 160.646C229.972 161.095 230.279 161.754 229.885 162.14C224.42 159.716 219.993 155.042 217.868 149.453C218.252 149.02 218.903 149.607 219.176 150.118C221.042 153.607 223.584 156.734 226.618 159.275C226.929 159.536 227.396 159.793 227.701 159.526C224.781 156.143 222.434 152.266 220.789 148.11C220.72 147.936 220.651 147.747 220.697 147.565C220.788 147.21 221.281 147.101 221.607 147.268C221.933 147.435 222.13 147.771 222.32 148.085C223.967 150.809 226.405 153.049 229.259 154.458C229.538 153.918 229.051 153.314 228.618 152.887C225.331 149.644 222.925 145.518 221.722 141.06C221.481 140.164 221.587 138.824 222.515 138.785C222.747 140.9 223.341 142.975 224.263 144.893C225.41 147.281 227.043 149.397 228.664 151.492C229.973 153.184 231.281 154.875 232.589 156.567C232.338 156.896 231.825 156.799 231.436 156.657C228.665 155.649 226.121 154.025 224.041 151.936Z" fill="#00160A"/>
<path fill-rule="evenodd" clip-rule="evenodd" d="M193.308 145.765C197.173 145.765 200.307 148.034 200.307 150.833C200.307 153.632 197.938 156.194 194.073 156.194C190.208 156.194 186.309 153.632 186.309 150.833C186.309 148.034 189.443 145.765 193.308 145.765ZM193.308 147.213C190.16 147.213 187.293 148.953 187.293 150.833C187.293 152.713 190.224 155.138 193.372 155.138C196.52 155.138 198.859 152.713 198.859 150.833C198.859 148.953 196.456 147.213 193.308 147.213Z" fill="#00160A"/>
<path fill-rule="evenodd" clip-rule="evenodd" d="M123.244 206.959C123.15 207.154 123.099 207.37 123.096 207.586C122.682 207.377 122.269 207.168 121.856 206.959C123.348 210.645 124.84 214.33 126.332 218.016C126.561 218.581 126.799 219.162 127.219 219.605C127.183 218.492 126.854 217.413 126.527 216.349C125.58 213.265 124.632 210.181 123.685 207.097C123.611 206.94 123.394 206.872 123.244 206.959Z" fill="#FFB61D"/>
<path fill-rule="evenodd" clip-rule="evenodd" d="M129.877 195.276C130.351 196.003 130.39 196.918 130.625 197.754C131.127 199.541 132.512 200.927 133.398 202.558C134.284 204.19 134.507 206.536 133.016 207.642C132.298 208.175 132.432 209.258 132.531 210.146C132.63 211.035 132.397 212.211 131.511 212.334C131.009 212.404 130.525 212.052 130.276 211.609C130.028 211.167 129.964 210.649 129.895 210.146C129.433 206.789 128.559 203.489 127.297 200.345C126.982 199.558 126.674 198.565 127.252 197.945C127.983 197.16 127.023 195.702 127.689 194.861C128.228 194.181 129.404 194.549 129.877 195.276Z" fill="#FFB61D"/>
<path fill-rule="evenodd" clip-rule="evenodd" d="M187.862 193.13C188.197 192.358 188.532 191.586 188.867 190.814C189.277 189.869 190.03 188.741 191.029 188.994C191.328 189.07 191.583 189.27 191.782 189.506C192.8 190.712 192.333 192.607 191.382 193.867C190.73 194.73 189.88 195.444 188.918 195.937C188.33 196.237 187.598 195.681 187.465 195.035C187.331 194.389 187.6 193.735 187.862 193.13ZM190.458 193.15C190.762 192.774 191.072 192.386 191.206 191.922C191.34 191.459 191.255 190.897 190.874 190.601C189.621 191.767 188.71 193.295 188.28 194.952C188.587 195.234 189.057 194.885 189.319 194.56C189.699 194.09 190.079 193.62 190.458 193.15Z" fill="#FFB61D"/>
<path fill-rule="evenodd" clip-rule="evenodd" d="M168.054 194.975C169.573 193.793 172.107 194.514 172.91 196.263C173.712 198.012 172.743 200.299 170.985 201.083C170.524 201.289 170.023 201.404 169.518 201.421C168.591 201.453 167.614 201.111 167.057 200.369C166.476 199.596 166.439 198.537 166.622 197.588C166.814 196.591 167.253 195.598 168.054 194.975Z" fill="#FFB61D"/>
<path fill-rule="evenodd" clip-rule="evenodd" d="M203.665 121.963C202.429 123.159 200.421 122.79 198.761 122.341C197.972 122.128 197.183 121.915 196.394 121.701C195.608 121.489 194.641 121.323 194.087 121.92C193.572 122.475 192.545 121.712 192.695 120.969C192.845 120.226 193.662 119.808 194.416 119.729C197.072 119.451 199.472 121.978 202.107 121.546C202.703 121.449 203.568 121.367 203.665 121.963L203.665 121.963Z" fill="#00160A"/>
<path fill-rule="evenodd" clip-rule="evenodd" d="M165.524 190.993C166.16 190.465 167.074 190.22 167.839 190.533C168.605 190.846 169.098 191.798 168.767 192.556C168.539 193.075 168.014 193.393 167.504 193.64C166.804 193.978 165.933 194.235 165.286 193.805C164.375 193.2 164.682 191.691 165.524 190.993M166.109 192.373C165.831 192.512 165.898 193.017 166.203 193.078C166.877 192.881 167.52 192.575 168.098 192.176C167.553 191.663 166.554 191.775 166.136 192.396L166.109 192.373Z" fill="#FFB61D"/>
<path fill-rule="evenodd" clip-rule="evenodd" d="M201.699 160.534C200.618 160.77 199.417 160.282 198.806 159.361C203.861 159.784 209.062 157.989 212.782 154.54C216.501 151.09 218.682 146.038 218.64 140.966C218.352 141.046 218.076 141.169 217.823 141.33C217.25 141.086 217.627 140.22 218.067 139.779L226.655 131.156C228.14 129.664 226.302 126.855 224.197 126.864C222.092 126.874 220.404 128.607 219.296 130.398C218.028 132.446 217.163 134.744 216.765 137.12L212.339 127.46C211.817 128.459 212.118 129.565 212.424 130.696L212.424 130.696C212.619 131.413 212.817 132.141 212.808 132.856C212.77 135.95 209.184 137.556 206.211 138.409L198.12 140.73C195.979 141.344 193.026 141.606 192.154 139.556C191.299 137.547 187.881 137.491 186.961 139.471C186.091 141.345 183.596 141.651 181.531 141.643C177.597 141.628 173.665 141.421 169.752 141.022C169.152 140.96 168.508 140.876 168.062 140.47C167.662 140.105 167.502 139.553 167.359 139.03L164.789 129.622C164.508 128.597 164.234 127.471 164.672 126.502C165.109 125.533 166.605 125.036 167.245 125.885C165.989 120.822 165.775 115.503 166.621 110.356L168.222 125.762L207.229 124.122C208.077 124.087 209.066 123.972 209.505 123.246C209.89 122.609 209.667 121.793 209.429 121.088C208.475 118.25 207.463 115.433 206.394 112.637C206.063 111.773 205.701 110.873 204.994 110.277C203.492 109.011 201.237 109.638 199.368 110.246C191.977 112.651 184.016 113.728 176.389 112.233C168.762 110.738 161.505 106.471 157.367 99.8917C151.251 90.1673 152.852 77.3966 157 66.6837C159.599 59.9727 163.143 53.558 168.021 48.2667C168.903 48.5413 169.205 49.7063 168.928 50.5877C168.719 51.2506 168.29 51.8062 167.861 52.3607C167.72 52.5436 167.579 52.7263 167.445 52.9127C165.844 55.1526 165.378 58.1622 166.226 60.7815C167.436 64.5197 171.059 67.0707 174.857 68.0746C178.656 69.0784 182.661 68.7923 186.579 68.4988L198.127 67.6339C201.975 67.3458 206.009 67.0883 209.527 68.6715C213.045 70.2548 215.762 74.3361 214.457 77.9667C214.055 79.0853 214.695 80.3479 215.609 81.1077C216.269 81.6563 217.052 82.0186 217.834 82.3809L217.835 82.3811C218.136 82.5205 218.437 82.66 218.731 82.8101C223.193 85.086 225.97 89.8434 227.061 94.732C228.152 99.6206 227.789 104.702 227.421 109.697L226.65 120.148C226.472 122.556 226.35 125.181 227.737 127.159C229.406 129.541 227.573 132.825 225.41 134.769C225.039 135.102 224.652 135.432 224.262 135.764C222.377 137.366 220.434 139.019 220.024 141.394C218.845 148.221 215.916 155.556 209.597 158.398C208.735 158.786 207.834 159.077 206.933 159.367C206.062 159.648 205.191 159.929 204.354 160.298C203.563 160.647 202.806 161.073 202.05 161.499C200.955 162.116 199.861 162.732 198.667 163.11C194.966 164.284 190.929 162.998 187.492 161.193C179.583 157.04 173.224 150.012 169.878 141.73C171.17 141.724 171.94 143.118 172.494 144.285C175.828 151.317 181.612 157.159 188.61 160.564C192.774 162.59 198.219 163.591 201.699 160.534ZM214.91 83.2291C214.525 83.068 214.107 82.9175 213.699 83.0069C213.171 83.1229 212.849 83.5774 212.524 84.0367C212.373 84.2499 212.222 84.4641 212.049 84.646C211.502 85.2197 210.15 85.0802 210.334 84.3094C211.363 82.2607 212.407 80.1646 212.717 77.8931C213.027 75.6215 212.473 73.1019 210.744 71.5967C209.549 70.556 207.95 70.116 206.39 69.8404C201.385 68.9564 196.281 69.4525 191.201 69.9462C190.122 70.0511 189.045 70.1558 187.969 70.2472C181.83 70.769 175.373 70.7941 169.852 68.0598C166.099 66.2014 163.864 61.6932 164.658 57.5814C158.056 65.6195 155.086 76.3646 155.857 86.7379C156.078 89.7207 156.599 92.7025 157.692 95.4867C160.395 102.371 166.554 107.601 173.545 110.016C180.536 112.43 188.261 112.211 195.407 110.302C202.553 108.393 209.176 104.868 215.345 100.789C215.747 100.523 216.269 101.104 216.144 101.569C216.019 102.034 215.558 102.314 215.135 102.546L204.433 108.428C206.572 109.551 207.728 111.902 208.636 114.14C209.794 116.992 210.78 119.913 211.587 122.883L223.059 113.67C223.457 113.35 224.265 113.192 224.282 113.702L213.34 122.802C212.788 123.261 212.178 123.872 212.321 124.576L222.727 116.005C223.839 115.09 225.027 114.046 225.253 112.624C226.27 106.251 227.253 99.5224 224.919 93.5057C223.142 88.9252 219.442 85.1263 214.91 83.2291ZM171.647 139.994C172.106 140.392 172.756 140.458 173.362 140.499C176.527 140.711 179.707 140.703 182.871 140.475C184.059 140.389 185.464 140.123 185.938 139.03C186.509 137.715 187.885 136.791 189.319 136.761C190.752 136.731 192.166 137.596 192.791 138.886C193.463 140.272 195.438 140.2 196.943 139.874C200.94 139.008 204.873 137.847 208.699 136.402C210.432 135.748 211.44 133.848 211.589 132.001C211.738 130.155 211.192 128.331 210.652 126.559C205.835 127.664 200.869 127.911 195.933 128.153L166.086 129.62L167.971 137.926C168.108 138.533 168.263 139.172 168.695 139.619C169.127 140.067 169.934 140.213 170.353 139.754C169.05 136.692 167.72 133.39 168.395 130.132L170.907 138.567C171.062 139.088 171.236 139.638 171.647 139.994ZM208.835 126.214C209.428 126.179 210.092 126.11 210.474 125.655C210.857 125.199 210.564 124.275 209.978 124.376C200.94 125.934 191.762 126.087 182.576 126.239H182.576C177.41 126.324 172.241 126.41 167.095 126.746C166.313 126.797 165.281 127.125 165.349 127.906C167.566 128.656 169.971 128.525 172.308 128.386L208.835 126.214ZM224.267 119.261C224.821 118.742 224.951 117.925 225.05 117.172L225.321 115.106L213.418 124.986C213.239 125.134 213.05 125.298 212.999 125.524C212.945 125.763 213.058 126.004 213.168 126.222L216.85 133.521C217.615 128.113 220.278 122.993 224.267 119.261ZM224.976 121.595C225.009 121.037 225.022 120.414 224.653 119.993C222.809 122.152 221.189 124.501 219.828 126.993C219.66 127.299 219.516 127.729 219.782 127.955C221.082 126.869 222.589 126.032 224.198 125.504C224.678 125.346 224.789 124.73 224.819 124.226L224.976 121.595ZM176.506 176.976C163.086 182.424 152.284 193.972 147.744 207.726C153.076 211.225 166.605 215.099 166.605 215.099C168.585 215.608 170.738 215.42 172.6 214.575C164.306 213.73 156.203 211.059 149.033 206.805C155.292 191.202 169.311 178.94 185.608 174.815C186.98 177.677 188.403 180.609 190.718 182.78C193.033 184.95 196.475 186.221 199.448 185.11C203.712 183.517 207.78 181.397 211.529 178.815C213.018 181.779 213.312 185.318 212.361 188.493L212.077 189.332C212.182 189.056 212.276 188.776 212.361 188.493L214.163 183.164L232.251 194.28C235.849 196.492 239.512 198.758 242.238 201.984C245.038 205.297 246.652 209.376 248.265 213.454C249.915 217.622 251.563 221.788 254.476 225.131C249.093 229.062 243.218 232.318 237.032 234.799L231.995 217.064L238.416 255.816C238.704 249.17 238.27 242.493 237.126 235.94C244.056 233.485 250.522 229.725 256.082 224.916C252.53 221.668 250.816 217.13 249.089 212.555C247.849 209.271 246.603 205.969 244.664 203.111C239.064 194.854 223.023 185.887 216.609 182.302C214.973 181.388 213.964 180.824 213.913 180.71C210.03 175.315 207.685 168.826 207.221 162.196C206.459 167.606 207.518 173.258 210.189 178.025C206.121 180.93 201.478 183.606 196.485 183.371C191.491 183.136 186.436 178.778 187.237 173.844C191.256 172.939 194.217 168.688 193.67 164.604C192.15 170.893 185.314 173.545 179.049 175.975C178.186 176.31 177.333 176.64 176.506 176.976ZM145.618 267.676C142.381 268.422 138.495 269.972 135.874 273.084C134.041 275.26 132.788 276.949 131.732 278.372C129.986 280.725 128.78 282.349 126.39 284.243C127.752 283.412 129.326 285.223 129.407 286.817C129.435 287.37 129.384 287.935 129.333 288.498C129.237 289.557 129.142 290.607 129.577 291.555C130.715 290.849 131.883 290.116 132.669 289.032C133.455 287.948 133.774 286.413 133.088 285.263C132.853 284.87 133.197 284.393 133.525 284.074C135.551 282.106 137.858 280.427 140.354 279.104C140.708 280.156 140.601 281.355 140.065 282.327L141.284 283.749L138.47 290.795L145.512 283.641C146.914 282.218 148.837 280.671 150.689 281.422C151.629 281.804 152.224 282.677 152.806 283.532C152.936 283.722 153.065 283.911 153.197 284.094C154.618 286.063 156.722 287.529 159.061 288.182C159.096 287.551 159.425 286.943 159.934 286.568C160.629 287.706 161.772 288.563 163.059 288.911L161.317 281.462C161.225 281.068 161.138 280.633 161.33 280.277C161.812 279.383 163.197 280.009 163.844 280.793C164.491 281.576 165.45 282.556 166.328 282.045L165.628 279.635C165.392 278.822 165.785 277.461 166.512 277.896C166.75 278.038 166.838 278.335 166.906 278.604L168.236 283.874C169.925 281.95 169.743 278.911 168.499 276.673C168.311 276.334 168.154 275.975 167.988 275.595C167.06 273.468 165.865 270.731 157.406 267.701C156.163 267.255 154.768 267.212 153.372 267.169C152.674 267.147 151.977 267.126 151.298 267.054C150.777 266.999 149.061 267.025 146.873 267.419C149.361 285.476 147.598 285.489 145.618 267.676ZM146.665 265.882C147.356 265.79 148.062 265.743 148.782 265.746C148.671 265.746 171.432 264.66 171.432 281.62C171.432 283.261 170.459 285.28 168.828 285.222C172.277 294.003 176.298 302.561 180.855 310.822C176.528 312.233 171.897 312.709 167.373 312.206C161.344 318.049 151.606 319.661 144.016 316.074C145.025 317.781 141.939 318.823 139.994 318.436L119.35 314.323C117.727 313.999 115.707 313.215 115.733 311.561C115.753 310.33 116.952 309.505 117.986 308.838C124.463 304.665 129.526 298.34 132.18 291.106C131.264 293.352 127.062 292.398 127.204 289.978C121.478 287.815 115.725 292.754 111.583 297.261L88.0431 322.873L173.422 327.172C178.221 327.413 182.066 323.452 185.202 319.813L207.301 294.172L172.167 291.086C184.961 291.094 197.755 291.85 210.461 293.347C200.853 304.88 190.873 316.105 180.544 326.998C178.985 328.641 176.443 328.737 174.178 328.715C145.324 328.432 116.479 327.164 87.7116 324.916C86.2888 324.284 87.1786 322.131 88.2302 320.983L109.759 297.484C114.614 292.184 121.304 286.374 128.075 288.786C128.876 288.254 128.204 287.555 127.431 286.75C126.912 286.211 126.349 285.625 126.154 285.01C125.897 284.203 126.387 283.367 126.856 282.662C131.56 275.589 137.506 267.816 145.446 266.096C143.482 247.518 143.159 228.146 150.341 210.919C145.529 228.762 144.274 247.557 146.665 265.882ZM213.662 222.289C213.65 220.868 213.875 219.413 214.097 217.976C214.57 214.912 215.03 211.934 213.155 209.551C211.507 207.456 208.614 206.804 205.949 206.738C201.152 206.619 196.044 207.82 192.656 211.218C192.252 211.623 192.095 212.709 192.537 212.612C193.554 212.387 194.393 211.921 195.219 211.463C195.952 211.057 196.673 210.656 197.498 210.436C199.251 209.969 201.26 210.1 202.689 211.218C199.111 210.567 192.214 212.613 192.656 214.358C192.98 215.637 194.99 214.868 196.765 214.19C197.411 213.943 198.026 213.707 198.518 213.587C200.11 213.199 202.497 213.371 202.521 215.01C202.535 216 201.546 216.668 200.677 217.143C200.013 217.505 199.093 217.859 198.172 218.214L198.172 218.214C196.331 218.922 194.489 219.63 194.701 220.408C194.998 221.496 196.416 221.043 198.004 220.537C199.243 220.141 200.585 219.713 201.579 219.958C203.783 220.501 204.737 223.04 205.344 225.228L205.659 226.367L205.659 226.367C208.832 237.822 212.017 249.316 216.761 260.211C220.045 267.753 224.253 275.194 230.803 280.17C231.571 280.753 232.411 281.316 233.369 281.425C234.3 281.531 235.221 281.194 236.079 280.817C242.85 277.849 248.176 272.121 251.601 265.57C252.971 262.95 254.073 260.156 254.485 257.228C254.854 254.603 254.661 251.934 254.402 249.296C253.857 243.742 253.02 238.216 251.895 232.75C251.624 231.431 251.414 229.845 252.404 228.932C253.857 235.518 254.911 242.192 255.559 248.906C255.845 251.858 256.05 254.849 255.588 257.779C255.103 260.856 253.891 263.782 252.387 266.51C249.05 272.558 244.211 279.217 238.426 282.992C237.49 283.603 236.502 284.187 235.401 284.382C232.967 284.814 230.641 283.273 228.791 281.634C219.441 273.352 214.752 259.672 210.861 247.804C209.565 243.852 208.32 239.883 207.126 235.899C207.261 237.457 207.231 239.358 205.887 240.156C205.03 240.666 203.949 240.504 202.97 240.316C195.159 238.815 187.478 236.639 180.041 233.822C178.733 233.326 177.301 232.686 176.774 231.39C175.948 229.357 177.828 227.31 179.522 225.914L190.669 216.725C190.944 216.499 191.257 216.259 191.612 216.285C191.967 216.31 192.269 216.779 192.018 217.032L180.055 226.832C178.699 227.942 177.205 229.713 178.104 231.217C178.501 231.881 179.258 232.225 179.973 232.519C187.088 235.446 194.583 237.347 202.11 238.94C203.051 239.14 204.047 239.332 204.958 239.023C205.869 238.715 206.619 237.711 206.297 236.805L202.408 225.858C201.894 224.411 201.602 222.373 202.992 221.72C200.707 220.956 198.136 221.084 195.937 222.071C194.608 222.667 193.539 220.436 194.376 219.244C195.079 218.242 196.316 217.866 197.513 217.502C197.741 217.432 197.968 217.363 198.189 217.291C199.573 216.836 201.081 215.811 200.98 214.358C198.561 214.727 196.174 215.312 193.859 216.103C192.76 216.478 191.634 215.412 191.357 214.285C190.612 211.263 193.661 208.68 196.532 207.479C199.519 206.23 202.738 205.536 205.975 205.444C206.633 205.425 207.013 204.71 207.256 204.098L210.415 196.119L203.448 194.157L198.506 206.011C197.461 205.466 197.994 203.893 198.593 202.878C200.527 199.599 201.76 195.907 202.184 192.123C205.077 191.738 208.111 192.551 210.425 194.329C210.802 194.618 211.175 194.955 211.325 195.405C211.517 195.986 211.296 196.615 211.077 197.187L207.838 205.649C210.735 205.651 213.55 207.484 214.723 210.132C215.744 212.435 215.54 214.986 215.335 217.542C215.252 218.587 215.168 219.633 215.168 220.664C215.168 227.36 218.753 233.464 222.226 239.188L225.894 245.235C227.08 247.189 228.273 249.153 229.754 250.894C232.573 254.204 236.421 256.626 240.625 257.733C236.935 257.985 233.346 256.155 230.667 253.604C227.988 251.052 226.073 247.823 224.192 244.637L218.356 234.754C216.12 230.967 213.698 226.687 213.662 222.289ZM203.552 223.499C203.465 223.254 203.354 222.982 203.113 222.885C202.709 223.518 202.882 224.345 203.088 225.068C203.892 227.896 204.983 230.642 206.338 233.25C205.807 229.907 204.677 226.692 203.552 223.499ZM203.263 193.015C205.028 193.913 206.996 194.409 208.976 194.455C207.275 193.414 205.254 192.905 203.263 193.015ZM206.66 234.829C206.565 235.098 206.778 235.429 207.063 235.454C206.98 234.731 206.754 234.026 206.402 233.39C206.261 233.853 206.343 234.379 206.618 234.777L206.66 234.829ZM232.997 293.581C232.615 293.441 232.621 292.905 232.697 292.505L233.871 286.373C233.945 285.988 234.113 285.514 234.504 285.486C234.996 285.45 235.169 286.125 235.149 286.618C235.06 288.731 234.642 290.83 233.914 292.815C233.761 293.233 233.415 293.735 232.997 293.581ZM126.536 313.401C123.314 313.83 119.69 314.155 117.153 312.124C116.995 311.998 116.839 311.856 116.761 311.67C116.435 310.882 117.589 310.381 118.418 310.184C121.297 309.5 123.436 307.132 125.231 304.78C129.288 299.462 132.599 293.577 135.038 287.349C135.087 287.224 135.136 287.099 135.185 286.973C136.072 284.696 137.009 282.292 139.004 280.911C139.801 284.403 138.972 288.231 136.803 291.081C137.145 291.731 138.042 291.911 138.736 291.674C139.431 291.436 139.969 290.89 140.479 290.363L146.114 284.536C147.437 283.168 149.533 281.72 151.029 282.896C151.518 283.28 151.781 283.854 152.044 284.429C152.144 284.648 152.244 284.867 152.357 285.075C153.652 287.47 156.348 288.259 159.077 289.058C160.355 289.432 161.64 289.809 162.792 290.353C163.19 290.541 163.76 290.709 163.99 290.334C164.068 290.207 164.076 290.051 164.08 289.903C164.156 286.961 163.491 284.004 162.163 281.378C164.57 282.551 167.195 283.961 168.078 286.488C170.956 294.72 174.469 302.73 178.575 310.423C173.639 311.326 168.517 311.192 163.634 310.034C163.535 311.246 164.543 312.44 165.755 312.545C163.342 313.275 160.943 314.048 158.559 314.865L160.371 316.36C154.174 316.765 147.92 316.271 141.863 314.9C141.974 315.888 142.176 316.865 142.464 317.817C137.981 317.037 133.561 315.897 129.26 314.412L129.977 312.944L126.536 313.401Z" fill="#00160A"/>
<path fill-rule="evenodd" clip-rule="evenodd" d="M167.359 188.657C166.892 188.855 166.291 188.868 165.934 188.507C165.493 188.061 165.641 187.31 165.916 186.746C166.159 186.246 166.499 185.763 166.997 185.515C167.494 185.267 168.174 185.323 168.518 185.76C168.729 186.028 168.784 186.39 168.755 186.73C168.686 187.561 168.127 188.332 167.359 188.657Z" fill="#FFB61D"/>
<path fill-rule="evenodd" clip-rule="evenodd" d="M179.843 122.144C179.124 122.459 178.481 121.57 177.74 121.31C176.966 121.04 176.144 121.491 175.443 121.915C173.967 122.808 172.463 123.656 170.935 124.457C170.622 124.622 170.282 124.789 169.931 124.743C169.58 124.697 169.251 124.334 169.38 124.004C169.452 123.819 169.637 123.707 169.809 123.608C171.095 122.869 172.381 122.131 173.668 121.393C175.328 120.44 177.242 119.454 179.07 120.024C179.538 120.17 179.998 120.441 180.212 120.882C180.425 121.322 180.291 121.947 179.843 122.144V122.144Z" fill="#00160A"/>
<path fill-rule="evenodd" clip-rule="evenodd" d="M183.019 149.451C182.582 150.512 181.916 151.744 180.77 151.798C179.744 151.847 178.943 150.854 178.701 149.857C178.365 148.467 178.895 146.81 180.17 146.164C181.446 145.519 183.32 146.347 183.424 147.772C183.466 148.352 183.24 148.913 183.019 149.451H183.019Z" fill="#FFB61D"/>
<path fill-rule="evenodd" clip-rule="evenodd" d="M205.466 148.554L205.477 148.778C205.544 149.876 205.786 151.114 206.777 151.529C207.723 151.926 208.816 151.267 209.384 150.412C210.176 149.222 210.245 147.483 209.267 146.44C208.289 145.397 206.244 145.534 205.659 146.838C205.422 147.369 205.442 147.973 205.466 148.554Z" fill="#FFB61D"/>
<path fill-rule="evenodd" clip-rule="evenodd" d="M207.444 128.343C207.743 128.265 208.115 128.261 208.301 128.508C208.425 128.673 208.424 128.897 208.413 129.103C208.364 130.005 207.977 131.139 207.074 131.16C206.379 131.175 205.858 130.377 206 129.697C206.142 129.017 206.772 128.521 207.444 128.343V128.343Z" fill="#FFB61D"/>
<path fill-rule="evenodd" clip-rule="evenodd" d="M205.919 135.753C205.477 134.971 206.372 134.125 207.15 133.675C207.796 133.301 208.813 133.035 209.125 133.713C209.339 134.179 208.984 134.696 208.649 135.085C208.287 135.504 207.904 135.937 207.39 136.141C206.875 136.345 206.191 136.236 205.919 135.753L205.919 135.753Z" fill="#FFB61D"/>
<path fill-rule="evenodd" clip-rule="evenodd" d="M199.749 132.084C199.632 132.389 199.503 132.705 199.256 132.919C198.914 133.216 198.406 133.255 197.97 133.135C197.086 132.893 196.412 132 196.468 131.085C196.524 130.17 197.339 129.351 198.255 129.333C199.171 129.315 200.031 130.143 200.008 131.059C199.998 131.413 199.875 131.753 199.749 132.084Z" fill="#00160A"/>
<path fill-rule="evenodd" clip-rule="evenodd" d="M177.636 133.456C176.62 133.351 175.864 132.183 176.182 131.213C176.501 130.243 177.803 129.751 178.683 130.269C179.563 130.787 179.766 132.164 179.073 132.914C178.713 133.303 178.164 133.51 177.636 133.456H177.636Z" fill="#00160A"/>
<path fill-rule="evenodd" clip-rule="evenodd" d="M189.602 147.55L191.615 147.174L191.64 147.489C191.792 149.692 191.434 150.724 190.564 150.588C189.68 150.449 189.352 149.488 189.581 147.705L189.602 147.55ZM191.165 147.741L190.267 147.992C190.147 149.252 190.29 149.93 190.696 150.026C191.102 150.121 191.258 149.36 191.165 147.741Z" fill="#00160A"/>
<path fill-rule="evenodd" clip-rule="evenodd" d="M193.672 147.101L196.367 146.731L196.399 147.035C196.605 149.211 196.125 150.232 194.96 150.098C193.773 149.96 193.335 149.008 193.646 147.242L193.672 147.101ZM194.115 147.332C193.935 148.393 194.129 149.539 194.737 149.62C195.346 149.7 195.789 148.966 195.649 147.603L195.421 147.543C195.246 147.498 195.104 147.466 194.997 147.447L194.855 147.424C194.67 147.396 194.424 147.365 194.115 147.332Z" fill="#00160A"/>
<path fill-rule="evenodd" clip-rule="evenodd" d="M163.243 236.829C162.601 237.781 161.959 238.732 161.318 239.684C160.927 239.677 160.904 239.101 161.015 238.727C161.614 236.709 162.213 234.692 162.812 232.674C162.39 232.485 162 232.985 161.804 233.404C159.827 237.633 157.843 241.88 156.5 246.351C155.157 250.822 154.469 255.558 155.141 260.178C155.579 259.154 156.017 258.131 156.455 257.108C157.151 255.482 157.85 253.851 158.751 252.33C159.732 250.673 160.944 249.159 161.883 247.478C162.822 245.797 163.489 243.874 163.236 241.965C162.857 242.492 162.478 243.019 162.099 243.546C161.028 241.461 163.915 239.075 163.243 236.829Z" fill="#FFB61D"/>
<path fill-rule="evenodd" clip-rule="evenodd" d="M135.569 234.574C136.542 234.588 135.702 232.557 136.577 232.132C137.132 231.863 137.642 232.568 137.85 233.149C139.253 237.062 140.075 241.182 140.281 245.334C140.515 250.034 143.738 254.599 142.428 259.119C142.335 259.439 142.211 259.767 141.963 259.989C141.072 260.786 139.777 259.625 139.211 258.572C137.267 254.96 135.943 251.015 135.313 246.962C135.175 246.069 135.062 245.147 134.627 244.355C134.262 243.689 133.691 243.158 133.291 242.513C132.503 241.24 132.45 239.662 132.42 238.166C132.366 235.432 132.312 232.697 132.257 229.963C132.237 228.969 132.476 227.658 133.463 227.544C134.524 229.759 135.237 232.141 135.569 234.574Z" fill="#FFB61D"/>
<path fill-rule="evenodd" clip-rule="evenodd" d="M117.153 312.124C119.69 314.155 123.314 313.83 126.536 313.401C127.683 313.249 128.83 313.096 129.977 312.944C129.738 313.433 129.499 313.923 129.26 314.412C133.561 315.897 137.981 317.037 142.464 317.817C142.176 316.865 141.974 315.888 141.863 314.9C147.919 316.271 154.174 316.765 160.371 316.36C159.767 315.862 159.163 315.363 158.559 314.864C160.943 314.048 163.342 313.275 165.754 312.545C164.543 312.44 163.535 311.246 163.634 310.034C168.516 311.192 173.639 311.326 178.575 310.423C174.469 302.73 170.956 294.72 168.078 286.488C167.195 283.961 164.57 282.551 162.163 281.378C163.491 284.004 164.156 286.961 164.08 289.903C164.076 290.051 164.068 290.207 163.99 290.334C163.76 290.709 163.19 290.541 162.792 290.353C159.178 288.646 154.258 288.59 152.357 285.075C151.948 284.32 151.704 283.426 151.029 282.896C149.532 281.72 147.437 283.168 146.114 284.536C144.235 286.478 142.357 288.42 140.479 290.363C139.968 290.89 139.431 291.436 138.736 291.674C138.042 291.911 137.145 291.731 136.803 291.081C138.972 288.231 139.8 284.403 139.004 280.911C136.898 282.369 135.972 284.964 135.038 287.349C132.599 293.577 129.288 299.462 125.23 304.78C123.436 307.132 121.296 309.5 118.418 310.184C117.588 310.381 116.435 310.882 116.761 311.67C116.838 311.856 116.995 311.998 117.153 312.124Z" fill="#EEEEEE"/>
<path fill-rule="evenodd" clip-rule="evenodd" d="M166.762 266.344C164.729 247.544 164.302 227.89 171.578 210.436C166.664 228.659 165.459 247.874 168.059 266.568C170.662 285.279 168.793 285.127 166.762 266.344Z" fill="#00160A"/>
<path fill-rule="evenodd" clip-rule="evenodd" d="M144.462 216.451C144.578 215.195 144.744 213.944 144.957 212.701C145.071 212.043 146.042 211.878 146.573 212.282C147.105 212.687 147.292 213.391 147.437 214.043C149.665 224.079 149.777 234.579 147.764 244.66C147.574 245.612 147.078 246.795 146.109 246.739C145.262 246.69 144.838 245.714 144.607 244.898C142.765 238.398 141.121 231.842 139.68 225.242C139.307 223.538 138.946 221.8 139.097 220.061C139.248 218.323 139.986 216.554 141.415 215.553C141.966 215.167 142.648 214.902 143.308 215.031C143.968 215.159 144.554 215.785 144.462 216.451" fill="#FFB61D"/>
<path fill-rule="evenodd" clip-rule="evenodd" d="M163.734 281.121C164.449 282.356 166.838 282.791 166.509 282.022C166.18 281.254 166.077 280.608 165.747 279.839C165.414 279.061 165.638 277.662 166.412 278.005C166.666 278.117 166.789 278.401 166.89 278.66C167.544 280.349 167.582 282.185 168.236 283.874C170.672 281.759 169.154 276.625 167.646 274.555C166.138 272.486 165.615 269.422 155.287 267.092C153.355 266.656 151.123 266.669 149.076 266.703C147.729 266.725 138.761 268.247 134.489 273.875C130.217 279.503 129.826 280.759 126.39 284.243C127.673 283.874 129.069 285.01 129.343 286.582C129.618 288.155 128.506 290.313 129.343 291.672C134.06 290.569 133.293 286.61 133.58 286.254C135.351 284.053 136.822 280.582 139.752 280.489C140.231 281.49 140.036 282.628 139.858 283.722C140.319 284.143 138.925 288.63 138.28 291.075C140.32 288.423 143.385 287.016 145.425 284.363C146.643 282.779 148.363 281.009 150.292 281.53C151.49 281.853 152.196 283.454 153.039 284.363C154.69 286.144 156.66 287.819 159.061 288.182C159.019 287.551 159.623 287.31 160.082 286.877C160.911 287.921 161.952 288.905 163.272 289.094C162.394 286.7 162.48 284.153 161.601 281.759C161.461 281.38 161.322 280.958 161.469 280.582C161.838 279.635 163.018 279.886 163.734 281.121Z" fill="#FFB61D"/>
<path fill-rule="evenodd" clip-rule="evenodd" d="M259.229 137.998C260.44 137.969 261.363 138.207 263.11 138.905C263.11 138.905 266.291 140.41 266.177 140.793C266.063 141.176 264.255 140.936 263.604 140.671L262.784 140.335C261.261 139.718 260.447 139.474 259.576 139.447L259.465 139.444L259.459 139.493L259.454 139.551C259.435 139.846 259.499 140.236 259.595 140.461C259.772 140.878 259.983 141.289 260.223 141.69L260.378 141.943L260.56 141.964C262.894 142.258 265.152 143.163 266.621 144.464L266.752 144.583C268.391 146.111 269.103 147.21 268.732 148.067C268.322 149.013 267.167 148.937 265.685 148.322C263.541 147.432 261.287 145.667 259.693 143.504L259.565 143.327L259.524 143.325C259.249 143.31 258.974 143.306 258.701 143.312L258.496 143.318C255.565 143.439 253.499 144.714 252.926 147.002C252.733 147.77 252.851 148.567 253.213 149.344L253.284 149.49L253.31 149.491C256.002 149.6 258.542 150.389 259.95 151.667L260.058 151.769C260.817 152.503 261.295 153.12 261.502 153.647C261.781 154.361 261.575 155.035 260.909 155.331C260.117 155.682 258.714 155.384 257.152 154.658C255.177 153.74 253.512 152.46 252.486 150.995L252.44 150.928L252.295 150.931C252.163 150.935 252.03 150.94 251.898 150.947L251.699 150.959C248.513 151.178 246.181 152.417 245.585 154.371C245.362 155.1 245.542 156.1 246.017 157.144L246.042 157.199L246.176 157.196C247.724 157.176 249.29 157.685 250.68 158.796L250.908 158.98C251.079 159.115 251.394 159.356 251.364 159.333L251.564 159.492C252.457 160.227 252.821 160.828 252.403 161.661C251.34 163.776 248.926 163.053 246.785 160.798C246.219 160.202 245.718 159.553 245.305 158.884L245.22 158.746L245.106 158.769C243.998 159.006 242.934 159.582 242.02 160.456L241.907 160.567C240.042 162.428 239.578 164.825 240.816 166.71L240.902 166.836L240.978 166.87C241.408 167.069 241.878 167.317 242.437 167.632L243.011 167.961L243.688 168.351C243.76 168.392 243.82 168.431 243.876 168.476C244.05 168.616 244.162 168.755 244.176 169.043C244.2 169.552 243.867 169.766 243.522 169.812C243.433 169.824 243.355 169.821 243.267 169.81C243.081 169.788 242.804 169.717 242.486 169.614C241.721 169.368 241.022 169.053 240.668 168.733C240.423 168.513 240.201 168.282 240.003 168.044L239.98 168.016L239.974 168.014C239.611 167.867 239.276 167.762 238.921 167.682L238.815 167.659C237.656 167.415 236.419 167.488 234.578 167.822C231.673 168.349 230.292 171.11 230.793 173.4L230.805 173.453L230.85 173.469C231.339 173.65 231.838 173.932 232.519 174.372L233.118 174.763C233.779 175.188 234.225 175.608 234.481 176.177C234.798 176.879 234.247 178.056 233.305 177.79C231.487 177.276 230.307 176.144 229.709 174.782L229.657 174.66L229.631 174.656C226.725 174.243 222.846 175.719 220.47 178.028L220.333 178.165C219.383 179.126 218.816 180.071 218.662 180.966L218.655 181.006L218.809 180.995C219.472 180.952 220.069 180.966 220.555 181.043L220.698 181.068C222.912 181.496 224.277 181.978 224.936 182.567C225.784 183.325 225.57 184.265 224.699 184.905C223.657 185.671 221.189 186.336 220.536 185.998C218.809 185.106 217.77 183.972 217.365 182.729L217.336 182.637L217.307 182.642C216.38 182.811 215.391 183.071 214.467 183.408L214.27 183.482C211.664 184.475 210.262 185.921 209.891 187.454C209.443 189.302 213.666 193.05 213.34 193.281C213.014 193.512 211.64 192.282 210.966 191.644L210.851 191.534C208.946 189.736 208.305 188.83 208.449 187.317C208.664 185.06 210.688 183.298 213.754 182.129C214.836 181.716 216.008 181.402 217.115 181.206L217.179 181.194L217.184 181.126C217.294 179.849 217.982 178.519 219.197 177.255L219.303 177.147C221.785 174.637 225.785 172.976 229.106 173.152L229.277 173.163L229.267 173.06C228.998 170.238 230.75 167.143 234.14 166.433L234.32 166.398L234.81 166.312C236.404 166.048 237.605 165.985 238.766 166.177L238.965 166.213L238.937 166.128C238.243 163.976 238.938 161.555 240.768 159.66L240.884 159.542C241.936 158.492 243.179 157.771 244.488 157.427L244.552 157.411L244.516 157.321C244.065 156.171 243.912 155.037 244.163 154.078L244.2 153.948C244.995 151.343 247.779 149.825 251.401 149.53L251.6 149.515L251.697 149.508L251.668 149.43C251.37 148.577 251.292 147.689 251.488 146.792L251.521 146.65C252.272 143.653 254.924 142.017 258.437 141.871L258.661 141.864L258.634 141.814C258.533 141.62 258.438 141.424 258.349 141.226L258.262 141.027C258.077 140.592 257.975 139.976 258.009 139.457C258.062 138.65 258.431 138.018 259.229 137.998ZM220.423 182.489C220.048 182.417 219.553 182.399 218.985 182.433L218.809 182.444L218.83 182.496C219.149 183.25 219.831 183.944 220.901 184.55L221.094 184.655L221.173 184.65L221.283 184.637C221.514 184.606 221.811 184.544 222.121 184.46C222.835 184.268 223.486 184 223.841 183.739L223.886 183.705L223.963 183.64L223.928 183.61C223.502 183.269 222.406 182.885 220.617 182.528L220.423 182.489ZM246.916 158.687L246.935 158.715C247.205 159.09 247.507 159.455 247.835 159.801C249.356 161.403 250.639 161.812 251.08 161.064L251.088 161.049C251.084 161.049 251.08 161.047 251.075 161.043L251.049 161.011C250.961 160.888 250.809 160.742 250.568 160.549L250.43 160.441L250.048 160.148L249.89 160.02C249.025 159.297 248.074 158.871 247.107 158.715L246.916 158.687ZM254.412 151.033L254.458 151.081C255.31 151.951 256.45 152.735 257.762 153.345C258.707 153.784 259.573 154.019 260.038 154.039L260.089 154.04L260.062 153.992C259.906 153.724 259.607 153.36 259.165 152.921L259.051 152.809C258.17 151.956 256.527 151.329 254.649 151.065L254.412 151.033ZM261.666 143.635L261.805 143.787C263.118 145.208 264.722 146.354 266.241 146.985C266.591 147.131 266.905 147.23 267.156 147.28L267.233 147.293L267.184 147.215C266.922 146.811 266.448 146.279 265.765 145.642C264.809 144.751 263.363 144.052 261.771 143.66L261.666 143.635Z" fill="#FFB61D"/>
<path fill-rule="evenodd" clip-rule="evenodd" d="M213.699 83.0069C212.925 83.1768 212.595 84.0723 212.049 84.646C211.502 85.2198 210.15 85.0802 210.334 84.3094C211.363 82.2607 212.407 80.1646 212.717 77.8931C213.027 75.6215 212.473 73.1019 210.744 71.5967C209.549 70.556 207.95 70.1161 206.39 69.8404C200.322 68.7687 194.109 69.7254 187.969 70.2472C181.83 70.769 175.373 70.7941 169.852 68.0598C166.099 66.2014 163.864 61.6932 164.658 57.5814C158.056 65.6195 155.086 76.3646 155.857 86.7379C156.078 89.7207 156.598 92.7025 157.692 95.4867C160.395 102.371 166.554 107.601 173.545 110.016C180.536 112.43 188.261 112.211 195.407 110.302C202.553 108.393 209.176 104.868 215.345 100.789C215.747 100.523 216.269 101.104 216.144 101.569C216.019 102.034 215.557 102.314 215.135 102.546C211.568 104.507 208 106.467 204.433 108.428C206.572 109.551 207.728 111.902 208.636 114.14C209.794 116.992 210.78 119.913 211.587 122.883C215.411 119.812 219.235 116.741 223.059 113.67C223.457 113.35 224.265 113.192 224.282 113.702C220.635 116.736 216.987 119.769 213.34 122.802C212.788 123.261 212.178 123.872 212.321 124.576C215.79 121.719 219.259 118.862 222.727 116.005C223.839 115.09 225.027 114.046 225.253 112.624C226.27 106.251 227.253 99.5224 224.919 93.5057C223.142 88.9252 219.442 85.1263 214.91 83.2291C214.525 83.068 214.107 82.9175 213.699 83.0069Z" fill="#EEEEEE"/>
<path fill-rule="evenodd" clip-rule="evenodd" d="M188.872 138.573C189.205 138.59 189.46 138.874 189.443 139.207L189.421 139.592C189.322 141.214 189.171 142.253 188.937 142.784C188.703 143.316 189.23 143.308 189.408 143.266C189.586 143.223 191.571 141.119 191.803 141.358C192.035 141.597 192.03 141.979 191.79 142.211L191.539 142.453C190.518 143.426 189.857 143.935 189.408 144.043C189.012 144.138 188.277 144.367 188.183 143.85C188.004 142.861 188.681 141.788 188.85 140.455C188.959 139.591 188.69 138.578 188.81 138.573L188.872 138.573Z" fill="#00160A"/>
</svg>
