<svg width="362" height="362" viewBox="0 0 362 362" fill="none" xmlns="http://www.w3.org/2000/svg">
<rect width="362" height="362" fill="#EEEEEE"/>
<path fill-rule="evenodd" clip-rule="evenodd" d="M80.4411 253.732C102.166 277.356 201.281 245.09 234.65 253.732C257.384 259.619 337.061 265.555 305.528 183.622C205.502 -76.2778 11.6067 178.878 80.4411 253.732Z" fill="black"/>
<ellipse cx="170.159" cy="73.0674" rx="16.3845" ry="19.49" fill="#EEEEEE"/>
<path fill-rule="evenodd" clip-rule="evenodd" d="M35.9604 317.082C30.918 319.611 26.7776 322.649 28.3203 326.426C31.0087 333.006 39.4552 335.433 49.0601 337.373C62.4973 340.088 81.1499 340.429 105.284 339.379C145.627 337.625 141.051 333.764 179.336 331.948C205.391 330.712 250.589 337.574 286.846 337.449C309.028 337.373 405.777 310.631 268.434 304.694C131.091 298.757 55.5513 307.259 35.9604 317.082Z" fill="#EEEEEE"/>
<path fill-rule="evenodd" clip-rule="evenodd" d="M35.9604 317.082C30.918 319.611 26.7776 322.649 28.3203 326.426C31.0087 333.006 142.715 311.804 181 309.989C207.056 308.753 246.775 317.206 283.031 317.082C305.214 317.006 355.868 312.5 268.434 304.694C181 296.888 55.5513 307.259 35.9604 317.082Z" fill="#E7EAEE"/>
<path fill-rule="evenodd" clip-rule="evenodd" d="M107.959 303.774C71.381 306.255 46.0785 310.659 35.4195 316.004C32.4367 317.499 30.2556 318.921 28.7967 320.454C26.9135 322.434 26.2765 324.613 27.2033 326.882C28.5993 330.299 31.4116 332.82 35.5938 334.737C38.8533 336.231 42.7249 337.312 48.4454 338.48L48.8212 338.556C61.6641 341.15 79.484 341.709 105.336 340.585L107.475 340.489C122.467 339.794 130.349 338.943 142.007 337.082L145.188 336.568C156.891 334.69 164.218 333.884 178.854 333.179L180.08 333.122C190.361 332.674 199.844 333.159 226.02 335.236L240.869 336.423C244.252 336.689 247.123 336.905 250.018 337.113L253.099 337.329C266.137 338.224 276.731 338.674 286.345 338.657L286.85 338.656C292.562 338.637 302.895 336.914 312.945 334.302L313.729 334.096C324.671 331.199 333.617 327.705 338.192 324.231C344.469 319.463 342.754 314.54 332.758 311.163C321.937 307.508 300.861 304.888 268.486 303.489C204.091 300.705 149.743 300.94 107.959 303.774ZM268.382 305.9L270.298 305.985C301.374 307.394 321.653 309.959 331.986 313.449L332.454 313.611C336.594 315.064 338.825 316.611 339.325 318.044C339.73 319.208 338.931 320.639 336.732 322.309C332.475 325.542 323.763 328.943 313.102 331.766L312.337 331.966C302.595 334.499 292.579 336.18 287.057 336.241L286.842 336.243C276.659 336.278 265.368 335.78 251.189 334.777L246.577 334.441C243.615 334.219 240.454 333.972 236.559 333.66L227.066 332.898C199.52 330.706 190.088 331.196 179.278 331.708L177.148 331.812C163.457 332.505 156.163 333.328 144.81 335.15L141.228 335.727C129.471 337.594 121.539 338.419 105.772 339.115L105.231 339.139C79.8168 340.244 62.2569 338.747 49.6786 336.267L49.299 336.191C37.2706 333.761 30.2314 331.966 28.1843 326.017C27.3368 323.555 30.797 321.021 36.5013 318.161C46.7827 313.005 71.8546 308.641 108.122 306.182C149.81 303.354 204.07 303.119 268.382 305.9Z" fill="#00160A"/>
<path fill-rule="evenodd" clip-rule="evenodd" d="M156.29 63.6543C159.17 56.7635 166.927 52.2606 174.345 53.1737C169.573 50.6508 164.041 46.7076 164.913 41.3839C165.583 37.2904 169.972 34.8093 174.089 34.2814C180.14 33.5055 186.973 36.2514 189.334 41.8722C191.695 47.4929 187.484 55.2635 181.388 55.0246C186.516 60.0942 188.377 68.2009 185.973 74.9969C184.765 78.4093 179.54 78.6084 176.867 76.1662C174.193 73.724 173.425 69.8852 172.802 66.3199C169.795 68.2689 166.306 69.4705 162.736 69.7871C164.42 70.3538 165.835 71.6733 166.517 73.3133C163.544 70.9936 160.073 69.3143 156.408 68.4224C155.075 72.8976 153.728 77.537 154.342 82.1656C154.956 86.7943 158.09 91.4331 162.691 92.2521C173.118 94.1084 180.26 76.084 190.807 77.0521C195.151 77.4509 198.435 75.5215 200.011 71.4574C201.588 67.3932 200.16 62.3663 196.682 59.7357C194.614 59.8324 192.626 58.1143 192.425 56.0561C192.223 53.9979 193.839 51.9272 195.886 51.6212C191.54 45.4303 192.634 36.0507 198.289 31.0243C203.943 25.998 213.394 26.0041 219.042 31.0377C215.95 26.049 218.881 18.5121 224.495 16.7875C230.108 15.0628 236.698 19.4917 237.355 25.3231C238.012 31.1544 232.736 36.8858 226.863 36.8624C227.84 41.3749 231.975 45.0145 236.579 45.4141C234.611 47.6877 230.842 45.545 229.211 43.0193C227.58 40.4936 226.031 37.2103 223.036 36.9306C226.715 41.2645 229.143 46.6476 229.955 52.2728C227.419 48.339 225.602 43.9441 224.62 39.369C224.98 43.0284 224.295 46.7844 222.669 50.0826C224.585 49.1615 226.701 51.6028 226.393 53.7049C226.085 55.8071 224.394 57.3881 222.886 58.8859C218.594 63.1492 214.866 69.6241 217.698 74.9688C219.606 78.5705 223.776 80.193 227.214 82.3845C234.625 87.1079 239.281 95.2946 241.532 103.785C243.784 112.275 243.894 121.165 243.99 129.948C244.197 148.746 244.403 167.544 244.61 186.342C244.678 192.54 244.349 199.633 239.54 203.548C242.48 199.47 243.752 194.226 243.004 189.256C238.067 205.95 234.187 222.641 232.836 241.991C231.485 261.34 234.157 269.447 228.475 295.828C227.964 298.203 229.082 301.003 230.495 303.275C232.965 307.243 242.289 309.466 240.508 312.706C238.236 316.839 228.28 315.867 222.003 315.58C219.422 315.462 216.649 315.039 214.801 313.234C212.504 310.991 212.374 307.405 212.382 304.196C212.462 270.132 211.166 236.065 208.497 202.105C207.988 228.411 207.474 254.777 204.147 280.876C203.21 288.229 201.313 295.923 201.609 303.275C201.77 307.277 203.628 311.565 204.275 315.58C204.788 318.767 202.473 319.863 200.011 319.683C199.359 319.636 198.842 320.182 198.172 320.14C197.616 320.104 197.054 319.728 196.424 319.683C195.752 319.636 195.008 319.92 194.286 319.863C193.746 319.82 193.623 319.373 192.653 319.373C191.684 319.373 191.395 319.673 190.426 319.521C189.457 319.368 187.697 320.568 186.816 319.242C185.221 316.843 189.334 310.416 189.091 307.069C188.848 303.722 187.572 293.054 187.472 290.22C186.604 265.738 181.241 219.03 181.241 219.03C181.241 219.03 178.111 256.15 167.54 278.473C164.918 284.01 161.346 293.122 164.913 297.816C168.48 302.51 166.432 306.674 167.709 311.454C168.728 315.274 171.273 318.541 171.507 323.085C171.623 325.329 168.313 324.85 167.989 324.62C167.664 324.389 167.113 323.077 166.837 323.189C166.424 323.357 167.516 324.529 166.214 325.34C164.913 326.15 164.394 325.259 163.776 325.525C163.173 325.785 162.854 326.593 162.169 326.477C160.781 326.242 160.704 325.692 160.558 325.74C160.407 325.791 160.631 326.65 160.062 326.813C159.494 326.977 157.847 326.262 157.512 325.936C157.023 325.46 157.2 327.193 156.544 327.109C153.87 326.768 152.954 324.312 153.201 322.854C151.796 326.222 149.852 328.431 146.435 329.653C145.661 329.93 145.247 329.06 144.854 329.104C144.638 329.129 145.034 329.814 144.388 330.023C143.743 330.233 143.432 330.153 142.615 329.911C141.798 329.669 142.008 327.612 141.808 327.612C141.608 327.612 141.618 328.673 141.261 328.972C140.575 329.547 140.182 329.598 139.588 328.819C139.255 328.383 139.644 327.661 139.408 327.612C139.247 327.578 138.944 328.45 138.394 328.58C137.432 328.808 137.117 328.896 136.382 327.902C136.061 327.467 136.67 326.259 136.282 326.15C135.895 326.041 135.415 328.056 134.914 328.431C134.413 328.806 134.079 328.483 133.626 328.14C131.123 323.374 134.747 317.891 137.247 313.123C144.315 299.642 142.54 283.276 138.721 268.544C134.903 253.812 129.193 239.309 128.894 224.094C128.778 218.167 129.489 212.202 128.674 206.33C127.786 199.935 125.129 193.943 123.193 187.783C119.515 176.082 118.434 163.73 117.953 151.475C117.574 141.824 117.571 132.017 120.104 122.697C122.637 113.376 127.997 104.479 136.282 99.5048C141.45 96.4025 147.856 94.6592 151.193 89.6428C154.315 84.9501 153.77 78.8151 153.105 73.2196C150.896 72.8185 149.257 70.4346 149.675 68.2303C150.092 66.026 152.49 64.4058 154.693 64.8393C153.739 62.974 152.784 61.1086 151.829 59.2433C152.44 60.1312 155.39 65.4503 155.204 58.6511C155.437 60.34 155.852 60.8522 156.29 63.6543Z" fill="#EEEEEE"/>
<path fill-rule="evenodd" clip-rule="evenodd" d="M143.56 183.717C142.604 184.27 141.365 184.987 140.57 184.237C138.397 182.189 134.776 181.92 132.302 183.574L132.154 183.676L132.037 185.064C134.511 183.204 138.318 183.416 140.57 185.539C141.284 186.212 142.355 185.703 143.259 185.192L143.765 184.903C146.311 183.516 149.661 183.74 151.99 185.472C153.293 186.441 154.86 185.83 156.483 185.197C157.839 184.668 159.233 184.124 160.544 184.474C161.157 184.638 161.761 184.991 162.354 185.337C163.439 185.971 164.483 186.581 165.465 185.958C167.409 184.725 170.095 184.787 171.979 186.109L171.809 185.102L171.734 184.645C169.867 183.482 167.326 183.475 165.465 184.656C164.483 185.279 163.439 184.669 162.354 184.035C161.761 183.689 161.157 183.336 160.544 183.172C159.233 182.822 157.839 183.366 156.483 183.895C154.86 184.528 153.293 185.139 151.99 184.17C149.613 182.403 146.174 182.205 143.61 183.688L143.56 183.717ZM143.542 198.522C142.607 199.111 141.397 199.875 140.574 199.157C138.324 197.193 132.079 200.31 132.079 200.31C132.455 200.479 133.317 200.304 134.381 200.088C136.384 199.68 139.101 199.128 140.624 200.458C141.363 201.103 142.414 200.553 143.297 200.007L143.792 199.699C146.283 198.215 149.639 198.311 152.033 199.952C153.372 200.87 154.915 200.199 156.512 199.504C157.846 198.924 159.219 198.327 160.542 198.626C161.161 198.766 161.778 199.096 162.384 199.419C163.492 200.011 164.56 200.58 165.516 199.92L165.65 199.831C166.742 199.126 169.155 199.565 171.343 199.963C172.935 200.253 174.407 200.521 175.163 200.31C175.163 200.31 167.281 197.368 165.466 198.619C164.51 199.279 163.442 198.71 162.334 198.118C161.728 197.795 161.111 197.465 160.492 197.325C159.169 197.026 157.796 197.623 156.462 198.203C154.865 198.898 153.322 199.569 151.983 198.651C149.54 196.976 146.095 196.911 143.59 198.491L143.542 198.522ZM144.322 145.013C143.467 145.628 142.125 146.009 141.476 145.18C139.44 142.576 134.689 143.006 133.155 145.933C134.948 144.94 137.062 143.922 138.96 144.699C139.488 144.915 139.972 145.263 140.452 145.607C141.25 146.181 142.035 146.745 142.983 146.672C143.687 146.618 144.295 146.21 144.901 145.804C145.55 145.369 146.196 144.935 146.954 144.944C147.797 144.953 148.482 145.501 149.168 146.049C149.852 146.595 150.536 147.141 151.376 147.155C152.063 147.166 152.689 146.81 153.308 146.457C154.001 146.063 154.687 145.672 155.444 145.803C156.347 145.96 156.89 146.767 157.433 147.574C157.973 148.378 158.514 149.182 159.411 149.347C159.942 149.445 160.469 149.283 160.982 149.086L161.49 148.885C162.689 148.419 164.028 148.16 165.263 148.519C166.324 148.827 167.27 149.686 167.52 150.737C167.505 150.503 167.487 150.271 167.466 150.039L167.435 148.711C166.075 147.587 164.172 147.151 162.457 147.572C162.163 147.644 161.874 147.74 161.584 147.836C161.028 148.02 160.472 148.204 159.89 148.218C159.004 148.239 158 147.66 157.994 146.775L157.99 146.68C157.895 145.214 155.821 144.729 154.361 145.111C154.051 145.192 153.736 145.291 153.419 145.39C152.212 145.769 150.977 146.155 149.882 145.616C149.459 145.408 149.101 145.075 148.747 144.745C148.252 144.283 147.764 143.828 147.111 143.73C146.31 143.609 145.596 144.069 144.921 144.568L144.322 145.013ZM133.226 134.471C133.808 133.079 133.792 131.541 133.723 130.31C133.723 130.31 132.713 132.088 131.369 131.896L131.274 131.886C130.669 131.842 130.036 132.188 129.439 132.513C128.634 132.953 127.895 133.356 127.385 132.714C126.133 131.139 124.087 130.231 122.078 130.357C121.507 130.393 120.904 130.528 120.508 130.94C120.112 131.352 120.045 132.111 120.499 132.458C120.964 131.296 122.587 131.072 123.748 131.542C124.41 131.81 124.991 132.228 125.573 132.647C126.011 132.963 126.451 133.279 126.926 133.532C128.032 134.12 129.585 134.26 130.385 133.296L130.447 133.226C131.071 132.57 132.279 132.583 132.874 133.274C133.156 133.602 133.267 134.043 133.226 134.471ZM138.843 116.741C137.479 117.354 135.972 116.275 134.957 115.178L134.47 114.655C133.574 113.709 132.558 112.794 131.298 112.862C130.618 112.899 129.992 113.231 129.409 113.584C127.668 114.634 126.078 115.933 124.701 117.427C126.037 117.54 127.149 116.621 128.252 115.711C129.409 114.754 130.556 113.807 131.938 114.075C132.993 114.278 133.727 115.135 134.459 115.989C135.211 116.866 135.96 117.741 137.053 117.9C137.777 118.006 138.487 117.76 139.189 117.517C139.359 117.458 139.53 117.399 139.7 117.345C143.073 116.278 147.037 117.424 149.319 120.126C150.361 121.359 152.306 120.774 153.781 120.029L154.186 119.82C155.661 119.075 157.612 118.499 158.644 119.742L158.742 119.855C160.401 121.71 163.314 121.548 165.843 121.12L166.293 121.041C166.32 121.192 166.345 121.357 166.37 121.535L166.42 121.907C166.964 119.998 166.75 119.562 166.293 120.573C165.475 119.84 163.878 120.063 162.805 120.303L162.706 120.324C161.647 120.539 160.299 120.455 159.904 119.466C159.179 117.656 156.536 117.909 154.734 118.655L154.501 118.751C152.735 119.468 150.543 120.165 149.262 118.807C146.67 116.062 142.287 115.193 138.843 116.741ZM167.032 114.771C167.052 114.164 167.116 113.441 167.232 112.619L167.261 112.419C166.019 111.644 164.443 111.426 163.036 111.834C161.879 112.17 160.904 111.372 159.904 110.555C159.015 109.827 158.107 109.084 157.034 109.112C156.17 109.134 155.461 109.652 154.744 110.176C154.164 110.599 153.579 111.026 152.903 111.199C151.254 111.621 149.736 110.467 148.387 109.337L147.85 108.884C146.371 107.641 144.036 106.636 142.663 107.995L142.576 108.077C141.418 109.112 139.526 108.744 138.157 107.965C137.723 107.718 137.304 107.436 136.886 107.154C135.95 106.524 135.016 105.895 133.924 105.662C132.343 105.324 130.306 106.405 130.519 108.006C131.677 106.78 133.626 106.379 135.175 107.049C135.904 107.364 136.584 107.891 137.254 108.41C138.472 109.354 139.654 110.271 141.032 109.829C141.451 109.694 141.813 109.441 142.177 109.187C142.484 108.972 142.792 108.757 143.135 108.613C144.878 107.882 146.501 109.124 148.143 110.38C149.73 111.594 151.335 112.821 153.084 112.299C153.733 112.105 154.302 111.678 154.862 111.257C155.631 110.68 156.384 110.114 157.31 110.173C158.256 110.234 158.985 110.937 159.682 111.61C159.728 111.654 159.773 111.698 159.818 111.741L160.01 111.924C160.812 112.673 162.021 113.316 162.954 112.739C164.449 111.815 166.467 113.097 167.032 114.771ZM168.353 107.425C168.66 107.057 168.948 106.591 169.217 106.026C169.582 105.262 169.587 103.948 169.217 104.724C168.768 105.665 167.728 106.413 166.712 106.174C166.265 106.069 165.883 105.794 165.502 105.521C165.079 105.217 164.658 104.915 164.152 104.848C163.579 104.773 163.038 105.016 162.5 105.257C162.327 105.334 162.155 105.411 161.982 105.478C161.27 105.752 160.285 105.754 159.937 105.076C158.735 102.738 154.995 102.313 153.299 104.322C152.6 105.15 151.211 104.619 150.476 103.824C150.293 103.625 150.118 103.41 149.943 103.194C149.417 102.546 148.889 101.895 148.105 101.679C147.222 101.436 146.366 101.833 145.501 102.233C144.721 102.594 143.935 102.959 143.114 102.86C142.269 102.759 141.6 102.197 140.934 101.638C140.709 101.449 140.485 101.261 140.254 101.091C139.339 100.416 137.858 100.088 137.2 101.015C138.33 101.181 139.31 101.789 140.292 102.398C140.707 102.655 141.121 102.913 141.548 103.137C142.985 103.893 144.978 104.186 146.058 102.975L146.123 102.907C146.92 102.134 148.338 102.769 149.107 103.614C149.248 103.769 149.387 103.931 149.527 104.096C150.174 104.856 150.845 105.643 151.807 105.73C152.671 105.808 153.412 105.286 154.155 104.764C154.892 104.245 155.63 103.725 156.489 103.794C157.368 103.864 158.015 104.518 158.664 105.175C159.301 105.819 159.939 106.464 160.799 106.56C161.261 106.611 161.713 106.49 162.166 106.369C162.355 106.319 162.544 106.268 162.734 106.23C164.5 105.875 166.271 106.603 167.913 107.382L168.25 107.544L168.353 107.425ZM135.849 122.695C136.103 122.834 136.345 123.067 136.373 123.372C136.401 123.678 136.093 124 135.84 123.861C134.85 123.321 133.653 123.74 132.658 124.266C132.541 124.328 132.424 124.391 132.306 124.455L132.306 124.455C131.42 124.935 130.506 125.429 129.531 125.34C128.687 125.262 127.903 124.756 127.135 124.26C126.117 123.603 125.128 122.964 124.069 123.376C123.531 123.585 123.129 124.029 122.724 124.476C122.423 124.808 122.121 125.142 121.76 125.383C121.658 125.451 121.54 125.514 121.421 125.495C121.092 125.441 121.107 124.915 121.249 124.59C122.176 122.479 124.819 121.492 126.755 122.534C127.092 122.715 127.408 122.948 127.723 123.179C128.267 123.579 128.807 123.977 129.446 124.105C130.479 124.313 131.488 123.767 132.437 123.252L132.438 123.252C132.503 123.217 132.567 123.182 132.632 123.147C133.638 122.606 134.847 122.145 135.849 122.695ZM143.867 125.427C145.309 126.213 147.204 126.118 148.558 125.192C149.521 124.533 150.86 125.089 151.767 125.82C151.947 125.964 152.124 126.117 152.302 126.27C153.025 126.892 153.759 127.524 154.691 127.656C155.45 127.764 156.183 127.515 156.921 127.265C157.531 127.058 158.144 126.85 158.778 126.841C159.837 126.826 160.788 127.357 161.724 127.88L161.724 127.88C161.924 127.992 162.124 128.104 162.324 128.209C163.457 128.808 164.916 129.218 165.972 128.498L161.147 126.468C160.482 126.188 159.798 125.904 159.075 125.874C158.417 125.848 157.773 126.033 157.131 126.218C156.389 126.432 155.651 126.645 154.9 126.528C153.955 126.381 153.21 125.754 152.469 125.13C152.224 124.924 151.981 124.719 151.73 124.531C150.719 123.774 149.13 123.334 148.277 124.26C147.515 125.089 146.158 125.061 145.098 124.655C144.597 124.463 144.126 124.204 143.655 123.945L143.655 123.945L143.655 123.945L143.655 123.945L143.655 123.945C143.131 123.657 142.608 123.369 142.043 123.173C140.971 122.802 139.595 122.871 138.92 123.769C138.854 124.062 139.208 124.299 139.513 124.282C139.708 124.271 139.89 124.198 140.072 124.124C140.174 124.083 140.277 124.042 140.382 124.011C141.308 123.743 142.153 124.312 142.992 124.876C143.283 125.072 143.574 125.267 143.867 125.427ZM168.509 171.917C168.121 172.918 166.747 173.067 165.809 172.602C165.259 172.33 164.794 171.92 164.328 171.509L164.328 171.509C163.997 171.218 163.667 170.927 163.305 170.684C162.433 170.097 161.155 169.858 160.43 170.631C158.629 172.551 155.771 173.324 153.296 172.559C152.348 172.267 151.477 171.776 150.605 171.285L150.605 171.285L150.605 171.285C150.117 171.01 149.628 170.735 149.125 170.494C147.725 169.823 146.058 169.431 144.66 170.109C144.127 170.368 143.675 170.763 143.222 171.159C142.834 171.498 142.445 171.838 142.004 172.093C140.51 172.956 138.584 172.704 137.11 171.804C136.858 171.65 136.613 171.477 136.369 171.305L136.368 171.305L136.368 171.305C135.81 170.911 135.252 170.517 134.603 170.345C133.671 170.096 132.45 170.572 132.348 171.565C131.693 170.577 132.747 169.16 133.9 169.067C135.053 168.974 136.101 169.702 137.049 170.389C137.997 171.077 139.063 171.788 140.212 171.655C141.174 171.545 141.921 170.887 142.678 170.221C143.191 169.769 143.708 169.313 144.301 169.021C146.267 168.051 148.576 169.044 150.495 170.11C152.414 171.175 154.561 172.363 156.655 171.744C157.48 171.501 158.195 170.998 158.91 170.496C159.186 170.302 159.463 170.107 159.746 169.928C160.76 169.285 162.032 168.822 163.123 169.312C163.602 169.527 163.986 169.9 164.37 170.273L164.37 170.273L164.37 170.273L164.371 170.273L164.371 170.273L164.371 170.274C164.544 170.442 164.718 170.611 164.901 170.766C165.901 171.61 167.224 172.033 168.509 171.917ZM178.684 211.792C177.564 213.239 175.299 212.744 173.586 212.1C171.872 211.456 169.626 210.928 168.471 212.347C167.814 213.153 166.515 213.025 165.606 212.52C165.217 212.303 164.858 212.033 164.5 211.764L164.5 211.764C164.023 211.405 163.547 211.047 163 210.816C160.87 209.916 158.551 211.167 156.481 212.282L156.263 212.4L156.114 212.48C153.955 213.637 150.91 214.373 149.35 212.486C148.283 211.197 146.21 211.523 144.71 212.266C144.406 212.417 144.102 212.582 143.797 212.747L143.797 212.747C142.598 213.395 141.382 214.053 140.053 213.936C138.874 213.832 137.81 213.129 136.77 212.442C135.449 211.569 134.164 210.721 132.724 211.149C132.272 211.283 131.864 211.539 131.458 211.794C130.944 212.118 130.432 212.439 129.837 212.507C129.839 211.032 131.452 209.983 132.928 210.009C134.342 210.033 135.633 210.744 136.876 211.428L137.042 211.519C138.335 212.23 139.753 212.917 141.22 212.749C142.232 212.633 143.128 212.125 144.025 211.617L144.025 211.617C144.411 211.399 144.798 211.18 145.194 210.992C146.512 210.367 148.307 210.177 149.238 211.298C150.451 212.757 152.724 212.785 154.511 212.146C155.355 211.844 156.151 211.427 156.946 211.009L156.947 211.009C157.835 210.543 158.723 210.076 159.677 209.772C161.485 209.196 163.786 209.398 164.839 210.975C165.484 211.942 166.948 211.872 168.02 211.422C168.318 211.297 168.612 211.15 168.906 211.003L168.906 211.003C169.668 210.622 170.43 210.241 171.269 210.236C172.161 210.23 173.028 210.649 173.876 211.059C175.002 211.604 176.094 212.131 177.166 211.626L178.684 211.792ZM154.725 159.2C153.51 159.413 152.423 158.763 151.32 158.104C150.374 157.538 149.417 156.965 148.36 156.927C147.102 156.882 145.974 157.594 144.856 158.299C143.626 159.075 142.409 159.843 141.047 159.583C140.505 159.479 140.015 159.217 139.524 158.955L139.524 158.955C139.28 158.825 139.036 158.694 138.785 158.583C136.903 157.749 134.573 158.083 132.992 159.415C133.295 158.014 134.697 157.056 136.102 156.941C137.507 156.827 138.886 157.404 140.076 158.172C141.09 158.826 142.44 158.556 143.514 158.009C143.943 157.79 144.353 157.531 144.763 157.273C145.377 156.885 145.99 156.498 146.666 156.248C148.551 155.549 150.815 156.075 152.215 157.537C153.067 158.426 154.523 158.188 155.653 157.72C155.815 157.653 155.978 157.582 156.142 157.511L156.143 157.511L156.143 157.511L156.143 157.511C157.123 157.086 158.136 156.647 159.153 156.889C160.055 157.103 160.77 157.812 161.47 158.507C162.322 159.353 163.153 160.178 164.276 160.062C164.642 160.024 164.983 159.882 165.326 159.74C165.577 159.635 165.83 159.53 166.092 159.466C166.713 159.315 167.53 159.529 167.664 160.165C165.886 160.842 163.813 161.499 162.18 160.515C161.667 160.207 161.232 159.752 160.801 159.302L160.801 159.302C160.119 158.59 159.451 157.892 158.511 157.811C157.745 157.744 157.061 158.124 156.369 158.508L156.369 158.508C155.839 158.802 155.305 159.099 154.725 159.2ZM146.652 135.655C147.3 135.245 147.949 134.835 148.706 134.774C149.859 134.681 150.828 135.402 151.767 136.1C151.977 136.256 152.185 136.411 152.393 136.555C153.534 137.347 155.409 137.751 156.162 136.617C156.604 135.952 157.659 135.913 158.394 136.275C158.93 136.538 159.354 136.95 159.778 137.362C159.936 137.516 160.095 137.67 160.26 137.817C160.95 138.43 161.801 138.931 162.743 139.018C163.684 139.104 164.715 138.693 165.127 137.886C162.896 138.341 160.416 137.345 159.212 135.508C158.605 134.582 157.102 135.028 156.118 135.594C155.134 136.161 153.687 136.682 152.994 135.81C151.379 133.78 147.888 133.42 145.85 135.074C144.855 135.881 143.291 135.344 142.291 134.542C142.029 134.332 141.776 134.104 141.524 133.875C140.813 133.231 140.101 132.587 139.169 132.346C137.532 131.924 135.655 133.18 135.529 134.783C135.989 134.838 136.473 134.598 136.687 134.208C137.163 133.34 138.467 133.178 139.419 133.558C140.175 133.861 140.779 134.404 141.379 134.944C141.533 135.084 141.688 135.223 141.845 135.357C142.61 136.015 143.556 136.613 144.586 136.536C145.348 136.478 146 136.067 146.652 135.655Z" fill="#FFB61D"/>
<path fill-rule="evenodd" clip-rule="evenodd" d="M156.29 63.6543C159.17 56.7635 166.927 52.2606 174.345 53.1737C169.573 50.6508 164.041 46.7076 164.913 41.3839C165.583 37.2904 169.972 34.8093 174.089 34.2814C180.14 33.5055 186.973 36.2514 189.334 41.8722C191.695 47.4929 187.484 55.2635 181.388 55.0246C186.516 60.0942 188.377 68.2009 185.973 74.9969C184.765 78.4093 179.54 78.6084 176.867 76.1662C174.193 73.724 173.425 69.8852 172.802 66.3199C169.795 68.2689 166.306 69.4705 162.736 69.7871C164.42 70.3538 165.835 71.6733 166.517 73.3133C163.544 70.9936 160.073 69.3143 156.408 68.4224C155.075 72.8976 153.728 77.537 154.342 82.1656C154.956 86.7943 158.09 91.4331 162.691 92.2521C167.994 93.1961 172.447 88.998 176.931 84.7713C181.263 80.6872 185.624 76.5764 190.807 77.0521C195.151 77.4509 198.435 75.5215 200.011 71.4574C201.588 67.3932 200.16 62.3663 196.682 59.7357C194.614 59.8324 192.626 58.1143 192.425 56.0561C192.223 53.9979 193.839 51.9272 195.886 51.6212C191.54 45.4303 192.634 36.0507 198.289 31.0243C203.943 25.998 213.394 26.0041 219.042 31.0377C215.95 26.049 218.881 18.5121 224.495 16.7875C230.108 15.0628 236.698 19.4917 237.355 25.3231C238.012 31.1544 232.736 36.8858 226.863 36.8624C227.84 41.3749 231.975 45.0145 236.579 45.4141C234.611 47.6877 230.842 45.545 229.211 43.0193C228.979 42.6602 228.749 42.2858 228.516 41.9069L228.515 41.9065L228.515 41.906L228.515 41.9056L228.515 41.9052L228.514 41.9047L228.514 41.9043L228.514 41.9038L228.513 41.9034L228.513 41.903L228.513 41.9025L228.513 41.9021C227.108 39.6173 225.603 37.1703 223.036 36.9306C226.715 41.2645 229.143 46.6476 229.955 52.2728C227.419 48.339 225.602 43.9441 224.62 39.369C224.98 43.0284 224.295 46.7844 222.669 50.0826C224.585 49.1615 226.701 51.6028 226.393 53.7049C226.1 55.704 224.557 57.2318 223.109 58.6649L223.107 58.6672L222.992 58.7805L222.886 58.8859C218.594 63.1492 214.866 69.6241 217.698 74.9688C219.164 77.7358 221.964 79.3347 224.743 80.9209C225.581 81.3994 226.417 81.8767 227.214 82.3845C234.625 87.1079 239.281 95.2946 241.532 103.785C243.784 112.275 243.894 121.165 243.99 129.948L244.61 186.342C244.678 192.54 244.349 199.633 239.54 203.548C242.48 199.47 243.752 194.226 243.004 189.256C238.067 205.95 234.187 222.641 232.836 241.991C232.397 248.273 232.383 253.369 232.369 258.291C232.34 268.53 232.312 278.012 228.475 295.828C227.964 298.203 229.082 301.003 230.495 303.275C231.565 304.994 233.923 306.386 236.106 307.675C238.961 309.361 241.517 310.87 240.508 312.706C238.451 316.449 230.091 316.005 223.869 315.674C223.22 315.64 222.595 315.607 222.003 315.58C219.422 315.462 216.649 315.039 214.801 313.234C212.504 310.991 212.374 307.405 212.382 304.196C212.462 270.132 211.166 236.065 208.497 202.105C207.988 228.411 207.474 254.777 204.147 280.876C203.868 283.062 203.505 285.277 203.14 287.505C202.276 292.772 201.401 298.108 201.609 303.275C201.703 305.626 202.384 308.076 203.06 310.511C203.535 312.221 204.008 313.924 204.275 315.58C204.788 318.767 202.473 319.863 200.011 319.683C199.686 319.66 199.394 319.784 199.1 319.909C198.805 320.034 198.507 320.161 198.172 320.14C197.901 320.122 197.628 320.024 197.347 319.923L197.347 319.923C197.052 319.816 196.747 319.706 196.424 319.683C196.097 319.66 195.753 319.716 195.402 319.772C195.033 319.832 194.656 319.892 194.286 319.863C194.065 319.846 193.914 319.76 193.746 319.666C193.504 319.529 193.226 319.373 192.653 319.373C192.242 319.373 191.953 319.427 191.683 319.477L191.683 319.478C191.316 319.546 190.984 319.609 190.426 319.521C190.102 319.47 189.69 319.57 189.252 319.676C188.379 319.888 187.403 320.125 186.816 319.242C185.911 317.881 186.844 315.224 187.775 312.568C188.486 310.542 189.196 308.517 189.091 307.069C188.987 305.639 188.695 302.872 188.386 299.951L188.386 299.95C187.972 296.035 187.529 291.843 187.472 290.22C186.604 265.738 184.71 241.067 180.881 216.87C174.588 221.141 167.713 224.556 160.506 226.992C157.972 227.848 157.376 231.094 157.2 233.761C155.913 253.28 154.714 273.466 161.421 291.844C170.125 269.134 176.674 245.599 180.952 221.659C178.856 241.099 174.17 260.258 167.057 278.473C164.662 284.607 161.346 293.122 164.913 297.816C167.154 300.766 167.179 303.505 167.204 306.32C167.219 307.986 167.234 309.677 167.709 311.454C168.097 312.909 168.707 314.284 169.326 315.679C170.332 317.948 171.362 320.272 171.507 323.085C171.623 325.329 168.313 324.85 167.989 324.62C167.851 324.522 167.674 324.232 167.493 323.937C167.247 323.534 166.996 323.124 166.837 323.189C166.691 323.249 166.734 323.435 166.792 323.687C166.898 324.144 167.053 324.817 166.214 325.34C165.408 325.842 164.902 325.69 164.486 325.566C164.232 325.49 164.011 325.424 163.776 325.525C163.54 325.627 163.347 325.813 163.159 325.994C162.867 326.276 162.586 326.548 162.169 326.477C161.185 326.31 160.86 325.985 160.702 325.827C160.637 325.763 160.601 325.726 160.558 325.74C160.507 325.757 160.499 325.868 160.488 326.013C160.467 326.294 160.437 326.705 160.062 326.813C159.494 326.977 157.939 326.318 157.604 325.993C157.362 325.757 157.261 326.048 157.14 326.392C157.018 326.744 156.875 327.151 156.544 327.109C153.87 326.768 152.954 324.312 153.201 322.854C151.796 326.222 149.852 328.431 146.435 329.653C145.96 329.822 145.621 329.561 145.339 329.344C145.161 329.207 145.006 329.087 144.854 329.104C144.775 329.113 144.778 329.21 144.782 329.34C144.788 329.566 144.798 329.89 144.388 330.023C143.743 330.233 143.432 330.153 142.615 329.911C142.071 329.75 141.982 328.783 141.925 328.156C141.896 327.841 141.875 327.612 141.808 327.612C141.717 327.612 141.67 327.829 141.612 328.095C141.542 328.417 141.456 328.808 141.261 328.972C140.575 329.547 140.182 329.598 139.588 328.819C139.402 328.577 139.441 328.245 139.471 327.99C139.494 327.788 139.512 327.634 139.408 327.612C139.345 327.599 139.262 327.721 139.151 327.884C138.976 328.142 138.731 328.5 138.394 328.58L138.362 328.588C137.424 328.81 137.109 328.885 136.382 327.902C136.223 327.686 136.293 327.279 136.356 326.911C136.42 326.538 136.477 326.205 136.282 326.15C136.077 326.092 135.845 326.632 135.598 327.208C135.379 327.717 135.149 328.255 134.914 328.431C134.453 328.776 134.134 328.53 133.733 328.222L133.678 328.179L133.626 328.14C131.408 323.916 134.001 319.13 136.36 314.777C136.664 314.218 136.963 313.666 137.247 313.123C144.315 299.642 142.54 283.276 138.721 268.544C137.735 264.736 136.621 260.943 135.508 257.15L135.508 257.15C132.313 246.267 129.116 235.377 128.894 224.094C128.853 222.009 128.915 219.92 128.976 217.831C129.089 213.982 129.202 210.136 128.674 206.33C128.043 201.788 126.521 197.45 124.997 193.11C124.376 191.339 123.754 189.568 123.193 187.783C119.515 176.082 118.434 163.73 117.953 151.475C117.574 141.824 117.571 132.017 120.104 122.697C122.637 113.376 127.997 104.479 136.282 99.5048C137.789 98.6003 139.401 97.8113 141.011 97.023L141.011 97.0229L141.012 97.0229C144.925 95.1076 148.829 93.1965 151.193 89.6428C154.315 84.9501 153.77 78.8151 153.105 73.2196C150.896 72.8185 149.257 70.4346 149.675 68.2303C150.092 66.026 152.49 64.4058 154.693 64.8393L151.829 59.2433C151.887 59.3279 151.967 59.4527 152.063 59.6034L152.063 59.6036C152.974 61.035 155.372 64.8023 155.204 58.6511C155.31 59.4197 155.454 59.9447 155.62 60.5526C155.82 61.2805 156.051 62.1275 156.29 63.6543ZM236.768 189.835C237.366 189.117 237.598 188.17 237.791 187.255C240.845 172.814 238.673 158.293 231.763 145.248C216.436 146.56 200.977 146.344 185.692 144.606C183.43 144.349 181.985 146.908 181.266 149.067C177.272 161.061 175.85 173.904 177.124 186.48C177.343 188.649 179.948 189.592 182.103 189.936C187.04 190.726 189.768 190.22 193.812 189.469C196.918 188.892 200.801 188.172 207.057 187.783C207.796 187.737 207.762 185.21 207.72 181.988C207.675 178.551 207.619 174.324 208.479 171.477C211.131 216.918 212.985 262.405 214.04 307.911C214.073 309.328 214.134 310.838 214.951 311.996C216.109 313.639 218.355 314.017 220.36 314.156C226.574 314.587 238.419 314.84 238.904 312.565C238.599 310.533 236.287 309.377 234.12 308.294L234.119 308.293C233.686 308.077 233.258 307.863 232.854 307.646C229.379 305.779 227.534 301.742 227.186 297.816C226.874 294.309 227.558 290.81 228.235 287.344C228.316 286.93 228.396 286.517 228.475 286.105C230.529 275.366 231.405 264.403 231.084 253.475C231.056 252.528 231.019 251.581 230.982 250.634V250.634V250.634V250.634V250.634V250.634V250.634V250.633V250.633V250.633V250.633V250.633V250.633V250.633V250.632V250.632C230.853 247.311 230.724 243.989 230.98 240.678C231.3 236.556 232.211 232.512 233.122 228.473L233.122 228.472C233.31 227.64 233.497 226.808 233.679 225.975C236.155 214.671 237.681 203.159 238.236 191.601C229.192 195.533 218.274 194.844 209.797 189.807C217.153 192.705 225.286 192.642 233.099 191.426C234.446 191.217 235.895 190.883 236.768 189.835ZM242.835 119.502C241.878 111.117 239.891 102.849 236.931 94.9445C236.395 93.5112 235.562 92.4305 234.671 91.2732C234.421 90.9486 234.167 90.618 233.913 90.2719C231.794 87.3843 228.73 85.4989 225.65 83.6038C223.242 82.1223 220.824 80.6349 218.841 78.658C216.119 81.1789 212.347 82.5314 208.642 82.3151C204.937 82.0988 201.349 80.3168 198.939 77.4963C198.761 77.2879 198.446 77.2838 198.172 77.2986C193.615 77.5448 189.035 78.3745 184.905 80.3148C180.775 82.2552 177.109 85.3755 175.043 89.4413C174.198 91.1029 173.631 92.8894 173.101 94.676C170.419 103.713 168.573 112.998 167.594 122.373C167.535 122.934 167.499 123.563 167.86 123.996C168.104 124.289 168.482 124.428 168.845 124.544C172.028 125.565 175.482 125.73 178.748 125.018L169.65 123.738C169.109 123.662 168.407 123.086 168.844 122.759C168.987 122.652 169.183 122.669 169.36 122.691L180.08 124.033C180.556 124.092 180.838 123.514 180.916 123.04C181.144 121.669 180.968 120.226 180.794 118.8C180.533 116.662 180.276 114.563 181.393 112.803C182.375 122.343 182.195 132.002 180.86 141.5C180.704 142.609 182.154 143.155 183.267 143.287C198.498 145.093 213.894 145.503 229.199 144.512C231.591 144.357 233.4 142.068 233.828 139.712C234.255 137.355 233.627 134.95 233.005 132.637L228.315 115.226C228.031 114.172 227.817 112.863 228.641 112.146L231.485 123.125C231.602 123.578 231.764 124.086 232.188 124.284C232.498 124.43 232.861 124.363 233.197 124.293L240.663 122.742C241.291 122.611 241.963 122.457 242.397 121.984C242.985 121.345 242.933 120.364 242.835 119.502ZM167.249 115.122C167.249 114.045 167.597 112.386 167.984 110.545C169.158 104.957 170.685 97.6891 163.89 99.9173L163.771 99.9563C161.072 100.842 157.882 101.888 154.99 100.969C152.056 100.037 149.565 97.7946 148.333 94.9749C149.115 94.3965 150.083 95.3577 150.676 96.1284C153.553 99.8647 159.145 101.204 163.405 99.1776C165.491 98.1851 165.504 95.27 165.202 92.9812C160.617 94.5282 155.039 91.304 154.096 86.5619C153.19 89.7153 151.086 92.5092 148.305 94.2523C147.259 94.9079 146.131 95.415 145.003 95.922L145.002 95.9222C144.648 96.0814 144.294 96.2406 143.943 96.4044C130.065 102.87 120.245 117.272 119.3 132.542C119.259 133.218 119.396 134.112 120.065 134.222L130.363 135.915C130.486 135.935 130.599 135.958 130.707 135.979C131.265 136.091 131.689 136.176 132.604 135.756C133.698 135.253 133.904 129.929 133.801 128.278C133.698 126.628 133.588 124.522 135.083 123.812C135.22 129.154 134.344 134.435 133.467 139.721C132.755 144.013 132.043 148.309 131.871 152.644C131.816 154.039 131.859 155.438 131.902 156.837C131.949 158.376 131.996 159.914 131.912 161.443C130.806 181.589 130.605 227.32 130.605 227.32C130.605 227.32 150.054 225.802 157.2 224.094C167.736 221.576 174.627 218.502 178.104 216.951C179.698 216.24 180.574 215.849 180.757 215.977C180.115 212.239 178.427 204.932 176.469 196.461C172.627 179.84 167.749 158.736 167.709 151.294C167.706 150.778 167.467 150.084 167.27 149.512C166.976 148.66 166.776 148.079 167.592 148.763L167.434 142.113C167.397 140.579 167.29 137.218 167.176 136.458C165.961 128.285 166.519 123.118 166.937 119.249C167.104 117.702 167.249 116.363 167.249 115.122ZM193.087 317.298C193.259 319.373 194.679 319.664 195.886 318.663C196.285 318.333 196.431 317.155 196.579 315.963C196.606 315.745 196.633 315.528 196.661 315.314C196.884 315.833 196.916 316.611 196.947 317.332C196.987 318.303 197.024 319.173 197.514 319.173C199.464 319.173 199.153 315.778 199.006 314.173C198.996 314.067 198.987 313.968 198.979 313.879C199.379 313.298 200.027 314.856 199.862 315.757C199.697 316.659 199.676 317.816 200.326 318.462C201.361 319.491 202.961 317.829 203.154 316.383C203.489 313.858 202.637 311.436 201.778 308.994C201.171 307.272 200.562 305.54 200.363 303.754C200.103 301.423 200.553 299.083 200.997 296.777L201.064 296.43C205.09 275.417 205.749 253.926 206.397 232.542L207.687 189.951C198.247 192.223 188.336 192.525 178.775 190.832C178.242 190.737 178.062 191.52 178.122 192.058C179.235 202.017 180.79 211.94 182.345 221.859C185.296 240.693 188.246 259.513 188.165 278.539C188.159 279.842 188.14 281.147 188.12 282.453L188.12 282.454C188.033 288.261 187.946 294.083 189.091 299.761C189.197 300.286 189.313 300.813 189.429 301.341C190.009 303.97 190.597 306.637 189.95 309.217C189.689 310.261 189.229 311.284 188.773 312.301C187.9 314.247 187.038 316.167 187.601 318.149C187.762 318.717 188.205 319.343 188.787 319.242C189.503 319.119 189.506 318.242 189.509 317.383C189.512 316.518 189.515 315.669 190.246 315.622C190.119 316.91 190.856 319.055 191.697 318.798C192.233 318.798 192.33 317.833 192.434 316.798C192.506 316.078 192.582 315.325 192.811 314.84C193.231 315.518 193.162 316.202 193.109 316.731C193.087 316.95 193.067 317.143 193.087 317.298ZM175.387 176.629C175.336 170.44 176.544 164.318 177.746 158.247C178.723 153.312 179.762 148.226 182.601 144.072C181.754 144.471 180.709 143.858 180.303 143.015C179.897 142.172 179.955 141.19 180.023 140.257L180.951 127.38C181.001 126.683 180.687 125.671 180.022 125.883C176.588 126.976 172.786 126.875 169.415 125.603C168.91 125.412 168.601 126.157 168.577 126.695C167.479 151.604 175.465 186.017 175.387 176.629ZM162.549 321.808C163.045 321.739 163.42 322.867 163.732 323.806C163.884 324.264 164.021 324.677 164.15 324.884C164.565 325.55 165.696 325.296 166.094 324.62C166.305 324.261 166.271 323.429 166.242 322.725C166.216 322.1 166.194 321.577 166.352 321.577C167.238 321.577 167.523 322.285 167.794 322.96C168.063 323.628 168.318 324.264 169.13 324.147C169.793 324.052 170.221 323.386 170.408 322.744C171.085 320.417 169.818 318.277 168.524 316.092C167.825 314.912 167.119 313.718 166.707 312.474C166.156 310.81 166.147 309.035 166.138 307.262C166.128 305.394 166.119 303.529 165.476 301.797C165.064 300.687 164.41 299.691 163.759 298.698C163.626 298.495 163.493 298.292 163.362 298.088C156.654 287.649 155.445 274.678 155.204 262.275C154.987 251.047 155.41 239.807 156.472 228.628L152.269 229.229L131.083 232.259C134.315 251.396 139.665 270.102 145.005 288.762C145.688 291.147 146.372 293.537 147.323 295.828C148.339 298.277 149.657 300.601 151.238 302.731C153.608 305.925 153.429 310.232 153.263 314.234L153.263 314.237L153.251 314.532L153.242 314.744C153.231 315.008 153.219 315.275 153.207 315.546C153.03 319.523 152.826 324.108 156.29 325.867C157.143 326.3 157.026 325.505 156.881 324.521C156.768 323.759 156.639 322.883 156.93 322.375C157.025 323.292 157.13 324.242 157.604 325.032C158.079 325.823 159.034 326.406 159.92 326.15C160.17 326.013 160.066 325.405 159.942 324.675C159.809 323.891 159.652 322.967 159.881 322.335C160.158 322.787 160.279 323.259 160.405 323.751C160.54 324.277 160.681 324.825 161.023 325.396C161.616 326.386 163.111 325.828 163.21 324.912C163.266 324.397 163.05 323.919 162.838 323.451C162.591 322.905 162.35 322.373 162.549 321.808ZM128.472 200.529C129.708 185.424 130.945 170.293 130.775 155.138C130.772 154.862 130.768 154.585 130.765 154.309C130.735 152.008 130.705 149.703 130.943 147.416C131.19 145.032 131.728 142.679 132.542 140.424L119.949 138.891C119.775 138.87 119.573 138.858 119.451 138.984C119.36 139.079 119.346 139.223 119.337 139.355C117.975 160.085 121.113 181.099 128.472 200.529ZM232.622 126.479L234.157 132.679C234.679 134.785 235.204 136.93 235.081 139.097C234.957 141.263 234.085 143.493 232.313 144.748C237.733 152.394 239.586 162.034 239.884 171.399C240.042 176.38 239.801 181.359 239.561 186.338C239.348 190.722 239.136 195.107 239.197 199.493C242.852 189.784 242.998 179.161 243.1 168.788L243.373 140.795C243.429 135.055 243.484 129.292 242.731 123.601L233.913 125.343C233.28 125.468 232.467 125.853 232.622 126.479ZM200.75 30.6768C196.744 32.6966 194.666 37.4519 194.759 41.9345C194.798 43.805 195.326 45.9134 196.972 46.8062C198.03 47.3805 199.418 47.283 200.386 46.5664C201.354 45.8498 201.851 44.5514 201.609 43.3725C201.494 42.8128 202.254 42.387 202.778 42.6166C203.301 42.8462 203.554 43.4506 203.628 44.0171C203.657 44.2353 203.667 44.4562 203.677 44.6769V44.677V44.6772C203.693 45.0292 203.709 45.3806 203.801 45.7196C204.054 46.6551 204.925 47.39 205.891 47.4828C206.856 47.5755 207.852 47.0199 208.279 46.1498C208.389 45.9249 208.466 45.6813 208.542 45.4386C208.672 45.0252 208.8 44.6147 209.094 44.3054C209.561 43.8145 210.69 44.0499 210.54 44.7104C210.235 46.0617 211.661 47.394 213.039 47.2426C214.417 47.0911 215.478 45.7759 215.632 44.3993L215.644 44.2946C215.727 43.5415 215.833 42.5717 216.566 42.5065C217.177 43.1147 217.317 44.0254 217.455 44.9235C217.609 45.9266 217.76 46.9138 218.563 47.4457C219.702 48.2004 221.272 47.348 222.047 46.223C223.152 44.6167 223.371 42.5177 222.976 40.6087C222.58 38.6997 221.624 36.9518 220.534 35.3344C219.714 34.1166 218.803 32.9447 217.682 31.9962C214.193 29.0443 209.153 28.6607 204.654 29.4762C203.31 29.7199 201.97 30.0617 200.75 30.6768ZM144.052 289.333C143.572 291.903 143.375 294.493 143.178 297.082C142.98 299.672 142.783 302.262 142.303 304.832C142.167 305.559 141.127 307.542 139.806 310.062L139.805 310.063L139.805 310.064L139.805 310.064L139.804 310.065L139.804 310.066L139.804 310.066L139.803 310.066L139.803 310.067L139.803 310.068L139.802 310.068L139.802 310.069L139.802 310.07L139.801 310.07L139.801 310.071L139.801 310.071C137.146 315.133 133.358 322.356 133.463 325.936C133.482 326.582 133.775 327.856 134.322 327.777C135.352 327.628 135.543 326.492 135.721 325.434C135.743 325.305 135.764 325.177 135.787 325.052C135.997 323.905 136.171 323.556 137.325 323.725C137.679 323.836 137.679 324.283 137.28 325.052C136.881 325.822 136.587 326.791 137.055 327.521C137.523 328.251 138.999 328.056 138.927 327.193C138.869 326.503 139.361 325.807 140.031 325.631C140.256 326.024 140.159 326.556 140.069 327.055C139.957 327.672 139.854 328.24 140.381 328.431C141.103 328.693 141.492 327.622 141.627 326.866C141.761 326.11 142.785 325.297 143.111 325.993C142.247 327.042 141.354 329.522 143.743 329.522C144.407 329.522 144.397 328.439 144.388 327.356C144.383 326.815 144.378 326.273 144.457 325.867C145.096 325.827 145.355 326.7 145.241 327.328C145.214 327.478 145.18 327.609 145.148 327.728C145.048 328.109 144.979 328.371 145.284 328.751C145.851 329.459 146.995 328.93 147.647 328.299C150.166 325.86 151.513 322.84 152.028 319.373C152.544 315.906 152.298 312.376 152.051 308.88C151.922 307.062 151.751 305.128 150.637 303.685C147.391 299.483 145.12 294.533 144.052 289.333ZM208.604 47.7865C207.354 49.0801 205.009 49.0664 203.774 47.7583C203.66 47.6369 203.554 47.5064 203.447 47.3761L203.447 47.3759C203.23 47.1088 203.013 46.8422 202.726 46.6567C202.298 46.3807 201.623 46.3792 201.376 46.8239C200.343 48.6835 197.538 49.2429 195.87 47.9218L199.329 61.0948C199.973 63.547 200.685 66.1207 202.473 67.9197C203.601 69.0553 205.076 69.7867 206.584 70.3258C207.395 70.6157 208.241 70.8583 209.102 70.834C210.066 70.8068 210.991 70.446 211.843 69.9961C215.418 68.1093 217.961 64.629 219.396 60.8522C220.83 57.0753 221.255 52.9942 221.426 48.9582C219.486 49.6192 217.135 48.7198 216.133 46.9329C214.795 48.225 212.683 48.6452 210.952 47.9638C210.887 47.9381 210.82 47.9113 210.752 47.884C210.01 47.5851 209.138 47.2341 208.604 47.7865ZM185.152 63.2783C183.966 59.4574 181.015 56.0902 177.176 54.9548C175.79 54.5449 174.331 54.4263 172.886 54.4584C165.983 54.6114 158.914 58.8374 156.949 65.4502C156.792 65.9773 156.676 66.577 156.953 67.0522C157.219 67.5097 157.768 67.7095 158.28 67.8479C162.753 69.0579 167.768 68.0652 171.442 65.2425L171.538 65.1689C171.942 64.8565 172.36 64.5328 172.862 64.4561C173.403 64.3733 174.053 64.7291 174.05 65.2761C174.026 69.9678 176.379 74.9904 180.757 76.6852C181.67 77.0383 182.782 77.2112 183.565 76.6249C184.066 76.2499 184.324 75.6402 184.538 75.0525C185.907 71.2931 186.337 67.0991 185.152 63.2783ZM166.57 44.6172C167.406 46.5069 168.946 47.9919 170.556 49.2889C173.357 51.5457 176.661 53.4455 180.257 53.5745C183.853 53.7035 187.709 51.6026 188.635 48.1283C189.117 46.3197 188.778 44.3893 188.201 42.6085C187.6 40.7493 186.654 38.8727 184.98 37.861C180.466 35.1313 174.617 34.7394 169.778 36.8423C168.746 37.2908 167.735 37.8659 167.029 38.7422C165.734 40.3525 165.734 42.7275 166.57 44.6172ZM233.183 30.7063C235.189 27.011 234.805 22.1516 232.242 18.8175C231.871 18.3357 231.448 17.875 230.908 17.596C230.38 17.323 229.773 17.2417 229.179 17.2197C226.175 17.1084 223.152 18.4922 221.275 20.8379C219.398 23.1835 218.712 26.4342 219.481 29.3374C219.909 29.1351 220.072 28.621 220.192 28.1632C220.313 27.7053 220.481 27.1914 220.913 26.9962C221.344 26.801 221.973 27.3149 221.685 27.6904C220.721 28.945 220.26 30.5742 220.424 32.1471C220.583 32.4913 221.079 32.1052 221.217 31.7514L221.833 30.1645C221.977 29.7913 222.14 29.395 222.472 29.1712C222.804 28.9475 223.356 29.0117 223.491 29.3888L221.964 32.5433C221.767 32.9504 221.658 33.5878 222.09 33.7239L226.348 30.4718C226.892 31.0885 226.392 32.0824 225.73 32.5703C225.527 32.7199 225.306 32.8527 225.086 32.9853C224.589 33.285 224.094 33.5837 223.802 34.0736C225.247 34.2453 226.712 34.2522 228.159 34.0941C228.931 34.0096 229.709 33.8751 230.414 33.5493C231.637 32.9848 232.541 31.889 233.183 30.7063ZM201.052 77.6063C202.605 79.2103 204.871 79.8787 207.057 80.3377C210.299 81.0184 214.02 81.2688 216.587 79.1765C217.113 78.7475 217.603 78.053 217.317 77.4372C216.111 74.8351 215.664 71.8872 216.044 69.0449C215.51 68.9549 215.082 69.4503 214.735 69.8647C213.42 71.4337 211.503 72.5598 209.457 72.6508C206.615 72.7772 204.085 70.9918 201.807 69.2887C201.634 71.2111 201.102 73.1006 200.247 74.8314C199.792 75.753 200.336 76.8677 201.052 77.6063ZM130.918 230.233C131.655 230.698 132.595 230.634 133.463 230.553C146.398 229.348 159.731 227.801 171.025 221.386C161.575 224.874 151.501 226.265 141.521 227.634C137.899 228.13 134.214 228.627 130.605 228.045C129.892 228.547 130.181 229.768 130.918 230.233ZM166.056 93.3287L166.352 96.955C166.377 97.2618 166.406 97.5797 166.557 97.8475C166.742 98.173 167.08 98.376 167.403 98.5645L169.944 100.045C170.066 100.117 170.208 100.19 170.342 100.147C170.504 100.096 170.57 99.907 170.613 99.743L172.923 90.9516C170.574 91.5548 168.275 92.3507 166.056 93.3287ZM131.51 138.919C131.725 138.928 131.949 138.935 132.148 138.854C132.689 138.634 132.786 137.924 132.8 137.341C128.31 136.945 123.853 136.183 119.487 135.066C118.841 135.538 118.964 136.611 119.53 137.176C120.096 137.742 120.929 137.927 121.718 138.063C124.949 138.621 128.234 138.782 131.51 138.919ZM152.769 71.2818C153.45 71.5186 154.086 70.7686 154.235 70.0639C154.284 69.8313 154.308 69.5905 154.332 69.3503L154.332 69.3502L154.332 69.3501L154.332 69.3501L154.332 69.35L154.332 69.3499L154.332 69.3499L154.332 69.3498L154.332 69.3497L154.332 69.3497L154.332 69.3496L154.332 69.3495L154.332 69.3494L154.332 69.3494L154.332 69.3493L154.332 69.3492C154.38 68.8622 154.429 68.3775 154.684 67.9683C155.061 67.3629 154.54 66.5064 153.848 66.3331C153.156 66.1599 152.432 66.4835 151.863 66.9138C150.929 67.6199 150.214 68.9028 150.752 69.942C151.132 70.6772 151.987 71.0096 152.769 71.2818ZM224.985 52.2248C224.924 51.9847 224.837 51.7438 224.672 51.5586C224.186 51.0115 223.221 51.211 222.745 51.7669C222.269 52.3228 222.151 53.092 222.06 53.8181C221.946 54.7244 221.844 55.6322 221.753 56.5412C221.73 56.7789 221.821 57.1253 222.053 57.0699C224.098 56.582 225.503 54.2606 224.985 52.2248ZM196.296 57.6726C196.448 57.5863 196.593 57.4739 196.671 57.3174C196.79 57.0762 196.726 56.7886 196.66 56.5277L196.266 54.9807C196.111 54.3716 195.873 53.6698 195.275 53.4753C194.607 53.2581 193.93 53.8392 193.623 54.4702C193.168 55.4033 193.21 56.6395 193.951 57.3665C194.555 57.9583 195.56 58.0896 196.296 57.6726ZM225.903 35.7635C225.393 35.5071 224.791 35.436 224.235 35.5662C224.701 36.0876 225.489 36.2942 226.151 36.0685C226.341 35.9668 226.148 35.6051 225.958 35.7058L225.903 35.7635ZM231.932 122.582L240.651 120.465C240.802 120.429 240.974 120.394 241.106 120.469C241.45 120.663 241.036 121.109 240.661 121.249C238.286 122.141 235.761 122.716 233.196 122.947C232.725 122.989 232.135 122.964 231.932 122.582ZM159.207 74.5334C159.474 74.3871 159.574 74.1092 159.674 73.8297C159.716 73.7112 159.759 73.5924 159.814 73.4833C160 73.1168 160.668 72.8839 160.826 73.2612C161.39 74.6081 162.928 75.5644 164.511 75.5519C165.078 75.5473 165.309 76.3169 164.966 76.7288C164.623 77.1406 164.002 77.2517 163.437 77.2969C162.963 76.6275 162.145 76.2773 161.329 75.9276C160.501 75.5731 159.675 75.219 159.207 74.5334ZM173.719 83.2104C173.44 83.1678 173.251 82.9163 173.067 82.6707C172.863 82.3979 172.664 82.1324 172.353 82.1691C171.264 82.2976 170.597 81.0257 170.253 79.9764C170.115 79.557 170.249 78.8488 170.656 79.0122C171.698 80.1577 173.14 80.9258 174.666 81.1479C175.257 81.2339 176.018 81.3756 176.12 81.9691L174.368 83.0046C174.168 83.1228 173.948 83.2453 173.719 83.2104ZM168.625 85.8842C165.224 87.069 160.97 85.5422 159.361 82.5593C159.183 82.2281 158.564 82.3677 158.417 82.7117C158.27 83.0557 158.44 83.4409 158.634 83.7646C159.629 85.4199 161.375 86.6842 163.366 87.1904C165.357 87.6967 167.567 87.4384 169.355 86.4904C169.245 86.1668 168.971 85.7634 168.625 85.8842ZM165.305 78.3653C165.598 77.9759 165.922 77.5809 166.37 77.3912C166.818 77.2014 167.421 77.2926 167.664 77.7153C166.77 78.5196 165.962 79.4201 165.259 80.3964C164.992 80.767 164.728 81.1982 164.8 81.6496C164.873 82.1011 165.479 82.4476 165.802 82.1249C166.043 81.8837 166.514 82.1354 166.534 82.4767C166.554 82.818 166.246 83.1089 165.914 83.1862C165.583 83.2635 165.236 83.1789 164.909 83.0851C164.332 82.9199 163.691 82.6569 163.494 82.0883C163.313 81.5669 163.583 81.0052 163.863 80.5296C164.302 79.7815 164.784 79.0586 165.305 78.3653ZM204.365 51.1131C205.053 51.1674 205.945 51.6268 205.665 52.2089C205.179 52.5871 204.51 52.4598 203.855 52.3352C203.66 52.2981 203.466 52.2613 203.279 52.238C202.482 52.139 201.683 52.3161 200.888 52.4925C200.01 52.6873 199.135 52.8813 198.268 52.7028C198.034 52.5541 198.072 52.1994 198.27 52.0108C198.469 51.8223 198.763 51.7564 199.041 51.6989C200.792 51.3366 202.577 50.9719 204.365 51.1131ZM214.796 51.5948C215.985 51.741 217.199 51.7119 218.377 51.5088C218.558 50.9568 217.714 50.6319 217.083 50.571L214.123 50.2848C213.483 50.223 212.794 50.17 212.237 50.4615C211.68 50.7529 211.404 51.5376 211.882 51.9277C212.554 51.3115 213.639 51.4487 214.604 51.5707C214.669 51.5788 214.733 51.587 214.796 51.5948ZM216.133 55.9273C216.092 56.0507 215.929 56.0938 215.791 56.1121C214.519 56.2795 213.179 55.9616 212.153 55.2487C211.908 55.0788 211.665 54.8591 211.638 54.5777C211.612 54.2962 211.942 53.9971 212.212 54.1293C213.63 54.8211 215.491 54.6443 216.726 53.7005C217.019 53.4765 217.513 53.7485 217.553 54.0976C217.593 54.4467 217.315 54.7669 216.99 54.9493C216.795 55.0584 216.582 55.1329 216.369 55.2076C216.225 55.2577 216.082 55.3078 215.944 55.3685C215.885 55.5674 215.962 55.7949 216.133 55.9273ZM212.197 61.8426C213.181 61.134 214.08 59.9404 213.655 58.8125C211.891 61.1794 208.823 62.5291 205.866 62.2396C205.36 62.1901 204.922 62.677 204.877 63.1778C204.832 63.6785 205.083 64.1609 205.393 64.5592C206.827 66.4007 209.628 66.8998 211.776 65.9583C213.924 65.0169 215.381 62.8575 215.801 60.5709C215.887 60.1032 215.925 59.5839 215.658 59.1883C215.392 58.7928 214.71 58.6671 214.448 59.0659C214.905 59.7167 214.891 60.5904 214.686 61.3563C214.259 62.9464 213.052 64.3122 211.516 64.9431C209.981 65.5739 208.151 65.4554 206.711 64.632C206.48 64.4999 206.244 64.3319 206.164 64.0802C206.084 63.8285 206.256 63.4929 206.522 63.5069C208.531 63.6125 210.571 63.0144 212.197 61.8426ZM205.59 54.6529C204.563 56.8882 201.648 57.4339 199.399 56.6866C198.753 56.4721 198.848 55.3601 199.424 54.9866C200.001 54.6132 200.74 54.7508 201.401 54.905C202.061 55.0591 202.796 55.207 203.381 54.8485C203.61 54.7079 203.792 54.5023 203.974 54.2963C204.13 54.12 204.286 53.9434 204.472 53.8069C204.877 53.5109 205.59 53.5449 205.703 54.0498C205.749 54.2533 205.677 54.4646 205.59 54.6529ZM207.073 53.9902L206.595 58.0747C206.559 58.3851 206.526 58.714 206.66 58.9975C206.864 59.4281 207.425 59.62 207.895 59.5062C208.366 59.3925 208.741 59.0325 208.984 58.6217C209.231 58.203 209.073 57.4128 208.608 57.5753C208.484 57.6188 208.395 57.7275 208.307 57.834C208.202 57.9622 208.1 58.0874 207.941 58.0926C207.573 58.1048 207.578 57.553 207.701 57.2124C208.211 55.7957 208.29 54.2328 207.924 52.7737C207.37 52.7545 207.136 53.45 207.073 53.9902ZM172.577 75.8153C174.16 76.3937 175.587 77.3885 176.674 78.671C176.801 78.821 176.927 78.9843 176.959 79.1779C177.006 79.464 176.8 79.7683 176.516 79.8339C174.884 77.9931 172.625 76.7113 170.2 76.25C170.573 75.4484 171.743 75.5106 172.577 75.8153ZM162.661 263.451C162.226 263.414 161.782 263.377 161.414 263.223C161.215 263.14 161.04 263.022 160.865 262.903C160.698 262.79 160.531 262.677 160.342 262.595C159.956 262.426 159.384 262.45 159.207 262.792C160.482 263.945 162.494 264.445 164.281 264.051C163.987 263.562 163.337 263.508 162.661 263.451ZM226.339 240.375L229.548 239.682C229.826 239.622 230.225 239.671 230.241 240.02C228.785 241.27 226.875 241.672 225.167 241.089C225.398 240.61 225.896 240.47 226.339 240.375ZM181.339 162.604L181.339 162.604C180.696 162.761 180.049 162.919 179.503 163.264C180.726 163.842 182.213 163.46 183.459 162.925C186.261 161.723 188.69 159.777 190.386 157.376C191.043 156.446 191.607 155.3 191.209 154.25C190.572 154.368 190.274 155.034 190.032 155.595C188.604 158.905 185.463 161.53 181.776 162.495C181.698 162.515 181.619 162.535 181.54 162.555C181.473 162.571 181.406 162.588 181.339 162.604ZM236.161 164.074C235.826 164.561 235.063 164.417 234.516 164.176C230.279 162.31 227.451 157.741 227.722 153.198C227.734 152.998 227.761 152.778 227.911 152.64C228.06 152.503 228.37 152.542 228.401 152.74C228.679 154.533 228.962 156.343 229.639 158.031C230.316 159.718 231.43 161.297 233.031 162.207C233.363 162.396 233.716 162.557 234.069 162.718L234.069 162.718C234.849 163.075 235.626 163.43 236.161 164.074ZM193.582 242.665L193.581 242.665C192.559 242.39 191.53 242.114 190.496 242.221C192.53 243.909 195.614 244.369 198.098 243.354C198.189 242.955 197.509 242.921 197.091 243.02C195.929 243.295 194.759 242.981 193.582 242.665ZM203.065 153.392C203.477 153.479 203.805 153.061 204.018 152.698C204.91 151.176 205.493 150.622 206.659 149.513L206.659 149.513L206.736 149.439C206.798 150.284 206.864 150.777 206.93 151.271C206.996 151.764 207.063 152.258 207.124 153.103C207.144 153.376 207.171 153.668 207.339 153.885C207.81 154.49 208.806 153.97 209.206 153.316C210.135 151.799 209.859 149.652 208.577 148.419C208.248 148.102 208.734 147.508 209.182 147.596C209.63 147.684 209.905 148.13 210.096 148.544C210.652 149.748 210.974 151.113 210.68 152.406C210.386 153.699 209.366 154.879 208.053 155.072C207.59 155.141 207.074 155.07 206.736 154.746C206.366 154.39 206.297 153.832 206.249 153.321L206.095 151.656C205.659 151.921 205.38 152.368 205.103 152.812C204.798 153.3 204.495 153.785 203.988 154.024C203.19 154.399 202.169 153.928 201.756 153.149C201.342 152.37 201.446 151.397 201.819 150.598C202.191 149.798 202.801 149.137 203.408 148.498C203.776 148.111 204.168 147.714 204.675 147.549C205.182 147.384 205.837 147.54 206.056 148.026C204.105 148.485 202.581 150.359 202.532 152.362C202.522 152.782 202.653 153.304 203.065 153.392ZM140.676 256.911C140.755 257.021 140.878 257.077 140.997 257.122C143.239 257.979 145.655 256.819 147.797 255.683C148.041 255.554 148.329 255.254 148.166 255.012C148.083 254.889 147.924 254.876 147.786 254.884C146.956 254.929 146.152 255.301 145.358 255.669C144.279 256.169 143.218 256.661 142.131 256.31C142.048 256.284 141.965 256.252 141.882 256.22C141.628 256.123 141.374 256.026 141.112 256.068C140.766 256.125 140.457 256.603 140.676 256.911Z" fill="#00160A"/>
<path fill-rule="evenodd" clip-rule="evenodd" d="M174.68 46.2939C174.91 47.7483 175.765 49.1181 177.033 50.0637C177.557 50.4542 177.849 51.0764 177.792 51.6807C177.928 51.9734 177.306 51.9955 177.023 51.8018C175.368 50.6678 174.164 49.027 173.666 47.2268C173.571 46.8831 173.512 46.4879 173.749 46.2029C173.986 45.918 174.624 45.9435 174.68 46.2939V46.2939Z" fill="#00160A"/>
<path fill-rule="evenodd" clip-rule="evenodd" d="M168.591 64.1481C169.624 63.5116 170.734 62.6941 171.892 62.9796C168.596 66.723 163.332 67.7054 158.63 66.8738C158.238 66.8045 157.804 66.6931 157.591 66.3287C157.378 65.9643 157.65 65.3287 158.03 65.4519C161.519 66.5821 165.423 66.1001 168.591 64.1481V64.1481Z" fill="#00160A"/>
<circle cx="157.349" cy="80.1227" r="1.93067" fill="#FFB61D"/>
<circle cx="171.829" cy="86.3973" r="1.93067" fill="#FFB61D"/>
<circle cx="201.996" cy="61.54" r="1.20667" fill="#FFB61D"/>
<circle cx="217.924" cy="60.5747" r="1.20667" fill="#FFB61D"/>
</svg>
