<svg width="13" height="12" viewBox="0 0 13 12" fill="none" xmlns="http://www.w3.org/2000/svg">
<path d="M6.5 0C3.17836 0 1.54146 0.149616 0.823339 0.247884C0.32576 0.31597 0 0.768503 0 1.26355L2.89281e-06 2.24807C3.92328e-09 2.6525 0.135587 3.05432 0.410924 3.36047C0.973319 3.98576 2.29811 5.35728 4.20339 6.69553C4.2445 6.72442 4.26952 6.77042 4.27362 6.81759C4.45779 8.93138 4.62667 10.3772 4.71669 11.0917C4.78302 11.6181 5.2052 12 5.69573 12C5.88198 12 6.06447 11.9444 6.22246 11.8394L7.67454 10.8746C7.9807 10.6711 8.22631 10.3481 8.30842 9.93652C8.40545 9.44993 8.55663 8.51242 8.71942 6.82205C8.72401 6.77436 8.74935 6.72869 8.78996 6.7002C10.6988 5.36048 12.026 3.98647 12.5891 3.36044C12.8644 3.05432 13 2.6525 13 2.24807V1.26354C13 0.7685 12.6742 0.31597 12.1767 0.247884C11.4585 0.149616 9.82164 0 6.5 0Z" fill="black"/>
</svg>
