<svg width="362" height="362" viewBox="0 0 362 362" fill="none" xmlns="http://www.w3.org/2000/svg">
<rect width="362" height="362" fill="#EEEEEE"/>
<path fill-rule="evenodd" clip-rule="evenodd" d="M172.122 270.44C127.471 260.668 67.9782 241.275 77.7545 174.734C87.5309 108.193 129.439 82.536 181.287 82.536C233.133 82.536 292.038 121.652 280.475 202.684C268.911 283.716 216.774 280.213 172.122 270.44ZM318.888 190.229C320.732 171.714 318.773 153.394 313.51 136.22L328.525 128.178C331.056 126.823 332.008 123.673 330.655 121.143L310.156 82.8729C308.799 80.3429 305.649 79.3908 303.118 80.7458L288.104 88.7887C276.721 74.895 262.556 63.1134 246.125 54.3885L251.05 38.0916C251.882 35.3443 250.329 32.4443 247.58 31.6137L206.024 19.0477C203.275 18.2172 200.377 19.7707 199.545 22.518L194.62 38.815C176.101 36.9717 162.61 43.7573 145.436 49.0166L137.393 34.0017C136.038 31.4717 132.889 30.5195 130.359 31.8746L92.0887 52.3746C89.5587 53.7297 88.6065 56.879 89.9616 59.4085L98.0044 74.4239C84.1107 85.8059 67.5025 95.1444 58.7777 111.579L42.4803 106.651C39.7335 105.821 36.833 107.374 36.0025 110.121L23.4369 151.678C22.6064 154.425 24.1599 157.325 26.9067 158.156L43.2041 163.084C41.3608 181.599 43.3198 199.919 48.5791 217.093L33.5642 225.136C31.0342 226.491 30.0821 229.64 31.4371 232.17L51.9371 270.44C53.2922 272.97 56.4414 273.923 58.971 272.567L73.9863 264.524C85.3684 278.418 99.5335 290.2 115.968 298.925L111.04 315.222C110.21 317.969 111.763 320.869 114.51 321.7L156.068 334.263C158.812 335.096 161.714 333.542 162.546 330.794L167.472 314.498C185.986 316.342 204.308 314.382 221.482 309.123L229.523 324.138C230.88 326.668 234.029 327.618 236.56 326.265L274.831 305.765C277.357 304.41 278.313 301.261 276.956 298.731L268.911 283.716C282.807 272.334 294.587 258.169 303.314 241.734L319.609 246.662C322.358 247.492 325.26 245.939 326.088 243.192L338.653 201.635C339.485 198.888 337.931 195.988 335.183 195.157L318.888 190.229Z" fill="black"/>
<path fill-rule="evenodd" clip-rule="evenodd" d="M238.482 96.7991L237.035 96.7502L236.994 98.036C236.925 100.35 236.957 102.824 236.992 105.523C237.016 107.403 237.041 109.392 237.035 111.511L236.795 115.694C236.801 119.592 236.829 125.017 236.877 131.969L237.034 151.76C235.971 152.113 235.171 153.032 235.011 154.149C234.133 154.282 233.46 155.028 233.46 155.924C233.46 156.559 233.798 157.117 234.306 157.437L233.687 158.933C233.412 159.598 232.958 160.166 232.375 160.577C229.817 162.376 228.312 165.29 228.347 168.371C228.348 168.453 228.35 168.535 228.353 168.617C228.364 168.912 228.618 169.14 228.92 169.132C229.221 169.121 229.457 168.872 229.446 168.577C229.443 168.505 229.441 168.432 229.44 168.359C229.408 165.626 231.227 163.042 233.495 161.446C234.247 160.918 234.83 160.188 235.183 159.335L235.368 157.721H236.145C236.145 157.721 236.415 159.174 236.415 160.31C236.415 161.446 236.145 163.695 236.145 163.695H235.249C234.223 163.695 233.389 164.513 233.389 165.518C233.389 166.523 234.223 167.34 235.249 167.34H235.378C236.403 167.34 236.755 166.815 236.755 165.518C236.755 164.839 236.83 164.353 237.939 164.353C239.047 164.353 238.762 165.518 238.762 165.518C238.762 166.523 239.596 167.34 240.622 167.34H240.75C241.776 167.34 242.611 166.523 242.611 165.518C242.611 164.513 240.881 163.663 239.855 163.663C239.855 163.663 239.582 161.619 239.582 160.577C239.582 159.699 239.855 157.903 239.855 157.903H238.762C238.762 157.903 238.99 159.579 238.99 160.602C238.99 161.624 238.762 163.663 238.762 163.663C238.762 163.663 238.159 163.772 237.872 163.778C237.585 163.784 237.238 163.695 237.238 163.695C237.238 163.695 236.998 161.605 236.998 160.602C236.998 159.599 237.238 157.721 237.238 157.721H238.762H239.855H240.632L241.299 159.335C241.635 160.146 242.639 160.857 243.404 161.4L243.501 161.469C245.719 163.043 246.56 165.583 246.56 168.262C246.56 170.525 245.654 172.646 244.008 174.235C242.363 175.823 240.185 177.162 237.872 177.129C236.038 177.103 234.163 176.092 232.697 174.997C231.278 173.937 229.44 171.036 229.134 170.367C228.828 169.697 228.684 170.754 228.773 171.036C229.362 172.903 230.567 174.589 232.165 175.784C233.819 177.019 235.786 177.687 237.856 177.717C240.464 177.754 242.92 176.788 244.776 174.997C246.631 173.206 247.653 170.814 247.653 168.262C247.653 165.241 246.161 162.377 243.66 160.602C243.051 160.169 242.585 159.592 242.313 158.933L241.694 157.437C242.202 157.117 242.54 156.559 242.54 155.924C242.54 155.028 241.866 154.282 240.989 154.149C240.808 152.889 239.815 151.882 238.546 151.654L238.476 151.654L237.638 133.25C237.588 126.244 238.243 112.242 238.243 112.242C238.255 106.858 238.321 102.137 238.442 98.0802L238.482 96.7991ZM240.622 166.269C240.199 166.269 239.855 165.932 239.855 165.518V164.353C239.855 164.353 241.518 164.686 241.518 165.518C241.518 166.281 241.228 166.277 240.853 166.271H240.853C240.82 166.27 240.785 166.269 240.75 166.269H240.622ZM234.064 165.518C234.135 166.565 236.306 167.021 236.145 165.518V164.353C236.145 164.353 233.993 164.471 234.064 165.518ZM236.126 154.127C236.326 153.296 237.091 152.675 238 152.675C238.909 152.675 239.673 153.296 239.874 154.127H236.126ZM240.706 155.198H240.472H235.528H235.294C234.885 155.198 234.553 155.524 234.553 155.924C234.553 156.324 234.885 156.65 235.294 156.65H240.706C241.115 156.65 241.447 156.324 241.447 155.924C241.447 155.524 241.115 155.198 240.706 155.198ZM250.072 159.859H251.027C251.296 159.859 251.515 159.643 251.515 159.377C251.515 159.11 251.296 158.894 251.027 158.894H250.072C249.802 158.894 249.584 159.11 249.584 159.377C249.584 159.643 249.802 159.859 250.072 159.859ZM249.313 163.276L250.232 163.663C250.491 163.772 250.617 164.081 250.513 164.353C250.409 164.625 250.114 164.757 249.855 164.648L248.936 164.261C248.677 164.152 248.551 163.843 248.655 163.571C248.734 163.364 248.924 163.238 249.124 163.238C249.187 163.238 249.251 163.25 249.313 163.276ZM248.492 155.405L249.353 154.714C249.596 154.519 249.657 154.133 249.489 153.852C249.385 153.678 249.218 153.585 249.049 153.585C248.944 153.585 248.838 153.62 248.745 153.695L247.884 154.386C247.641 154.581 247.58 154.967 247.748 155.248C247.916 155.53 248.249 155.6 248.492 155.405ZM225.446 159.859H224.49C224.221 159.859 224.003 159.643 224.003 159.377C224.003 159.11 224.221 158.894 224.49 158.894H225.446C225.715 158.894 225.933 159.11 225.933 159.377C225.933 159.643 225.715 159.859 225.446 159.859ZM226.205 163.276L225.285 163.663C225.026 163.772 224.9 164.081 225.004 164.353C225.108 164.625 225.403 164.757 225.662 164.648L226.581 164.261C226.84 164.152 226.966 163.843 226.862 163.571C226.783 163.364 226.593 163.238 226.393 163.238C226.33 163.238 226.266 163.25 226.205 163.276ZM227.025 155.405L226.164 154.714C225.921 154.519 225.86 154.133 226.028 153.852C226.132 153.678 226.299 153.585 226.468 153.585C226.573 153.585 226.679 153.62 226.772 153.695L227.633 154.386C227.876 154.58 227.937 154.967 227.769 155.248C227.601 155.529 227.268 155.6 227.025 155.405Z" fill="#FFB61D"/>
<path d="M167.178 231.575C172.502 232.976 175.234 236.311 177.541 239.417C179.853 242.522 174.771 241.045 171.966 239.923C169.162 238.803 162.41 234.657 162.41 234.657L140.023 227.886V217.532L146.718 217.141C146.718 217.141 161.85 230.173 167.178 231.575Z" fill="#EEEEEE"/>
<path d="M143.982 155.742C148.77 173.863 151.241 191.202 151.632 207.835C151.632 207.835 156.116 208.396 155.556 212.319C154.996 216.243 143.224 226.892 143.224 226.892L139.146 213.373L137.62 163.556L143.982 155.742Z" fill="#EEEEEE"/>
<path fill-rule="evenodd" clip-rule="evenodd" d="M145.616 165.016L142.866 163.193C142.691 163.076 142.459 163.167 142.396 163.376L141.437 166.561C141.357 166.826 141.596 167.074 141.843 166.984L145.551 165.623C145.804 165.53 145.843 165.167 145.616 165.016ZM145.283 165.543L141.904 166.52L142.91 163.624L145.283 165.543Z" fill="#FFB61D"/>
<path fill-rule="evenodd" clip-rule="evenodd" d="M144.409 187.943L141.66 186.119C141.484 186.003 141.252 186.093 141.189 186.303L140.23 189.487C140.151 189.752 140.389 190.001 140.636 189.91L144.344 188.55C144.597 188.457 144.636 188.094 144.409 187.943ZM144.076 188.469L140.697 189.447L141.703 186.551L144.076 188.469Z" fill="#FFB61D"/>
<path fill-rule="evenodd" clip-rule="evenodd" d="M142.963 200.823L143.168 197.531C143.181 197.32 142.987 197.165 142.774 197.215L139.537 197.977C139.267 198.04 139.171 198.371 139.373 198.54L142.406 201.071C142.612 201.244 142.946 201.095 142.963 200.823ZM142.341 200.798L139.805 198.361L142.816 197.784L142.341 200.798Z" fill="#FFB61D"/>
<path fill-rule="evenodd" clip-rule="evenodd" d="M148.174 198.394L144.881 198.189C144.671 198.176 144.516 198.371 144.566 198.584L145.328 201.821C145.391 202.09 145.722 202.186 145.891 201.984L148.422 198.952C148.594 198.745 148.446 198.411 148.174 198.394ZM148.149 199.016L145.712 201.552L145.135 198.541L148.149 199.016Z" fill="#FFB61D"/>
<path fill-rule="evenodd" clip-rule="evenodd" d="M145.632 215.18L142.678 216.649C142.49 216.743 142.452 216.989 142.602 217.149L144.88 219.571C145.07 219.773 145.405 219.69 145.45 219.431L146.125 215.539C146.172 215.274 145.876 215.059 145.632 215.18ZM145.922 215.732L145.079 219.146L143.073 216.827L145.922 215.732Z" fill="#FFB61D"/>
<path fill-rule="evenodd" clip-rule="evenodd" d="M147.08 206.009L144.126 207.479C143.937 207.572 143.9 207.818 144.05 207.978L146.328 210.4C146.518 210.602 146.853 210.52 146.898 210.26L147.573 206.369C147.62 206.103 147.324 205.888 147.08 206.009ZM147.37 206.561L146.527 209.976L144.521 207.657L147.37 206.561Z" fill="#FFB61D"/>
<path d="M127.93 166.639L124.681 176.445C117.257 198.903 113.601 210.302 113.491 211.371C113.423 212.035 113.825 212.531 114.446 212.7C114.819 212.801 115.275 212.796 115.842 212.712C116.724 212.581 117.902 212.25 119.326 211.759C120.426 211.379 121.615 210.922 122.819 210.429L123.326 210.22C123.49 210.152 123.651 210.084 123.806 210.019L124.61 209.672L124.84 209.57L124.974 209.358C125.211 208.98 125.549 208.312 125.882 207.396C126.175 206.591 126.409 205.73 126.562 204.819L126.616 204.475C126.664 204.141 127.123 203.367 128.069 202.046L128.729 201.143C129.27 200.414 130.311 199.02 130.416 198.879L131.028 198.05C131.613 197.253 132.124 196.54 132.623 195.822C135.126 192.219 136.894 189.065 137.937 186.03C138.822 183.455 139.133 181.07 138.782 178.877C138.246 175.529 138.451 172.331 139.235 169.329C139.886 166.835 137.827 164.534 134.859 163.688C131.792 162.813 128.87 163.804 127.93 166.639Z" fill="#EEEEEE"/>
<path d="M133.366 152.138C135.175 154.058 136.693 155.522 137.92 156.53C139.986 158.229 142.948 160.049 146.807 161.992C135.005 164.725 127.799 165.265 125.188 163.613C125.188 163.613 126.276 158.495 127.838 156.303C129.002 154.67 133.366 152.138 133.366 152.138Z" fill="#EEEEEE"/>
<path d="M152.138 127.468C149.686 136.781 142.987 146.503 135.853 144.626C128.719 142.748 124.771 130.019 127.223 120.707C129.675 111.394 137.446 105.367 144.58 107.245C151.714 109.122 154.59 118.156 152.138 127.468Z" fill="#EEEEEE"/>
<path d="M153.77 130.438C150.996 141.096 143.414 152.222 135.341 150.073C127.267 147.924 122.799 133.358 125.574 122.7C128.349 112.043 137.143 105.145 145.216 107.294C153.29 109.443 156.545 119.781 153.77 130.438Z" fill="#EEEEEE"/>
<path fill-rule="evenodd" clip-rule="evenodd" d="M140.886 108.52C146.388 108.832 150.403 110.64 152.653 113.824L152.907 114.193C154.02 115.799 154.956 116.81 155.365 119.851L155.405 120.174C155.639 122.174 155.707 124.284 155.587 124.984C155.522 125.28 155.395 125.384 155.235 125.352C154.871 125.281 153.93 123.608 152.41 120.333L151.135 121.825C150.441 122.627 148.97 123.383 148.097 123.95C147.225 124.518 140.886 108.52 140.886 108.52Z" fill="#E7EAEE"/>
<path fill-rule="evenodd" clip-rule="evenodd" d="M146.441 138.772C149.504 140.049 151.831 141.709 152.448 141.019C153.065 140.329 150.961 138.227 149.326 135.373C147.614 132.534 145.989 128.959 145.685 127.504L144.907 123.828C142.63 126.7 140.499 136.338 146.441 138.772Z" fill="#EEEEEE"/>
<path d="M182.056 314.275L181.89 324.498H176.075L174.333 312.768L182.056 314.275Z" fill="#EEEEEE"/>
<path d="M118.369 259.91C118.369 259.91 156.101 259.077 167.962 257.366C181.129 255.467 188.329 250.979 191.193 251.509C192.535 251.758 200.455 253.161 216.981 254.919C223.97 255.662 242.113 255.776 242.113 255.776L249.155 240.789C249.155 240.789 199.602 230.84 183.936 235.146C179.008 236.501 168.336 238.455 155.648 237.741C144.677 237.124 114.837 231.329 114.837 231.329C114.837 231.329 102.79 235.653 104.97 246.289C107.151 256.924 118.369 259.91 118.369 259.91Z" fill="#EEEEEE"/>
<path fill-rule="evenodd" clip-rule="evenodd" d="M245.118 247.201L247.437 240.485C247.437 240.485 197.968 231.257 182.301 235.563C177.374 236.918 172.92 239.151 160.232 238.437C155.375 238.164 147.071 237.027 135.319 235.027C129.374 234.015 128.419 234.39 133.091 237.445C143.926 244.531 168.027 242.861 189.895 239.668C230.536 233.734 245.118 247.201 245.118 247.201Z" fill="#E7EAEE"/>
<path d="M175.491 316.596C173.03 319.316 169.767 323.795 171.447 328.279L200.595 337.247C200.595 337.247 201.715 333.883 200.035 331.084C198.351 328.279 182.447 317.216 182.447 317.216L175.491 316.596Z" fill="#EEEEEE"/>
<path fill-rule="evenodd" clip-rule="evenodd" d="M188.946 322.671C189.139 322.618 189.337 322.732 189.39 322.925C189.442 323.118 189.328 323.317 189.135 323.369C188.185 323.627 187.56 324.227 187.34 324.986C187.056 325.968 187.025 326.972 187.347 328.58C187.387 328.776 187.26 328.967 187.064 329.006C186.868 329.046 186.677 328.919 186.638 328.723C186.292 327.003 186.327 325.881 186.645 324.785C186.936 323.779 187.755 322.993 188.946 322.671Z" fill="#E7EAEE"/>
<path fill-rule="evenodd" clip-rule="evenodd" d="M172.895 328.762L201.57 337.199C201.57 337.199 205.212 336.434 201.447 335.899C197.578 335.349 174.925 324.976 172.433 326.865C172.079 327.134 172.675 328.176 172.895 328.762Z" fill="#E7EAEE"/>
<path d="M101.443 257.771C101.443 257.771 114.382 261.855 124.802 263.386C135.222 264.917 156.006 265.788 156.006 265.788C156.006 265.788 162.494 269.316 162.913 270.949C163.076 271.586 164.059 279.993 166.778 290.734C168.057 295.786 174.891 318.633 174.891 318.633L183.936 314.629C183.936 314.629 183.572 272.636 177.799 258.708C172.025 244.78 112.675 231.253 112.675 231.253C112.675 231.253 100.079 228.974 96.6496 239.275C93.2205 249.576 101.443 257.771 101.443 257.771Z" fill="#EEEEEE"/>
<path fill-rule="evenodd" clip-rule="evenodd" d="M176.339 317.185L185.384 313.181C185.142 285.186 183.096 266.546 179.247 257.26C179.247 257.26 183.18 306.691 176.339 317.185Z" fill="#E7EAEE"/>
<path d="M255.212 247.752C257.463 250.649 261.308 254.64 266.015 253.764L279.908 226.616C279.908 226.616 276.334 225.035 273.285 226.203C270.231 227.375 256.801 241.389 256.801 241.389L255.212 247.752Z" fill="#EEEEEE"/>
<path fill-rule="evenodd" clip-rule="evenodd" d="M194.867 327.491C195.011 327.353 195.24 327.358 195.379 327.502C195.517 327.647 195.512 327.876 195.368 328.014C194.527 328.82 194.371 330.171 194.853 330.986C194.955 331.158 194.898 331.38 194.726 331.482C194.554 331.583 194.332 331.527 194.23 331.354C193.58 330.255 193.778 328.535 194.867 327.491Z" fill="#E7EAEE"/>
<path fill-rule="evenodd" clip-rule="evenodd" d="M191.91 325.104C192.056 324.967 192.285 324.975 192.422 325.12C192.559 325.266 192.551 325.495 192.406 325.632L192.21 325.82C190.688 327.318 190.251 328.628 191.592 330.033C191.73 330.178 191.724 330.407 191.579 330.545C191.435 330.683 191.206 330.677 191.068 330.533C190.077 329.494 189.874 328.373 190.312 327.25C190.615 326.476 191.142 325.826 191.91 325.104Z" fill="#E7EAEE"/>
<path fill-rule="evenodd" clip-rule="evenodd" d="M177.977 324.63C178.808 326.218 183.22 325.566 182.452 321.173C182.089 319.095 175.676 320.231 177.977 324.63Z" fill="#E7EAEE"/>
<path fill-rule="evenodd" clip-rule="evenodd" d="M263.261 254.269C269.091 247.607 272.442 232.624 277.243 227.468C278.937 225.649 281.136 225.24 278.77 229.548C274.44 237.431 266.12 254.269 266.12 254.269C265.68 254.49 265.136 254.269 264.643 254.269H263.261Z" fill="#E7EAEE"/>
<path d="M167.178 231.575C172.502 232.976 175.234 236.311 177.541 239.417C179.853 242.522 174.771 241.045 171.966 239.923C169.162 238.803 163.798 234.548 163.798 234.548L167.178 231.575Z" fill="#EEEEEE"/>
<path d="M118.685 218.964C118.685 218.964 148.653 231.838 152.877 231.855C157.095 231.872 167.449 236.899 168.008 240.823C168.689 245.596 150.632 238.581 150.632 238.581C150.632 238.581 110.277 238.581 103.553 231.855C96.8252 225.129 101.309 211.116 101.309 211.116L118.685 218.964Z" fill="#EEEEEE"/>
<path d="M111.396 158.991C111.396 158.991 118.685 163.474 119.805 178.047C120.924 192.62 116.44 209.996 116.44 209.996C116.44 209.996 119.245 212.238 119.805 214.48C120.364 216.722 118.661 219.681 118.661 219.681C118.661 219.681 101.87 227.932 100.748 228.492C99.6276 229.052 95.1436 227.371 95.1436 222.887C95.1436 218.403 96.8252 214.48 96.8252 214.48C97.6298 184.899 92.9016 156.188 111.396 158.991Z" fill="#EEEEEE"/>
<path fill-rule="evenodd" clip-rule="evenodd" d="M141.085 127.981C142.809 125.673 146.453 124.921 147.425 128.566C147.425 128.566 148.172 130.765 146.667 132.123C142.054 136.286 139.361 130.29 141.085 127.981Z" fill="#EEEEEE"/>
<path fill-rule="evenodd" clip-rule="evenodd" d="M150.712 130.486C152.35 128.292 155.812 127.578 156.735 131.041C156.735 131.041 157.445 133.13 156.015 134.421C151.632 138.375 149.074 132.679 150.712 130.486Z" fill="#EEEEEE"/>
<path d="M137.301 158.558C137.301 158.558 137.301 185.5 137.697 200.556C138.093 215.612 134.642 230.446 128.048 242.047C121.455 253.648 122.353 270.244 117.493 271.478C79.0506 281.235 89.4005 161.83 103.624 154.199C117.848 146.569 122.546 144.953 122.546 144.953" fill="#EEEEEE"/>
<path fill-rule="evenodd" clip-rule="evenodd" d="M117.586 166.117L114.273 171.063C113.998 171.474 114.206 172.033 114.682 172.164L119.102 173.386C119.616 173.529 120.102 173.085 120.008 172.561L118.9 166.392C118.785 165.751 117.948 165.576 117.586 166.117ZM118.306 166.878L119.295 172.689L115.451 171.063L118.306 166.878Z" fill="#FFB61D"/>
<path fill-rule="evenodd" clip-rule="evenodd" d="M106.927 161.286L103.023 167.553C102.773 167.953 102.967 168.481 103.416 168.625L110.233 170.81C110.801 170.992 111.333 170.449 111.139 169.885L108.226 161.433C108.027 160.857 107.249 160.768 106.927 161.286ZM107.853 162.05L109.847 169.885L103.937 167.553L107.853 162.05Z" fill="#FFB61D"/>
<path fill-rule="evenodd" clip-rule="evenodd" d="M104.522 208.698L107.177 218.678C107.341 219.292 108.158 219.413 108.492 218.874L112.441 212.507C112.66 212.154 112.537 211.69 112.173 211.491L105.569 207.877C105.011 207.571 104.358 208.083 104.522 208.698ZM105.221 208.995L111.343 212.126L107.877 218.492L105.221 208.995Z" fill="#FFB61D"/>
<path fill-rule="evenodd" clip-rule="evenodd" d="M99.2037 245.345L100.652 252.186C100.785 252.813 101.608 252.971 101.963 252.437L105.875 246.551C106.164 246.117 105.912 245.529 105.399 245.437L100.039 244.482C99.5334 244.392 99.0973 244.842 99.2037 245.345ZM100.467 245.237L105.112 246.883L101.104 251.46L100.467 245.237Z" fill="#FFB61D"/>
<path fill-rule="evenodd" clip-rule="evenodd" d="M111.753 243.897L113.201 250.738C113.334 251.365 114.157 251.523 114.512 250.989L118.424 245.103C118.713 244.669 118.462 244.081 117.948 243.989L112.588 243.034C112.083 242.944 111.647 243.394 111.753 243.897ZM112.423 244.492L117.831 244.342L113.381 250.06L112.423 244.492Z" fill="#FFB61D"/>
<path fill-rule="evenodd" clip-rule="evenodd" d="M104.996 229.899L106.444 236.74C106.577 237.368 107.4 237.526 107.755 236.991L111.667 231.105C111.956 230.671 111.704 230.083 111.191 229.992L105.831 229.037C105.325 228.946 104.889 229.397 104.996 229.899ZM105.704 229.749L110.581 231.187L106.669 236.108L105.704 229.749Z" fill="#FFB61D"/>
<path fill-rule="evenodd" clip-rule="evenodd" d="M265.269 252.037C264.905 252.747 264.308 253.044 263.512 253.088C260.678 253.246 258.431 251.995 256.427 250.173C255.667 249.483 254.993 248.697 254.231 248.009C253.696 247.524 253.121 247.209 252.285 247.509C251.645 247.738 250.894 247.652 250.194 247.723C248.615 247.884 247.041 248.095 245.459 248.209C244.451 248.283 244.426 249.143 244.189 249.736C243.654 251.079 243.254 252.477 242.828 253.861C242.663 254.398 242.4 254.611 241.796 254.603C238.781 254.567 235.766 254.57 232.751 254.594C231.377 254.605 230.003 254.77 228.632 254.739C226.053 254.68 223.47 254.598 220.899 254.4C218.411 254.209 215.937 253.85 213.454 253.585C211.711 253.399 209.957 253.301 208.221 253.065C206.201 252.791 204.199 252.392 202.184 252.082C201.176 251.927 200.152 251.882 199.143 251.733C197.412 251.478 195.682 251.214 193.962 250.893C192.367 250.596 190.866 250.904 189.364 251.4C186.44 252.365 183.509 253.308 180.576 254.246C180.055 254.413 179.9 254.55 180.136 255.184C181 257.508 181.809 259.858 182.512 262.236C183.009 263.913 183.352 265.642 183.67 267.365C184.061 269.477 184.387 271.601 184.678 273.729C184.9 275.355 185.041 276.992 185.187 278.627C185.372 280.705 185.548 282.784 185.688 284.865C185.827 286.938 185.944 289.013 186.023 291.089C186.156 294.614 186.256 298.141 186.362 301.667C186.427 303.802 186.467 305.937 186.537 308.072C186.557 308.692 186.756 309.328 186.662 309.923C186.591 310.371 186.272 310.999 185.906 311.14C184.964 311.503 184.691 312.204 184.7 313.17C184.71 314.403 184.865 315.637 184.833 316.867C184.812 317.651 185.112 318.198 185.682 318.614C188.273 320.504 190.889 322.358 193.478 324.25C194.707 325.147 195.919 326.071 197.097 327.035C198.358 328.066 199.594 329.131 200.797 330.231C201.995 331.327 202.633 332.667 202.835 334.338C202.992 335.634 202.825 336.837 202.609 338.07C202.497 338.712 202.13 338.975 201.463 338.757C198.658 337.842 195.859 336.909 193.042 336.037C188.387 334.597 183.72 333.198 179.057 331.782C177.396 331.278 175.734 330.774 174.07 330.276C173.051 329.971 172.835 329.057 172.646 328.229C172.108 325.877 172.803 323.735 174.044 321.762C174.803 320.555 175.689 319.426 176.519 318.264C177.197 317.314 177.022 316.341 176.686 315.314C175.593 311.968 174.519 308.617 173.485 305.253C172.465 301.932 171.455 298.607 170.531 295.259C169.554 291.72 168.668 288.156 167.775 284.594C167.292 282.667 166.836 280.731 166.445 278.784C166.152 277.328 165.987 275.846 165.757 274.377C165.482 272.623 165.317 270.838 164.865 269.129C164.671 268.394 163.957 267.721 163.335 267.188C161.98 266.028 160.424 265.163 158.733 264.573C158.315 264.427 157.862 264.326 157.421 264.309C155.323 264.23 153.223 264.209 151.126 264.125C149.077 264.043 147.029 263.928 144.983 263.791C142.873 263.649 140.764 263.479 138.658 263.289C136.403 263.087 134.141 262.926 131.902 262.603C129.529 262.26 127.178 261.762 124.823 261.301C124.058 261.152 123.498 261.616 123.38 262.696C123.12 265.057 122.318 267.251 121.365 269.399C120.678 270.948 119.382 271.722 117.782 271.987C116.641 272.175 115.471 272.355 114.323 272.312C111.055 272.188 108.14 271.11 105.547 269.037C102.259 266.408 100.335 262.895 98.6965 259.15C97.9625 257.472 97.0175 255.87 96.4413 254.143C95.8155 252.266 95.4989 250.286 95.0631 248.348C94.724 246.839 94.378 245.331 94.0928 243.812C93.8673 242.61 93.7251 241.393 93.5538 240.182C93.3261 238.573 93.1016 236.963 92.8851 235.352C92.8135 234.819 92.7427 234.284 92.7203 233.747C92.6502 232.069 92.6158 230.389 92.5445 228.71C92.4447 226.356 92.2583 224.003 92.2271 221.648C92.1739 217.621 92.1794 213.592 92.2277 209.564C92.2489 207.796 92.3985 206.025 92.5574 204.262C92.738 202.258 93.012 200.262 93.2117 198.259C93.3542 196.829 93.3988 195.389 93.5627 193.962C93.8031 191.869 94.067 189.776 94.4018 187.696C94.8 185.222 95.2553 182.756 95.7367 180.297C96.6477 175.642 97.7075 171.017 99.4426 166.595C100.548 163.777 101.701 160.903 103.958 158.777C104.935 157.856 106.292 157.326 107.505 156.672C110.836 154.879 114.185 153.118 117.517 151.327C117.673 151.243 117.806 151 117.832 150.814C117.92 150.172 117.881 149.504 118.039 148.883C118.141 148.479 118.425 148.035 118.76 147.79C119.885 146.971 121.062 146.223 122.234 145.471C122.444 145.337 122.741 145.219 122.972 145.256C124.208 145.456 124.828 144.695 125.251 143.759C125.825 142.492 126.349 141.196 126.794 139.879C127.531 137.697 128.274 135.509 128.832 133.278C129.024 132.509 128.728 131.591 128.554 130.761C128.201 129.074 127.907 127.356 127.338 125.739C126.974 124.705 126.237 123.768 125.533 122.895C123.713 120.639 122.757 118.113 123.063 115.218C123.196 113.961 123.736 112.79 124.676 111.877C125.782 110.802 126.916 109.756 128.026 108.685C128.835 107.904 128.777 107.307 127.724 106.544C126.249 105.475 124.835 104.321 123.425 103.167C122.22 102.182 121.702 100.775 121.383 99.3323C120.949 97.3696 120.897 95.3895 121.697 93.4738C122.978 90.41 124.823 87.8814 128.2 86.9281C131.176 86.0879 134.146 86.1448 136.817 87.8321C139.245 89.3653 140.786 91.649 141.464 94.4675C142.26 97.7752 141.354 100.752 139.683 103.583C139.543 103.82 139.528 104.132 139.456 104.408C139.704 104.455 139.951 104.533 140.202 104.545C143.417 104.691 146.612 105.048 149.492 106.58C153.271 108.592 155.649 111.78 156.697 115.929C156.854 116.55 156.853 117.218 156.873 117.866C156.943 120.075 156.949 122.287 157.08 124.492C157.107 124.952 157.459 125.517 157.836 125.812C159.643 127.227 160.258 130.693 158.577 132.745C158.409 132.95 158.266 133.176 158.101 133.384C157.455 134.196 156.519 134.591 155.587 134.425C154.792 134.283 154.725 134.551 154.463 135.137C153.903 136.388 153.233 137.598 152.51 138.764C151.541 140.327 150.552 141.888 149.432 143.343C148.755 144.221 147.841 144.928 146.984 145.654C145.945 146.534 144.846 147.343 143.788 148.201C143.26 148.629 142.681 148.85 142.007 148.753C141.307 148.652 140.914 149.046 140.709 149.612C140.313 150.706 139.956 151.816 139.644 152.936C139.578 153.172 139.718 153.517 139.86 153.752C141.108 155.805 142.347 157.865 143.651 159.884C144.709 161.522 145.912 163.068 146.936 164.726C147.569 165.751 147.989 166.908 148.502 168.008C149.397 169.926 150.31 171.835 151.165 173.771C151.341 174.169 151.389 174.679 151.328 175.114C151.238 175.746 150.614 175.949 149.938 175.54C149.152 175.065 148.412 174.511 147.676 173.959C147.22 173.617 146.81 173.214 146.377 172.841C146.327 172.798 146.26 172.775 146.201 172.743C146.191 172.818 146.165 172.896 146.175 172.969C146.296 173.82 146.393 174.676 146.556 175.52C146.724 176.391 146.98 177.245 147.157 178.115C147.509 179.842 147.848 181.573 148.163 183.308C148.517 185.258 148.857 187.212 149.164 189.171C149.322 190.178 149.376 191.201 149.512 192.212C149.718 193.74 149.976 195.262 150.169 196.792C150.274 197.628 150.297 198.474 150.343 199.317C150.407 200.465 150.448 201.615 150.514 202.763C150.677 205.597 150.841 208.43 151.02 211.262C151.064 211.964 151.477 212.504 152.109 212.705C153.908 213.276 155.165 215.376 154.862 217.129C154.792 217.536 154.701 217.958 154.522 218.325C154.092 219.207 154.653 219.707 155.211 220.166C156.117 220.91 157.061 221.61 158.008 222.303C160.254 223.95 162.516 225.575 164.763 227.222C166.798 228.713 169.043 229.75 171.453 230.485C173.388 231.075 175.033 232.194 176.58 233.483C177.34 234.117 177.997 235.054 179.2 234.823C180.903 234.495 182.601 234.14 184.3 233.79C184.812 233.685 185.314 233.53 185.829 233.442C187.621 233.133 188.679 231.865 189.734 230.554C190.519 229.577 191.394 228.675 192.211 227.723C193.817 225.852 195.406 223.966 197.012 222.095C197.81 221.164 198.632 220.254 199.438 219.33C201.71 216.728 203.968 214.113 206.254 211.522C207.452 210.164 208.7 208.851 209.919 207.511C210.247 207.151 210.599 206.799 210.858 206.392C211.253 205.772 211.656 205.582 212.427 205.832C214.113 206.377 214.083 206.273 212.904 207.567C210.792 209.883 208.751 212.263 206.672 214.608C205.656 215.755 204.606 216.872 203.598 218.026C201.829 220.051 200.086 222.099 198.321 224.127C197.068 225.567 195.8 226.993 194.532 228.419C193.55 229.523 192.555 230.614 191.577 231.72C191.492 231.817 191.424 232.085 191.455 232.104C191.694 232.253 191.963 232.475 192.215 232.465C194.264 232.385 196.31 232.228 198.359 232.158C199.893 232.106 201.431 232.106 202.965 232.159C204.931 232.227 206.899 232.311 208.856 232.499C211.036 232.708 213.204 233.044 215.379 233.319C217.608 233.602 219.844 233.835 222.065 234.17C224.285 234.504 226.487 234.956 228.702 235.324C230.536 235.629 232.384 235.856 234.216 236.175C236.552 236.581 238.877 237.054 241.21 237.483C242.847 237.784 244.492 238.046 246.13 238.347C247.709 238.637 249.28 238.974 250.86 239.255C251.857 239.431 252.862 239.61 253.869 239.651C254.291 239.669 254.828 239.439 255.141 239.141C257.536 236.863 259.857 234.508 262.263 232.241C264.955 229.704 267.77 227.309 270.805 225.181C272.194 224.206 273.749 224.376 275.262 224.508C276.144 224.584 276.997 225.009 277.861 225.284C278.57 225.509 278.633 225.946 278.318 226.565C276.886 229.376 275.479 232.2 274.046 235.01C272.808 237.439 271.547 239.856 270.254 242.321C268.565 245.587 266.919 248.813 265.269 252.037ZM132.736 231.309C133.489 229.132 134.15 226.919 134.743 224.693C135.129 223.246 135.348 221.753 135.596 220.273C135.85 218.753 136.063 217.225 136.269 215.697C136.508 213.922 136.88 212.146 136.909 210.366C136.967 206.792 136.819 203.214 136.78 199.638C136.756 197.453 136.743 195.266 136.786 193.081C136.819 191.362 135.819 190.081 135.09 188.672C134.605 187.733 134.093 186.786 133.783 185.784C133.215 183.946 132.752 182.073 132.312 180.199C132.011 178.918 131.789 177.615 131.59 176.313C131.361 174.806 130.866 173.391 130.223 172.023C130.169 171.909 129.717 171.825 129.668 171.89C129.409 172.237 129.216 172.634 129.006 173.017C128.634 173.7 128.067 174.349 127.938 175.076C127.68 176.528 127.01 177.774 126.326 179.02C125.9 179.796 125.184 179.816 124.685 179.104C124.15 178.339 123.572 177.567 123.23 176.711C122.427 174.699 121.708 172.65 121.039 170.588C120.16 167.879 119.331 165.152 118.542 162.415C118.13 160.986 117.719 159.535 117.546 158.066C117.377 156.625 117.511 155.149 117.507 153.689C117.506 153.558 117.466 153.428 117.445 153.297C117.385 153.343 117.331 153.399 117.266 153.435C115.736 154.277 114.215 155.137 112.669 155.951C111.137 156.759 109.597 157.557 108.029 158.292C106.31 159.097 104.586 159.928 103.59 161.616C102.513 163.442 101.255 165.182 100.606 167.241C99.9376 169.362 99.1812 171.46 98.5991 173.605C98.0038 175.799 97.5984 178.044 97.0618 180.255C96.7191 181.667 96.1543 183.037 95.9295 184.464C95.5864 186.64 95.3744 188.845 95.2514 191.046C95.1459 192.936 95.154 194.83 94.899 196.711C94.7011 198.172 94.5666 199.642 94.3883 201.106C94.1169 203.335 93.629 205.559 93.5941 207.791C93.5169 212.732 93.7203 217.677 93.6973 222.62C93.6853 225.211 94.0717 227.743 94.3767 230.296C94.7155 233.131 94.9161 235.982 95.2394 238.819C95.4591 240.747 95.6788 242.686 96.0901 244.578C96.7595 247.659 97.4787 250.738 98.3727 253.76C99.488 257.53 101.126 261.081 103.431 264.303C104.872 266.316 106.631 267.965 108.802 269.15C111.746 270.757 114.903 270.618 118.066 270.127C118.585 270.047 119.256 269.648 119.478 269.206C120.1 267.968 120.644 266.661 120.999 265.324C121.503 263.423 121.725 261.448 122.219 259.544C123.034 256.405 124.059 253.318 124.827 250.168C125.459 247.574 126.664 245.233 127.711 242.821C128.482 241.045 129.393 239.331 130.325 237.506C131.135 235.443 132.012 233.403 132.736 231.309ZM160.522 263.357C162.045 264.288 163.538 265.275 164.988 266.318C165.893 266.969 166.543 267.914 166.741 269.008C167.201 271.54 167.505 274.1 167.949 276.635C168.261 278.415 168.709 280.17 169.079 281.939C169.381 283.38 169.66 284.825 169.946 286.268C170.227 287.687 170.5 289.107 170.785 290.525C171.002 291.606 171.226 292.685 171.455 293.763C171.824 295.507 172.119 297.272 172.596 298.985C173.067 300.674 173.774 302.294 174.291 303.971C175.15 306.762 176.217 309.464 177.452 312.109C177.745 312.736 178.238 312.61 178.529 312.496C180.378 311.772 182.201 310.982 184.012 310.169C184.584 309.912 184.888 309.415 184.862 308.736C184.79 306.89 184.74 305.044 184.69 303.197C184.629 300.988 184.577 298.779 184.521 296.57C184.466 294.407 184.453 292.242 184.341 290.083C184.231 287.973 184.024 285.868 183.85 283.761C183.632 281.137 183.43 278.512 183.172 275.891C182.994 274.082 182.831 272.262 182.489 270.48C181.897 267.395 181.169 264.335 180.501 261.264C179.722 257.685 178.218 254.567 175.243 252.224C172.978 250.44 170.602 248.847 168.033 247.575C165.19 246.167 162.316 244.796 159.366 243.639C155.993 242.316 152.717 240.644 149.004 240.34C147.22 240.194 145.45 239.881 143.669 239.691C142.24 239.54 140.799 239.497 139.371 239.34C137.11 239.092 134.858 238.764 132.596 238.542C132.278 238.51 131.801 238.809 131.606 239.096C131.159 239.755 130.822 240.493 130.473 241.215C129.383 243.47 128.105 245.66 127.276 248.008C126.18 251.11 125.436 254.336 124.547 257.511C124.043 259.31 124.032 259.39 125.601 259.719C127.415 260.099 129.259 260.352 131.097 260.605C132.299 260.77 133.518 260.816 134.725 260.954C137.012 261.217 139.293 261.531 141.581 261.778C143.037 261.936 144.501 262.03 145.964 262.117C148.15 262.247 150.336 262.368 152.524 262.448C153.835 262.496 155.148 262.457 156.627 262.457C158.001 262.431 159.344 262.637 160.522 263.357ZM226.179 252.91C227.589 252.976 228.999 253.045 230.409 253.075C233.679 253.145 236.95 253.2 240.221 253.24C240.874 253.247 241.462 252.977 241.638 252.305C242.585 248.687 244.449 245.333 244.688 241.505C244.749 240.535 244.328 239.849 243.337 239.676C242.303 239.495 241.283 239.241 240.252 239.045C238.955 238.798 237.653 238.581 236.355 238.342C235.189 238.128 234.025 237.905 232.861 237.68C232.009 237.516 231.161 237.334 230.309 237.173C228.677 236.865 227.044 236.563 225.41 236.263C224.293 236.059 223.177 235.849 222.057 235.669C221.187 235.53 220.31 235.442 219.438 235.315C217.598 235.046 215.758 234.768 213.918 234.492C212.867 234.335 211.819 234.162 210.766 234.02C209.361 233.83 207.953 233.51 206.547 233.518C203.02 233.538 199.493 233.693 195.968 233.83C194.282 233.896 192.593 233.99 190.917 234.179C189.979 234.285 189.077 234.582 188.397 235.372C187.289 236.659 186.099 237.876 184.98 239.154C184.273 239.961 183.611 240.809 182.965 241.666C182.11 242.8 181.068 243.488 179.577 243.373C177.136 243.184 174.691 243.045 172.25 242.858C171.344 242.789 170.443 242.653 169.542 242.527C168.014 242.314 166.491 242.066 164.962 241.865C163.499 241.674 162.032 241.515 160.564 241.364C160.15 241.322 159.727 241.345 159.31 241.369C159.226 241.373 159.151 241.515 159.072 241.594C159.157 241.633 159.244 241.669 159.327 241.713C160.062 242.096 160.777 242.523 161.533 242.857C163.75 243.836 166.037 244.673 168.198 245.761C171.337 247.339 174.266 249.267 176.929 251.584C177.755 252.302 178.547 252.836 179.901 252.656C182.048 252.37 184.054 251.841 185.98 250.904C188.572 249.642 191.21 248.607 194.191 249.226C195.916 249.583 197.65 249.896 199.372 250.266C200.463 250.5 201.528 250.885 202.627 251.048C203.991 251.251 205.379 251.287 206.755 251.406C209.259 251.625 211.762 251.856 214.265 252.073C215.965 252.221 217.667 252.354 219.451 252.577C221.694 252.689 223.936 252.806 226.179 252.91ZM138.946 204.533C138.97 205.202 138.944 205.873 138.955 206.542C139.007 209.672 139.056 212.802 139.126 215.932C139.146 216.84 139.107 217.777 139.315 218.648C139.736 220.411 140.288 222.144 140.827 223.878C141.057 224.62 141.378 225.327 142.217 225.621C142.947 225.876 143.654 226.198 144.385 226.449C145.471 226.822 145.803 226.681 146.511 225.688C146.745 225.359 147.015 225.056 147.278 224.749C148.974 222.772 150.721 220.835 152.354 218.808C153.56 217.311 153.351 214.903 151.332 214.13C151.115 214.047 150.9 213.947 150.675 213.9C149.482 213.653 149.537 213.656 149.497 212.529C149.356 208.502 149.828 204.465 149.196 200.442C148.943 198.836 149.047 197.176 148.815 195.565C148.454 193.059 147.953 190.572 147.494 188.081C147.06 185.724 146.625 183.367 146.15 181.019C145.795 179.266 145.368 177.529 144.986 175.781C144.695 174.449 144.466 173.101 144.114 171.785C144.019 171.429 143.577 171.166 143.295 170.86C142.965 171.18 142.386 171.471 142.346 171.823C142.143 173.608 141.868 175.428 142.025 177.199C142.205 179.234 142.51 181.251 142.122 183.272C141.679 185.574 140.943 187.784 139.695 189.798C139.004 190.915 138.487 192.074 138.605 193.455C138.721 194.822 138.759 196.198 138.779 197.57C138.806 199.523 138.786 201.477 138.786 203.597C138.841 203.909 138.934 204.22 138.946 204.533ZM130.162 135.364C130.021 135.583 129.825 135.783 129.747 136.022C128.952 138.456 128.225 140.915 127.375 143.33C126.863 144.785 126.059 146.083 124.729 146.998C123.763 147.662 122.863 148.42 121.917 149.115C121.451 149.458 121.55 149.755 121.84 150.172C122.71 151.418 123.629 152.644 124.355 153.973C125.357 155.806 126.215 157.72 127.107 159.612C127.976 161.456 128.883 163.287 129.635 165.179C130.275 166.786 130.618 168.511 131.276 170.109C131.87 171.554 132.508 172.978 132.724 174.525C132.797 175.051 132.967 175.055 133.366 175.054C135.762 175.045 138.075 174.729 140.095 173.302C140.268 173.181 140.414 172.93 140.447 172.72C140.526 172.211 140.512 171.688 140.572 171.175C140.614 170.813 140.85 170.422 140.765 170.107C140.451 168.934 140.032 167.79 139.666 166.631C138.967 164.417 138.049 162.226 137.987 159.89C137.923 157.512 138.137 155.125 138.3 152.747C138.366 151.776 138.556 150.803 138.802 149.86C139.089 148.754 139.021 148.451 138.023 147.912C136.38 147.024 134.964 145.83 133.951 144.29C132.299 141.777 131.03 139.073 130.577 135.947C130.438 135.753 130.3 135.558 130.162 135.364ZM153.992 134.623C154.038 134.532 154.444 134.251 153.84 134.149C153.229 134.046 152.54 133.749 152.12 133.312C151.298 132.454 150.617 131.455 149.926 130.481C149.73 130.205 149.661 130.037 149.386 130.368C149.211 130.578 148.985 130.745 148.811 130.955C147.299 132.78 145.126 133.555 143.091 133.048C140.651 132.44 139.164 129.839 139.13 127.582C139.117 126.683 138.833 125.929 138.114 125.411C136.918 124.55 135.688 123.735 134.459 122.922C133.771 122.466 133.116 122.615 132.938 123.333C132.498 125.112 131.951 126.895 131.798 128.706C131.608 130.946 131.698 133.208 132.233 135.444C133.134 139.21 134.304 142.789 137.378 145.443C139.359 147.155 141.807 147.54 144.167 146.504C146.505 145.478 147.942 143.579 149.34 141.603C150.514 139.942 151.685 138.279 152.942 136.533C153.297 135.899 153.665 135.271 153.992 134.623ZM255.261 246.486C256.886 248.554 258.776 250.279 261.362 251.114C262.959 251.63 263.544 251.539 264.428 249.854C266.231 246.417 268.013 242.968 269.79 239.518C270.5 238.139 271.156 236.733 271.867 235.355C273.256 232.664 274.663 229.983 276.071 227.301C276.328 226.812 276.084 226.369 275.705 226.319C274.392 226.143 273.005 225.768 271.785 226.579C270.177 227.649 268.558 228.726 267.078 229.961C264.833 231.834 262.671 233.811 260.543 235.816C259.577 236.726 258.762 237.798 257.903 238.817C257.225 239.623 256.355 240.301 256.097 241.401C255.858 242.419 255.623 243.438 255.386 244.623C255.108 245.23 254.796 245.894 255.261 246.486ZM199.931 336.359C200.314 336.389 201.052 336.215 201.056 336.112C201.105 334.67 201.378 333.143 200.084 332.018C198.403 330.555 196.774 329.025 195.02 327.654C192.191 325.442 189.28 323.336 186.401 321.187C185.373 320.42 184.35 319.605 183.041 319.405C181.869 319.226 180.675 319.202 179.499 319.045C178.507 318.912 177.832 319.342 177.23 320.056C175.769 321.788 174.707 323.713 174.305 325.961C173.99 327.723 174.558 328.693 175.98 329.112C178.688 329.909 181.377 330.772 184.08 331.588C186.017 332.172 187.972 332.698 189.905 333.295C192.724 334.165 195.53 335.075 198.51 335.968C198.983 336.107 199.45 336.321 199.931 336.359ZM143.057 227.79C141.187 227.05 139.328 226.281 137.453 225.552C136.899 225.337 136.428 225.273 136.245 226.127C136.047 227.053 135.624 227.93 135.319 228.834C134.641 230.842 133.96 232.849 133.318 234.868C133.199 235.241 133.019 235.765 133.756 235.837C134.716 235.929 135.671 236.09 136.633 236.16C138.511 236.296 140.39 236.43 142.272 236.492C145.067 236.585 147.864 236.618 150.66 236.667C151.553 236.682 152.446 236.666 153.34 236.671C153.557 236.672 153.787 236.657 153.989 236.72C156.41 237.477 158.823 238.26 161.246 239.01C163.683 239.763 166.125 240.504 168.729 240.358C169.633 240.308 169.799 240.138 169.466 239.306C169.285 238.852 169.033 238.39 168.699 238.04C167.068 236.331 165.077 235.137 162.946 234.156C161.249 233.374 159.589 232.502 157.68 232.306C156.786 232.214 155.886 232.086 155.018 231.861C153.639 231.504 152.272 231.09 150.924 230.631C149.238 230.057 147.577 229.413 145.738 228.799C144.844 228.464 143.945 228.142 143.057 227.79ZM122.025 153.868C121.241 152.654 120.416 151.465 119.606 150.268C119.493 150.101 119.37 149.941 119.252 149.778C119.174 150.052 119.063 150.322 119.023 150.602C118.889 151.527 118.814 152.461 118.655 153.381C118.34 155.202 118.17 156.99 119.35 158.609C119.425 158.711 119.483 158.834 119.517 158.957C119.951 160.534 120.377 162.114 120.81 163.692C120.92 164.092 121.034 164.491 121.165 164.883C121.73 166.573 122.414 168.233 122.839 169.957C123.276 171.727 123.611 173.507 124.518 175.124C124.779 175.589 124.864 176.15 125.056 176.657C125.113 176.808 125.303 177.051 125.363 177.033C125.554 176.973 125.807 176.846 125.872 176.681C126.621 174.756 126.982 172.654 128.403 171.039C129.611 169.666 129.36 168.264 128.62 166.799C128.33 166.226 128.151 165.599 127.893 165.009C127.334 163.734 126.799 162.447 126.174 161.205C125.628 160.12 124.967 159.093 124.365 158.035C123.943 157.291 123.536 156.538 123.038 155.706C122.703 155.092 122.403 154.455 122.025 153.868ZM167.276 230.72C164.829 229.139 162.349 227.604 159.978 225.915C157.993 224.501 156.153 222.885 154.224 221.39C153.703 220.987 153.106 220.853 152.574 221.461C151.712 222.446 150.833 223.416 149.973 224.402C149.332 225.137 148.716 225.893 148.074 226.627C147.572 227.2 147.625 227.508 148.359 227.727C150.72 228.433 153.098 229.083 155.451 229.811C158.664 230.806 161.873 231.816 165.057 232.899C166.075 233.245 166.973 233.945 167.99 234.296C169.024 234.653 170.128 234.839 171.217 234.991C172.474 235.166 173.748 235.236 175.017 235.315C175.219 235.328 175.433 235.147 175.642 235.055C175.518 234.883 175.424 234.675 175.266 234.545C173.254 232.899 170.853 232.049 168.355 231.143C167.993 231.005 167.594 230.925 167.276 230.72ZM135.42 186.613C135.731 187.793 136.47 188.367 137.608 188.474C138.59 188.566 138.879 188.027 139.119 187.309C139.462 186.281 139.802 185.251 140.124 184.216C140.839 181.917 140.736 179.6 140.308 177.263C140.169 176.501 140.201 175.707 140.167 174.927C140.161 174.813 140.219 174.697 140.248 174.583C140.133 174.616 140.014 174.639 139.904 174.685C139.214 174.97 138.55 175.365 137.833 175.526C136.489 175.828 135.12 176.028 133.752 176.203C133.225 176.27 132.912 176.325 133.08 176.971C133.238 177.581 133.301 178.215 133.427 178.835C133.698 180.169 133.983 181.501 134.262 183.001C134.653 184.204 135.098 185.392 135.42 186.613ZM149.736 174.017C149.866 174.127 150.011 174.22 150.149 174.321C150.149 174.134 150.2 173.928 150.138 173.764C149.775 172.799 149.437 171.82 148.994 170.892C148.049 168.911 147.181 166.873 146.028 165.017C144.894 163.191 143.367 161.613 142.163 159.826C141.3 158.546 140.69 157.096 139.953 155.729C139.839 155.519 139.652 155.349 139.499 155.16C139.429 155.382 139.293 155.605 139.299 155.825C139.334 157.253 139.352 158.683 139.472 160.105C139.554 161.075 139.717 162.052 139.978 162.988C140.267 164.028 140.792 165.004 141.062 166.047C141.379 167.267 141.958 168.039 143.14 168.691C145.101 169.773 147.124 170.896 148.502 172.954C148.913 173.309 149.322 173.666 149.736 174.017ZM141.01 126.7C140.367 127.637 141.56 130.919 142.208 131.163C146.748 132.872 148.043 129.947 148.102 129.144C148.221 127.551 148.417 125.936 146.911 124.644C142.937 123.853 142.05 125.187 141.01 126.7ZM158.394 128.027C157.784 126.507 156.861 125.515 155.253 125.862C154.432 126.039 153.71 126.69 152.955 127.146C151.334 128.127 151.121 128.664 151.688 130.402C152.255 132.142 153.578 133.139 155.262 133.477C156.655 133.757 157.65 132.893 158.387 131.593C158.572 130.405 158.877 129.23 158.394 128.027ZM152.382 126.061C153.037 125.596 153.746 124.907 154.452 124.881C155.674 124.837 155.475 124.091 155.344 123.504C154.976 121.862 154.495 120.245 154.025 118.627C153.703 117.52 153.431 117.456 152.652 118.236C151.316 119.572 149.962 120.882 148.284 121.804C147.759 122.093 147.687 122.757 148.062 123.281C148.202 123.476 148.391 123.643 148.496 123.853C149.012 124.891 149.48 125.953 150.031 126.972C150.153 127.197 150.06 127.993 150.848 127.407C151.356 126.954 151.831 126.454 152.382 126.061ZM250.968 246.185C252.108 245.973 253.329 245.681 253.505 244.165C253.535 243.91 253.651 243.667 253.709 243.414C254.068 241.847 253.661 241.345 252.092 241.177C250.614 241.018 249.148 240.754 247.68 240.517C246.894 240.39 246.749 240.537 246.663 241.336C246.542 242.444 246.37 243.548 246.163 244.643C245.981 245.602 246.25 246.361 247.093 246.549C248.387 246.437 249.698 246.422 250.968 246.185ZM182.557 317.524C182.716 317.517 182.987 317.201 182.993 317.02C183.032 315.822 183.004 314.622 183.017 313.424C183.025 312.75 182.509 312.728 182.138 312.846C181.331 313.103 180.564 313.486 179.786 313.828C179.223 314.076 178.591 314.276 178.659 315.087C178.707 315.66 178.707 316.246 178.839 316.8C179.058 317.719 179.852 317.282 180.5 317.465C181.186 317.493 181.874 317.554 182.557 317.524ZM137.936 220.114C137.887 219.978 137.689 219.895 137.56 219.787C137.466 219.922 137.302 220.05 137.289 220.192C137.211 221.053 137.143 221.916 137.117 222.78C137.091 223.624 137.689 224.171 138.547 224.094C138.693 224.08 138.951 223.824 138.932 223.721C138.805 223.035 138.618 222.361 138.367 221.598C138.227 221.102 138.107 220.599 137.936 220.114ZM185.136 235.934C185.229 235.75 185.424 235.237 184.856 235.343C183.989 235.506 183.137 235.752 182.285 235.984C182.129 236.027 182.002 236.173 181.861 236.271C182.024 236.348 182.185 236.485 182.35 236.491C183.045 236.516 183.742 236.502 184.521 236.418C184.734 236.261 185.029 236.145 185.136 235.934ZM120.441 148.087C120.308 148.165 120.174 148.242 120.041 148.32C120.146 148.437 120.232 148.599 120.363 148.654C120.441 148.687 120.613 148.575 120.703 148.487C121.219 147.987 121.725 147.478 122.228 146.966C122.329 146.863 122.402 146.734 122.488 146.617C122.319 146.65 122.106 146.629 121.988 146.725C121.485 147.133 121.01 147.574 120.441 148.087Z" fill="#00160A"/>
<path fill-rule="evenodd" clip-rule="evenodd" d="M138.393 138.333C137.608 137.908 136.832 137.56 136.669 136.615C136.352 134.777 137.014 132.613 139.408 132.739C141.567 132.852 142.937 134.645 142.173 136.67C141.61 138.163 140.243 138.904 138.393 138.333Z" fill="#FFB61D"/>
<path fill-rule="evenodd" clip-rule="evenodd" d="M149.04 131.479C149.083 131.197 149.126 131 149.169 130.803C149.237 130.975 149.324 131.141 149.369 131.319C149.706 132.637 150.774 135.918 149.502 137.428C149.396 137.554 148.86 137.574 148.526 137.553C147.87 137.511 147.104 136.543 147.226 135.918C147.244 135.825 148.829 137.362 149.169 136.53C149.736 135.143 149.04 131.956 149.04 131.479Z" fill="#00160A"/>
<path fill-rule="evenodd" clip-rule="evenodd" d="M140.103 141.094C140.037 141.061 139.945 141.07 139.866 141.073C139.671 141.081 139.404 140.731 139.518 140.583C139.689 140.361 139.883 140.136 140.115 139.99C140.253 139.902 140.482 140.185 140.464 140.31C140.452 140.404 140.54 140.55 140.627 140.614C141.938 141.577 143.394 142.202 144.988 142.502C145.093 142.522 145.185 142.616 145.283 142.675C145.185 142.743 145.088 142.875 144.99 142.869C143.251 142.768 141.241 141.672 140.103 141.094Z" fill="#00160A"/>
<path fill-rule="evenodd" clip-rule="evenodd" d="M97.7502 216.552L96.0991 223.604C95.9714 224.149 96.4846 224.627 97.0193 224.46L102.751 222.676C103.233 222.526 103.418 221.94 103.108 221.541L99.0275 216.274C98.6543 215.792 97.8892 215.959 97.7502 216.552ZM98.4552 217.683L102.053 221.984L96.804 223.769L98.4552 217.683Z" fill="#FFB61D"/>
<path fill-rule="evenodd" clip-rule="evenodd" d="M102.873 175.867C102.269 175.812 101.87 176.479 102.203 176.986L106.402 183.369C106.685 183.8 107.315 183.805 107.605 183.38L111.47 177.72C111.782 177.263 111.488 176.64 110.937 176.59L102.873 175.867ZM103.441 176.59L110.661 177.993L106.402 182.45L103.441 176.59Z" fill="#FFB61D"/>
<path fill-rule="evenodd" clip-rule="evenodd" d="M129.485 224.681H123.563C123.072 224.681 122.723 225.16 122.873 225.627L124.863 231.811C125.051 232.395 125.834 232.495 126.163 231.978L130.096 225.794C130.403 225.312 130.057 224.681 129.485 224.681ZM129.003 225.888L126.035 231.589L124.045 225.405L129.003 225.888Z" fill="#FFB61D"/>
<path fill-rule="evenodd" clip-rule="evenodd" d="M110.078 258.19L109.808 263.551C109.779 264.113 110.375 264.491 110.871 264.227L117.757 260.558C118.341 260.248 118.237 259.382 117.597 259.218L110.981 257.525C110.537 257.412 110.101 257.733 110.078 258.19ZM110.602 258.702L116.93 259.581L110.871 263.162L110.602 258.702Z" fill="#FFB61D"/>
<path fill-rule="evenodd" clip-rule="evenodd" d="M100.948 192.346L95.6382 196.026C95.1889 196.337 95.2337 197.015 95.72 197.265L101.933 200.455C102.453 200.722 103.058 200.295 102.982 199.716L102.078 192.846C102.007 192.309 101.393 192.037 100.948 192.346ZM101.161 193.625L102.264 199.811L96.0507 196.621L101.161 193.625Z" fill="#FFB61D"/>
<path fill-rule="evenodd" clip-rule="evenodd" d="M125.309 208.109L121.996 213.055C121.711 213.481 121.946 214.061 122.448 214.167L126.321 214.986C126.8 215.087 127.239 214.694 127.192 214.208L126.631 208.442C126.565 207.765 125.687 207.544 125.309 208.109ZM126.211 209.1V214.397L122.88 213.055L126.211 209.1Z" fill="#FFB61D"/>
<path fill-rule="evenodd" clip-rule="evenodd" d="M125.936 184.807C126.9 184.177 127.746 184.327 127.058 185.711C127.058 185.711 122.033 198.451 120.531 198.602C119.107 198.745 118.42 196.904 116.432 191.64L116.348 191.415C116.34 191.395 116.334 191.376 116.328 191.356L116.317 191.314L116.304 191.29L116.277 191.226L116.039 190.583C115.758 189.817 115.051 188.552 114.678 188.112C114.279 187.644 115.168 187.354 115.824 187.354C117.049 187.354 118.549 187.696 120.906 187.016C123.667 186.219 124.615 185.669 125.936 184.807ZM123.799 191.352L123.733 191.395C123.032 191.826 122.257 192.158 121.41 192.39C120.398 192.666 118.928 192.701 117.978 192.493L117.819 192.456L117.878 192.602C118.414 193.939 118.891 195.485 119.307 196.272L119.452 196.539C119.712 197.008 119.941 197.348 120.126 197.552L120.184 197.612L120.256 197.526C120.566 197.129 121.669 195.639 122.435 194.15L122.515 193.993C122.843 193.35 123.201 192.619 123.589 191.8L123.799 191.352ZM125.867 186.278L125.751 186.345C124.661 186.952 122.858 187.959 121.308 188.407C119.452 188.942 117.88 189.133 116.586 188.962L116.507 188.95L116.552 189.078C116.675 189.424 117.2 191.062 117.385 191.314C118.136 192.007 119.057 192.073 120.184 191.8L120.346 191.759C124.382 190.979 125.867 186.278 125.867 186.278Z" fill="#FFB61D"/>
<path fill-rule="evenodd" clip-rule="evenodd" d="M267.628 230.819C267.789 230.7 268.016 230.734 268.134 230.895C268.97 232.029 270.385 232.084 272.266 231.04C272.441 230.943 272.661 231.006 272.758 231.181C272.855 231.356 272.792 231.576 272.617 231.673C270.453 232.875 268.642 232.803 267.552 231.325C267.433 231.164 267.467 230.937 267.628 230.819Z" fill="#E7EAEE"/>
<path fill-rule="evenodd" clip-rule="evenodd" d="M264.892 233.719C265.04 233.584 265.269 233.595 265.403 233.743C266.671 235.137 268.355 235.217 269.725 234.485C269.902 234.391 270.121 234.458 270.215 234.634C270.309 234.811 270.243 235.03 270.066 235.124C268.43 235.998 266.387 235.901 264.868 234.23C264.733 234.082 264.744 233.853 264.892 233.719Z" fill="#E7EAEE"/>
<path fill-rule="evenodd" clip-rule="evenodd" d="M261.927 236.591C262.073 236.454 262.302 236.461 262.439 236.607C263.661 237.904 266.145 238.539 267.844 237.638C268.02 237.545 268.239 237.612 268.333 237.789C268.427 237.965 268.359 238.184 268.183 238.278C266.171 239.344 263.342 238.622 261.912 237.103C261.775 236.957 261.782 236.728 261.927 236.591Z" fill="#E7EAEE"/>
<path fill-rule="evenodd" clip-rule="evenodd" d="M264.229 247.944C266.77 246.714 264.143 242.158 261.683 244.002C260.106 245.185 261.836 249.102 264.229 247.944Z" fill="#E7EAEE"/>
</svg>
