<svg width="362" height="362" viewBox="0 0 362 362" fill="none" xmlns="http://www.w3.org/2000/svg">
<rect width="362" height="362" fill="white"/>
<path d="M248.836 76.1495C245.963 68.4786 242.965 60.4751 222.671 65.8885C211.773 68.7953 202.639 79.0653 195.171 94.3167C189.553 106.446 184.806 122.131 181.019 140.936C173.281 179.364 170.021 229.072 171.545 277.401L168.168 277.508L168.124 276.05C167.093 241.151 168.54 205.601 172.357 174.082C156.116 157.202 137.604 143.898 124.115 139.479C92.1478 132.43 83.7027 151.052 83.9121 167.664C83.9504 170.701 85.012 173.228 86.0813 175.773C87.1871 178.404 88.3012 181.056 88.3012 184.314C88.3012 186.474 83.47 190.936 77.19 196.737C64.8435 208.142 46.8971 224.719 49.0511 239.145C51.0416 252.476 63.6652 262.6 75.2845 268.042C76.4221 268.575 77.6611 269.565 79.1518 270.756C80.2121 271.603 81.3997 272.552 82.7687 273.511L82.8739 273.584C83.9493 274.324 85.7242 275.369 88.1986 276.719L88.9619 277.133C123.967 296.017 164.594 283.294 177.253 278.599L177.993 278.321L267.768 277.322L267.756 277.252C267.731 277.105 267.691 276.888 267.639 276.607C266.796 272.034 262.832 250.552 271.272 241.894C297.628 214.859 326.528 137.488 287.234 105.066C278.551 97.9016 269.934 93.546 263.317 90.2009C259.298 88.1692 256.016 86.5103 253.905 84.8211C251.304 82.741 250.082 79.4765 248.836 76.1495Z" fill="black"/>
<path fill-rule="evenodd" clip-rule="evenodd" d="M89.8489 162.747C87.8705 162.403 91.3669 166.327 91.3669 166.327C91.3669 166.327 91.8273 163.091 89.8489 162.747Z" fill="white"/>
<path fill-rule="evenodd" clip-rule="evenodd" d="M119.441 277.623C119.441 277.623 98.1898 268.732 98.1898 256.353C98.1898 252.722 100.461 253.07 105.005 257.399C105.499 257.87 106.207 258.593 107.128 259.568C107.693 260.165 94.9389 244.678 101.365 241.781C107.63 238.957 109.087 253.618 109.414 253.415C109.778 253.19 109.672 248.755 111.122 246.794C111.903 245.737 114.2 245.511 115.938 246.794C125.068 253.53 119.441 277.623 119.441 277.623Z" fill="white"/>
<path fill-rule="evenodd" clip-rule="evenodd" d="M110.306 186.812C110.306 186.812 101.467 186.359 100.262 183.548C99.0567 180.737 105.612 182.334 105.612 182.334L110.306 186.812Z" fill="white"/>
<path fill-rule="evenodd" clip-rule="evenodd" d="M95.3565 173.487C93.3775 172.38 94.503 169.74 95.3565 169.63C97.8831 169.304 99.8768 174.903 100.155 175.464C100.638 176.435 96.3606 174.049 95.3565 173.487Z" fill="white"/>
<path fill-rule="evenodd" clip-rule="evenodd" d="M115.707 190.459C115.707 190.459 110.867 178.12 115.347 179.092C119.828 180.065 118.539 194.409 118.539 194.409L115.707 190.459Z" fill="white"/>
<path fill-rule="evenodd" clip-rule="evenodd" d="M112.457 181.471C112.52 183.473 113.376 186.543 115.018 190.73C115.04 190.787 115.069 190.841 115.105 190.891L117.937 194.841C118.337 195.398 119.214 195.159 119.276 194.476L119.327 193.885C120.123 184.32 118.974 179.122 115.504 178.369C113.486 177.931 112.383 179.138 112.457 181.471ZM115.265 179.833C117.421 180.386 118.423 184.386 117.985 191.893L117.957 192.329L116.361 190.103L116.082 189.378C114.703 185.754 113.989 183.09 113.936 181.425L113.932 181.192C113.929 179.93 114.276 179.617 115.19 179.816L115.265 179.833Z" fill="#00160A"/>
<path fill-rule="evenodd" clip-rule="evenodd" d="M98.6149 241.033C95.4973 242.439 95.7131 245.984 98.0931 250.814L98.2759 251.179C98.7112 252.035 99.2079 252.919 99.7574 253.826L99.9468 254.136L99.9232 254.12C99.0332 253.528 98.2653 253.181 97.6047 253.08C95.8504 252.811 94.956 254.103 94.956 256.353C94.956 265.017 102.272 272.339 116.711 278.38C117.179 278.576 117.711 278.304 117.826 277.81C121.645 261.46 120.443 250.879 114.012 246.133C112.038 244.677 109.186 244.768 108.049 246.306L107.95 246.445C107.467 247.155 107.13 248.09 106.88 249.253L106.869 249.305L106.836 249.177C106.659 248.481 106.471 247.824 106.258 247.166C105.553 244.986 104.711 243.274 103.653 242.128C102.262 240.62 100.532 240.169 98.6149 241.033ZM105.678 251.43L106.038 253.128L106.08 253.305C106.106 253.412 106.13 253.498 106.155 253.57C106.188 253.669 106.222 253.75 106.277 253.836C106.344 253.943 106.428 254.037 106.562 254.117C106.822 254.275 107.157 254.284 107.432 254.113C107.787 253.894 107.874 253.706 107.971 253.085L108.016 252.776C108.049 252.546 108.166 251.572 108.186 251.418C108.265 250.802 108.343 250.294 108.44 249.81C108.667 248.674 108.973 247.816 109.368 247.281C109.909 246.55 111.733 246.492 113.037 247.454L113.208 247.583C118.632 251.76 119.807 261.224 116.547 276.033L116.446 276.485L116.112 276.34C103.043 270.64 96.5971 263.96 96.5971 256.353C96.5971 254.971 96.8384 254.623 97.3557 254.702C98.2714 254.843 99.8709 255.941 102.025 257.993L102.301 258.26C102.629 258.583 103.032 258.994 103.51 259.492L104.146 260.16C104.157 260.17 104.173 260.185 104.206 260.214L104.216 260.239C104.242 260.28 104.322 260.295 104.86 260.395L105.048 260.329C105.27 260.245 105.305 260.19 105.493 259.893L105.536 259.713C105.563 259.595 105.559 259.567 105.545 259.465L105.509 259.319C105.501 259.291 105.495 259.276 105.485 259.255L105.477 259.238C105.455 259.19 105.442 259.166 105.421 259.134L105.198 258.833L104.63 258.081C104.532 257.95 104.434 257.817 104.325 257.669C103.389 256.4 102.482 255.088 101.63 253.735C100.831 252.467 100.134 251.244 99.5651 250.089C97.5571 246.014 97.3969 243.382 99.2893 242.529C101.567 241.503 103.315 243.398 104.697 247.671C105.072 248.833 105.369 250.002 105.678 251.43Z" fill="#00160A"/>
<path fill-rule="evenodd" clip-rule="evenodd" d="M101.16 175.916L101.834 176.53C110.192 184.16 116.011 190.247 119.113 194.471C124.527 201.845 128.89 209.492 132.567 217.59C133.874 220.468 135.057 223.318 136.223 226.343L136.54 227.173C136.903 228.128 137.255 229.072 137.638 230.118L139.269 234.619C143.682 246.702 142.222 247.291 138.02 235.539L136.37 230.981C136.024 230.034 135.708 229.179 135.39 228.334L135.15 227.702C133.891 224.392 132.625 221.314 131.213 218.205C127.577 210.196 123.264 202.637 117.914 195.352L117.669 195.021C114.491 190.789 108.591 184.672 100.16 177.017C99.856 176.741 99.8333 176.271 100.109 175.967C100.385 175.663 100.856 175.64 101.16 175.916ZM81.5966 159.064L92.0051 167.948C92.9808 168.785 93.7413 169.441 94.1043 169.761C94.4123 170.032 94.4419 170.502 94.1704 170.81C93.8989 171.118 93.429 171.148 93.121 170.876L90.4123 168.541C86.8151 165.46 81.1361 160.627 80.6296 160.194C80.3176 159.927 80.2812 159.457 80.5483 159.145C80.8153 158.833 81.2847 158.797 81.5966 159.064Z" fill="#00160A"/>
<path fill-rule="evenodd" clip-rule="evenodd" d="M100.833 181.117C99.4666 181.427 99.0062 182.497 99.5816 183.839C100.541 186.078 104.1 187.235 110.268 187.551C110.954 187.587 111.314 186.751 110.817 186.277L106.123 181.799C106.029 181.709 105.913 181.646 105.787 181.615C103.497 181.058 101.868 180.883 100.833 181.117ZM105.244 183.007L108.306 185.926L108.122 185.909L107.659 185.86C103.719 185.419 101.477 184.505 100.942 183.256L100.886 183.122C100.722 182.712 100.781 182.647 101.16 182.561C101.859 182.402 103.166 182.527 105.029 182.957L105.244 183.007Z" fill="#00160A"/>
<path fill-rule="evenodd" clip-rule="evenodd" d="M96.4878 281.968C94.6242 283.041 95.3834 284.158 99.4023 285.942C103.739 287.892 111.81 291.656 125.672 292.717C147.143 294.36 166.693 291.26 191.373 291.26C225.54 291.26 240.537 298.768 252.495 297.036C284.552 292.395 291.815 283.388 282.251 281.063C271.751 278.512 238.379 278.823 227.145 278.09L223.669 277.867L220.682 277.792C188.347 276.998 136.516 277.792 126.394 277.792C105.743 277.792 96.4878 281.968 96.4878 281.968Z" fill="white"/>
<path fill-rule="evenodd" clip-rule="evenodd" d="M191.373 291.26C225.54 291.26 240.537 299.027 252.495 297.296C284.552 292.654 291.815 283.388 282.251 281.063C271.751 278.512 233.61 277.683 224.219 277.886C224.219 277.886 267.395 285.864 265.084 288.506C258.205 296.374 241.076 286.867 209.965 287.144C203.555 287.201 191.373 291.26 191.373 291.26Z" fill="#E7EAEE"/>
<path fill-rule="evenodd" clip-rule="evenodd" d="M128.443 278.129C127.611 278.134 126.943 278.136 126.394 278.136L125.451 278.138C112.026 278.201 102.234 279.612 96.0337 282.41L95.9368 282.459C94.4887 283.293 93.9338 284.521 94.8438 285.783C95.4323 286.598 96.6643 287.368 98.7437 288.305L100.511 289.095C102.717 290.072 104.025 290.601 105.989 291.292L106.202 291.367C111.868 293.346 118.155 294.697 125.588 295.266C130.87 295.67 136.252 295.809 142.152 295.727L144.218 295.69C148.097 295.611 151.402 295.474 157.44 295.15L167.876 294.572C177.821 294.034 183.888 293.819 191.051 293.813L191.373 293.813C204.192 293.813 214.664 294.788 226.279 296.69L227.287 296.858C229.037 297.162 238.663 298.858 241.321 299.24L241.413 299.253C246.051 299.906 249.483 300.036 252.654 299.577L253.54 299.447C267.939 297.295 278.344 294.09 283.598 290.544C288.848 287.001 288.373 282.943 282.686 281.482L282.512 281.439C277.789 280.291 268.823 279.653 254.893 279.236L252.035 279.155C251.203 279.132 250.342 279.11 249.437 279.088L237.31 278.808C232.639 278.692 229.776 278.593 227.608 278.461L223.739 278.213L220.71 278.136L217.631 278.066C208.701 277.88 198.035 277.791 185.827 277.783L182.197 277.783C173.689 277.789 164.884 277.83 155.053 277.904L128.443 278.129ZM188.666 279.995C200.851 280.016 211.416 280.122 220.153 280.331L223.641 280.418L227.607 280.673C229.789 280.803 232.647 280.901 237.245 281.015L248.927 281.284C250.304 281.318 251.577 281.351 252.798 281.384L255.658 281.468C268.938 281.881 277.57 282.51 281.99 283.584L282.255 283.651C285.921 284.613 286.041 286.232 282.363 288.714C277.334 292.108 256.689 301.2 242.099 298.1L241.428 298.005C238.345 297.547 228.01 295.229 227.401 295.128L225.903 294.882C214.716 293.081 204.505 292.137 192.196 292.096L190.406 292.096C183.046 292.116 176.706 292.362 165.934 292.958L158.46 293.374C151.23 293.768 147.783 293.909 143.285 293.991L142.922 293.997C120.111 294.882 106.202 289.569 106.202 289.569C104.382 288.919 99.6718 287.282 99.6718 287.282L99.3212 287.122C88.332 283.391 112.325 280.407 125.471 280.346L129.568 280.33L153.374 280.125C164.457 280.039 174.214 279.992 183.653 279.991L188.666 279.995Z" fill="#00160A"/>
<path fill-rule="evenodd" clip-rule="evenodd" d="M239.361 262.194C239.361 262.194 239.303 265.467 240.31 266.982C241.318 268.497 244.127 272.709 246.741 273.818C247.546 274.16 250.619 274.203 252.466 275.282C256.175 277.449 257.001 281.353 252.466 282.18C243.461 283.822 240.31 279.076 240.31 279.076C240.31 279.076 236.601 273.818 232.883 270.331C229.166 266.844 226.204 265.794 226.204 265.794" fill="white"/>
<path d="M270.435 118.294C269.182 118.2 268.445 119.153 268.445 120.306C268.445 124.299 274.967 129.759 279.218 129.759C280.464 129.759 281.483 128.868 281.121 127.505C280.985 126.992 280.671 126.536 280.156 125.975L280.043 125.853C279.464 125.239 278.866 124.69 277.524 123.535L275.469 121.774C274.965 121.338 274.163 120.642 273.921 120.434L273.629 120.187C273.067 119.713 272.633 119.368 272.245 119.094C271.56 118.609 271.028 118.339 270.435 118.294Z" fill="white"/>
<path fill-rule="evenodd" clip-rule="evenodd" d="M228.766 196.574C228.766 196.574 226.296 189.525 219.949 187.617C217.932 187.01 226.754 200.325 218.967 205.292C216.537 206.842 212.215 207.647 206.897 208.404C183.191 211.778 176.044 202.932 161.41 198.613C155.543 196.881 127.002 189.218 122.686 228.249C119.985 252.679 140.444 260.251 158.778 264.133C195.507 271.909 251.788 268.844 269.34 243.214C290.263 212.661 258.105 186.055 253.575 183.242C252.477 182.561 255.624 191.292 255.973 195.708C256.323 200.125 253.575 201.73 253.575 201.73C253.575 201.73 252.491 197.055 242.916 196.253C233.34 195.451 228.766 196.574 228.766 196.574Z" fill="white"/>
<path fill-rule="evenodd" clip-rule="evenodd" d="M87.8766 164.048C88.2122 164.839 88.9928 165.887 90.262 167.311C91.1 168.252 92.6548 167.782 92.8322 166.535C93.2375 163.686 92.3895 161.687 90.1023 161.289C88.312 160.978 87.1559 162.349 87.8766 164.048ZM91.3669 166.327L91.1399 166.07C89.0043 163.633 88.5739 162.526 89.8489 162.747C91.1678 162.976 91.6738 164.17 91.3669 166.327Z" fill="#00160A"/>
<path fill-rule="evenodd" clip-rule="evenodd" d="M95.2621 168.896C94.4301 169.003 93.752 169.979 93.5651 171.058C93.3503 172.299 93.8117 173.471 94.9952 174.133L95.8112 174.586C96.5983 175.017 97.305 175.387 97.9927 175.717L98.3118 175.868C98.8241 176.105 99.2387 176.271 99.554 176.357C99.8767 176.446 100.122 176.471 100.383 176.376C100.941 176.172 101.039 175.644 100.846 175.195L100.785 175.059C100.708 174.878 100.517 174.424 100.408 174.171L100.384 174.116C100.085 173.433 99.7807 172.803 99.4454 172.202C98.2035 169.977 96.8681 168.689 95.2621 168.896ZM98.3056 173.203C98.5067 173.581 98.6984 173.975 98.887 174.392L98.9491 174.532L98.7669 174.447L98.6339 174.384C97.7529 173.96 96.8219 173.459 95.7179 172.842C95.1218 172.508 94.9095 171.969 95.0235 171.311C95.0731 171.024 95.1853 170.748 95.326 170.545C95.369 170.483 95.4115 170.433 95.4496 170.396L95.4911 170.36L95.451 170.364C96.2212 170.265 97.1912 171.2 98.153 172.923L98.3056 173.203Z" fill="#00160A"/>
<path fill-rule="evenodd" clip-rule="evenodd" d="M107.918 181.659C107.786 181.086 100.414 167.651 105.591 168.073C110.767 168.495 109.535 183.721 109.355 183.721C109.142 183.721 108.012 182.07 107.918 181.659Z" fill="white"/>
<path fill-rule="evenodd" clip-rule="evenodd" d="M103.01 170.074C103.01 171.359 103.439 173.061 104.208 175.128C104.439 175.749 104.698 176.394 104.982 177.063L105.156 177.468C105.839 179.042 107.209 181.876 107.197 181.824C107.27 182.144 107.578 182.678 107.983 183.265L108.132 183.479C108.628 184.183 108.875 184.438 109.294 184.46L109.47 184.464C109.972 184.491 109.972 184.663 110.088 183.933L110.13 183.666C110.147 183.556 110.165 183.414 110.183 183.244L110.193 183.138C110.24 182.664 110.281 182.044 110.31 181.367C110.383 179.616 110.362 177.743 110.219 175.995L110.18 175.551C109.717 170.651 108.373 167.557 105.651 167.335C103.912 167.193 103.01 168.282 103.01 170.074ZM105.531 168.81C107.265 168.952 108.379 171.67 108.744 176.116C108.882 177.798 108.902 179.612 108.831 181.305L108.807 181.808L108.78 181.763C108.709 181.64 108.659 181.548 108.644 181.507L108.639 181.493C108.607 181.354 107.122 178.281 106.514 176.878C106.17 176.087 105.863 175.331 105.595 174.612C104.883 172.697 104.49 171.139 104.49 170.074C104.49 169.104 104.739 168.77 105.452 168.805L105.531 168.81Z" fill="#00160A"/>
<path fill-rule="evenodd" clip-rule="evenodd" d="M128.261 208.951C128.261 208.951 129.883 206.698 130.794 205.58C131.705 204.461 132.682 203.525 132.682 203.525C132.682 203.525 110.669 201.334 103.044 195.658C93.0868 188.247 84.1551 175.954 75.1581 173.354C64.4025 170.246 60.4218 177.455 57.3195 178.043C47.8688 179.834 30.5601 184.929 38.4747 200.32C40.9182 205.072 48.8336 207.281 54.41 204.632C60.6345 201.675 68.2999 194.432 76.3617 194.432C85.6844 194.432 87.3076 202.07 99.1419 206.119C106.406 208.604 128.261 208.951 128.261 208.951Z" fill="white"/>
<path fill-rule="evenodd" clip-rule="evenodd" d="M154.473 263.413C154.473 263.413 159.847 269.279 162.074 273.053C164.301 276.827 163.521 278.874 166.612 280.619C171.256 283.239 176.043 282.578 178.173 281.185C180.303 279.791 178.305 276.224 173.84 276.224C172.742 276.224 171.45 273.702 170.825 272.034C170.199 270.366 170.486 266.26 170.486 266.26L154.473 263.413Z" fill="white"/>
<path fill-rule="evenodd" clip-rule="evenodd" d="M254.571 184.719C254.571 184.719 289.587 227.667 240.345 252.877C205.907 270.508 149.326 260.989 149.326 260.989C149.326 260.989 210.921 277.548 251.179 257.584C276.866 244.846 281.947 223.193 269.693 201.148C266.486 195.379 254.571 184.719 254.571 184.719Z" fill="#E7EAEE"/>
<path fill-rule="evenodd" clip-rule="evenodd" d="M252.515 182.577C252.956 181.993 253.644 181.985 254.157 182.304C255.81 183.33 258.801 185.814 261.677 188.727C265.67 192.77 269.235 197.352 271.968 202.291C279.452 215.812 278.784 229.967 269.285 243.837C260.89 256.097 244.464 263.496 221.407 266.811C201.241 269.71 177.894 269.309 158.549 265.213L157.579 265.004C146.508 262.587 138.346 259.517 132.171 254.772C124.072 248.548 120.294 239.84 121.589 228.128C123.549 210.399 130.558 200.547 141.123 197.095C145.051 195.812 149.258 195.497 153.6 195.925C156.576 196.219 159.076 196.773 161.723 197.554L162.193 197.695C165.069 198.566 167.515 199.529 171.289 201.201L174.079 202.451C179.86 205.042 183.205 206.271 187.536 207.144C192.985 208.243 198.985 208.372 206.265 207.377L207.345 207.224C213.287 206.357 216.477 205.571 218.374 204.361C220.595 202.944 221.387 200.648 221.07 197.47C220.925 196.023 220.566 194.498 219.999 192.719L219.843 192.24C219.599 191.513 218.884 189.472 218.752 189.028C218.589 188.479 218.514 188.096 218.541 187.74C218.608 186.847 219.391 186.296 220.267 186.559C224.897 187.952 228.222 191.996 230.264 198.551C230.445 199.134 230.121 199.753 229.538 199.934C228.956 200.115 228.337 199.79 228.156 199.208C226.601 194.218 224.331 190.971 221.358 189.386L221.163 189.285L221.967 191.629L221.989 191.696C224.03 200.399 222.514 207.224 208.787 209.332C208.031 209.448 192.852 210.755 186.55 209.195C177.002 206.832 163.451 198.015 155.328 197.695C147.204 197.374 145.418 198.015 141.809 199.194C132.125 202.358 124.07 212.605 122.445 229.529C121.587 238.465 126.414 247.52 134.329 253.098C154.473 267.294 201.187 267.97 221.093 265.108C243.598 261.873 260.456 254.232 268.429 242.59C277.419 229.462 277.141 216.195 270.036 203.36C267.408 198.612 263.965 194.187 260.106 190.278C258.348 188.498 256.551 186.889 255.092 185.715L254.846 185.52L255.059 186.361L255.743 188.988L255.993 189.972C256.032 190.128 256.069 190.279 256.106 190.429L256.236 190.969C256.697 192.91 256.978 194.416 257.074 195.621C257.337 198.953 256.373 201.374 254.132 202.684C253.605 202.991 252.929 202.814 252.621 202.287C252.314 201.761 252.491 201.085 253.018 200.777C254.44 199.946 255.075 198.353 254.873 195.796C254.788 194.727 254.523 193.311 254.085 191.467L253.961 190.953C253.907 190.734 253.851 190.509 253.792 190.274L252.83 186.557C252.687 185.994 252.579 185.551 252.493 185.166L252.468 185.052C252.321 184.382 252.244 183.902 252.24 183.541C252.235 183.172 252.288 182.878 252.515 182.577Z" fill="#00160A"/>
<path fill-rule="evenodd" clip-rule="evenodd" d="M228.678 195.358L229.466 195.225C234.674 194.366 238.878 194.055 242.09 194.298C245.479 194.555 249.071 195.471 252.867 197.042C253.368 197.249 253.605 197.823 253.398 198.324C253.191 198.825 252.617 199.063 252.116 198.855C248.504 197.36 245.112 196.495 241.942 196.255C238.755 196.014 234.439 196.357 229.01 197.292C228.476 197.384 227.969 197.025 227.877 196.491C227.785 195.957 228.143 195.449 228.678 195.358Z" fill="#00160A"/>
<path fill-rule="evenodd" clip-rule="evenodd" d="M234.954 190.954C237.305 190.472 239.452 190.721 241.367 191.711C243.201 192.658 244.79 193.849 246.13 195.284C246.411 195.584 246.395 196.054 246.094 196.335C245.794 196.615 245.324 196.599 245.044 196.299C243.821 194.99 242.369 193.902 240.685 193.032C239.082 192.204 237.281 191.995 235.254 192.411C234.851 192.494 234.458 192.234 234.376 191.832C234.293 191.43 234.552 191.037 234.954 190.954Z" fill="#00160A"/>
<path fill-rule="evenodd" clip-rule="evenodd" d="M239.707 187.061C239.918 186.708 240.375 186.593 240.727 186.804C242.612 187.932 244.173 189.193 245.407 190.591C246.652 192.002 247.674 193.805 248.479 195.997C248.62 196.382 248.422 196.809 248.037 196.951C247.651 197.092 247.224 196.894 247.083 196.509C246.339 194.482 245.407 192.838 244.292 191.575C243.165 190.298 241.723 189.132 239.964 188.08C239.611 187.87 239.497 187.413 239.707 187.061Z" fill="#00160A"/>
<path fill-rule="evenodd" clip-rule="evenodd" d="M218.164 204.729C218.475 204.285 219.087 204.177 219.531 204.488C219.974 204.799 210.5 218.292 210.5 220.91C210.5 223.749 211.894 225.649 215.609 228.646L217.183 229.898L217.641 230.265C219.944 232.125 221.285 233.43 222.425 235.087C224.018 237.404 224.768 239.99 224.577 243.056C224.342 246.839 223.2 249.453 220.939 252.47L220.734 252.74C220.48 253.068 219.36 254.498 219.054 254.916C217.96 256.41 217.445 257.535 217.351 258.856C216.938 264.676 219.677 271.703 225.623 279.912C225.941 280.351 225.843 280.965 225.404 281.283C224.965 281.601 224.352 281.502 224.034 281.064C217.842 272.515 214.942 265.075 215.393 258.717C215.513 257.031 216.128 255.633 217.324 253.959L217.47 253.757C217.822 253.276 219.106 251.638 219.214 251.496C221.369 248.67 224.483 244.535 221.989 236.667C220.734 232.705 208.812 229.898 208.42 221.465C208.328 219.478 211.64 214.041 218.164 204.729Z" fill="#00160A"/>
<path d="M221.772 245.527L220.402 245.542C212.295 245.646 207.364 246.054 205.841 246.708L205.785 246.732C203.545 247.76 201.783 249.152 200.436 250.822C199.39 252.119 198.651 253.508 198.168 254.896C198.024 255.309 197.912 255.696 197.829 256.047L197.773 256.297L200.118 259.302C200.141 259.332 200.163 259.363 200.182 259.395L200.205 259.427L200.279 259.535C200.785 260.27 201.36 260.988 202.1 261.825L202.441 262.205C203.049 262.868 204.983 264.953 205.64 265.703C207.046 267.308 208.23 268.853 209.364 270.626C211.092 273.329 212.617 276.45 213.985 280.23L214.084 280.506L214.182 280.79C214.302 281.14 214.419 281.499 214.546 281.905L215.124 283.8C215.977 286.593 216.573 287.876 217.518 288.653L217.677 288.781C218.915 289.745 220.069 289.983 223.278 290.085L224.216 290.111C228.482 290.228 230.707 286.84 228.266 284.379C227.501 283.607 224.976 283.008 220.846 282.758C220.305 282.725 220.814 281.331 220.846 280.79C220.879 280.249 221.344 279.837 221.885 279.87C222.364 279.899 222.823 279.932 223.264 279.97C217.795 272.043 215.125 265.289 215.55 259.302C215.669 257.616 215.488 256.956 216.684 255.281L216.913 254.968C217.349 254.387 218.474 252.951 218.575 252.818C219.496 251.61 220.138 250.62 220.652 249.54L220.754 249.323L220.788 249.245L220.845 249.119C221.116 248.499 221.402 247.431 221.694 245.935L221.772 245.527Z" fill="white"/>
<path fill-rule="evenodd" clip-rule="evenodd" d="M198.724 255.158C199.497 257.414 200.846 258.791 202.724 260.922L202.988 261.218C203.457 261.734 205.584 264.023 206.279 264.818C207.685 266.423 208.869 267.967 210.003 269.741C211.732 272.444 213.256 275.565 214.625 279.345C214.691 279.527 214.756 279.713 214.822 279.905L215 280.441C215.041 280.564 215.081 280.69 215.122 280.82L215.356 281.574C215.476 281.966 215.718 282.768 215.763 282.914L215.892 283.332C216.678 285.838 217.261 287.031 218.157 287.768L218.316 287.895C219.502 288.819 220.61 289.076 223.519 289.186L224.855 289.226C229.121 289.343 231.346 285.955 228.905 283.494C228.14 282.722 225.615 282.123 221.486 281.872C220.945 281.84 220.533 281.374 220.566 280.833C220.599 280.292 221.064 279.881 221.605 279.913L222.12 279.947C226.432 280.245 229.113 280.915 230.299 282.112C234.12 285.965 230.718 291.241 224.976 291.191L224.286 291.174C220.187 291.064 218.717 290.77 216.911 289.284C215.622 288.225 214.922 286.8 214.022 283.929L213.44 282.018L213.253 281.417C213.173 281.166 213.097 280.933 213.021 280.707L212.964 280.539C212.902 280.359 212.841 280.184 212.779 280.013C211.459 276.367 209.998 273.377 208.35 270.798C207.355 269.244 206.32 267.874 205.109 266.464L204.803 266.111C204.094 265.302 201.786 262.82 201.465 262.461C199.372 260.121 198.122 258.231 197.229 255.741L197.138 255.481C195.403 250.417 193.174 248.69 190.263 249.769C189.755 249.957 184.067 252.686 189.576 249.023C195.084 245.36 198.724 255.158 198.724 255.158Z" fill="#00160A"/>
<path fill-rule="evenodd" clip-rule="evenodd" d="M232.97 220.294C231.9 220.294 230.366 217.223 230.366 215.722C230.366 214.221 234.206 214.729 234.206 214.729C234.206 214.729 238.238 215.269 237.682 216.779C237.126 218.288 233.564 220.294 232.97 220.294Z" fill="#FFB61D"/>
<ellipse cx="226.648" cy="209.244" rx="2.11782" ry="3.95647" fill="#00160A"/>
<ellipse cx="246.902" cy="210.139" rx="2.32099" ry="3.89449" fill="#00160A"/>
<path fill-rule="evenodd" clip-rule="evenodd" d="M245.388 216.677C247.156 215.918 249.112 215.774 251.236 216.238C253.314 216.692 259.572 220.608 259.353 220.956C259.134 221.303 252.797 218.101 250.919 217.691C249.088 217.291 247.446 217.412 245.975 218.044C245.597 218.206 245.16 218.031 244.998 217.654C244.836 217.277 245.01 216.84 245.388 216.677Z" fill="#00160A"/>
<path fill-rule="evenodd" clip-rule="evenodd" d="M246.514 219.247C248.37 219.346 248.853 218.922 251.395 220.573C253.938 222.223 255.837 226.109 255.49 226.328C255.142 226.546 253.113 223.08 250.785 221.334C248.457 219.589 245.71 220.361 245.732 219.951C245.753 219.563 246.066 219.261 246.446 219.247L246.514 219.247Z" fill="#00160A"/>
<path fill-rule="evenodd" clip-rule="evenodd" d="M233.626 221.905C233.11 225.109 233.24 227.149 233.433 229.426C233.626 231.702 235.446 234.979 235.628 236.349C235.811 237.719 232.186 232.07 231.967 229.675C231.748 227.28 230.194 220.771 232.908 221.074C232.908 221.074 233.683 221.549 233.626 221.905Z" fill="#00160A"/>
<path fill-rule="evenodd" clip-rule="evenodd" d="M220.121 217.069C221.769 217.069 222.436 217.11 224.041 217.426C224.444 217.505 224.706 217.896 224.627 218.299C224.548 218.702 224.157 218.964 223.754 218.885C223.183 218.772 222.088 218.294 220.271 218.314C217.789 218.34 215.628 219.718 215.52 219.49C215.344 219.118 218.473 217.069 220.121 217.069Z" fill="#00160A"/>
<path fill-rule="evenodd" clip-rule="evenodd" d="M222.816 213.877C223.216 213.971 223.463 214.371 223.369 214.771C223.275 215.171 222.874 215.418 222.475 215.324C218.905 214.482 216.04 214.505 214.02 214.426C212.033 214.348 207.575 214.659 207.445 214.27C207.314 213.881 219.161 213.015 222.816 213.877Z" fill="#00160A"/>
<path fill-rule="evenodd" clip-rule="evenodd" d="M239.378 261.213C239.92 261.223 240.351 261.67 240.342 262.212C240.307 264.213 240.587 265.626 241.128 266.438C243.396 269.849 245.32 272.149 247.124 272.915C247.173 272.935 247.29 272.965 247.473 273.001L247.744 273.049C247.946 273.083 248.803 273.213 248.953 273.236C249.517 273.326 249.982 273.411 250.436 273.514C251.437 273.741 252.271 274.031 252.961 274.435C255.034 275.646 256.403 277.417 256.536 279.159C256.69 281.172 255.227 282.674 252.642 283.146C246.293 284.304 241.849 283.169 239.509 279.642C237.072 276.188 234.639 273.323 232.212 271.047C229.824 268.807 227.704 267.367 225.876 266.719C225.365 266.538 225.098 265.977 225.279 265.466C225.46 264.955 226.021 264.688 226.532 264.869C228.653 265.621 230.986 267.206 233.555 269.615C236.085 271.988 238.603 274.953 241.128 278.533C242.973 281.312 246.632 282.247 252.289 281.215C253.967 280.909 254.648 280.21 254.579 279.309C254.501 278.294 253.536 277.044 251.97 276.129C251.481 275.843 250.825 275.614 250.002 275.428C249.647 275.348 249.277 275.278 248.838 275.206L247.42 274.985L247.146 274.937C246.806 274.873 246.564 274.809 246.357 274.721C245.008 274.149 243.622 272.917 242.171 271.182C241.214 270.037 240.479 269.007 239.493 267.525C238.691 266.319 238.338 264.54 238.38 262.177C238.389 261.635 238.836 261.204 239.378 261.213Z" fill="#00160A"/>
<path fill-rule="evenodd" clip-rule="evenodd" d="M247.305 279.318C247.402 278.994 247.743 278.809 248.068 278.906C249.078 279.208 249.793 279.541 250.23 279.938C250.643 280.314 251.052 280.891 251.471 281.674C251.631 281.973 251.518 282.344 251.219 282.504C250.921 282.664 250.549 282.551 250.389 282.253C250.031 281.582 249.698 281.112 249.405 280.846C249.135 280.6 248.566 280.335 247.717 280.081C247.392 279.984 247.208 279.643 247.305 279.318Z" fill="#00160A"/>
<path fill-rule="evenodd" clip-rule="evenodd" d="M250.505 278.02C250.612 277.699 250.959 277.525 251.28 277.632C252.146 277.92 252.789 278.248 253.216 278.636C253.64 279.021 254.047 279.643 254.458 280.511C254.603 280.817 254.473 281.183 254.167 281.328C253.861 281.473 253.495 281.343 253.35 281.037C253.001 280.301 252.674 279.801 252.391 279.544C252.112 279.29 251.61 279.034 250.893 278.796C250.572 278.689 250.398 278.341 250.505 278.02Z" fill="#00160A"/>
<path fill-rule="evenodd" clip-rule="evenodd" d="M224.247 286.472C224.354 286.151 224.701 285.977 225.022 286.084C225.888 286.372 226.531 286.7 226.958 287.089C227.382 287.474 227.789 288.096 228.2 288.963C228.346 289.269 228.215 289.635 227.909 289.78C227.603 289.925 227.237 289.795 227.092 289.489C226.743 288.754 226.416 288.253 226.133 287.997C225.854 287.743 225.352 287.487 224.635 287.248C224.314 287.141 224.14 286.794 224.247 286.472Z" fill="#00160A"/>
<path fill-rule="evenodd" clip-rule="evenodd" d="M226.031 284.391C226.138 284.069 226.485 283.895 226.807 284.002C227.672 284.29 228.315 284.619 228.743 285.007C229.166 285.392 229.573 286.014 229.985 286.881C230.13 287.187 230 287.553 229.694 287.698C229.388 287.844 229.022 287.713 228.877 287.407C228.527 286.672 228.2 286.172 227.918 285.915C227.638 285.661 227.137 285.405 226.419 285.166C226.098 285.059 225.924 284.712 226.031 284.391Z" fill="#00160A"/>
<path fill-rule="evenodd" clip-rule="evenodd" d="M153.81 262.689C154.21 262.323 160.984 270.093 162.437 272.555C162.905 273.348 163.275 274.112 163.603 274.929C163.704 275.181 163.799 275.43 163.901 275.712L164.286 276.8C164.857 278.388 165.807 279.037 167.094 279.764C170.872 281.896 175.334 281.87 177.636 280.364C178.913 279.528 177.188 277.206 173.84 277.206C172.275 277.206 170.929 275.108 169.906 272.379C169.427 271.1 169.307 269.059 169.507 266.192C169.544 265.651 170.013 265.243 170.554 265.281C171.094 265.318 171.502 265.787 171.465 266.328C171.283 268.935 171.389 270.744 171.744 271.69L171.847 271.957C172.536 273.685 173.55 275.243 173.84 275.243C176.199 275.243 178.195 276.152 179.268 277.597C180.403 279.126 180.253 280.997 178.711 282.006C175.777 283.926 170.53 283.956 166.13 281.473C164.43 280.514 163.685 279.52 162.987 277.642L162.613 276.588C162.487 276.236 162.38 275.949 162.265 275.662C161.971 274.932 161.644 274.256 161.229 273.552C159.785 271.105 157.29 267.941 153.75 264.076C153.383 263.676 153.411 263.056 153.81 262.689Z" fill="#00160A"/>
<path fill-rule="evenodd" clip-rule="evenodd" d="M171.983 279.318C172.08 278.994 172.422 278.809 172.746 278.906C173.757 279.208 174.472 279.541 174.908 279.938C175.322 280.314 175.73 280.891 176.149 281.674C176.309 281.973 176.196 282.344 175.898 282.504C175.599 282.664 175.227 282.551 175.068 282.253C174.709 281.582 174.376 281.112 174.083 280.846C173.813 280.6 173.245 280.335 172.395 280.081C172.071 279.984 171.886 279.643 171.983 279.318Z" fill="#00160A"/>
<path fill-rule="evenodd" clip-rule="evenodd" d="M174.291 278.317C174.398 277.996 174.745 277.822 175.066 277.929C175.932 278.217 176.575 278.545 177.002 278.934C177.426 279.319 177.833 279.941 178.244 280.808C178.39 281.114 178.259 281.48 177.953 281.625C177.647 281.77 177.281 281.64 177.136 281.334C176.787 280.599 176.46 280.099 176.177 279.842C175.898 279.588 175.397 279.332 174.679 279.093C174.358 278.986 174.184 278.639 174.291 278.317Z" fill="#00160A"/>
<path fill-rule="evenodd" clip-rule="evenodd" d="M61.1621 174.518L60.9548 174.661C60.2981 175.119 59.0335 176.042 58.755 176.238L58.7264 176.258C58.0049 176.755 57.5176 177.007 57.1368 177.079C50.4082 178.354 44.5972 179.781 40.6194 182.792C35.0573 187.003 32.0528 194.367 35.8638 201.778C38.5757 207.052 48.8278 208.37 54.8311 205.519C55.8582 205.031 56.9523 204.42 58.2722 203.612L58.8209 203.273C59.0108 203.155 59.2061 203.033 59.414 202.901L60.8513 201.984L62.4227 200.978L62.9979 200.614C68.7759 196.984 72.4468 195.414 76.3617 195.414C79.5978 195.414 81.8751 196.302 84.7359 198.401L84.9516 198.561C85.4484 198.932 88.6723 201.504 89.7609 202.296C92.5815 204.35 95.3665 205.864 98.8242 207.048L99.1283 207.149C104.189 208.786 113.868 209.704 128.246 209.933C128.567 209.938 128.87 209.785 129.058 209.525L129.618 208.751C130.423 207.646 131.07 206.795 131.555 206.2C132.137 205.484 132.74 204.829 133.361 204.233C133.966 203.653 133.613 202.631 132.78 202.548L131.915 202.46C117.881 201 108.434 198.447 103.63 194.871L103.28 194.608C100.718 192.671 98.2706 190.485 94.5407 186.906L89.7206 182.276C87.8149 180.46 87.1451 179.869 85.81 178.735L85.6009 178.558C82.4796 175.911 79.7714 174.096 77.1445 173.014C76.568 172.776 75.9971 172.575 75.4306 172.411C69.5809 170.721 65.3814 171.66 61.1621 174.518ZM74.8857 174.297C75.3817 174.44 75.885 174.618 76.3966 174.828C78.7244 175.788 81.1884 177.419 84.0445 179.813L85.1622 180.763C86.3925 181.821 87.2442 182.613 90.0796 185.337L93.442 188.572C97.2499 192.217 99.7441 194.425 102.458 196.445L102.617 196.563C107.547 200.144 116.503 202.661 129.531 204.173L130.596 204.293L130.581 204.309C130.458 204.451 130.336 204.594 130.215 204.74L129.947 205.066L129.742 205.323C129.353 205.815 128.891 206.425 128.354 207.155L127.765 207.961L126.572 207.939C113.048 207.665 103.986 206.739 99.4596 205.19C96.326 204.118 93.7886 202.763 91.2241 200.932L90.9161 200.71C89.8713 199.949 86.6601 197.387 86.1262 196.989C82.8505 194.541 80.1527 193.451 76.3617 193.451C71.967 193.451 68.038 195.13 61.9637 198.946L61.0301 199.538L59.0283 200.821C58.4342 201.2 57.9646 201.496 57.5081 201.778L57.0011 202.088C55.8461 202.788 54.8815 203.322 53.9889 203.746C48.8998 206.163 41.5495 204.154 39.3474 199.871C35.9793 193.322 37.1644 188.508 41.9775 184.864C45.6544 182.08 51.0476 180.23 57.5021 179.007C58.1777 178.879 58.8288 178.556 59.6783 177.984L59.8399 177.874C60.0917 177.701 61.619 176.585 62.2019 176.184L62.2627 176.143C66.0311 173.591 69.6448 172.782 74.8857 174.297Z" fill="#00160A"/>
<path fill-rule="evenodd" clip-rule="evenodd" d="M309.913 200.968L309.821 201.193L309.634 201.658C307.221 207.781 305.09 217.164 303.229 229.827L303.121 230.571L303.115 230.534C302.394 226.288 301.485 222.989 300.377 220.625C298.453 216.519 295.713 214.969 292.474 216.442C281.963 221.224 282.59 240.668 293.721 274.837C293.869 275.291 294.293 275.599 294.771 275.599H306.855C307.179 275.599 307.487 275.456 307.697 275.209C322.787 257.41 329.545 245.445 327.893 238.871L327.839 238.662C326.336 233.007 322.577 231.795 317.216 234.834L317.025 234.943L317.292 234.328C326.592 212.783 328.299 199.517 322.015 194.347C317.401 190.551 313.191 193.062 309.913 200.968ZM320.792 195.199C326.324 199.751 324.358 214.656 313.864 237.757C313.384 238.813 325.752 230.534 325.752 239.409L325.791 239.577C326.982 245.04 320.836 256.067 307.287 272.268L306.342 273.391L294.771 274.215C294.771 274.215 279.17 222.705 293.388 218.452C297.479 217.229 300.498 223.17 301.995 239.242C302.118 240.558 304.029 240.586 304.19 239.274L304.321 238.215C306.472 221.026 309.024 208.878 311.953 201.814L312.12 201.416C314.856 195.011 317.701 192.656 320.792 195.199Z" fill="#00160A"/>
<path d="M320.612 196.052C326.144 200.604 323.903 214.54 313.408 237.641C312.929 238.698 314.194 239.684 315.102 238.961L315.47 238.671C321.432 234.03 324.489 234.385 325.752 239.409L325.791 239.577C326.982 245.04 320.836 256.067 307.287 272.268L306.342 273.391H295.573L295.187 272.187C285.034 240.367 284.633 222.435 293.388 218.452C297.426 216.615 300.498 223.17 301.995 239.242C302.118 240.558 304.029 240.586 304.19 239.274L304.321 238.215C306.472 221.026 309.024 208.878 311.953 201.814L312.12 201.416C314.856 195.011 317.521 193.509 320.612 196.052Z" fill="white"/>
<circle cx="291.843" cy="232.529" r="3.92542" fill="#E7EAEE"/>
<circle cx="316.377" cy="207.014" r="3.92542" fill="#E7EAEE"/>
<circle cx="318.34" cy="244.796" r="3.92542" fill="#E7EAEE"/>
<path fill-rule="evenodd" clip-rule="evenodd" d="M110.282 278.326C103.353 278.435 79.5253 280.201 79.1137 279.317C78.5871 278.186 104.571 276.699 110.235 276.609L112.01 276.585C117.159 276.529 110.282 278.326 110.282 278.326ZM212.206 276.029C212.816 276.013 213.323 276.494 213.339 277.104C213.355 277.713 212.874 278.22 212.265 278.236L202.403 278.48C196.265 278.621 189.15 278.767 178.637 278.974C178.027 278.986 177.523 278.502 177.511 277.892C177.499 277.282 177.984 276.778 178.593 276.766L197.209 276.387C202.861 276.265 207.402 276.156 212.206 276.029ZM237.643 275.515C238.253 275.505 238.755 275.991 238.765 276.601C238.774 277.211 238.288 277.713 237.678 277.722L235.091 277.754L227.176 277.809C225.518 277.826 224.221 277.848 222.692 277.886C222.082 277.901 221.576 277.419 221.561 276.809C221.546 276.2 222.028 275.693 222.638 275.678L224.585 275.637C225.859 275.613 227.155 275.599 228.876 275.586L235.458 275.543C236.223 275.535 236.916 275.526 237.643 275.515ZM309.194 273.391C309.194 273.391 311.176 273.049 325.647 274.132C326.255 274.178 326.711 274.707 326.666 275.316C326.62 275.924 319.464 275.616 309.681 275.599L306.99 275.604C299.807 275.636 293.134 275.83 282.058 276.286L268.079 276.876C262.113 277.121 258.554 277.24 254.226 277.342C253.617 277.356 253.111 276.874 253.096 276.264C253.082 275.654 253.565 275.149 254.174 275.134L257.65 275.044C261.784 274.924 266.032 274.758 273.564 274.436L281.551 274.097C294.039 273.58 300.984 273.391 309.194 273.391Z" fill="#00160A"/>
<path d="M275.741 114.468L275.994 114.003C277.974 110.417 279.699 108.637 281.71 109.218C281.873 109.265 282.033 109.329 282.189 109.411C283.422 110.049 283.717 111.237 283.372 112.858L283.349 112.958L283.407 112.875C283.991 112.046 284.548 111.405 285.125 110.93L285.249 110.83C286.533 109.831 287.895 109.738 289.128 110.779C291.098 112.441 290.874 115.23 289.266 116.946L289.177 117.038C288.954 117.264 288.819 117.753 288.669 118.904L288.539 119.912C288.384 121.076 288.279 121.586 288.033 122.374C287.57 123.862 286.81 125.104 285.627 126.118C284.14 127.392 281.629 127.215 278.094 125.762C277.714 125.606 277.533 125.171 277.689 124.791C277.845 124.412 272.73 119.9 272.575 120.098L272.525 120.156C272.241 120.452 271.77 120.461 271.474 120.177L270.755 119.484C270.323 119.067 270.538 118.336 271.128 118.22C272.209 118.008 273.047 117.774 273.636 117.524C274.131 117.314 274.401 117.113 274.465 116.983C274.465 116.983 275.54 114.844 275.741 114.468Z" fill="white"/>
<path fill-rule="evenodd" clip-rule="evenodd" d="M270.435 118.294C269.182 118.2 268.445 119.153 268.445 120.306C268.445 124.299 274.967 129.759 279.218 129.759C280.464 129.759 281.483 128.868 281.121 127.505C280.985 126.992 280.671 126.536 280.156 125.975L280.043 125.853C279.464 125.239 278.866 124.69 277.524 123.535L275.469 121.774C274.965 121.338 274.163 120.642 273.921 120.434L273.629 120.187C273.067 119.713 272.633 119.368 272.245 119.094C271.56 118.609 271.028 118.339 270.435 118.294ZM269.932 120.306C269.932 118.745 272.168 120.903 274.86 123.213L276.648 124.743C278.837 126.63 281.509 128.593 280.156 128.737C275.869 129.194 269.932 123.509 269.932 120.306Z" fill="#00160A"/>
<path fill-rule="evenodd" clip-rule="evenodd" d="M270.778 107.831C271.086 107.559 272.62 106.487 271.828 107.894C271.035 109.302 266.452 111.087 271.035 118.203C271.209 118.474 270.997 119.017 270.615 119.167C270.233 119.317 269.801 119.129 269.651 118.746C268.492 115.795 267.956 113.659 268.059 112.27C268.168 110.799 269.092 109.326 270.778 107.831Z" fill="#00160A"/>
<path fill-rule="evenodd" clip-rule="evenodd" d="M265.053 110.309C265.133 109.906 265.928 108.91 265.928 109.726C265.928 110.542 264.76 112.612 266.403 114.945C268.047 117.278 270.874 118.86 270.632 119.192C270.39 119.524 269.925 119.597 269.593 119.355C267.214 117.622 265.77 116.266 265.226 115.203C264.658 114.094 264.619 112.472 265.053 110.309Z" fill="#00160A"/>
<path fill-rule="evenodd" clip-rule="evenodd" d="M275.741 114.468L275.994 114.003C277.974 110.417 279.699 108.637 281.71 109.218C281.873 109.265 282.033 109.329 282.189 109.411C283.422 110.049 283.717 111.237 283.372 112.858L283.349 112.958L283.407 112.875C283.991 112.046 284.548 111.405 285.125 110.93L285.249 110.83C286.533 109.831 287.895 109.738 289.128 110.779C291.098 112.441 290.874 115.23 289.266 116.946L289.177 117.038C288.954 117.264 288.819 117.753 288.669 118.904L288.539 119.912C288.384 121.076 288.279 121.586 288.033 122.374C287.57 123.862 286.81 125.104 285.627 126.118C284.14 127.392 281.629 127.215 278.094 125.762C277.714 125.606 277.533 125.171 277.689 124.791C277.845 124.412 283.198 127.522 285.249 125.104C287.301 122.686 287.522 117.684 288.114 116.168L288.257 115.903C289.391 114.757 289.429 112.979 288.169 111.915C287.519 111.367 286.93 111.407 286.163 112.004C285.464 112.547 284.736 113.481 283.896 114.84L283.651 115.245C283.238 115.942 282.41 117.387 282.3 117.57L282.149 117.82C281.64 118.653 280.991 119.174 280.894 119.196C280.798 119.218 280.661 119.141 280.627 118.437C280.616 118.206 280.675 117.973 280.798 117.656L280.847 117.533C280.996 117.17 281.818 115.463 281.875 115.341C282.123 114.804 282.324 114.335 282.49 113.893C283.158 112.113 282.164 111.072 281.505 110.731C281.434 110.694 281.365 110.666 281.297 110.647C280.276 110.352 278.855 111.868 277.196 114.905L276.836 115.577C276.57 116.084 276.31 116.606 275.799 117.642C275.427 118.395 274.435 118.935 272.78 119.37L272.69 119.393L272.698 119.415C272.77 119.643 272.73 119.9 272.575 120.098L272.525 120.156C272.241 120.452 271.77 120.461 271.474 120.177L270.755 119.484C270.323 119.067 270.538 118.336 271.128 118.22C272.209 118.008 273.047 117.774 273.636 117.524C274.131 117.314 274.401 117.113 274.465 116.983L275.161 115.585C275.374 115.162 275.54 114.844 275.741 114.468Z" fill="#00160A"/>
<ellipse cx="285.497" cy="116.742" rx="1.68933" ry="1.385" fill="#FFB61D"/>
<ellipse cx="280.671" cy="112.881" rx="1.68933" ry="1.385" fill="#FFB61D"/>
<path fill-rule="evenodd" clip-rule="evenodd" d="M270.286 122.595C270.05 122.386 269.755 122.009 269.496 121.601L269.161 121.749L268.766 121.919C268.686 121.955 268.635 121.984 268.619 122.007C268.573 122.092 268.468 122.124 268.383 122.079C268.299 122.034 268.265 121.929 268.311 121.844C268.342 121.763 268.564 121.511 268.977 121.264C269.052 121.219 269.134 121.178 269.223 121.137C269.071 120.852 268.951 120.578 268.895 120.357C268.81 120.032 268.878 119.802 268.99 119.721C269.099 119.641 269.373 119.626 269.791 119.972C269.868 120.031 269.88 120.14 269.822 120.216C269.763 120.292 269.654 120.306 269.578 120.247C269.498 120.189 269.418 120.156 269.353 120.132L269.385 120.256C269.397 120.301 269.412 120.347 269.434 120.392C269.508 120.556 269.603 120.743 269.71 120.935C270.037 120.811 270.409 120.7 270.81 120.646C271.006 120.619 271.205 120.614 271.412 120.616C271.531 120.608 271.635 120.699 271.642 120.818C271.65 120.937 271.56 121.04 271.441 121.048C270.958 121.095 270.511 121.217 270.117 121.354L269.988 121.4C270.201 121.734 270.43 122.036 270.625 122.207C270.732 122.301 270.742 122.464 270.649 122.571C270.554 122.679 270.392 122.689 270.286 122.595Z" fill="#FFB61D"/>
<path fill-rule="evenodd" clip-rule="evenodd" d="M156.783 255.387C155.562 261.138 149.671 262.769 149.735 267.399C149.768 269.794 150.429 271.781 150.972 273.309C152.076 276.415 154.953 279.615 156.285 282.577C157.423 285.108 163.136 283.396 163.592 287.33C163.841 289.474 159.799 290.708 158.7 290.792C157.121 290.911 155.12 290.369 152.696 289.165C149.749 287.733 147.383 286.605 145.67 284.541C145.336 284.139 145.126 283.003 144.757 281.216C144.353 279.262 142.972 274.292 139.364 266.269C138.849 265.123 136.876 260.433 134.683 255.636C132.873 251.678 140.354 243.749 143.671 244.026C151.819 244.707 157.645 251.325 156.783 255.387Z" fill="white"/>
<path fill-rule="evenodd" clip-rule="evenodd" d="M151.07 289.25C149.041 288.043 147.373 286.651 146.065 285.075C145.731 284.673 145.485 283.19 145.116 281.404C144.922 280.467 137.88 263.573 135.557 257.214C135.124 256.027 136.176 256.858 136.423 257.214C137.771 259.156 146.065 271.966 150.028 283.834" fill="#E7EAEE"/>
<path fill-rule="evenodd" clip-rule="evenodd" d="M152.651 288.745L152.952 288.894C155.231 290.026 157.071 290.525 158.445 290.421C159.92 290.309 162.328 288.979 162.434 287.846C162.605 286.028 162.113 285.513 159.68 284.594C158.975 284.327 157.068 284.385 154.128 284.83C153.592 284.912 153.092 284.543 153.011 284.007C152.93 283.471 153.298 282.971 153.834 282.89L154.317 282.819C157.324 282.388 159.295 282.35 160.374 282.758L160.694 282.881C163.613 284.036 164.652 285.23 164.388 288.03C164.165 290.403 160.908 292.203 158.593 292.378C156.866 292.509 154.785 291.964 152.333 290.777L152.087 290.656C149.019 289.165 146.577 287.334 144.77 285.157C144.532 284.87 144.379 284.488 144.223 283.902L144.187 283.763C144.129 283.535 144.071 283.283 144.004 282.967L143.615 281.058L143.555 280.779C142.915 277.913 141.061 272.623 138.252 266.338L137.824 265.393C137.56 264.818 133.793 258.713 133.512 257.282C132.461 251.933 136.759 249.284 136.759 249.284C136.759 249.284 134.53 253.988 135.158 256.301C135.647 258.099 139.769 264.285 141.235 269.028C142.753 273.937 144.341 279.174 146.662 283.456C148.413 286.688 149.667 288.153 152.651 288.745Z" fill="#00160A"/>
<path fill-rule="evenodd" clip-rule="evenodd" d="M157.41 287.646C157.507 287.321 157.849 287.137 158.173 287.233C159.184 287.535 159.899 287.869 160.335 288.265C160.749 288.641 161.157 289.218 161.576 290.002C161.736 290.3 161.623 290.672 161.325 290.832C161.026 290.991 160.654 290.879 160.495 290.58C160.136 289.91 159.803 289.439 159.51 289.173C159.24 288.928 158.672 288.663 157.822 288.409C157.498 288.312 157.313 287.97 157.41 287.646Z" fill="#00160A"/>
<path fill-rule="evenodd" clip-rule="evenodd" d="M159.123 285.753C159.23 285.431 159.577 285.257 159.899 285.364C160.764 285.652 161.407 285.981 161.834 286.369C162.258 286.754 162.665 287.376 163.077 288.243C163.222 288.549 163.092 288.915 162.785 289.06C162.479 289.206 162.114 289.075 161.968 288.769C161.619 288.034 161.292 287.534 161.009 287.277C160.73 287.023 160.229 286.767 159.511 286.528C159.19 286.421 159.016 286.074 159.123 285.753Z" fill="#00160A"/>
<path fill-rule="evenodd" clip-rule="evenodd" d="M152.982 246.223C155.14 247.091 159.383 251.903 158.727 254.605C158.048 257.399 157.053 258.515 155.468 260.368L155.303 260.559C154.819 261.109 152.824 263.136 152.745 263.221L152.555 263.43C150.777 265.436 150.051 267.655 151.497 271.745C152.557 274.74 154.3 278.145 156.706 281.392C157.023 281.82 157.812 283.079 157.384 283.396C156.956 283.713 155.942 282.688 155.625 282.259C153.11 278.866 151.287 275.576 150.16 272.388C148.456 267.572 148.867 265.587 151.218 262.994L151.368 262.833C151.62 262.57 153.349 260.812 153.807 260.301L153.853 260.25C155.33 258.569 156.304 256.789 156.929 254.216C157.361 252.438 155.545 249.281 151.708 246.718C149.161 245.017 150.824 245.355 152.982 246.223Z" fill="#00160A"/>
</svg>
