<svg width="362" height="362" viewBox="0 0 362 362" fill="none" xmlns="http://www.w3.org/2000/svg">
<rect width="362" height="362" fill="white"/>
<path fill-rule="evenodd" clip-rule="evenodd" d="M33.5513 125.139C48.1922 149.493 91.8786 179.087 100.484 179.741C127.705 181.808 166.458 186.383 201.069 187.611L202.117 187.647C214.345 188.058 230.944 188.099 251.913 187.769C256.05 184.064 259.91 181.428 263.493 179.862L263.776 179.741C265.694 178.929 270.639 173.763 283.092 168.459C286.519 167 296.65 170.261 303.734 167.664L304.08 167.535C309.802 165.35 319.238 159.679 332.387 150.523C332.307 150.309 332.226 150.096 332.142 149.883C332.453 150.403 332.759 150.926 333.061 151.45C333.362 151.973 356.677 207.647 313.924 250.766C284.771 280.168 207.273 307.869 139.957 292.034C-31.2599 255.036 26.3927 113.232 33.5513 125.139Z" fill="black"/>
<path fill-rule="evenodd" clip-rule="evenodd" d="M321.034 210.89C321.991 209.139 322.761 207.331 324.439 206.187C324.641 206.049 325.045 205.876 325.123 205.954C325.339 206.168 325.552 206.505 325.554 206.795C325.576 209.503 323.814 211.525 322.756 213.812C322.198 215.019 321.402 216.116 320.703 217.256C320.563 217.484 320.391 217.697 320.203 217.887C320.027 218.065 319.661 218.358 319.636 218.335C319.342 218.048 318.969 217.746 318.871 217.38C318.772 217.014 318.914 216.556 319.031 216.163C319.449 214.756 319.88 213.352 320.353 211.963C320.48 211.592 320.772 211.277 321.034 210.89" fill="white"/>
<path fill-rule="evenodd" clip-rule="evenodd" d="M320.754 206.492C320.618 207.376 320.616 208.234 320.42 209.046C320.127 210.263 319.763 211.472 319.31 212.638C318.782 213.994 318.165 215.32 317.512 216.621C317.081 217.479 316.546 218.289 316 219.08C315.808 219.358 315.442 219.516 315.159 219.733C314.554 220.195 314.403 219.459 314.407 219.294C314.438 217.798 314.36 216.305 314.811 214.821C315.14 213.738 315.113 212.55 315.302 211.418C315.43 210.656 315.674 209.914 315.839 209.157C316.086 208.021 316.295 206.877 316.544 205.742C316.969 203.809 317.418 201.894 319.332 200.777C319.716 200.554 319.893 200.555 320.279 200.806C321.149 201.372 321.516 202.026 321.287 203.085C321.048 204.188 320.956 205.324 320.754 206.492" fill="white"/>
<path fill-rule="evenodd" clip-rule="evenodd" d="M277.038 242.219C275.373 239.338 273.704 236.427 271.006 234.382C269.891 233.536 268.513 232.913 267.159 232.545C265.916 232.206 264.585 232.305 263.226 232.548C261.565 232.845 259.961 233.206 258.431 233.886C256.253 234.853 254.414 236.31 252.903 238.123C250.701 240.765 248.903 243.549 250.256 247.279C250.763 248.679 252.551 249.789 254.054 249.546C254.962 249.4 255.915 249.512 256.846 249.544C257.634 249.571 258.424 249.725 259.207 249.688C260.561 249.624 261.907 249.396 263.261 249.346C264.952 249.283 266.647 249.331 268.341 249.331C268.944 249.331 269.562 249.416 270.146 249.312C271.167 249.13 272.227 248.968 273.163 248.555C275.474 247.536 277.991 245.487 277.038 242.219Z" fill="white"/>
<path fill-rule="evenodd" clip-rule="evenodd" d="M131.358 247.26C131.358 247.26 135.341 247.626 140.417 245.624C145.492 243.621 146.757 239.983 146.757 239.983C146.757 239.983 145.667 234.764 144.637 233.54C143.555 232.252 141.523 232.184 140.417 232.707C139.381 233.196 137.253 233.627 135.821 235.881C135.067 237.067 135.51 239.312 134.276 242.795C133.816 244.094 131.358 247.26 131.358 247.26Z" fill="white"/>
<path fill-rule="evenodd" clip-rule="evenodd" d="M76.5453 243.981C76.5453 243.981 88.2774 248.098 94.6561 249.371C101.035 250.643 112.767 251.206 112.767 251.206C112.767 251.206 122.259 236.489 125.762 227.016C129.264 217.544 131.878 199.516 131.878 199.516C131.878 199.516 122.158 202.728 118.716 207.681C115.274 212.634 118.138 221.804 112.767 227.016C106.418 233.178 96.6269 226.875 88.0638 230.886C79.5007 234.896 76.5453 243.981 76.5453 243.981Z" fill="white"/>
<path fill-rule="evenodd" clip-rule="evenodd" d="M117.435 282.71C130.268 283.847 176.71 267.789 186.976 256.724C190.189 253.261 193.127 246.375 190.111 242.996C181 232.785 141.419 219.382 149.257 201.288C151.875 195.244 168.101 190.942 168.101 190.942C168.101 190.942 170.951 189.524 171.341 188.84C171.732 188.157 170.113 187.422 170.113 187.422L186.976 187.703C186.976 187.703 186.757 191.893 184.556 193.57C178.469 198.206 171.341 198.206 170.113 204.887C168.397 214.219 185.48 227.318 194.627 232.339C217.838 245.08 224.882 257.085 305.993 248.884C295.231 255.616 266.894 272.632 224.678 281.43C155.72 295.802 106.915 281.777 117.435 282.71Z" fill="white"/>
<path fill-rule="evenodd" clip-rule="evenodd" d="M232.278 125.586C239.883 132.494 261.482 165.343 265.408 173.562C265.616 173.996 266.456 177.078 266.456 177.078C266.456 177.078 257.964 178.77 253.173 180.797C248.383 182.824 239.88 187.989 239.88 187.989C239.88 187.989 215.405 188.228 199.412 187.691C169.004 186.67 132.457 186.1 110.796 180.797C106.091 179.645 93.2138 170.822 89.5118 165.284C85.5679 159.385 92.4054 151.23 100.156 143.591C121.793 122.268 173.394 72.1039 232.278 125.586Z" fill="#FFB61D"/>
<path d="M276.866 132.384C275.689 133.033 273.677 132.383 272.571 132.959C270.339 134.123 268.111 131.877 265.777 132.712C264.287 133.245 262.824 133.754 261.273 133.925C260.186 134.044 259.126 134.748 258.046 134.78C256.549 134.825 255.319 135.595 254.146 136.586C253.054 137.509 252.07 138.646 251.001 139.62C250.617 139.97 250.139 140.239 249.679 140.334C248.994 140.474 247.322 140.419 246.625 140.461C245.403 140.536 244.182 140.684 242.96 140.685C241.737 140.687 224.618 145.57 222.655 146.852C222.513 146.945 222.355 146.999 222.204 147.071C222.285 146.927 222.351 146.763 222.449 146.644C223.389 145.505 224.226 144.766 225.305 143.926C226.732 142.815 228.318 142.002 229.896 141.281C231.139 140.712 232.468 140.454 233.766 140.099C234.919 139.784 236.074 139.458 237.241 139.26C238.638 139.023 240.047 138.835 241.453 138.781C242.61 138.736 243.782 139.08 244.929 138.96C246.613 138.785 249.264 138.447 250.914 137.974C251.529 137.798 252.208 137.195 252.573 136.525C253.297 135.193 254.305 134.358 255.362 133.798C256.325 133.288 257.467 133.357 258.529 133.153C259.516 132.964 260.503 132.764 261.488 132.547C262.33 132.361 263.195 132.247 264.003 131.913C265.076 131.47 266.095 130.81 267.155 130.309C267.714 130.045 268.343 130.017 268.887 129.716C270.305 128.932 291.853 123.638 294.02 124.549C296.187 125.46 292.86 127.899 291.853 127.799C290.829 127.697 289.784 127.893 288.752 128.009C287.584 128.14 286.404 128.223 285.259 128.518C284.144 128.805 283.055 129.287 281.977 129.769C280.879 130.261 279.806 130.851 278.726 131.413C278.133 131.721 277.548 132.059 276.866 132.384Z" fill="white"/>
<path d="M220.912 145.64C220.428 143.948 221.819 143.169 222.67 141.983C224.56 139.351 227.228 137.674 230.128 136.353C231.386 135.779 232.658 135.21 233.971 134.791C235.55 134.288 237.18 133.948 238.788 133.537C239.013 133.479 239.232 133.375 239.46 133.357C240.07 133.309 240.657 132.805 240.749 132.745C241.11 132.511 241.501 132.152 241.625 131.759C241.916 130.831 242.013 129.844 242.275 128.905C242.752 127.194 244.081 126.226 245.565 125.507C247.387 124.624 249.258 123.836 251.132 123.065C253.49 122.096 255.877 121.196 258.243 120.247C260.449 119.362 262.603 118.319 264.862 117.607C265.967 117.259 267.259 117.505 268.467 117.49C268.511 117.49 268.557 117.579 268.602 117.626C268.522 117.69 268.453 117.782 268.362 117.813C265.944 118.629 263.509 119.399 261.108 120.264C259.452 120.86 257.85 121.606 256.208 122.244C255.521 122.511 254.768 122.611 254.091 122.896C252.674 123.492 251.295 124.182 249.884 124.795C248.846 125.245 247.754 125.577 246.736 126.065C245.356 126.727 243.908 127.394 243.455 129.049C243.286 129.666 243.524 130.415 243.291 130.987C242.965 131.784 242.494 132.61 241.864 133.178C240.567 134.348 238.91 134.847 237.222 135.23C236.194 135.463 235.2 135.859 234.166 136.046C232.082 136.423 230.167 137.24 228.331 138.23C225.796 139.595 223.315 141.076 221.936 143.613C221.563 144.301 221.407 145.107 221.141 145.855C221.113 145.936 221.022 145.994 220.959 146.062C220.959 145.937 220.959 145.812 220.912 145.64Z" fill="white"/>
<path d="M219.336 144.704C219.23 144.224 219.111 143.789 219.125 143.358C219.153 142.469 219.169 141.566 219.337 140.697C219.975 137.403 222.33 135.336 224.687 133.245C226.669 131.488 228.713 129.767 229.921 127.305C230.392 126.345 230.329 125.403 230.303 124.37C230.242 121.916 228.897 120.198 227.216 118.782C225.492 117.328 223.535 116.143 221.634 114.911C219.258 113.372 217.236 111.536 215.946 108.956C215.174 107.412 215.558 104.345 216.834 103.165C217.142 102.879 217.631 102.655 218.042 102.648C218.512 102.64 218.741 103.062 218.63 103.565C218.607 103.669 218.555 103.825 218.48 103.85C217.469 104.193 216.483 106.785 217.176 107.767C217.676 108.477 217.857 109.449 218.437 110.059C219.584 111.264 220.881 112.332 222.166 113.397C224.314 115.179 226.564 116.846 228.653 118.694C230.216 120.077 231.337 121.885 231.782 123.916C232.006 124.942 231.805 126.153 231.316 127.205C230.32 129.343 228.767 130.993 226.985 132.518C224.876 134.322 222.543 135.972 221.201 138.492C220.599 139.622 220.191 140.918 219.996 142.185C219.843 143.171 220.164 144.229 220.253 145.257C220.266 145.402 220.161 145.557 220.11 145.708C219.993 145.618 219.844 145.55 219.764 145.434C219.615 145.221 219.507 144.98 219.336 144.704Z" fill="white"/>
<path fill-rule="evenodd" clip-rule="evenodd" d="M198.082 162.014V187.474L226.095 188.387H234.208V163.058H236.683L225.929 155.658C225.929 155.658 225.929 152.777 225.697 150.6C225.146 149.468 223.484 149.277 222.407 149.072C221.33 148.868 219.734 148.617 219.734 149.468C219.734 150.319 219.734 152.777 219.734 152.777L212.442 151.656L198.082 162.014Z" fill="white"/>
<path fill-rule="evenodd" clip-rule="evenodd" d="M221.199 188.227L226.096 188.387L224.648 160.615L221.633 158.402L221.199 188.227Z" fill="#E7EAEE"/>
<path fill-rule="evenodd" clip-rule="evenodd" d="M202.308 205.322C202.517 204.845 202.993 204.288 202.879 203.907C202.646 203.122 202.26 202.233 201.652 201.733C198.981 199.535 196.139 197.636 192.634 196.924C190.779 196.547 189.1 196.768 187.475 197.652C186.269 198.309 186.168 199.312 187.208 200.139C187.769 200.585 188.331 201.03 188.905 201.46C191.344 203.288 194.047 204.577 197.001 205.308C198.118 205.584 199.269 205.778 200.415 205.85C201.004 205.887 201.614 205.572 202.308 205.322" fill="white"/>
<path fill-rule="evenodd" clip-rule="evenodd" d="M210.551 152.899C208.025 152.834 193.057 164.163 192.723 163.972C192.389 163.781 206.98 152.76 209.097 151.289C210.196 150.525 211.335 150.566 212.488 151.38C214.094 152.515 224.045 158.837 225.385 159.467C226.925 160.192 236.099 162.308 235.623 162.892C235.351 163.047 233.996 163.168 233.585 163.113C233.467 163.097 233.23 163.204 233.216 163.283C232.804 165.74 233.496 185.612 233.592 186.613C233.61 186.798 233.799 187.019 233.97 187.13C234.667 187.582 235.435 187.531 236.231 187.562L236.364 187.568C237.767 187.641 239.037 187.347 240.223 186.732C241.77 185.93 243.25 184.995 244.75 184.103C246.328 183.164 247.886 182.193 249.47 181.264C251.66 179.979 254.049 179.129 256.421 178.274C257.859 177.756 259.386 177.472 260.888 177.152C262.189 176.875 263.51 176.695 264.822 176.473L264.853 176.47L266.139 176.502C265.952 176.112 265.782 175.712 265.575 175.333C264.854 174.014 264.087 172.719 263.402 171.382C262.595 169.807 261.915 168.164 261.074 166.609C259.184 163.114 257.244 159.645 255.293 156.183C253.44 152.893 251.548 149.624 249.668 146.348C249.421 145.918 249.137 145.509 248.885 145.081C248.821 144.972 248.819 144.827 248.788 144.698C248.898 144.781 249.037 144.844 249.114 144.951C250.047 146.247 251.02 147.517 251.888 148.856C254.341 152.637 256.796 156.418 259.157 160.256C260.4 162.278 261.452 164.417 262.582 166.507C263.364 167.953 264.15 169.398 264.899 170.862C265.282 171.611 265.586 172.4 265.926 173.171L266.479 174.434C266.756 175.065 267.038 175.693 267.341 176.311C267.406 176.444 267.83 176.531 268.011 176.456C270.047 175.609 272.15 174.875 274.074 173.818C277.138 172.137 280.037 170.157 283.092 168.459C284.498 167.678 286.07 167.108 287.637 166.738C288.712 166.484 289.821 166.295 291.068 166.586C293.091 167.058 294.934 167.939 296.885 168.539C298.209 168.947 299.581 168.994 301.012 168.884C303.757 168.673 305.85 167.067 308.174 165.953C309.713 165.216 311.199 164.367 312.703 163.558C316.049 161.758 319.388 159.943 322.738 158.15C324.757 157.068 326.792 156.016 328.82 154.951C329.025 154.843 329.221 154.71 329.438 154.636L329.658 154.561C329.854 154.496 330.061 154.444 330.131 154.513L330.206 154.589C330.557 154.959 330.743 155.353 330.032 155.709C328.454 156.498 326.899 157.335 325.341 158.164C323.317 159.242 321.303 160.338 319.278 161.414C317.332 162.449 315.374 163.462 313.428 164.497C311.378 165.587 309.339 166.697 307.29 167.789C305.987 168.482 304.741 169.415 303.349 169.767C302.084 170.087 300.807 170.698 299.339 170.24L299.187 170.188C297.381 169.538 295.42 169.331 293.584 168.751C292.122 168.289 290.639 167.974 289.152 168.092C287.437 168.228 285.692 168.503 284.057 169.025C281.428 169.865 279.206 171.495 277.019 173.156L276.375 173.643C274.512 175.047 272.604 176.387 270.301 177.037C269.707 177.204 269.119 177.395 268.541 177.609C268.496 177.625 262.03 177.818 255.06 180.233C248.444 182.527 241.304 187.049 241.322 187.095C241.807 188.311 273.102 186.133 273.847 186.199C274.766 186.281 275.687 186.335 276.608 186.388C276.95 186.407 277.295 186.374 277.637 186.394C278.527 186.447 279.416 186.522 280.306 186.575C280.648 186.595 280.993 186.562 281.335 186.581C282.256 186.634 283.176 186.709 284.097 186.762C284.439 186.782 284.784 186.748 285.126 186.768C286.016 186.821 286.904 186.895 287.794 186.949C288.105 186.968 288.419 186.937 288.729 186.955C289.651 187.008 290.572 187.079 291.493 187.133C291.804 187.151 292.117 187.124 292.427 187.142C293.379 187.197 294.33 187.269 295.283 187.324C295.593 187.342 295.907 187.311 296.218 187.329C297.139 187.383 298.06 187.455 298.981 187.509C299.292 187.527 299.605 187.499 299.915 187.516C300.868 187.571 301.819 187.643 302.771 187.698C303.082 187.716 303.395 187.701 303.707 187.701C304.497 187.701 305.288 187.681 306.078 187.709C306.459 187.723 306.835 187.852 307.217 187.883C308.199 187.961 309.183 188.017 310.166 188.073C310.446 188.089 310.728 188.061 311.008 188.078C311.96 188.133 312.911 188.204 313.863 188.26C314.073 188.272 314.284 188.267 314.495 188.264L314.705 188.262C315.465 188.262 316.226 188.223 316.983 188.271C318.503 188.367 320.019 188.531 321.539 188.631C322.895 188.72 324.253 188.758 325.61 188.825C326.75 188.882 327.888 188.953 329.027 189.01L330.656 189.093C331.47 189.134 332.284 189.171 333.099 189.193C334.623 189.233 336.149 189.227 337.674 189.253C337.763 189.255 337.922 189.352 337.928 189.416C337.97 189.873 337.98 190.332 338.001 190.791C337.759 190.759 337.517 190.71 337.274 190.698C335.906 190.63 334.536 190.598 333.171 190.5C332.024 190.416 330.884 190.208 329.737 190.148C328.533 190.085 327.324 190.144 326.118 190.125C325.862 190.121 325.611 189.979 325.352 189.952L323.682 189.77C322.94 189.691 322.196 189.621 321.452 189.586C320.123 189.524 318.789 189.593 317.458 189.562C316.959 189.55 316.465 189.393 315.964 189.344C315.568 189.305 315.164 189.343 314.765 189.32C314.33 189.295 313.898 189.237 313.464 189.199C312.039 189.072 310.616 188.896 309.188 188.838C307.641 188.775 306.089 188.846 304.54 188.813C303.917 188.799 303.296 188.661 302.674 188.586C302.257 188.535 301.839 188.484 301.42 188.452C300.531 188.382 299.641 188.319 298.752 188.265C298.441 188.247 298.127 188.277 297.816 188.26C296.802 188.204 295.788 188.113 294.773 188.085C294.263 188.071 293.749 188.206 293.238 188.197C292.4 188.182 291.564 188.092 290.727 188.058C290.181 188.035 289.632 188.079 289.087 188.048C288.124 187.994 287.164 187.89 286.201 187.838C285.616 187.807 285.027 187.845 284.44 187.83C283.999 187.819 283.558 187.746 283.119 187.754C282.842 187.759 282.568 187.863 282.292 187.923C282.448 188.055 282.602 188.19 282.76 188.32C284.461 189.71 286.148 191.117 287.867 192.484C289.809 194.027 291.79 195.521 293.734 197.062C295.43 198.408 297.095 199.793 298.778 201.154C299.336 201.606 299.908 202.039 300.475 202.479C300.82 202.748 300.773 202.89 300.405 203.034L300.35 203.055C299.103 203.505 297.892 204.072 296.623 204.44C295.496 204.768 294.308 204.879 293.151 205.109C292.126 205.313 291.114 205.587 290.083 205.754C289.431 205.86 288.755 205.811 288.092 205.858C287.482 205.901 286.871 205.955 286.267 206.047C285.352 206.185 284.448 206.403 283.53 206.508C282.747 206.598 281.951 206.56 281.162 206.607C280.49 206.647 279.816 206.702 279.15 206.796C278.173 206.934 277.207 207.156 276.228 207.26C275.382 207.35 274.521 207.294 273.671 207.36C272.767 207.429 271.869 207.589 270.964 207.667C269.761 207.77 268.555 207.824 267.351 207.918C267.031 207.943 266.718 208.076 266.399 208.093C264.969 208.171 263.538 208.214 262.108 208.293C261.633 208.319 261.163 208.437 260.688 208.469C259.519 208.547 258.349 208.629 257.178 208.655C253.669 208.734 250.159 208.811 246.65 208.836C245.179 208.847 243.704 208.634 242.237 208.688C240.957 208.735 239.713 208.695 238.44 208.511C237.258 208.339 236.028 208.533 234.826 208.456C233.844 208.392 232.875 208.151 231.896 208.015C230.731 207.853 229.56 207.73 228.396 207.561C228.248 207.54 227.991 207.29 228.012 207.234L228.206 206.741C228.824 205.183 229.504 203.662 230.607 202.346C231.967 200.725 233.58 199.445 235.397 198.406L235.646 198.266C236.313 197.896 236.972 197.503 237.666 197.192L238.708 196.721C239.521 196.357 240.34 196.007 241.186 195.75C242.546 195.337 243.966 195.123 245.358 194.81C246.146 194.633 246.922 194.398 247.715 194.252C248.892 194.035 250.082 193.892 251.261 193.684C252.146 193.527 253.027 193.339 253.899 193.122C255.055 192.834 256.211 192.535 257.35 192.186C259.731 191.457 262.065 190.614 264.089 189.099C264.195 189.02 264.32 188.965 264.437 188.899C264.286 188.812 264.144 188.694 263.981 188.646C263.838 188.603 263.672 188.637 263.516 188.637L261.582 188.639C261.26 188.638 260.938 188.638 260.615 188.636L244.981 188.54C239.769 188.508 234.558 188.48 229.346 188.46C227.22 188.452 225.094 188.629 222.968 188.623C220.061 188.615 217.155 188.519 214.249 188.447C212.248 188.397 210.247 188.295 208.245 188.275C207.242 188.265 206.237 188.448 205.235 188.437C202.983 188.414 200.732 188.333 198.481 188.26C197.01 188.212 195.539 188.095 194.067 188.089C192.908 188.084 191.749 188.243 190.589 188.249C189.648 188.253 188.707 188.098 187.766 188.108C187.571 188.11 187.166 188.622 187.218 188.737C187.843 190.128 187.079 191.241 186.406 192.246C185.079 194.229 183.175 195.486 180.865 196.177C179.533 196.576 178.24 197.109 176.942 197.62L176.455 197.81C173.958 198.775 171.961 200.279 171.227 202.999C170.855 204.375 170.631 205.742 170.84 207.233C171.301 210.521 172.916 213.145 175.054 215.522L175.211 215.695C176.378 216.971 177.514 218.289 178.795 219.442C181.411 221.794 184.05 224.13 186.803 226.317C189.494 228.454 192.275 230.495 195.136 232.398C197.602 234.039 200.22 235.456 202.803 236.916C204.464 237.855 206.161 238.738 207.884 239.559C209.33 240.248 210.844 240.794 212.315 241.435C213.615 242.001 214.872 242.674 216.191 243.188C218.014 243.898 219.868 244.538 221.729 245.144C223.41 245.692 225.109 246.194 226.82 246.639C228.284 247.019 229.781 247.269 231.256 247.612C233.159 248.056 235.047 248.565 236.955 248.989C238.402 249.311 239.865 249.565 241.328 249.811C242.648 250.033 243.974 250.218 245.302 250.39C246.454 250.538 247.609 250.667 248.767 250.762C249.883 250.855 251.005 250.87 252.121 250.962C253.268 251.058 254.408 251.229 255.555 251.32C256.098 251.363 256.65 251.279 257.198 251.282C258.418 251.288 259.639 251.295 260.858 251.337C261.613 251.363 262.366 251.5 263.12 251.509C265.241 251.533 267.362 251.517 269.483 251.517C270.523 251.517 271.566 251.566 272.602 251.504C273.739 251.437 274.895 251.062 275.997 251.196C277.341 251.359 278.597 251.162 279.89 250.971C280.481 250.884 281.099 251.003 281.697 250.947C283.421 250.785 285.139 250.543 286.864 250.406C288.363 250.287 289.872 250.3 291.373 250.195C292.148 250.141 292.911 249.934 293.684 249.84C294.456 249.746 295.237 249.733 296.009 249.639C296.822 249.539 297.636 249.421 298.437 249.248C300.026 248.904 301.62 248.565 303.186 248.133C304.333 247.816 305.438 247.351 306.564 246.961C306.634 246.936 306.77 246.954 306.8 247C306.839 247.061 306.839 247.205 306.793 247.253C306.117 247.944 305.47 248.672 304.728 249.286C304.506 249.47 304.157 249.523 303.82 249.558L303.523 249.588C302.56 249.693 301.583 249.698 300.628 249.849C299.659 250.001 298.718 250.334 297.749 250.489C296.766 250.645 295.763 250.674 294.771 250.771C294.285 250.819 293.801 250.883 293.319 250.958C292.158 251.139 291.002 251.362 289.837 251.509C288.551 251.671 287.256 251.758 285.967 251.895C285.215 251.975 284.469 252.114 283.716 252.18C282.455 252.291 281.19 252.356 279.927 252.458C279.576 252.487 279.232 252.602 278.881 252.636L277.488 252.773C276.56 252.863 275.63 252.948 274.7 253.004C273.756 253.06 272.807 252.994 271.861 253.019C270.046 253.066 268.232 253.191 266.418 253.188C264.343 253.185 262.267 253.106 260.194 253.005C258.611 252.928 257.034 252.732 255.451 252.652C254.309 252.594 253.16 252.688 252.019 252.625C251.089 252.574 250.169 252.371 249.24 252.272C248.405 252.182 247.564 252.15 246.728 252.076C246.211 252.03 245.693 251.979 245.183 251.885C244.57 251.773 243.967 251.607 243.358 251.476C242.802 251.357 242.245 251.24 241.685 251.146C240.661 250.973 239.637 250.802 238.609 250.661C237.775 250.547 236.927 250.521 236.099 250.376C235.406 250.255 234.733 250.017 234.049 249.833L230.809 248.963C230.269 248.819 229.728 248.676 229.187 248.535C227.684 248.142 226.156 247.828 224.674 247.369C222.486 246.69 220.33 245.912 218.159 245.177C216.462 244.603 214.748 244.076 213.074 243.441L212.344 243.162C211.128 242.694 209.917 242.196 208.783 241.571L204.925 239.45C201.711 237.68 198.51 235.887 195.4 233.949C192.115 231.902 189.062 229.478 185.943 227.171C182.496 224.623 179.485 221.584 176.537 218.496L176.085 218.019C173.986 215.784 172.027 213.42 170.717 210.608L170.579 210.305C170.108 209.244 169.474 208.127 169.447 207.023C169.387 204.551 169.846 202.171 171.696 200.235C173.162 198.701 174.938 197.69 176.761 196.737L177.954 196.119C180.091 195.011 182.246 193.933 184.325 192.724C185.063 192.294 185.709 191.593 186.199 190.88C186.735 190.1 186.271 189.052 185.326 188.844C183.702 188.485 182.061 188.161 180.409 187.988C178.131 187.749 175.837 187.656 173.548 187.528C173.349 187.517 173.038 187.649 172.95 187.809C171.732 190.021 169.822 191.395 167.497 192.172C165.694 192.774 163.819 193.154 161.997 193.702C160.635 194.111 159.329 194.721 157.955 195.079C156.115 195.56 154.509 196.5 153.089 197.654L152.683 197.989C150.935 199.454 149.373 201.124 148.937 203.556C148.611 205.369 148.702 207.085 149.245 208.894C150.031 211.519 151.649 213.506 153.429 215.43C154.318 216.391 155.263 217.302 156.204 218.213C159.111 221.03 162.254 223.549 165.544 225.913C169.422 228.7 173.516 231.081 177.755 233.265L178.753 233.775C181.198 235.019 183.656 236.261 185.799 238.033C187.519 239.455 189.082 241.016 190.111 242.996L190.45 243.649C190.986 244.699 191.491 245.816 191.522 246.907L191.539 247.537C191.561 248.528 191.544 249.567 191.238 250.613C190.172 254.261 187.799 256.932 185.144 259.391C182.423 261.911 179.382 264.033 176.128 265.834C174.801 266.568 173.53 267.41 172.17 268.071C170.869 268.704 169.478 269.15 168.139 269.706C166.603 270.344 165.11 271.094 163.546 271.647C161.329 272.431 159.062 273.074 156.821 273.79C155.389 274.247 153.976 274.77 152.533 275.187C150.762 275.698 148.964 276.112 147.186 276.601C146.023 276.921 144.886 277.339 143.718 277.639C142.255 278.017 140.768 278.302 139.299 278.658C137.884 279.001 136.488 279.42 135.068 279.741C133.273 280.147 131.466 280.497 129.66 280.853C128.05 281.17 126.436 281.468 124.822 281.761C123.388 282.022 121.95 282.264 120.515 282.517C120.128 282.585 119.741 282.724 119.359 282.709C119.195 282.702 119.059 282.369 118.884 282.213C118.638 281.992 118.368 281.798 118.108 281.592C118.467 281.548 118.831 281.529 119.185 281.456C120.361 281.213 121.53 280.93 122.709 280.702C124.092 280.434 125.488 280.235 126.868 279.954C127.866 279.751 128.842 279.435 129.839 279.222C131.144 278.943 132.468 278.747 133.77 278.456C134.722 278.243 135.648 277.912 136.595 277.673C137.287 277.498 138.005 277.42 138.695 277.238C139.845 276.935 140.975 276.555 142.126 276.26C143.279 275.964 144.455 275.763 145.606 275.463C146.813 275.15 147.995 274.743 149.2 274.425C150.583 274.06 151.988 273.781 153.366 273.401C154.18 273.177 154.948 272.796 155.756 272.549C157.144 272.125 158.567 271.808 159.939 271.341C161.933 270.664 163.897 269.901 165.869 269.16L167.209 268.657C168.103 268.319 168.994 267.976 169.874 267.606C174.174 265.799 178.252 263.597 181.876 260.63L182.736 259.925C183.881 258.982 185.015 258.022 186.063 256.979C187.577 255.473 188.89 253.762 189.629 251.731C190.062 250.541 190.442 249.263 190.474 248.015C190.504 246.848 190.169 245.679 189.714 244.505C189.058 242.813 188.086 241.434 186.739 240.394C184.911 238.982 182.929 237.754 180.946 236.559C176.509 233.885 171.93 231.434 167.603 228.596C164.693 226.688 162.034 224.388 159.335 222.168L158.828 221.752C157.057 220.307 155.311 218.809 153.711 217.18C151.5 214.93 149.404 212.587 148.198 209.557C147.601 208.057 147.406 206.606 147.472 205.027C147.618 201.537 149.602 199.18 152.076 197.03C154.431 194.984 157.211 193.843 160.123 192.95C161.92 192.4 163.751 191.965 165.554 191.437C167.11 190.981 168.668 190.519 170.183 189.949C170.653 189.771 171.178 189.298 171.341 188.84C171.682 187.886 171.148 187.425 170.113 187.421C169.259 187.419 168.407 187.217 167.551 187.145C166.497 187.058 165.436 187.051 164.385 186.942C163.433 186.843 162.495 186.608 161.542 186.515C160.575 186.421 159.598 186.433 158.625 186.385C158.455 186.377 158.289 186.277 158.118 186.263C156.977 186.174 155.832 186.124 154.693 186.009C153.676 185.906 152.669 185.704 151.652 185.605C150.719 185.514 149.778 185.503 148.84 185.454C148.72 185.448 148.601 185.429 148.481 185.418C147.29 185.305 146.096 185.215 144.908 185.074C143.896 184.954 142.896 184.735 141.883 184.634C140.977 184.543 140.06 184.556 139.149 184.517C139.002 184.511 138.858 184.458 138.712 184.446C137.515 184.343 136.317 184.262 135.123 184.14C134.163 184.042 133.21 183.871 132.25 183.778C131.291 183.684 130.325 183.655 129.364 183.577C129.137 183.559 128.919 183.419 128.692 183.403C127.575 183.326 126.452 183.311 125.338 183.198C124.357 183.098 123.391 182.853 122.41 182.754C121.503 182.662 120.585 182.688 119.672 182.64C119.477 182.63 119.29 182.481 119.094 182.468C117.945 182.391 116.795 182.344 115.646 182.269C115.3 182.247 114.959 182.154 114.613 182.132C114.541 182.127 114.458 182.295 114.38 182.383L114.546 182.437C114.573 182.446 114.601 182.454 114.629 182.46C115.593 182.671 116.564 182.85 117.518 183.098C118.651 183.392 119.787 183.694 120.89 184.083C124.785 185.457 128.457 187.258 131.095 190.554C132.093 191.801 132.736 193.35 133.43 194.814C133.795 195.581 134.066 196.452 134.12 197.293C134.205 198.606 134.075 199.934 134.027 201.255C133.997 202.099 133.998 202.949 133.901 203.786C133.807 204.597 133.617 205.397 133.451 206.197L132.997 208.405C132.768 209.508 132.535 210.61 132.281 211.708C132.082 212.571 131.736 213.4 131.516 214.259C131.291 215.138 131.166 216.042 130.949 216.923C130.698 217.94 130.382 218.941 130.117 219.955C129.827 221.068 129.589 222.195 129.281 223.302L129.099 223.951C128.915 224.6 128.717 225.246 128.47 225.869L128.342 226.179C128.165 226.59 128.232 226.607 128.517 226.626L128.609 226.632C130.31 226.754 132.022 226.805 133.704 227.057C134.953 227.244 136.163 227.696 137.388 228.037C138.367 228.31 139.343 228.593 140.32 228.874C140.402 228.897 140.482 228.934 140.563 228.964C140.484 228.996 140.405 229.055 140.326 229.056C139.556 229.063 138.779 229.127 138.018 229.045C136.769 228.911 135.517 228.739 134.292 228.47C133.414 228.278 132.587 227.86 131.715 227.625C131.299 227.513 130.825 227.54 130.389 227.596L129.772 227.674C129.052 227.767 128.331 227.873 127.639 228.068C126.499 228.39 125.945 229.345 125.439 230.296L125.272 230.612C123.829 233.323 122.441 236.063 121.014 238.782C119.411 241.836 117.788 244.879 116.176 247.929L116.046 248.182C115.472 249.331 115.025 250.576 113.795 251.234C113.535 251.373 113.164 251.304 112.844 251.33C112.874 251.09 112.834 250.81 112.945 250.615C114.118 248.541 115.319 246.482 116.506 244.415C117.591 242.526 118.714 240.657 119.738 238.735C121.301 235.801 122.86 232.86 124.292 229.861C125.393 227.556 126.318 225.165 127.278 222.795L127.881 221.309C128.584 219.574 129.277 217.834 129.874 216.063C130.563 214.02 131.069 211.914 131.624 209.828C131.954 208.586 132.329 207.342 132.494 206.074L132.604 205.223C132.841 203.375 133.058 201.514 133.023 199.665C132.993 198.052 132.671 196.366 132.099 194.857C130.865 191.604 128.583 189.133 125.61 187.335C123.652 186.151 121.606 185.166 119.335 184.681C118.065 184.41 116.849 183.886 115.58 183.609C114.511 183.376 113.402 183.246 112.308 183.231C110.765 183.209 109.22 183.352 107.675 183.391C106.531 183.42 105.384 183.353 104.243 183.413C103.562 183.449 102.89 183.646 102.213 183.771C101.198 183.958 100.169 184.091 99.1708 184.344C97.0957 184.868 94.9875 185.319 92.9803 186.043C87.8202 187.904 82.98 190.436 78.4819 193.574C75.4349 195.699 72.5902 198.094 70.0779 200.843C67.3764 203.8 65.055 207.033 63.4769 210.737C62.8635 212.177 62.3762 213.677 61.9261 215.178C61.607 216.242 61.3122 217.346 61.2494 218.446C61.1707 219.826 61.3505 221.22 61.3983 222.609C61.4227 223.316 61.354 224.029 61.4167 224.731C61.4758 225.392 61.6022 226.058 61.7889 226.696C62.0536 227.6 62.3907 228.484 62.7143 229.37C64.4972 234.253 67.5487 238.051 72.2681 240.367C73.3366 240.891 74.4931 241.276 75.6484 241.57C76.4275 241.769 77.1324 241.544 77.5976 240.682C79.4304 237.285 81.8352 234.361 85.0988 232.243C86.7553 231.167 88.4997 230.226 90.2202 229.252C91.6542 228.44 93.22 228.02 94.8379 227.737C95.8311 227.563 96.7919 227.135 97.7862 227.054C98.9106 226.963 100.056 227.133 101.192 227.188L101.473 227.189C103.205 227.251 104.94 227.416 106.666 227.345C108.239 227.282 109.756 226.984 111.279 226.341C113.476 225.414 114.588 223.84 115.148 221.715L115.499 220.329C115.705 219.51 115.899 218.687 116.024 217.855C116.16 216.952 115.975 216.002 116.097 215.095C116.267 213.827 116.512 212.557 116.872 211.331C117.144 210.404 117.602 209.532 117.981 208.635L118.104 208.334C118.881 206.375 120.22 204.791 121.682 203.359C123.411 201.666 125.383 200.258 127.736 199.484C128.658 199.181 129.55 198.79 130.467 198.472C130.606 198.424 130.808 198.559 130.981 198.609L130.778 198.743C130.744 198.765 130.71 198.786 130.675 198.807L130.055 199.168C126.854 201.038 123.706 202.986 121.239 205.83L120.992 206.115C120.051 207.214 119.164 208.357 118.804 209.839C118.559 210.851 118 211.797 117.832 212.813C117.609 214.16 117.637 215.548 117.54 216.917C117.519 217.206 117.4 217.486 117.363 217.776C117.219 218.894 117.253 220.066 116.923 221.124C116.218 223.385 115.039 225.402 112.893 226.609C111.733 227.261 110.513 227.905 109.238 228.228C108.099 228.516 106.867 228.477 105.666 228.486L105.409 228.489C103.091 228.523 100.772 228.48 98.4531 228.503C95.436 228.533 92.463 228.972 89.7279 230.253C86.5374 231.748 83.695 233.755 81.4612 236.572C80.0085 238.404 78.6929 240.294 77.9933 242.533C77.7 243.472 76.9188 243.285 76.4387 243.199L75.9443 243.108C74.7878 242.888 73.6164 242.608 72.5838 242.093C70.9278 241.267 69.3067 240.285 67.8708 239.122C65.3727 237.1 63.3124 234.635 62.067 231.644C61.2602 229.706 60.5898 227.674 60.1827 225.62C59.9004 224.196 60.1372 222.677 60.0874 221.198L60.0734 220.903C59.9836 219.458 60.2239 218.08 60.5687 216.703L60.6346 216.445C61.0904 214.688 61.3696 212.862 62.0308 211.186C62.6399 209.642 63.5611 208.218 64.4086 206.772L64.589 206.462C66.3287 203.442 68.5496 200.787 71.049 198.384C74.2839 195.273 77.8791 192.615 81.7404 190.325L83.3141 189.388C84.3649 188.766 85.4228 188.156 86.5113 187.608C87.7436 186.988 89.0452 186.502 90.3366 186.003L90.7665 185.836C91.8859 185.397 93.0156 184.978 94.1613 184.616C95.7467 184.115 97.3457 183.655 98.9498 183.217C100.076 182.909 101.21 182.606 102.36 182.414C103.757 182.18 105.177 182.085 106.583 181.893C107.731 181.736 108.872 181.526 110.016 181.335C110.094 181.322 110.165 181.271 110.24 181.237C110.158 181.208 110.074 181.15 109.995 181.155C109.209 181.21 108.423 181.342 107.64 181.323C106.333 181.292 105.028 181.171 103.722 181.079C103.456 181.06 103.193 180.971 102.929 180.969C101.483 180.958 100.037 180.985 98.5925 180.955C97.7441 180.938 96.8982 180.803 96.0497 180.785C94.6361 180.755 93.2209 180.798 91.8073 180.768C90.9588 180.75 90.1129 180.616 89.2644 180.598C88.1585 180.573 87.0518 180.583 85.9453 180.587L85.1154 180.589C83.7323 180.589 82.347 180.637 80.9668 180.575C79.7988 180.521 78.6391 180.289 77.471 180.233C76.7218 180.198 75.9628 180.403 75.2104 180.388C73.8685 180.362 72.529 180.231 71.187 180.182C70.392 180.154 69.5928 180.237 68.7982 180.204C67.4611 180.148 66.126 180.043 64.7906 179.951C64.5241 179.932 64.2603 179.847 63.9949 179.846C62.3624 179.836 60.7294 179.861 59.0973 179.832C58.2489 179.818 57.4029 179.679 56.5545 179.662C55.1096 179.632 53.6637 179.654 52.2183 179.654L49.265 179.654C48.7728 179.654 48.2806 179.656 47.7883 179.658C47.6494 179.659 47.5108 179.72 47.372 179.753L47.6303 179.883C47.6731 179.905 47.7155 179.928 47.7572 179.952C50.7476 181.674 53.4611 183.752 55.7892 186.307C57.3473 188.017 58.7712 189.832 59.6235 192.015C60.0226 193.037 60.4177 194.073 60.6623 195.138C60.8103 195.782 60.6029 196.501 60.6698 197.174C60.7581 198.065 60.5939 198.897 60.2746 199.703C59.29 202.189 57.6177 204.076 55.3473 205.495C53.8121 206.455 52.2039 207.208 50.4364 207.532C49.0563 207.785 47.6455 207.919 46.2426 207.987C44.9909 208.047 43.7236 208.018 42.4775 207.89C41.4129 207.78 40.3732 207.447 39.3142 207.26C38.181 207.061 37.034 206.939 35.901 206.739C35.1752 206.611 34.4696 206.371 33.7448 206.235C32.2227 205.948 30.6893 205.721 29.1698 205.422C28.4238 205.275 27.7009 205.015 26.9627 204.824L26.5882 204.727C26.3377 204.663 26.0854 204.605 25.832 204.574L25.6417 204.557C25.0246 204.518 24.6583 203.99 24.9198 203.401C24.9323 203.373 25.1014 203.399 25.1916 203.423C25.9598 203.626 26.725 203.841 27.4944 204.039L29.3714 204.523C29.9974 204.683 30.6243 204.839 31.2531 204.988C32.8107 205.355 34.3706 205.716 35.9388 206.033C36.8816 206.224 37.8329 206.378 38.7857 206.515L40.1047 206.701C40.9773 206.822 41.8526 206.934 42.7285 206.956C43.9275 206.986 45.1299 206.834 46.332 206.796C47.257 206.766 48.1867 206.835 49.1085 206.774C49.7281 206.733 50.3655 206.615 50.9461 206.4C52.3375 205.885 53.7213 205.339 55.0688 204.719C56.7097 203.965 57.9162 202.633 59.0532 201.298C59.452 200.83 59.4626 199.966 59.4769 199.28C59.4805 199.108 58.8309 198.848 58.4505 198.755C56.7914 198.349 55.1091 198.035 53.4582 197.6C52.1466 197.254 50.8749 196.76 49.5733 196.373C48.6106 196.087 47.6215 195.891 46.6563 195.612C45.2063 195.194 44.3443 193.971 44.457 192.56C44.4586 192.54 44.3933 192.511 44.397 192.495C44.6152 191.548 44.176 191.323 43.0222 191.548C41.9972 191.748 40.9302 191.726 39.8835 191.822C39.3395 191.872 38.7929 191.933 38.259 192.044C36.9695 192.312 35.6962 192.781 34.3987 192.854C33.0049 192.932 31.592 192.604 30.4638 191.652C29.2985 190.668 28.174 189.636 27.0419 188.613C26.1985 187.851 25.3701 187.073 24.5388 186.298C24.4093 186.177 24.2999 186.035 24.1812 185.903C24.4125 185.898 24.7196 185.795 24.8627 185.905C25.8334 186.651 26.8801 187.343 27.6904 188.243L28.2893 188.909C29.2924 190.012 30.3441 191.047 31.8094 191.459C32.9724 191.787 34.2518 191.824 35.4725 191.786C36.6278 191.749 37.7842 191.488 38.9218 191.242C39.639 191.086 40.3546 190.87 41.0351 190.591L41.2886 190.483C42.5882 189.912 44.0667 190.012 45.08 190.987L45.4259 191.337C45.7614 191.684 46.0933 192.093 45.9893 192.667L45.9692 192.759C45.9313 192.907 45.9489 193.083 45.8746 193.207L45.6874 193.521C45.3738 194.067 45.4397 194.148 46.1355 194.367L46.3633 194.437C47.8039 194.878 49.2364 195.351 50.6916 195.738C52.2834 196.161 53.9059 196.467 55.4981 196.889C56.6234 197.187 57.7224 197.585 58.8292 197.951C59.2855 198.101 59.8605 197.568 59.8976 196.878C59.9338 196.204 60.0301 195.496 59.8756 194.857C59.6559 193.948 59.3584 193.011 58.8715 192.224C56.8014 188.876 54.4028 185.768 51.4673 183.133C49.6475 181.5 44.1671 178.474 39.8688 177.571C35.5705 176.668 28.8118 177.178 27.4944 177.944C26.177 178.711 24.1988 179.594 23.3201 179.827C23.2442 179.847 23.0698 179.753 23.0475 179.679C22.7969 178.85 23.4085 178.461 23.9635 178.174C25.2733 177.496 26.6153 176.875 27.9712 176.293C29.7583 175.527 31.7038 175.428 33.5932 175.215C34.6197 175.099 35.7108 175.498 36.7653 175.703C37.8065 175.905 38.8518 176.109 39.8688 176.404C40.4172 176.563 40.912 176.91 41.4278 177.178C43.4766 178.243 45.4508 178.196 47.4226 176.918C48.046 176.514 48.8558 176.41 49.531 176.071C52.4846 174.587 55.4227 173.071 58.3614 171.558C61.2241 170.083 64.0804 168.596 66.9401 167.116C67.3037 166.927 67.6797 166.761 68.0288 166.549C68.0864 166.514 68.0897 166.227 68.0245 166.176C66.6637 165.106 65.3046 164.033 63.9146 163.002C61.1268 160.934 58.2795 158.943 55.5384 156.815C54.0428 155.654 52.633 154.355 51.3268 152.983C48.4503 149.961 45.7196 146.8 42.8244 143.797C40.2874 141.166 37.6323 138.645 34.9544 136.156C34.6616 135.884 33.6537 135.912 33.3527 136.197C31.9025 137.571 30.5799 139.079 29.2151 140.542C29.0719 140.696 28.9601 140.88 28.8118 141.027C28.7256 141.113 28.5956 141.154 28.4853 141.216C28.4786 141.094 28.4458 140.966 28.4692 140.851C28.6488 139.96 28.6664 138.979 29.0753 138.207C29.4814 137.441 32.46 134.335 33.9663 134.335C35.4725 134.335 48.8901 148.369 48.8901 148.369C50.9264 150.585 52.9804 152.785 55.1253 154.89C58.4399 158.144 61.9842 161.16 65.8384 163.781C67.6452 165.009 69.6647 165.597 71.8299 165.398C72.8636 165.304 73.8515 164.777 74.8866 164.609C75.8806 164.447 76.9092 164.502 77.922 164.45C79.2043 164.385 80.4095 164.737 81.6389 165.036C83.1224 165.397 84.5326 165.909 85.9149 166.546C89.4106 168.158 92.4005 170.548 95.5516 172.697C98.064 174.41 100.621 176.074 103.265 177.571C104.735 178.403 106.392 178.955 108.024 179.434C109.414 179.842 110.888 179.96 112.323 180.218C112.764 180.298 113.195 180.433 113.636 180.512L115.126 180.779C115.872 180.91 116.618 181.037 117.367 181.144C118.877 181.36 120.394 181.531 121.909 181.711C123.547 181.905 125.186 182.089 126.825 182.273C127.98 182.402 129.135 182.522 130.29 182.648C131.414 182.771 132.535 182.935 133.662 183.013C135.131 183.114 136.608 183.117 138.077 183.221C138.945 183.283 139.802 183.495 140.669 183.575C141.753 183.675 142.843 183.7 143.93 183.778C144.157 183.794 144.375 183.937 144.602 183.951C145.813 184.028 147.03 184.033 148.236 184.16C149.331 184.275 150.408 184.586 151.505 184.676C152.64 184.77 153.789 184.693 154.931 184.715C155.156 184.719 155.377 184.875 155.603 184.887C157.033 184.963 158.464 185.012 159.893 185.088C160.12 185.1 160.337 185.237 160.565 185.263C161.771 185.399 162.975 185.568 164.185 185.628C165.451 185.691 166.723 185.631 167.992 185.651C168.278 185.655 168.561 185.796 168.85 185.825C170.212 185.96 171.573 186.134 172.938 186.189C174.485 186.252 176.037 186.191 177.587 186.212C177.998 186.218 178.406 186.353 178.82 186.387L180.791 186.55C181.776 186.629 182.763 186.703 183.75 186.755C184.787 186.81 185.83 186.744 186.869 186.77C188.632 186.815 190.394 186.904 192.157 186.947C193.29 186.975 194.426 186.982 195.557 186.925C195.763 186.915 196.112 186.554 196.117 186.347C196.135 185.689 196.574 164.705 196.53 164.074C196.522 163.959 196.631 163.836 196.686 163.717C196.756 163.821 196.878 163.921 196.887 164.03C196.964 164.929 197.395 185.123 197.397 186.755C197.397 186.821 197.745 186.95 197.926 186.941C198.712 186.905 222.565 187.053 223.682 186.978C224.126 186.947 224.467 186.817 224.415 186.23C224.32 185.136 224.403 160.615 224.403 160.615C224.403 160.615 213.864 152.983 210.551 152.899ZM271.725 187.739C270.564 187.888 269.453 188.489 268.295 188.587C266.801 188.714 265.599 189.482 264.31 190.035C262.261 190.915 260.308 192.016 258.266 192.917C257.372 193.311 256.358 193.427 255.405 193.696C254.981 193.815 253.923 194.064 253.867 194.073L252.609 194.282C251.98 194.388 251.352 194.499 250.729 194.632C249.175 194.962 247.627 195.322 246.082 195.692C244.805 195.998 243.539 196.349 242.263 196.654L241.496 196.83C239.186 197.34 237.032 198.232 235.059 199.505C232.805 200.96 230.828 202.718 229.637 205.205C229.193 206.131 229.429 206.669 230.352 206.791C230.627 206.827 230.9 206.876 231.175 206.914C231.775 206.999 232.373 207.107 232.975 207.158C233.967 207.242 234.962 207.285 235.955 207.352C236.803 207.409 237.649 207.504 238.498 207.531C239.505 207.562 240.515 207.519 241.523 207.542C243.681 207.592 245.837 207.694 247.995 207.713C249.122 207.722 250.25 207.565 251.379 207.546C253.229 207.516 255.081 207.563 256.931 207.531C257.932 207.514 258.934 207.478 259.935 207.436L261.937 207.349C263.077 207.299 264.217 207.25 265.353 207.158C266.531 207.062 267.705 206.921 268.879 206.785C269.137 206.755 269.387 206.625 269.644 206.609C270.949 206.532 272.255 206.485 273.56 206.408C273.786 206.395 274.006 206.243 274.231 206.237C275.124 206.213 276.025 206.292 276.908 206.199C277.819 206.102 278.706 205.78 279.616 205.684C280.892 205.549 282.183 205.561 283.463 205.457C284.312 205.388 285.153 205.223 285.998 205.106C286.599 205.023 287.207 204.977 287.802 204.862C288.429 204.739 289.037 204.507 289.667 204.405C291.098 204.175 292.537 203.993 293.974 203.796C294.953 203.663 295.94 203.574 296.912 203.398C297.572 203.278 298.214 203.05 298.856 202.845C298.905 202.83 298.948 202.544 298.894 202.495C298.262 201.931 297.621 201.376 296.963 200.843C294.417 198.787 291.86 196.746 289.317 194.687C287.259 193.02 285.285 191.24 283.141 189.693C281.539 188.536 280.159 188.749 279.356 189.965L279.138 190.292C278.333 191.482 277.468 192.574 276.182 193.294C276.063 193.361 275.989 193.509 275.894 193.619C276.045 193.705 276.208 193.879 276.347 193.861C276.959 193.784 277.562 193.599 278.175 193.561C278.487 193.542 278.82 193.739 279.122 193.884C279.158 193.901 279.11 194.254 279.008 194.373C277.016 196.717 274.395 198.064 271.529 198.977C270.342 199.355 269.102 199.561 267.899 199.894C266.962 200.154 266.059 200.541 265.117 200.777C264.052 201.044 262.962 201.215 261.88 201.407C261.148 201.536 260.406 201.608 259.675 201.742C258.732 201.915 257.799 202.14 256.855 202.311C256.263 202.419 255.661 202.491 255.06 202.537C254.031 202.614 252.999 202.692 251.967 202.707C250.609 202.727 249.251 202.693 247.894 202.668C247.687 202.664 247.482 202.585 247.276 202.541C247.554 202.46 247.828 202.346 248.112 202.306C248.571 202.241 249.038 202.235 249.5 202.185C250.158 202.115 250.813 202.014 251.472 201.951C252.194 201.882 252.924 201.884 253.64 201.78C254.732 201.621 255.811 201.372 256.903 201.209C257.86 201.067 258.833 201.029 259.786 200.871C260.593 200.737 261.376 200.465 262.181 200.311C263.159 200.124 264.161 200.053 265.128 199.829C266.241 199.571 267.341 199.237 268.423 198.868C269.697 198.433 270.944 197.923 272.205 197.45C273.596 196.929 274.993 196.426 276.376 195.883C276.672 195.767 276.914 195.513 277.181 195.322C276.792 195.152 276.409 194.963 276.009 194.826C275.906 194.791 275.751 194.939 275.613 194.973C275.056 195.113 274.501 195.311 273.935 195.353C273.434 195.39 272.86 195.281 272.892 194.57C272.905 194.288 273.029 193.828 273.213 193.764C275.755 192.874 277.527 191.078 279.006 188.935C279.101 188.797 279.001 188.319 278.905 188.29C278.309 188.114 277.693 187.962 277.075 187.914C276.277 187.851 275.47 187.914 274.669 187.882C273.685 187.844 272.684 187.615 271.725 187.739ZM225.385 160.615L225.43 161.309C225.526 162.859 225.919 184.083 226.033 185.362C226.055 185.604 226.449 186.06 226.667 186.091C227.414 186.198 232.266 187.324 232.266 185.362C232.204 182.458 232.339 162.665 232.24 162.638C231.311 162.388 225.601 160.661 225.385 160.615ZM74.3002 165.77C72.2464 166.358 70.2083 167.051 68.2448 167.891C65.9916 168.854 63.8104 169.992 61.6281 171.113C59.0796 172.422 56.5658 173.798 54.0322 175.137C53.2911 175.528 52.5429 175.908 51.7827 176.261C50.545 176.835 49.294 177.38 48.0515 177.944C47.9372 177.996 47.844 178.095 47.741 178.171C47.8578 178.229 47.9699 178.323 48.0919 178.338L49.1617 178.474C49.875 178.564 50.589 178.648 51.3051 178.704C51.7068 178.735 52.1222 178.548 52.5292 178.558C53.702 178.585 54.8738 178.656 56.0455 178.72C56.467 178.743 56.8866 178.799 57.3075 178.833C58.3942 178.921 59.4799 179.035 60.5684 179.085C61.9057 179.147 63.2454 179.155 64.6776 179.279C65.8681 179.217 67.0609 179.077 68.2486 179.112C69.7584 179.156 71.2623 179.386 72.7723 179.449C73.6156 179.484 74.4689 179.265 75.313 179.294C77.6951 179.377 80.0737 179.595 82.4557 179.634C84.5176 179.667 86.582 179.489 88.6458 179.475C92.8866 179.447 97.1277 179.455 101.369 179.475C102.341 179.48 103.312 179.598 104.285 179.645C104.398 179.651 104.517 179.538 104.633 179.48C104.557 179.413 104.488 179.333 104.403 179.281C101.74 177.657 99.0726 176.039 96.4105 174.413C94.1477 173.03 91.9279 171.571 89.6308 170.251L88.862 169.816C86.4153 168.457 84.2741 166.497 81.4269 165.901C80.3141 165.668 79.1981 165.303 78.0791 165.286C76.8189 165.267 75.511 165.423 74.3002 165.77Z" fill="#00160A"/>
<path fill-rule="evenodd" clip-rule="evenodd" d="M94.5741 154.249C96.0103 152.251 97.3206 150.237 98.8071 148.364C101.188 145.363 103.665 142.438 106.142 139.516C107.349 138.091 108.626 136.724 109.91 135.368C111.698 133.477 113.431 131.522 115.35 129.773C118.445 126.954 121.658 124.263 124.848 121.551C128.458 118.481 132.424 115.908 136.486 113.499C138.695 112.19 141.035 111.094 143.353 109.982C145.019 109.183 146.741 108.498 148.451 107.795C150.131 107.104 151.808 106.4 153.523 105.804C154.874 105.334 156.269 104.98 157.663 104.648C159.138 104.297 160.631 104.017 162.122 103.737C163.315 103.512 164.513 103.311 165.714 103.141C166.861 102.978 168.014 102.844 169.169 102.744C170.274 102.648 171.384 102.555 172.491 102.563C174.243 102.576 175.995 102.726 177.747 102.72C179.019 102.715 180.267 102.713 181.546 102.856C182.819 102.999 184.102 103.149 185.381 103.257C186.669 103.366 187.917 103.56 189.176 103.834C190.325 104.084 191.546 104.005 192.689 104.271C194.322 104.652 195.908 105.234 197.523 105.697C199.199 106.177 200.907 106.556 202.561 107.098C203.707 107.473 204.774 108.082 205.899 108.53C207.096 109.006 208.359 109.332 209.523 109.874C210.934 110.532 212.275 111.34 213.64 112.096C217.214 114.075 220.671 116.235 223.879 118.776C224.892 119.578 225.888 120.404 226.888 121.224C227.032 121.342 227.203 121.464 227.276 121.624C227.404 121.903 227.467 122.213 227.557 122.511C227.319 122.377 227.05 122.278 226.845 122.103C223.751 119.472 220.335 117.299 216.89 115.178C215.292 114.195 213.594 113.372 211.927 112.506C211.041 112.046 210.141 111.605 209.216 111.233C207.196 110.421 205.16 109.651 203.126 108.877C201.643 108.313 200.167 107.727 198.662 107.233C196.991 106.684 195.301 106.181 193.598 105.746C192.111 105.366 190.601 105.059 189.086 104.813C188.128 104.657 187.135 104.723 186.171 104.592C185.385 104.485 184.627 104.148 183.841 104.069C182.893 103.975 181.929 104.061 180.972 104.038C180.685 104.032 180.4 103.871 180.114 103.868C178.481 103.851 176.848 103.878 175.216 103.851C174.493 103.839 173.77 103.674 173.048 103.689C172.209 103.705 171.373 103.864 170.533 103.922C169.594 103.987 168.651 103.983 167.713 104.055C167.02 104.108 166.329 104.209 165.645 104.333C164.656 104.511 163.679 104.75 162.69 104.926C161.942 105.058 161.177 105.093 160.434 105.244C159.521 105.43 158.617 105.668 157.72 105.924C156.616 106.239 155.526 106.605 154.426 106.933C153.471 107.217 152.479 107.403 151.557 107.766C148.589 108.934 145.604 110.073 142.703 111.392C138.487 113.308 134.491 115.649 130.684 118.285C128.292 119.941 125.98 121.718 123.665 123.483C119.027 127.018 114.932 131.152 110.903 135.34C108.844 137.48 106.962 139.794 105.071 142.088C103.147 144.421 101.268 146.794 99.4482 149.209C97.6321 151.619 95.8687 154.072 94.1666 156.564C92.6648 158.763 91.2812 161.043 89.8369 163.281C89.7713 163.382 89.6221 163.43 89.5118 163.503C89.531 163.397 89.5251 163.277 89.5729 163.186C90.5384 161.339 91.4843 159.482 92.4897 157.658C93.1217 156.511 93.845 155.414 94.5741 154.249Z" fill="#00160A"/>
<path fill-rule="evenodd" clip-rule="evenodd" d="M274.935 130.622C273.759 131.121 272.694 131.666 271.589 132.109C269.357 133.004 267.146 133.942 264.811 134.584C263.321 134.994 261.859 135.386 260.308 135.517C259.221 135.608 258.16 136.15 257.081 136.175C255.584 136.209 254.353 136.8 253.181 137.563C252.089 138.272 251.104 139.146 250.035 139.895C249.651 140.164 249.174 140.371 248.713 140.443C248.029 140.552 247.322 140.509 246.625 140.542C245.403 140.599 244.182 140.713 242.96 140.714C241.737 140.715 240.514 140.607 239.291 140.549C239.105 140.54 238.917 140.523 238.733 140.544C237.702 140.662 236.657 140.718 235.646 140.933C234.379 141.202 233.136 141.59 231.89 141.951C230.768 142.275 229.605 142.519 228.55 142.997C226.551 143.903 224.618 144.952 222.655 145.937C222.513 146.009 222.355 146.05 222.204 146.105C222.285 145.995 222.351 145.868 222.449 145.777C223.389 144.901 224.226 143.851 225.305 143.205C226.732 142.351 228.318 141.726 229.896 141.172C231.139 140.735 232.468 140.536 233.766 140.263C234.919 140.021 236.074 139.77 237.241 139.618C238.638 139.436 240.047 139.292 241.453 139.25C242.61 139.216 243.782 139.48 244.929 139.388C246.613 139.253 248.298 138.994 249.949 138.63C250.563 138.494 251.243 138.031 251.607 137.516C252.331 136.492 253.34 135.85 254.396 135.42C255.359 135.027 256.502 135.08 257.563 134.924C258.551 134.778 259.538 134.625 260.522 134.458C261.365 134.314 262.229 134.227 263.038 133.97C264.111 133.63 265.13 133.122 266.19 132.737C266.749 132.534 267.378 132.513 267.921 132.282C269.339 131.679 270.718 130.983 272.131 130.367C273.299 129.858 274.49 129.401 275.678 128.94C277.55 128.212 279.404 127.425 281.313 126.808C282.453 126.439 283.686 126.359 284.873 126.126C285.714 125.961 286.541 125.653 287.387 125.601C288.352 125.542 289.333 125.672 290.303 125.763C291.062 125.835 291.816 125.97 292.572 126.083C292.958 126.141 292.922 126.336 292.642 126.471C291.788 126.885 290.93 127.174 289.922 127.097C288.898 127.019 287.853 127.17 286.821 127.259C285.653 127.359 284.473 127.423 283.328 127.65C282.214 127.871 281.124 128.241 280.046 128.612C278.948 128.99 277.875 129.444 276.795 129.875C276.202 130.112 275.617 130.372 274.935 130.622Z" fill="#00160A"/>
<path fill-rule="evenodd" clip-rule="evenodd" d="M275.543 238.558C276.009 239.397 276.657 240.157 276.776 240.993C276.881 241.722 277.188 242.621 276.465 243.378C275.726 244.152 275.133 245.064 274.463 245.905C273.206 247.482 271.492 248.049 269.548 248.157C268.029 248.241 266.514 248.417 264.995 248.517C263.641 248.607 262.283 248.65 260.927 248.71C259.446 248.775 257.965 248.872 256.484 248.884C255.513 248.892 254.538 248.691 253.57 248.727C251.626 248.801 249.881 248.275 248.649 246.79C247.517 245.427 247.061 243.886 247.478 241.935C248.246 238.346 250.353 235.744 252.936 233.41C253.731 232.692 254.695 232.13 255.649 231.624C256.873 230.974 258.117 230.17 259.439 229.946C261.252 229.638 263.03 229.182 265.014 229.531C268.186 230.089 270.497 231.687 272.377 234.103C273.481 235.522 274.461 237.038 275.543 238.558M275.59 240.289C273.925 237.407 272.256 234.496 269.558 232.451C268.443 231.606 267.065 230.983 265.711 230.614C264.468 230.275 263.137 230.375 261.778 230.617C260.117 230.915 258.513 231.276 256.983 231.955C254.805 232.922 252.966 234.38 251.455 236.192C249.253 238.834 247.455 241.618 248.808 245.348C249.315 246.749 251.103 247.858 252.606 247.615C253.514 247.469 254.467 247.581 255.398 247.613C256.186 247.64 256.976 247.795 257.759 247.758C259.113 247.694 260.459 247.465 261.813 247.415C263.504 247.352 265.199 247.4 266.893 247.4C267.496 247.4 268.114 247.485 268.698 247.381C269.719 247.199 270.779 247.038 271.715 246.625C274.026 245.606 276.543 243.557 275.59 240.289Z" fill="#00160A"/>
<path fill-rule="evenodd" clip-rule="evenodd" d="M132.003 244.266C132.909 243.172 133.87 242.192 134.602 241.063C135.529 239.633 135.609 238.009 135.408 236.311C135.232 234.825 135.791 233.487 136.807 232.332C137.943 231.04 139.442 230.355 140.962 229.711C142.328 229.132 143.703 229.58 144.965 230.069C145.542 230.293 146.019 231.008 146.345 231.607C147.234 233.241 147.688 235.049 148.301 236.796C148.784 238.17 148.386 239.265 147.751 240.218C147.134 241.143 146.146 241.879 145.196 242.508C144.019 243.286 142.762 243.995 141.45 244.503C140.045 245.047 138.538 245.331 137.072 245.712C136.496 245.861 135.913 246 135.325 246.079C134.886 246.137 134.432 246.073 133.986 246.093C132.582 246.157 131.179 246.257 129.775 246.299C128.669 246.332 127.56 246.299 126.453 246.294C125.271 246.289 124.089 246.256 122.908 246.285C121.718 246.313 120.529 246.404 119.34 246.463C119.091 246.475 118.84 246.45 118.593 246.47C118.438 246.482 118.288 246.546 118.136 246.586C118.261 246.421 118.353 246.166 118.517 246.105C119.513 245.736 120.528 245.425 121.615 245.528C121.646 245.531 121.677 245.531 121.708 245.528C123.015 245.423 124.321 245.309 125.629 245.217C126.21 245.176 126.795 245.172 127.378 245.163C128.012 245.153 128.647 245.146 129.282 245.158C129.74 245.167 130.243 245.341 130.645 245.204C131.127 245.039 131.523 244.621 132.003 244.266M136.728 234.861C136.718 235.537 136.724 236.213 136.692 236.887C136.645 237.846 136.784 238.884 136.462 239.745C135.794 241.529 134.704 243.101 133.326 244.451C133.119 244.653 132.985 244.93 132.817 245.173C133.147 245.229 133.478 245.335 133.807 245.329C134.199 245.321 134.596 245.246 134.977 245.149C136.142 244.852 137.338 244.63 138.453 244.198C140.686 243.332 142.896 242.399 145.068 241.391C146.228 240.853 147.056 239.901 147.095 238.539C147.118 237.732 146.982 236.92 146.856 236.109C146.639 234.708 145.998 233.552 145.433 232.328C145.023 231.44 144.222 230.883 143.381 230.801C142.392 230.705 141.314 230.895 140.359 231.214C138.629 231.791 137.382 232.968 136.728 234.861Z" fill="#00160A"/>
<path fill-rule="evenodd" clip-rule="evenodd" d="M220.429 145.64C219.945 143.948 220.853 142.686 221.705 141.5C223.595 138.868 226.263 137.192 229.163 135.87C230.421 135.296 231.692 134.727 233.006 134.308C234.585 133.805 236.215 133.466 237.823 133.054C238.047 132.996 238.267 132.893 238.494 132.875C239.104 132.826 238.838 132.592 238.607 132.381C237.207 131.099 235.803 129.821 234.398 128.544C233.765 127.968 233.118 127.406 232.497 126.818C232.308 126.638 232.136 126.409 232.042 126.168C231.954 125.94 231.978 125.667 231.953 125.414C232.188 125.503 232.479 125.531 232.649 125.689C234.768 127.655 236.866 129.643 238.976 131.619C239.238 131.865 239.692 132.323 239.784 132.263C240.145 132.028 240.536 131.67 240.659 131.276C240.951 130.349 241.047 129.362 241.309 128.423C241.786 126.712 243.115 125.744 244.6 125.024C246.422 124.141 248.292 123.353 250.166 122.583C252.524 121.613 254.911 120.714 257.278 119.764C259.484 118.879 261.638 117.836 263.897 117.125C265.002 116.777 266.294 117.022 267.502 117.007C267.546 117.007 267.592 117.096 267.636 117.144C267.557 117.207 267.487 117.3 267.397 117.33C264.978 118.146 262.543 118.916 260.143 119.781C258.486 120.377 256.884 121.123 255.242 121.762C254.556 122.028 253.802 122.128 253.126 122.413C251.708 123.01 250.33 123.699 248.919 124.312C247.881 124.763 246.789 125.095 245.77 125.583C244.391 126.244 242.943 126.911 242.49 128.566C242.321 129.183 242.559 129.933 242.325 130.504C241.999 131.302 241.529 132.127 240.899 132.695C239.602 133.865 237.944 134.365 236.256 134.748C235.229 134.981 234.234 135.376 233.2 135.563C231.116 135.94 229.202 136.758 227.366 137.747C224.83 139.113 222.832 141.076 221.454 143.613C221.08 144.301 220.924 145.107 220.659 145.855C220.63 145.936 220.539 145.994 220.477 146.062C220.476 145.937 220.476 145.812 220.429 145.64Z" fill="#00160A"/>
<path fill-rule="evenodd" clip-rule="evenodd" d="M196.708 207.913C195.289 207.85 193.963 207.733 192.637 207.741C191.276 207.749 189.952 207.623 188.602 207.408C187.494 207.23 186.407 207.167 185.383 206.627C184.858 206.35 184.668 206.088 184.702 205.462C184.752 204.527 184.544 203.581 184.556 202.641C184.587 200.257 185.174 198.05 187.015 196.387C187.879 195.606 189.003 195.333 190.086 194.921C191.785 194.274 193.258 195.014 194.731 195.287C196.203 195.56 197.546 196.578 198.92 197.317C200 197.898 201.156 198.419 202.063 199.212C202.865 199.913 203.461 200.904 203.978 201.859C204.374 202.592 204.692 203.466 204.699 204.279C204.705 204.977 204.339 205.761 203.924 206.36C203.216 207.383 202.098 207.646 200.889 207.54C200.766 207.529 200.639 207.528 200.515 207.54C199.277 207.662 198.04 207.788 196.708 207.913M202.791 204.357C203 203.88 203.475 203.323 203.362 202.942C203.129 202.156 202.742 201.268 202.134 200.768C199.464 198.57 196.622 196.671 193.117 195.959C191.262 195.582 189.583 195.802 187.958 196.687C186.752 197.343 186.651 198.346 187.691 199.174C188.252 199.62 188.814 200.065 189.387 200.495C191.826 202.322 194.53 203.612 197.484 204.342C198.6 204.618 199.752 204.813 200.898 204.884C201.486 204.921 202.097 204.606 202.791 204.357M202.229 206.415C202.49 206.177 202.75 205.938 203.011 205.699C202.669 205.707 202.327 205.705 201.987 205.728C201.878 205.736 201.769 205.856 201.668 205.846C200.419 205.732 199.161 205.669 197.927 205.46C196.891 205.284 195.834 205.05 194.875 204.635C193.61 204.087 192.41 203.372 191.221 202.664C189.637 201.72 188.008 200.819 186.958 199.204C186.835 199.014 186.604 198.895 186.423 198.742C186.296 198.951 186.104 199.144 186.052 199.369C185.839 200.305 185.645 201.246 185.488 202.192C185.384 202.814 185.298 203.449 185.305 204.077C185.317 205.16 186.084 206.178 186.863 206.226C188.053 206.298 189.285 206.183 190.425 206.456C192.072 206.851 193.714 206.771 195.361 206.777C196.52 206.781 197.678 206.654 198.838 206.606C199.936 206.56 201.036 206.54 202.229 206.415Z" fill="#00160A"/>
<path fill-rule="evenodd" clip-rule="evenodd" d="M218.371 144.704C218.265 144.224 218.146 143.789 218.16 143.358C218.188 142.469 218.204 141.566 218.372 140.697C219.01 137.403 221.365 135.336 223.722 133.245C225.704 131.488 227.748 129.767 228.956 127.305C229.426 126.345 229.363 125.403 229.338 124.37C229.277 121.916 227.931 120.198 226.251 118.782C224.527 117.328 222.57 116.143 220.668 114.911C218.292 113.372 216.271 111.536 214.981 108.956C214.209 107.412 214.593 104.345 215.868 103.165C216.177 102.879 216.666 102.655 217.076 102.648C217.547 102.64 217.776 103.062 217.665 103.565C217.642 103.669 217.59 103.825 217.515 103.85C216.503 104.193 215.518 106.785 216.21 107.767C216.711 108.477 216.891 109.449 217.472 110.059C218.618 111.264 219.916 112.332 221.2 113.397C223.349 115.179 225.598 116.846 227.688 118.694C229.251 120.077 230.371 121.885 230.816 123.916C231.041 124.942 230.84 126.153 230.35 127.205C229.355 129.343 227.802 130.993 226.019 132.518C223.91 134.322 221.578 135.972 220.236 138.492C219.633 139.622 219.226 140.918 219.03 142.185C218.878 143.171 219.198 144.229 219.288 145.257C219.301 145.402 219.196 145.557 219.145 145.708C219.027 145.618 218.879 145.55 218.798 145.434C218.65 145.221 218.542 144.98 218.371 144.704Z" fill="#00160A"/>
<path fill-rule="evenodd" clip-rule="evenodd" d="M320.271 205.526C320.135 206.411 320.133 207.269 319.937 208.081C319.644 209.297 319.28 210.506 318.827 211.672C318.3 213.029 317.682 214.354 317.029 215.656C316.599 216.513 316.064 217.323 315.518 218.115C315.326 218.393 314.96 218.551 314.676 218.767C314.072 219.23 313.921 218.493 313.924 218.328C313.955 216.833 313.878 215.34 314.328 213.856C314.657 212.772 314.63 211.584 314.82 210.453C314.947 209.69 315.192 208.948 315.356 208.191C315.603 207.056 315.812 205.912 316.062 204.777C316.487 202.843 316.935 200.929 318.85 199.812C319.233 199.588 319.411 199.59 319.796 199.841C320.666 200.407 321.033 201.061 320.804 202.119C320.565 203.223 320.474 204.358 320.271 205.526M319.85 203.889C319.893 203.035 319.968 202.18 319.96 201.326C319.958 201.087 319.766 200.765 319.563 200.642C319.41 200.549 319.007 200.629 318.879 200.775C318.475 201.24 318.059 201.731 317.808 202.285C317.038 203.985 316.597 205.76 316.426 207.643C316.286 209.183 315.792 210.691 315.456 212.213C315.36 212.651 315.249 213.086 315.175 213.528C314.977 214.706 314.794 215.885 314.612 217.065C314.575 217.306 314.572 217.552 314.553 217.795C314.821 217.626 315.225 217.52 315.337 217.279C316.187 215.443 317.031 213.601 317.774 211.72C318.3 210.389 318.709 209.007 319.082 207.624C319.26 206.965 319.184 206.241 319.317 205.565C319.417 205.053 319.667 204.571 319.85 203.889Z" fill="#00160A"/>
<path fill-rule="evenodd" clip-rule="evenodd" d="M93.0301 248.336C92.3539 248.211 91.7752 248.062 91.1877 247.967C90.2756 247.82 89.3463 247.763 88.4451 247.571C87.353 247.338 86.2744 247.03 85.2052 246.704C84.2383 246.41 83.2912 246.05 82.3392 245.708C82.3052 245.696 82.2788 245.524 82.3044 245.506C82.5157 245.359 82.7291 245.14 82.9624 245.112C84.8866 244.878 86.512 245.989 88.3107 246.345C89.8081 246.641 91.2728 247.109 92.7741 247.377C93.7881 247.559 94.8419 247.508 95.8752 247.595C96.3541 247.635 96.8272 247.749 97.3017 247.836C98.5382 248.063 99.7676 248.342 101.012 248.508C102.038 248.644 103.088 248.592 104.114 248.728C104.898 248.832 105.665 249.082 106.431 249.297C107.92 249.714 109.403 250.151 110.888 250.583C110.981 250.61 111.066 250.663 111.154 250.704C111.07 250.726 110.983 250.772 110.901 250.765C110.008 250.689 109.113 250.633 108.226 250.517C107.179 250.38 106.141 250.182 105.096 250.028C104.541 249.946 103.981 249.898 103.422 249.839C102.196 249.711 100.962 249.628 99.7435 249.446C98.6814 249.288 97.6429 248.969 96.5804 248.814C95.5046 248.658 94.4119 248.619 93.3277 248.516C93.2547 248.509 93.1915 248.398 93.0301 248.336Z" fill="#00160A"/>
<path fill-rule="evenodd" clip-rule="evenodd" d="M210.751 157.477C212.34 156.913 215.753 159.515 214.645 162.183C213.364 165.264 209.393 164.677 208.34 163.345C206.361 160.845 207.728 158.55 210.751 157.477ZM208.905 159.869C206.913 161.774 210.252 164.001 211.734 163.503C215.662 162.183 213.176 155.781 208.905 159.869Z" fill="#00160A"/>
<path fill-rule="evenodd" clip-rule="evenodd" d="M320.552 209.924C321.508 208.173 322.278 206.366 323.957 205.222C324.158 205.084 324.563 204.911 324.641 204.988C324.856 205.203 325.069 205.54 325.071 205.83C325.093 208.538 323.331 210.559 322.274 212.847C321.716 214.054 320.92 215.151 320.22 216.291C320.081 216.519 319.908 216.732 319.72 216.922C319.545 217.1 319.178 217.393 319.154 217.369C318.859 217.083 318.486 216.781 318.388 216.415C318.29 216.048 318.431 215.591 318.548 215.197C318.966 213.791 319.398 212.387 319.87 210.998C319.997 210.627 320.289 210.312 320.552 209.924M319.569 213.714C319.444 214.4 319.316 215.085 319.196 215.772C319.167 215.942 319.165 216.117 319.15 216.289C319.321 216.141 319.552 216.025 319.654 215.839C320.971 213.427 322.297 211.02 323.556 208.578C323.902 207.907 324.048 207.13 324.252 206.393C324.279 206.294 324.133 206.064 324.025 206.032C323.906 205.996 323.659 206.074 323.605 206.175C322.28 208.651 320.973 211.137 319.569 213.714Z" fill="#00160A"/>
<path fill-rule="evenodd" clip-rule="evenodd" d="M217.838 148.879C217.838 146.062 223.935 148.322 224.452 149.139C224.581 149.343 224.847 157.103 224.393 156.012C223.909 154.79 224.244 149.868 223.714 149.529C222 148.682 219.926 148.245 219.111 148.533C217.703 148.863 219.202 154.828 218.314 153.818C218.262 153.641 218.215 153.463 218.158 153.289C218.093 153.093 217.838 150.245 217.838 148.879Z" fill="#00160A"/>
<path fill-rule="evenodd" clip-rule="evenodd" d="M244.243 138.295C243.827 138.222 243.383 138.258 243.203 138.057C242.343 137.098 241.553 136.076 240.744 135.072C240.615 134.912 240.515 134.729 240.402 134.557C240.786 134.502 241.315 134.261 241.528 134.427C242.094 134.867 242.577 135.446 242.994 136.039C243.495 136.753 243.894 137.54 244.243 138.295Z" fill="#00160A"/>
<path fill-rule="evenodd" clip-rule="evenodd" d="M221.412 149.415C221.433 149.175 222.025 149.708 222.041 149.9C222.126 150.973 222.54 155.705 222.155 155.207C221.937 154.746 221.737 153.466 221.641 152.961C221.546 152.455 221.412 150.997 221.412 149.415Z" fill="#00160A"/>
<path fill-rule="evenodd" clip-rule="evenodd" d="M230.648 171.626C230.636 172.712 230.673 173.798 230.648 174.883C230.634 175.525 228.912 175.779 228.155 175.397C227.396 175.013 227.633 172.07 227.591 171.626C227.457 170.235 227.403 168.832 227.19 167.453C227.05 166.546 226.957 165.453 227.39 165.313C228.96 164.805 230.356 166.761 230.287 166.83C230.468 168.237 230.65 171.472 230.648 171.626ZM228.336 168.519C228.398 168.773 228.478 173.207 228.587 174.788C228.605 175.05 229.619 175.05 229.839 174.591C230.049 173.324 229.61 168.795 229.619 167.284C229.62 167.041 229.315 166.695 229.065 166.572C228.24 166.165 228.092 166.28 228.155 167.194C228.181 167.575 228.274 167.952 228.336 168.519Z" fill="#00160A"/>
<path fill-rule="evenodd" clip-rule="evenodd" d="M175.51 194.213C175.759 194.117 176.038 194.24 176.134 194.489C176.23 194.738 176.107 195.017 175.858 195.113C164.805 199.383 164.805 207.741 176.048 220.628C186.101 232.151 204.899 242.811 232.439 252.583C232.69 252.672 232.822 252.948 232.732 253.199C232.643 253.45 232.367 253.582 232.116 253.493C204.434 243.671 185.504 232.936 175.32 221.263C163.697 207.939 163.697 198.776 175.51 194.213Z" fill="#E7EAEE"/>
<path d="M194.171 250.608C194.258 250.356 194.533 250.222 194.785 250.31C195.037 250.397 195.171 250.672 195.084 250.923C192.938 257.127 189.021 262.296 183.342 266.422C177.682 270.535 168.331 274.257 155.277 277.606C155.019 277.672 154.756 277.517 154.69 277.258C154.623 277 154.779 276.737 155.037 276.671L155.945 276.436C168.417 273.176 177.364 269.573 182.774 265.642C188.296 261.629 192.092 256.621 194.171 250.608Z" fill="black"/>
<path fill-rule="evenodd" clip-rule="evenodd" d="M194.708 255.891C194.768 255.632 195.028 255.471 195.287 255.531C195.547 255.592 195.708 255.851 195.648 256.111C193.712 264.408 189.592 270.345 183.295 273.888C177.074 277.388 170.369 279.769 163.183 281.029C162.92 281.075 162.67 280.9 162.624 280.637C162.578 280.375 162.753 280.124 163.016 280.078C170.095 278.837 176.696 276.493 182.821 273.047C188.871 269.643 192.831 263.936 194.708 255.891Z" fill="#E7EAEE"/>
<path fill-rule="evenodd" clip-rule="evenodd" d="M224.915 255.405C224.978 255.146 225.239 254.987 225.498 255.049C235.032 257.345 243.472 258.626 250.816 258.895L251.367 258.914C258.703 259.135 269.301 258.549 283.153 257.155C283.418 257.128 283.655 257.321 283.682 257.587C283.708 257.852 283.515 258.088 283.25 258.115L281.165 258.321C267.947 259.604 257.821 260.118 250.781 259.86C243.367 259.589 234.864 258.297 225.272 255.988C225.013 255.925 224.853 255.665 224.915 255.405Z" fill="#E7EAEE"/>
<path fill-rule="evenodd" clip-rule="evenodd" d="M154.376 198.642C154.595 198.489 154.896 198.541 155.049 198.759C155.202 198.977 155.15 199.278 154.931 199.432C152.249 201.317 150.841 203.223 150.663 205.136C150.483 207.073 151.566 209.743 153.942 213.114C154.096 213.331 154.044 213.633 153.826 213.786C153.608 213.94 153.307 213.888 153.153 213.67C150.656 210.129 149.496 207.266 149.702 205.047C149.911 202.805 151.484 200.674 154.376 198.642Z" fill="#00160A"/>
<path fill-rule="evenodd" clip-rule="evenodd" d="M155.416 200.857C155.57 200.748 155.783 200.786 155.891 200.94C156 201.094 155.963 201.307 155.808 201.416C153.91 202.749 152.915 204.098 152.789 205.452C152.661 206.822 153.427 208.711 155.108 211.095C155.217 211.249 155.18 211.463 155.026 211.571C154.872 211.68 154.659 211.643 154.55 211.489C152.784 208.984 151.963 206.958 152.109 205.388C152.256 203.802 153.369 202.295 155.416 200.857Z" fill="#00160A"/>
</svg>
