<svg width="17" height="19" viewBox="0 0 17 19" fill="none" xmlns="http://www.w3.org/2000/svg">
<path d="M4.50342 18.5151C3.2998 18.5151 2.51953 17.7515 2.46143 16.5645L1.88037 4.48682H0.892578C0.560547 4.48682 0.27002 4.20459 0.27002 3.85596C0.27002 3.51562 0.560547 3.2334 0.892578 3.2334H4.66113V1.96338C4.66113 0.759766 5.44141 0.0292969 6.71973 0.0292969H9.87402C11.1523 0.0292969 11.9326 0.759766 11.9326 1.96338V3.2334H15.7261C16.0664 3.2334 16.3403 3.51562 16.3403 3.85596C16.3403 4.19629 16.0664 4.48682 15.7261 4.48682H14.73L14.1572 16.5562C14.0991 17.7432 13.3022 18.5151 12.1152 18.5151H4.50342ZM5.98096 2.04639V3.2334H10.6128V2.04639C10.6128 1.57324 10.2808 1.26611 9.78271 1.26611H6.81104C6.31299 1.26611 5.98096 1.57324 5.98096 2.04639ZM4.61963 17.2617H11.9824C12.4722 17.2617 12.8291 16.9131 12.8457 16.415L13.3936 4.48682H3.18359L3.76465 16.415C3.78955 16.9048 4.14648 17.2617 4.61963 17.2617ZM5.84814 15.8423C5.54102 15.8423 5.3335 15.6514 5.3252 15.3525L5.07617 6.479C5.06787 6.18848 5.27539 5.98926 5.59082 5.98926C5.88965 5.98926 6.09717 6.18018 6.10547 6.4707L6.36279 15.3525C6.37109 15.6431 6.16357 15.8423 5.84814 15.8423ZM8.30518 15.8423C7.98975 15.8423 7.77393 15.6431 7.77393 15.3525V6.479C7.77393 6.18848 7.98975 5.98926 8.30518 5.98926C8.62061 5.98926 8.84473 6.18848 8.84473 6.479V15.3525C8.84473 15.6431 8.62061 15.8423 8.30518 15.8423ZM10.7705 15.8423C10.4551 15.8423 10.2476 15.6431 10.2559 15.3525L10.5049 6.479C10.5132 6.18018 10.7207 5.98926 11.0195 5.98926C11.335 5.98926 11.5425 6.18848 11.5342 6.479L11.2852 15.3525C11.2769 15.6514 11.0693 15.8423 10.7705 15.8423Z" fill="black"/>
</svg>
