<svg width="34" height="35" viewBox="0 0 34 35" fill="none" xmlns="http://www.w3.org/2000/svg">
<rect x="7.83136" width="5.38929" height="35" rx="2.69464" fill="black"/>
<rect width="4.56251" height="8.97436" transform="matrix(0.00646077 -0.999979 0.999953 -0.00974318 0.733948 20.2501)" fill="black"/>
<path d="M17.3212 4.91385C19.417 4.92079 21.4907 5.26578 23.424 5.92913C25.3573 6.59247 27.1122 7.56118 28.5887 8.77995C30.0651 9.99872 31.2342 11.4437 32.029 13.0323C32.8239 14.621 33.229 16.3222 33.2212 18.0389C33.2134 19.7555 32.7929 21.454 31.9837 23.0373C31.1745 24.6207 29.9924 26.0579 28.505 27.2668C27.0176 28.4758 25.2539 29.4329 23.3146 30.0834C21.3754 30.7339 19.2986 31.0652 17.2028 31.0582L17.2204 27.1782C18.6941 27.1831 20.1545 26.9502 21.5181 26.4927C22.8818 26.0353 24.122 25.3623 25.1679 24.5122C26.2139 23.662 27.0451 22.6514 27.6141 21.5381C28.1831 20.4247 28.4788 19.2303 28.4843 18.0232C28.4898 16.816 28.2049 15.6198 27.646 14.5027C27.087 13.3855 26.265 12.3695 25.2268 11.5124C24.1886 10.6554 22.9545 9.97423 21.595 9.50778C20.2356 9.04132 18.7773 8.79873 17.3036 8.79385L17.3212 4.91385Z" fill="black"/>
<ellipse cx="20.3246" cy="17.5001" rx="5.63426" ry="4.73529" fill="black"/>
</svg>
