<svg width="186" height="200" viewBox="0 0 186 200" fill="none" xmlns="http://www.w3.org/2000/svg">
<rect x="40.4326" width="30.7018" height="199.389" rx="7" fill="black"/>
<rect width="25.9918" height="51.1254" transform="matrix(0.00646077 -0.999979 0.999953 -0.00974318 0 115.361)" fill="black"/>
<path d="M94.4945 27.994C106.434 28.0335 118.248 29.9989 129.261 33.7779C140.275 37.5568 150.273 43.0754 158.684 50.0185C167.095 56.9616 173.754 65.1933 178.283 74.2436C182.811 83.2938 185.118 92.9854 185.074 102.765C185.03 112.544 182.634 122.22 178.025 131.24C173.415 140.26 166.681 148.448 158.207 155.335C149.733 162.222 139.686 167.675 128.638 171.38C117.591 175.086 105.76 176.974 93.8203 176.934L93.9204 154.83C102.316 154.858 110.635 153.531 118.404 150.925C126.172 148.319 133.238 144.485 139.196 139.642C145.155 134.799 149.89 129.042 153.132 122.699C156.373 116.356 158.058 109.552 158.089 102.676C158.12 95.7988 156.497 88.9838 153.313 82.6198C150.129 76.2558 145.446 70.4673 139.531 65.585C133.617 60.7027 126.587 56.8221 118.842 54.1648C111.097 51.5075 102.79 50.1255 94.3945 50.0977L94.4945 27.994Z" fill="black"/>
<ellipse cx="111.605" cy="99.6946" rx="32.0974" ry="26.9761" fill="black"/>
</svg>
